<svg width="15" height="19" viewBox="0 0 15 19" fill="none" xmlns="http://www.w3.org/2000/svg">
<path fill-rule="evenodd" clip-rule="evenodd" d="M2.94747 3.06173C5.44659 0.570115 9.51296 0.570115 12.0121 3.06173C14.4053 5.44777 14.3841 9.26965 11.9697 12.1413L7.47978 17.4835L2.98983 12.1413C0.57542 9.26965 0.55424 5.44777 2.94747 3.06173ZM2.07913 12.9015L7.03502 18.7927C7.24681 19.0461 7.62803 19.0672 7.88218 18.856C7.90336 18.8349 7.92454 18.8138 7.94571 18.7927L12.9016 12.9015C14.1935 11.4023 14.9348 9.4808 14.9983 7.49596C15.0407 5.51111 14.2782 3.61073 12.8804 2.21711C9.91536 -0.739038 5.10773 -0.739038 2.12149 2.21711C0.723673 3.61073 -0.0599507 5.53223 0.00358634 7.49596C0.0459444 9.4808 0.78721 11.3812 2.07913 12.9015ZM7.47978 5.04657C6.10314 5.04657 5.00183 6.14457 5.00183 7.51707C5.00183 8.88957 6.12432 9.98757 7.47978 9.98757C8.83523 9.98757 9.95772 8.88957 9.95772 7.51707C9.95772 6.16569 8.85641 5.04657 7.47978 5.04657ZM7.47978 11.1911C9.51296 11.1911 11.1437 9.54415 11.1437 7.53819C11.1437 5.53223 9.51296 3.86411 7.47978 3.86411C5.44659 3.86411 3.81581 5.51111 3.81581 7.51707C3.81581 9.54415 5.46777 11.1911 7.47978 11.1911Z" fill="#003C7E"/>
</svg>
