<svg width="65" height="65" viewBox="0 0 65 65" fill="none" xmlns="http://www.w3.org/2000/svg">
<path d="M58.2541 57.1298L55.5135 54.3395L52.9135 56.9867L55.6541 59.7771C56.0054 60.1348 56.4973 60.3494 56.9189 60.3494C57.4108 60.3494 57.8324 60.1348 58.1838 59.7771L58.2541 59.7055C58.6054 59.3478 58.7459 58.9185 58.7459 58.4177C58.7459 57.9884 58.6054 57.4875 58.2541 57.1298ZM17.427 35.8087C17.0054 35.8087 16.7243 35.5225 16.7243 35.0933C16.7243 34.664 17.0054 34.3778 17.427 34.3778C17.8486 34.3778 18.1297 34.664 18.1297 35.0933C18.1297 35.5225 17.8486 35.8087 17.427 35.8087ZM39.7027 63.4975V59.7771H35.8378C35.3459 59.7771 34.8541 59.9917 34.573 60.3494C34.2216 60.7072 34.0108 61.1364 34.0108 61.6373C34.0108 62.1381 34.2216 62.6389 34.573 62.9251C34.9243 63.2829 35.3459 63.4975 35.8378 63.4975H39.7027ZM41.1081 59.7771V63.4975H44.973C45.4649 63.4975 45.9568 63.2829 46.2378 62.9251C46.5892 62.5674 46.8 62.1381 46.8 61.6373C46.8 61.1364 46.5892 60.6356 46.2378 60.3494C45.8865 59.9917 45.4649 59.7771 44.973 59.7771H41.1081ZM37.0324 58.3461H42.7243V56.629H38.8595C38.3676 56.629 37.8757 56.8436 37.5946 57.2014C37.2432 57.4875 37.0324 57.8453 37.0324 58.3461ZM44.1297 58.3461H44.973C45.8865 58.3461 46.6595 58.7038 47.2919 59.3478C47.573 59.634 47.8541 59.9917 47.9946 60.421H48.0649C48.5568 60.421 49.0486 60.2063 49.3297 59.8486C49.6811 59.4909 49.8919 59.0616 49.8919 58.5608C49.8919 58.0599 49.6811 57.5591 49.3297 57.2729C48.9784 56.9152 48.5568 56.7005 48.0649 56.7005H44.2L44.1297 58.3461ZM48.2054 61.7804C48.1351 62.6389 47.7838 63.426 47.2919 63.9983C46.7297 64.5707 45.8865 65 44.973 65H35.7676C34.8541 65 34.0811 64.6423 33.4486 63.9983C32.8865 63.426 32.4649 62.5674 32.4649 61.6373C32.4649 60.7072 32.8162 59.9202 33.4486 59.2762C33.7297 58.99 34.0811 58.7038 34.5027 58.5608C33.8 58.6323 33.0973 58.6323 32.4649 58.6323C31.3405 58.6323 30.2162 58.5607 29.1622 58.4892V60.1348C29.1622 61.4226 28.6703 62.6389 27.827 63.4975C26.9838 64.3561 25.7892 64.8569 24.5243 64.8569H6.95676C5.62162 64.8569 4.63784 64.3561 3.65405 63.4975C2.81081 62.6389 2.31892 61.4226 2.31892 60.1348V39.0999C2.31892 37.8121 2.81081 36.5958 3.65405 35.7372C4.21622 35.1648 4.98919 34.7355 5.76216 34.5209C5.05946 32.8038 4.4973 31.0151 4.14595 29.2264C3.79459 27.4377 3.58378 25.649 3.51351 23.7888C2.6 23.6457 1.82703 23.2164 1.26486 22.5725C0.491892 21.7855 0 20.7838 0 19.5675C0 18.3512 0.491892 17.3496 1.19459 16.5625C1.8973 15.7755 2.95135 15.3462 4.14595 15.3462H39.1405C39.0703 13.5576 39.4216 11.8404 40.0541 10.2664C41.1784 7.4045 43.1459 4.97189 45.6757 3.18321C48.2054 1.39453 51.227 0.249779 54.3189 0.0351373C56.4973 -0.107957 58.7459 0.178232 60.8541 1.0368C61.3459 1.17989 61.4865 1.89536 61.1351 2.2531C57.973 5.25808 57.6216 8.83544 57.3405 12.1266C57.2 13.2714 57.1297 14.3446 56.9189 15.4178H60.8541C61.9784 15.4178 63.0324 15.9186 63.8054 16.6341C64.5784 17.4211 65 18.4228 65 19.6391C65 20.7838 64.5081 21.857 63.8054 22.6441C63.173 23.288 62.4 23.7173 61.5568 23.8604C61.4162 31.7305 58.1838 38.8137 53.0541 44.0367C52.1405 44.9668 51.0865 45.8969 50.0324 46.6839V48.6872C50.2432 48.6872 50.3838 48.6157 50.5946 48.6157C51.4378 48.6157 52.2811 48.9734 52.9135 49.5458L59.4486 56.1997C60.0811 56.8436 60.3622 57.7022 60.3622 58.5608C60.3622 59.3478 60.0811 60.2063 59.4486 60.8503L59.3784 60.9218C58.7459 61.5657 57.9027 61.8519 57.0595 61.8519C56.2162 61.8519 55.373 61.5657 54.7405 60.9218L51.0162 57.1298C51.227 57.5591 51.3676 58.0599 51.3676 58.5608C51.3676 59.4909 51.0162 60.2779 50.3838 60.9218C49.7514 61.3511 49.0486 61.7088 48.2054 61.7804ZM27.6865 42.1049H3.65405V57.1298H27.6865V42.1049ZM3.65405 40.674H27.6865V39.0999C27.6865 38.1698 27.3351 37.3828 26.7027 36.7389C26.2108 36.1665 25.2973 35.8087 24.4541 35.8087H22.4162C21.9946 35.8087 21.7135 35.5225 21.7135 35.0933V32.1598H9.76757V34.3778H15.4595C15.8811 34.3778 16.1622 34.664 16.1622 35.0933C16.1622 35.5225 15.8811 35.8087 15.4595 35.8087H6.88649C5.97297 35.8087 5.2 36.1665 4.56757 36.8104C4.00541 37.3828 3.58378 38.2413 3.58378 39.1715L3.65405 40.674ZM27.6865 58.5608H3.65405V60.1348C3.65405 61.0649 4.00541 61.8519 4.63784 62.4958C5.2 63.1398 6.11351 63.4975 6.95676 63.4975H24.5243C25.4378 63.4975 26.2108 63.1398 26.8432 62.4958C27.4054 61.9235 27.827 61.0649 27.827 60.1348L27.6865 58.5608ZM16.7243 47.8287C16.7243 47.3994 17.0054 47.1132 17.427 47.1132C17.8486 47.1132 18.1297 47.3994 18.1297 47.8287C18.1297 48.1149 18.2 48.401 18.2703 48.6872C18.3405 48.9019 18.4108 49.1165 18.5514 49.4027C18.6919 49.5458 18.7622 49.6174 18.9027 49.7604C19.0432 49.9035 19.2541 50.1182 19.3946 50.2613C19.3243 49.9035 19.2541 49.5458 19.1135 49.1881C18.6216 47.9002 17.7081 46.827 16.5838 45.9684C15.4595 45.1814 14.0541 44.609 12.6486 44.5375C12.0162 44.466 11.3135 44.5375 10.6811 44.6806C11.8757 46.2546 12.0865 48.0433 12.227 49.6174C12.4378 51.4776 12.5784 53.1232 14.827 53.7671C15.3892 53.9102 16.0919 53.9102 16.6541 53.7671C17.2865 53.5524 17.9189 53.1947 18.4811 52.7654C18.7622 52.4792 19.1838 52.4792 19.4649 52.7654C19.7459 53.0516 19.7459 53.4809 19.4649 53.7671C18.7622 54.411 17.9189 54.9118 17.0757 55.1265C16.2324 55.3411 15.3189 55.4127 14.4757 55.1265C11.3135 54.1964 11.1027 52.1215 10.8919 49.7604C10.7514 48.1149 10.5405 46.3262 8.99459 44.8237C8.71351 44.5375 8.71351 44.1082 8.92432 43.822C8.99459 43.7505 9.13514 43.6789 9.20541 43.6074C10.3297 43.1781 11.5946 42.9635 12.7892 43.1066C14.4757 43.2496 16.0919 43.822 17.4973 44.8237C18.8324 45.8253 19.9568 47.1132 20.5189 48.6872C20.8703 49.6889 21.0811 50.6906 21.0108 51.8353C21.0108 51.9069 21.0108 52.05 20.9405 52.1215C21.6432 53.1947 22.2054 54.3395 22.6973 55.5558C22.8378 55.9135 22.627 56.3428 22.2757 56.4859C21.9243 56.629 21.5027 56.4143 21.3622 56.0566C20.6595 54.1964 19.4649 52.1215 18.0595 50.7621C17.4973 50.1897 16.8649 49.6173 16.1622 49.1165C15.8108 48.9734 15.4595 48.9734 15.0378 48.9734C14.6162 48.9734 14.2649 49.045 13.8432 49.1881C13.4919 49.3312 13.0703 49.1165 12.9297 48.7588C12.7892 48.401 13 47.9718 13.3514 47.8287C13.4919 47.7571 13.5622 47.7571 13.7027 47.6856C13.4216 47.5425 13.1405 47.3994 12.8595 47.3278C12.5081 47.1847 12.2973 46.7555 12.4378 46.3977C12.5784 46.04 13 45.8253 13.3514 45.9684C14.4757 46.4693 15.6703 47.1132 16.7243 47.8287ZM8.29189 34.3778V32.0167C7.94054 31.9452 7.58919 31.7305 7.30811 31.4444C6.95676 31.0866 6.67568 30.5142 6.67568 29.9419V27.4377C6.67568 26.8653 6.88649 26.293 7.30811 25.9352C7.72973 25.5775 8.22162 25.2913 8.78378 25.2913H22.5568C23.1189 25.2913 23.6811 25.5059 24.0324 25.9352C24.3838 26.293 24.6649 26.8653 24.6649 27.4377V29.9419C24.6649 30.5142 24.4541 31.0866 24.0324 31.4444C23.7514 31.7305 23.4 31.9452 23.0486 32.0167V34.3778H24.4541C25.7892 34.3778 26.773 34.8786 27.7568 35.7372C28.6 36.5958 29.0919 37.8121 29.0919 39.0999V50.9052C30.2162 51.0483 31.2703 51.1198 32.3946 51.1198C40.0541 51.1198 46.9405 47.9718 51.9297 42.9635C56.7784 38.0267 59.8 31.3013 60.0108 23.8604H4.91892C4.98919 25.5775 5.12973 27.2946 5.48108 28.9402C5.9027 30.8004 6.46486 32.6607 7.23784 34.3778H8.29189ZM29.0919 52.4077V57.1298C30.2162 57.2014 31.3405 57.2729 32.3946 57.2729C33.5189 57.2729 34.7135 57.2014 35.8378 57.1298C35.9784 56.7721 36.1892 56.4859 36.4703 56.1997C37.0324 55.6273 37.8757 55.198 38.7892 55.198H44.7622L46.1676 54.6972C46.5189 54.5541 46.8703 54.3395 47.1514 54.1248C47.2919 53.9817 47.5027 53.8386 47.6432 53.624C47.2919 53.1232 47.1514 52.4792 47.1514 51.9069C47.1514 51.0483 47.4324 50.2613 48.0649 49.6174L48.1351 49.5458C48.2054 49.4743 48.3459 49.3312 48.4865 49.2596V47.6856C43.9189 50.8337 38.3676 52.6223 32.4649 52.6223C31.3405 52.5508 30.2162 52.4792 29.0919 52.4077ZM22.5568 26.7222H8.78378C8.57297 26.7222 8.43243 26.7938 8.29189 26.9369C8.15135 27.08 8.08108 27.2231 8.08108 27.4377V29.9419C8.08108 30.1565 8.15135 30.2996 8.29189 30.4427C8.43243 30.5858 8.57297 30.6573 8.78378 30.6573H22.5568C22.7676 30.6573 22.9081 30.5858 23.0486 30.4427C23.1892 30.2996 23.2595 30.1565 23.2595 29.9419V27.4377C23.2595 27.2231 23.1892 27.08 23.0486 26.9369C22.9784 26.7938 22.7676 26.7222 22.5568 26.7222ZM43.7784 7.97688C43.7784 7.54759 44.1297 7.2614 44.4811 7.2614C44.9027 7.2614 45.1838 7.61914 45.1838 7.97688C45.1838 8.47771 45.1135 8.97854 45.0432 9.40782L45.1838 9.26473C47.5027 7.47605 50.0324 5.97356 52.773 4.90035C53.1243 4.75725 53.5459 4.97189 53.6865 5.32963C53.827 5.68737 53.6162 6.11665 53.2649 6.25974C52.0703 6.76057 50.9459 7.2614 49.8216 7.90533C50.6649 7.97688 51.5081 8.11997 52.3514 8.40616C52.7027 8.54925 52.9135 8.97854 52.773 9.33627C52.6324 9.69401 52.2108 9.90865 51.8595 9.76556C51.0865 9.47937 50.2432 9.33627 49.4 9.33627C47.9243 9.33627 47.2216 9.55092 46.0973 10.4095C44.2703 11.8404 42.6541 13.486 41.1784 15.3462H55.373C55.5838 14.273 55.7243 13.1283 55.8649 11.912C56.2162 8.69235 56.4973 5.11499 59.3081 1.96691C57.6919 1.46608 56.0054 1.32299 54.3892 1.39453C51.5081 1.60918 48.7676 2.61084 46.4486 4.25642C44.1297 5.90201 42.3027 8.11997 41.3189 10.6957C40.9676 11.6258 40.6865 12.699 40.6162 13.7007C41.3892 12.8421 42.1622 11.9835 43.0054 11.125C43.2865 10.6241 43.4973 10.1233 43.6378 9.55092C43.7081 9.19318 43.7784 8.6208 43.7784 7.97688ZM48.627 54.6972C48.4865 54.8403 48.2757 55.0549 48.1351 55.198C48.627 55.198 49.0486 55.3411 49.4703 55.5558L48.627 54.6972ZM60.7135 16.8487H4.14595C3.37297 16.8487 2.74054 17.1349 2.24865 17.6357C1.68649 18.1366 1.40541 18.8521 1.40541 19.6391C1.40541 20.4261 1.68649 21.07 2.17838 21.5708C2.67027 22.0717 3.37297 22.3579 4.07568 22.3579H60.7135C61.4865 22.3579 62.1189 22.0717 62.6108 21.5708C63.1027 21.07 63.3838 20.3545 63.3838 19.6391C63.3838 18.8521 63.1027 18.2081 62.6108 17.7073C62.1189 17.2065 61.4865 16.8487 60.7135 16.8487ZM54.4595 53.3378L51.7189 50.5475C51.3676 50.1897 50.8757 49.9751 50.4541 49.9751C49.9622 49.9751 49.5405 50.1897 49.1892 50.5475V50.619C48.8378 50.9767 48.6973 51.4776 48.6973 51.9069C48.6973 52.4077 48.9081 52.837 49.2595 53.1947L52 55.9851L54.4595 53.3378Z" fill="#003C7E"/>
</svg>
