<svg width="66" height="65" viewBox="0 0 66 65" fill="none" xmlns="http://www.w3.org/2000/svg">
<path d="M41.4683 12.2733C40.0062 10.8199 38.0566 10.0124 35.9446 10.0124C33.8326 10.0124 31.8831 10.8199 30.4209 12.2733L25.872 16.795C24.0037 18.6522 23.1102 21.3975 23.5975 23.9814C23.9225 25.8385 23.3538 27.6957 21.9729 29.0683L7.67631 43.1988C3.85846 46.9938 3.37108 52.8882 6.37662 57.0062L0.365538 62.9814C-0.121846 63.4658 -0.121846 64.1925 0.365538 64.677C0.609231 64.9193 0.934154 65 1.25908 65C1.584 65 1.90892 64.9193 2.15262 64.677L8.08246 58.7826C9.95077 60.3975 12.2252 61.2857 14.7434 61.3665C14.8246 61.3665 14.9058 61.3665 14.9871 61.3665C17.8302 61.3665 20.4295 60.236 22.4603 58.2981L36.9194 43.9255C38.2191 42.6335 40.1686 41.9876 42.0369 42.3106C44.6363 42.795 47.3982 41.9068 49.2665 40.0497L53.8154 35.528C55.2775 34.0745 56.0899 32.1366 56.0899 30.0373C56.0899 27.9379 55.2775 26 53.8154 24.5466L41.4683 12.2733ZM47.4794 38.354C46.1797 39.646 44.2302 40.2919 42.3618 39.9689C39.7625 39.4845 37.0006 40.3727 35.1323 42.2298L20.7545 56.6025C19.1298 58.2174 17.0178 59.0248 14.8246 58.9441C12.5502 58.8634 10.5194 57.9752 8.976 56.2795C6.05169 53.0497 6.21415 48.1242 9.46339 44.8944L23.6788 30.764C25.5471 28.9068 26.4406 26.1615 25.9532 23.5776C25.6283 21.7205 26.1969 19.8634 27.5778 18.4907L28.2277 17.8447L48.2105 37.7081L47.4794 38.354ZM52.0283 33.8323L49.8351 36.0124L29.9335 16.1491L32.1268 13.9689C34.2388 11.8696 37.6505 11.8696 39.7625 13.9689L52.0283 26.2422C54.1403 28.3416 54.1403 31.7329 52.0283 33.8323ZM14.6622 47.7205C13.6874 47.7205 12.8751 48.1242 12.144 48.7702C11.4942 49.4161 11.088 50.3043 11.088 51.2733C11.088 52.2422 11.4942 53.0497 12.144 53.7764C12.7938 54.4224 13.6874 54.8261 14.6622 54.8261C15.6369 54.8261 16.4492 54.4224 17.1803 53.7764C17.8302 53.1304 18.2363 52.2422 18.2363 51.2733C18.2363 50.3043 17.8302 49.4969 17.1803 48.7702C16.4492 48.0435 15.5557 47.7205 14.6622 47.7205ZM15.3932 52C14.9871 52.4037 14.256 52.4037 13.8498 52C13.6874 51.8385 13.5249 51.5155 13.5249 51.2733C13.5249 51.0311 13.6062 50.7081 13.8498 50.5466C14.0935 50.3851 14.3372 50.2236 14.5809 50.2236C14.8246 50.2236 15.1495 50.3043 15.312 50.5466C15.5557 50.7888 15.6369 51.0311 15.6369 51.2733C15.6369 51.5155 15.6369 51.7578 15.3932 52ZM57.1459 18.087C57.1459 18.7329 56.5772 19.2981 55.9274 19.2981C55.2775 19.2981 54.7089 18.7329 54.7089 18.087C54.7089 14.3727 51.6222 11.3043 47.8855 11.3043C47.2357 11.3043 46.6671 10.7391 46.6671 10.0932C46.6671 9.4472 47.2357 8.88199 47.8855 8.88199C52.9218 8.88199 57.1459 13 57.1459 18.087ZM66 17.6025C66 18.2484 65.4314 18.8137 64.7815 18.8137C64.1317 18.8137 63.5631 18.2484 63.5631 17.6025C63.5631 9.20497 56.7397 2.42236 48.2917 2.42236C47.6418 2.42236 47.0732 1.85714 47.0732 1.21118C47.0732 0.565217 47.6418 0 48.2917 0C58.1206 0 66 7.91304 66 17.6025Z" fill="#003C7E"/>
</svg>
