<svg width="55" height="66" viewBox="0 0 55 66" fill="none" xmlns="http://www.w3.org/2000/svg">
<mask id="path-1-outside-1_58_150" maskUnits="userSpaceOnUse" x="-0.799805" y="-0.799805" width="56" height="67" fill="black">
<rect fill="white" x="-0.799805" y="-0.799805" width="56" height="67"/>
<path d="M21.6602 50.2406C20.581 50.385 19.7896 50.6015 19.214 50.8903V54.355H35.2584V50.8903C34.6108 50.6015 33.8194 50.385 32.7402 50.2406C30.5818 49.8797 23.8186 49.8797 21.6602 50.2406ZM41.5179 21.5125C43.6043 22.2343 44.1799 23.3892 44.6116 25.4824C44.8275 26.2764 43.6043 26.5652 43.3885 25.7712C43.0288 24.0388 42.741 23.2448 41.0142 22.6674C40.6545 23.2448 40.2228 23.6779 39.935 24.111C38.2802 26.2764 37.9924 26.6373 37.9924 30.5351C37.9205 31.9788 37.5607 33.6389 36.5534 34.7216C38.2802 35.1547 41.302 36.5262 42.2373 38.1142C42.5971 38.7638 41.5179 39.4134 41.1581 38.6916C40.3667 37.3202 37.2729 36.0931 35.3303 35.8044C34.7547 35.66 34.5389 35.7322 33.9633 35.7322C29.5025 35.8044 24.9698 35.8044 20.509 35.7322C19.9334 35.7322 19.7176 35.7322 19.142 35.8044C17.2714 36.0931 14.2496 37.3202 13.4581 38.6916C13.0984 39.4134 12.0192 38.7638 12.4509 38.1142C13.3142 36.5984 16.2641 35.2269 17.9189 34.7938C16.8397 33.7111 16.5519 31.9788 16.408 30.5351C16.408 26.6373 16.1202 26.2764 14.4654 24.111C14.1776 23.6779 13.8179 23.2448 13.3862 22.6674C11.6594 23.2448 11.3716 24.0388 11.0119 25.7712C10.796 26.5652 9.57293 26.2764 9.78878 25.4824C10.2924 23.3892 10.796 22.2343 12.9545 21.5125C12.8825 18.4087 12.0192 16.3154 11.0838 15.4492C8.9254 13.4282 8.49371 18.1921 8.49371 19.347C8.49371 19.5636 8.34982 19.7801 8.20592 19.8523C5.1841 21.8012 2.59397 25.4103 4.17683 29.0193C4.82436 30.4629 5.47189 30.8238 5.75969 30.9682C6.55111 31.3291 6.55112 31.9066 5.83163 32.3397C4.82436 33.0615 4.03293 33.6389 3.16956 34.5773C1.22696 36.8149 0.867221 39.2691 2.45008 41.8676C3.16956 43.0225 3.96099 43.6721 4.75241 44.4661C5.83163 43.3834 7.34254 42.1563 8.85345 41.651C9.57293 41.4345 10.0046 42.5894 9.21319 42.8781C7.77423 43.3834 5.39995 45.1879 4.68047 46.5594C4.32073 47.209 4.10488 47.6421 4.46462 48.3639C5.97553 51.3233 12.0911 54.2828 15.1129 52.8392C15.5446 52.6226 15.8324 52.2617 16.1202 51.9008C16.9116 50.8903 17.9189 49.591 21.0846 49.0135C20.1493 48.4361 17.7031 46.8481 17.1994 45.9097C16.7677 45.1879 17.847 44.5383 18.2786 45.2601C18.8542 46.3428 22.4516 48.5805 23.8186 48.797C26.049 48.6526 28.3514 48.6526 30.5818 48.797C32.0207 48.5805 35.5462 46.3428 36.1937 45.2601C36.5534 44.5383 37.6327 45.1879 37.2729 45.9097C36.6973 46.8481 34.3231 48.4361 33.3158 49.0135C36.4095 49.591 37.4888 50.8181 38.2802 51.8286C38.568 52.2617 38.7838 52.6226 39.2875 52.8392C42.3093 54.2828 48.4249 51.3233 49.9358 48.3639C50.3675 47.4977 50.0077 47.0646 49.648 46.3428C48.8565 45.1157 46.5542 43.3112 45.1872 42.8781C44.3958 42.5894 44.8275 41.4345 45.6189 41.651C47.0578 42.1563 48.5688 43.3834 49.648 44.4661C50.5114 43.5278 51.2308 43.0225 51.9503 41.8676C53.5332 39.3412 53.1734 36.8149 51.2308 34.5773C50.5114 33.7833 49.648 33.0615 48.5688 32.4118C47.8493 31.9066 47.8493 31.4013 48.5688 30.9682C48.8565 30.8238 49.576 30.4629 50.2236 29.0193C51.7345 25.4824 49.2163 21.8012 46.2664 19.9245C46.0506 19.7801 45.9786 19.5636 45.9786 19.347C45.9786 18.1921 45.475 13.4282 43.3885 15.4492C42.3812 16.3154 41.5179 18.4087 41.5179 21.5125ZM19.214 59.9851H35.2584V55.582H19.214V59.9851ZM35.2584 61.2844H19.214V64.6047C19.214 65.3987 17.9189 65.3987 17.9189 64.6047V51.7564C17.5592 52.0452 17.3433 52.3339 17.1275 52.6948C16.6958 53.2001 16.336 53.6331 15.7605 53.9219C12.0911 55.7264 5.1841 52.4782 3.3854 48.9414C2.80982 47.7143 2.95371 47.0646 3.60125 45.9097C3.67319 45.7654 3.88904 45.3323 3.74514 45.1879C2.73787 44.3218 1.94644 43.3834 1.37086 42.5172C-0.499791 39.4856 -0.0681035 36.3818 2.23423 33.7833C2.88177 32.9893 3.67319 32.3397 4.60852 31.69C4.17683 31.3291 3.60125 30.6795 3.02566 29.5246C1.29891 25.4824 3.88904 21.2959 7.19865 18.9861C7.27059 17.1816 7.84618 13.4282 10.4363 13.7169C9.71683 12.7785 8.7815 11.6958 7.70228 10.5409C7.48644 10.3244 7.48644 10.0356 7.63034 9.81909C9.78878 5.1273 16.7677 1.37387 21.5163 0.218972C21.8041 0.14679 22.0919 0.291153 22.2358 0.507697L25.7612 6.42657C26.9124 6.57093 27.7758 6.57093 28.855 6.42657L32.3805 0.507697C32.5243 0.291153 32.8121 0.14679 33.0999 0.218972C37.9205 1.37387 44.8994 5.1273 47.0578 9.81909C47.1298 10.1078 47.1298 10.3244 46.914 10.5409C45.8347 11.6958 44.9714 12.7063 44.1799 13.7169C46.6262 13.6447 47.1298 17.2538 47.2017 18.9861C50.5833 21.3681 53.1015 25.4824 51.3747 29.5246C50.8711 30.6795 50.2236 31.3291 49.7919 31.69C50.7272 32.3397 51.5186 32.9893 52.1662 33.7833C54.4685 36.3818 54.9002 39.4856 53.0295 42.5172C52.454 43.3834 51.6625 44.3218 50.7272 45.1879C50.5114 45.3323 50.7272 45.6932 50.8711 45.9097C51.4467 46.9925 51.6625 47.7143 51.015 48.9414C49.2882 52.4782 42.3812 55.7264 38.7838 53.9941C38.0643 53.6331 37.7766 53.2001 37.3449 52.6948C37.0571 52.3339 36.7693 51.973 36.4815 51.7564V64.6047C36.4815 65.3987 35.2584 65.3987 35.2584 64.6047V61.2844ZM37.7046 21.0072C38.7119 19.5636 39.5753 18.3365 40.2947 17.1094C41.8056 14.8718 43.1727 12.7785 45.7628 9.96345C43.6043 5.9213 37.4888 2.67314 33.2438 1.59042L29.7903 7.36492C29.6464 7.50928 29.5025 7.58147 29.2867 7.65365C27.8477 7.79801 26.8405 7.79801 25.3295 7.65365C25.1857 7.65365 24.9698 7.50928 24.8259 7.36492L21.3724 1.59042C17.1275 2.67314 11.0119 5.9213 8.85345 9.96345C11.4436 12.7785 12.8106 14.8718 14.3215 17.1094C15.1129 18.3365 15.9044 19.5636 16.9116 21.0072C23.8906 16.8207 30.7976 16.8207 37.7046 21.0072ZM19.214 21.1516L19.7176 28.7306C22.5955 28.514 25.1857 29.6689 27.3441 31.4735C29.5025 29.6689 32.0927 28.514 34.8986 28.7306L35.4023 21.1516C30.0062 18.4087 24.6101 18.4087 19.214 21.1516ZM36.6254 21.8012L36.0498 29.5968C36.0498 29.8855 35.6901 30.102 35.4023 30.102C32.5243 29.5968 29.8623 30.896 27.7038 32.7727C27.488 32.9171 27.1282 32.9893 26.9124 32.7727C24.8259 30.896 22.1638 29.5968 19.2859 30.102C18.9262 30.102 18.5664 29.8855 18.5664 29.5246L17.9909 21.8012C17.7031 21.9455 17.4153 22.1621 17.1275 22.3786C16.8397 22.523 16.4799 22.4508 16.2641 22.1621C15.3288 20.935 14.6093 19.8523 13.8898 18.7696C14.0337 19.6357 14.1776 20.5741 14.1776 21.6568C14.6812 22.3786 15.1129 22.8839 15.4727 23.3892C17.3433 25.8433 17.6311 26.2764 17.6311 30.5351C17.775 32.1231 18.1347 34.072 19.9334 34.4329C24.754 34.5773 29.6464 34.5773 34.4669 34.4329C36.2656 34.072 36.6254 32.1231 36.7693 30.5351C36.7693 26.2764 37.129 25.8433 38.9277 23.3892C39.2875 22.8839 39.7192 22.3786 40.2228 21.6568C40.2947 20.7185 40.2947 19.9245 40.4386 19.2027C39.863 20.141 39.1436 21.0794 38.3521 22.1621C38.1363 22.4508 37.7766 22.523 37.4888 22.3786C37.201 22.1621 36.9132 21.9455 36.6254 21.8012Z"/>
</mask>
<path d="M21.6602 50.2406C20.581 50.385 19.7896 50.6015 19.214 50.8903V54.355H35.2584V50.8903C34.6108 50.6015 33.8194 50.385 32.7402 50.2406C30.5818 49.8797 23.8186 49.8797 21.6602 50.2406ZM41.5179 21.5125C43.6043 22.2343 44.1799 23.3892 44.6116 25.4824C44.8275 26.2764 43.6043 26.5652 43.3885 25.7712C43.0288 24.0388 42.741 23.2448 41.0142 22.6674C40.6545 23.2448 40.2228 23.6779 39.935 24.111C38.2802 26.2764 37.9924 26.6373 37.9924 30.5351C37.9205 31.9788 37.5607 33.6389 36.5534 34.7216C38.2802 35.1547 41.302 36.5262 42.2373 38.1142C42.5971 38.7638 41.5179 39.4134 41.1581 38.6916C40.3667 37.3202 37.2729 36.0931 35.3303 35.8044C34.7547 35.66 34.5389 35.7322 33.9633 35.7322C29.5025 35.8044 24.9698 35.8044 20.509 35.7322C19.9334 35.7322 19.7176 35.7322 19.142 35.8044C17.2714 36.0931 14.2496 37.3202 13.4581 38.6916C13.0984 39.4134 12.0192 38.7638 12.4509 38.1142C13.3142 36.5984 16.2641 35.2269 17.9189 34.7938C16.8397 33.7111 16.5519 31.9788 16.408 30.5351C16.408 26.6373 16.1202 26.2764 14.4654 24.111C14.1776 23.6779 13.8179 23.2448 13.3862 22.6674C11.6594 23.2448 11.3716 24.0388 11.0119 25.7712C10.796 26.5652 9.57293 26.2764 9.78878 25.4824C10.2924 23.3892 10.796 22.2343 12.9545 21.5125C12.8825 18.4087 12.0192 16.3154 11.0838 15.4492C8.9254 13.4282 8.49371 18.1921 8.49371 19.347C8.49371 19.5636 8.34982 19.7801 8.20592 19.8523C5.1841 21.8012 2.59397 25.4103 4.17683 29.0193C4.82436 30.4629 5.47189 30.8238 5.75969 30.9682C6.55111 31.3291 6.55112 31.9066 5.83163 32.3397C4.82436 33.0615 4.03293 33.6389 3.16956 34.5773C1.22696 36.8149 0.867221 39.2691 2.45008 41.8676C3.16956 43.0225 3.96099 43.6721 4.75241 44.4661C5.83163 43.3834 7.34254 42.1563 8.85345 41.651C9.57293 41.4345 10.0046 42.5894 9.21319 42.8781C7.77423 43.3834 5.39995 45.1879 4.68047 46.5594C4.32073 47.209 4.10488 47.6421 4.46462 48.3639C5.97553 51.3233 12.0911 54.2828 15.1129 52.8392C15.5446 52.6226 15.8324 52.2617 16.1202 51.9008C16.9116 50.8903 17.9189 49.591 21.0846 49.0135C20.1493 48.4361 17.7031 46.8481 17.1994 45.9097C16.7677 45.1879 17.847 44.5383 18.2786 45.2601C18.8542 46.3428 22.4516 48.5805 23.8186 48.797C26.049 48.6526 28.3514 48.6526 30.5818 48.797C32.0207 48.5805 35.5462 46.3428 36.1937 45.2601C36.5534 44.5383 37.6327 45.1879 37.2729 45.9097C36.6973 46.8481 34.3231 48.4361 33.3158 49.0135C36.4095 49.591 37.4888 50.8181 38.2802 51.8286C38.568 52.2617 38.7838 52.6226 39.2875 52.8392C42.3093 54.2828 48.4249 51.3233 49.9358 48.3639C50.3675 47.4977 50.0077 47.0646 49.648 46.3428C48.8565 45.1157 46.5542 43.3112 45.1872 42.8781C44.3958 42.5894 44.8275 41.4345 45.6189 41.651C47.0578 42.1563 48.5688 43.3834 49.648 44.4661C50.5114 43.5278 51.2308 43.0225 51.9503 41.8676C53.5332 39.3412 53.1734 36.8149 51.2308 34.5773C50.5114 33.7833 49.648 33.0615 48.5688 32.4118C47.8493 31.9066 47.8493 31.4013 48.5688 30.9682C48.8565 30.8238 49.576 30.4629 50.2236 29.0193C51.7345 25.4824 49.2163 21.8012 46.2664 19.9245C46.0506 19.7801 45.9786 19.5636 45.9786 19.347C45.9786 18.1921 45.475 13.4282 43.3885 15.4492C42.3812 16.3154 41.5179 18.4087 41.5179 21.5125ZM19.214 59.9851H35.2584V55.582H19.214V59.9851ZM35.2584 61.2844H19.214V64.6047C19.214 65.3987 17.9189 65.3987 17.9189 64.6047V51.7564C17.5592 52.0452 17.3433 52.3339 17.1275 52.6948C16.6958 53.2001 16.336 53.6331 15.7605 53.9219C12.0911 55.7264 5.1841 52.4782 3.3854 48.9414C2.80982 47.7143 2.95371 47.0646 3.60125 45.9097C3.67319 45.7654 3.88904 45.3323 3.74514 45.1879C2.73787 44.3218 1.94644 43.3834 1.37086 42.5172C-0.499791 39.4856 -0.0681035 36.3818 2.23423 33.7833C2.88177 32.9893 3.67319 32.3397 4.60852 31.69C4.17683 31.3291 3.60125 30.6795 3.02566 29.5246C1.29891 25.4824 3.88904 21.2959 7.19865 18.9861C7.27059 17.1816 7.84618 13.4282 10.4363 13.7169C9.71683 12.7785 8.7815 11.6958 7.70228 10.5409C7.48644 10.3244 7.48644 10.0356 7.63034 9.81909C9.78878 5.1273 16.7677 1.37387 21.5163 0.218972C21.8041 0.14679 22.0919 0.291153 22.2358 0.507697L25.7612 6.42657C26.9124 6.57093 27.7758 6.57093 28.855 6.42657L32.3805 0.507697C32.5243 0.291153 32.8121 0.14679 33.0999 0.218972C37.9205 1.37387 44.8994 5.1273 47.0578 9.81909C47.1298 10.1078 47.1298 10.3244 46.914 10.5409C45.8347 11.6958 44.9714 12.7063 44.1799 13.7169C46.6262 13.6447 47.1298 17.2538 47.2017 18.9861C50.5833 21.3681 53.1015 25.4824 51.3747 29.5246C50.8711 30.6795 50.2236 31.3291 49.7919 31.69C50.7272 32.3397 51.5186 32.9893 52.1662 33.7833C54.4685 36.3818 54.9002 39.4856 53.0295 42.5172C52.454 43.3834 51.6625 44.3218 50.7272 45.1879C50.5114 45.3323 50.7272 45.6932 50.8711 45.9097C51.4467 46.9925 51.6625 47.7143 51.015 48.9414C49.2882 52.4782 42.3812 55.7264 38.7838 53.9941C38.0643 53.6331 37.7766 53.2001 37.3449 52.6948C37.0571 52.3339 36.7693 51.973 36.4815 51.7564V64.6047C36.4815 65.3987 35.2584 65.3987 35.2584 64.6047V61.2844ZM37.7046 21.0072C38.7119 19.5636 39.5753 18.3365 40.2947 17.1094C41.8056 14.8718 43.1727 12.7785 45.7628 9.96345C43.6043 5.9213 37.4888 2.67314 33.2438 1.59042L29.7903 7.36492C29.6464 7.50928 29.5025 7.58147 29.2867 7.65365C27.8477 7.79801 26.8405 7.79801 25.3295 7.65365C25.1857 7.65365 24.9698 7.50928 24.8259 7.36492L21.3724 1.59042C17.1275 2.67314 11.0119 5.9213 8.85345 9.96345C11.4436 12.7785 12.8106 14.8718 14.3215 17.1094C15.1129 18.3365 15.9044 19.5636 16.9116 21.0072C23.8906 16.8207 30.7976 16.8207 37.7046 21.0072ZM19.214 21.1516L19.7176 28.7306C22.5955 28.514 25.1857 29.6689 27.3441 31.4735C29.5025 29.6689 32.0927 28.514 34.8986 28.7306L35.4023 21.1516C30.0062 18.4087 24.6101 18.4087 19.214 21.1516ZM36.6254 21.8012L36.0498 29.5968C36.0498 29.8855 35.6901 30.102 35.4023 30.102C32.5243 29.5968 29.8623 30.896 27.7038 32.7727C27.488 32.9171 27.1282 32.9893 26.9124 32.7727C24.8259 30.896 22.1638 29.5968 19.2859 30.102C18.9262 30.102 18.5664 29.8855 18.5664 29.5246L17.9909 21.8012C17.7031 21.9455 17.4153 22.1621 17.1275 22.3786C16.8397 22.523 16.4799 22.4508 16.2641 22.1621C15.3288 20.935 14.6093 19.8523 13.8898 18.7696C14.0337 19.6357 14.1776 20.5741 14.1776 21.6568C14.6812 22.3786 15.1129 22.8839 15.4727 23.3892C17.3433 25.8433 17.6311 26.2764 17.6311 30.5351C17.775 32.1231 18.1347 34.072 19.9334 34.4329C24.754 34.5773 29.6464 34.5773 34.4669 34.4329C36.2656 34.072 36.6254 32.1231 36.7693 30.5351C36.7693 26.2764 37.129 25.8433 38.9277 23.3892C39.2875 22.8839 39.7192 22.3786 40.2228 21.6568C40.2947 20.7185 40.2947 19.9245 40.4386 19.2027C39.863 20.141 39.1436 21.0794 38.3521 22.1621C38.1363 22.4508 37.7766 22.523 37.4888 22.3786C37.201 22.1621 36.9132 21.9455 36.6254 21.8012Z" fill="#003C7E"/>
<path d="M21.6602 50.2406C20.581 50.385 19.7896 50.6015 19.214 50.8903V54.355H35.2584V50.8903C34.6108 50.6015 33.8194 50.385 32.7402 50.2406C30.5818 49.8797 23.8186 49.8797 21.6602 50.2406ZM41.5179 21.5125C43.6043 22.2343 44.1799 23.3892 44.6116 25.4824C44.8275 26.2764 43.6043 26.5652 43.3885 25.7712C43.0288 24.0388 42.741 23.2448 41.0142 22.6674C40.6545 23.2448 40.2228 23.6779 39.935 24.111C38.2802 26.2764 37.9924 26.6373 37.9924 30.5351C37.9205 31.9788 37.5607 33.6389 36.5534 34.7216C38.2802 35.1547 41.302 36.5262 42.2373 38.1142C42.5971 38.7638 41.5179 39.4134 41.1581 38.6916C40.3667 37.3202 37.2729 36.0931 35.3303 35.8044C34.7547 35.66 34.5389 35.7322 33.9633 35.7322C29.5025 35.8044 24.9698 35.8044 20.509 35.7322C19.9334 35.7322 19.7176 35.7322 19.142 35.8044C17.2714 36.0931 14.2496 37.3202 13.4581 38.6916C13.0984 39.4134 12.0192 38.7638 12.4509 38.1142C13.3142 36.5984 16.2641 35.2269 17.9189 34.7938C16.8397 33.7111 16.5519 31.9788 16.408 30.5351C16.408 26.6373 16.1202 26.2764 14.4654 24.111C14.1776 23.6779 13.8179 23.2448 13.3862 22.6674C11.6594 23.2448 11.3716 24.0388 11.0119 25.7712C10.796 26.5652 9.57293 26.2764 9.78878 25.4824C10.2924 23.3892 10.796 22.2343 12.9545 21.5125C12.8825 18.4087 12.0192 16.3154 11.0838 15.4492C8.9254 13.4282 8.49371 18.1921 8.49371 19.347C8.49371 19.5636 8.34982 19.7801 8.20592 19.8523C5.1841 21.8012 2.59397 25.4103 4.17683 29.0193C4.82436 30.4629 5.47189 30.8238 5.75969 30.9682C6.55111 31.3291 6.55112 31.9066 5.83163 32.3397C4.82436 33.0615 4.03293 33.6389 3.16956 34.5773C1.22696 36.8149 0.867221 39.2691 2.45008 41.8676C3.16956 43.0225 3.96099 43.6721 4.75241 44.4661C5.83163 43.3834 7.34254 42.1563 8.85345 41.651C9.57293 41.4345 10.0046 42.5894 9.21319 42.8781C7.77423 43.3834 5.39995 45.1879 4.68047 46.5594C4.32073 47.209 4.10488 47.6421 4.46462 48.3639C5.97553 51.3233 12.0911 54.2828 15.1129 52.8392C15.5446 52.6226 15.8324 52.2617 16.1202 51.9008C16.9116 50.8903 17.9189 49.591 21.0846 49.0135C20.1493 48.4361 17.7031 46.8481 17.1994 45.9097C16.7677 45.1879 17.847 44.5383 18.2786 45.2601C18.8542 46.3428 22.4516 48.5805 23.8186 48.797C26.049 48.6526 28.3514 48.6526 30.5818 48.797C32.0207 48.5805 35.5462 46.3428 36.1937 45.2601C36.5534 44.5383 37.6327 45.1879 37.2729 45.9097C36.6973 46.8481 34.3231 48.4361 33.3158 49.0135C36.4095 49.591 37.4888 50.8181 38.2802 51.8286C38.568 52.2617 38.7838 52.6226 39.2875 52.8392C42.3093 54.2828 48.4249 51.3233 49.9358 48.3639C50.3675 47.4977 50.0077 47.0646 49.648 46.3428C48.8565 45.1157 46.5542 43.3112 45.1872 42.8781C44.3958 42.5894 44.8275 41.4345 45.6189 41.651C47.0578 42.1563 48.5688 43.3834 49.648 44.4661C50.5114 43.5278 51.2308 43.0225 51.9503 41.8676C53.5332 39.3412 53.1734 36.8149 51.2308 34.5773C50.5114 33.7833 49.648 33.0615 48.5688 32.4118C47.8493 31.9066 47.8493 31.4013 48.5688 30.9682C48.8565 30.8238 49.576 30.4629 50.2236 29.0193C51.7345 25.4824 49.2163 21.8012 46.2664 19.9245C46.0506 19.7801 45.9786 19.5636 45.9786 19.347C45.9786 18.1921 45.475 13.4282 43.3885 15.4492C42.3812 16.3154 41.5179 18.4087 41.5179 21.5125ZM19.214 59.9851H35.2584V55.582H19.214V59.9851ZM35.2584 61.2844H19.214V64.6047C19.214 65.3987 17.9189 65.3987 17.9189 64.6047V51.7564C17.5592 52.0452 17.3433 52.3339 17.1275 52.6948C16.6958 53.2001 16.336 53.6331 15.7605 53.9219C12.0911 55.7264 5.1841 52.4782 3.3854 48.9414C2.80982 47.7143 2.95371 47.0646 3.60125 45.9097C3.67319 45.7654 3.88904 45.3323 3.74514 45.1879C2.73787 44.3218 1.94644 43.3834 1.37086 42.5172C-0.499791 39.4856 -0.0681035 36.3818 2.23423 33.7833C2.88177 32.9893 3.67319 32.3397 4.60852 31.69C4.17683 31.3291 3.60125 30.6795 3.02566 29.5246C1.29891 25.4824 3.88904 21.2959 7.19865 18.9861C7.27059 17.1816 7.84618 13.4282 10.4363 13.7169C9.71683 12.7785 8.7815 11.6958 7.70228 10.5409C7.48644 10.3244 7.48644 10.0356 7.63034 9.81909C9.78878 5.1273 16.7677 1.37387 21.5163 0.218972C21.8041 0.14679 22.0919 0.291153 22.2358 0.507697L25.7612 6.42657C26.9124 6.57093 27.7758 6.57093 28.855 6.42657L32.3805 0.507697C32.5243 0.291153 32.8121 0.14679 33.0999 0.218972C37.9205 1.37387 44.8994 5.1273 47.0578 9.81909C47.1298 10.1078 47.1298 10.3244 46.914 10.5409C45.8347 11.6958 44.9714 12.7063 44.1799 13.7169C46.6262 13.6447 47.1298 17.2538 47.2017 18.9861C50.5833 21.3681 53.1015 25.4824 51.3747 29.5246C50.8711 30.6795 50.2236 31.3291 49.7919 31.69C50.7272 32.3397 51.5186 32.9893 52.1662 33.7833C54.4685 36.3818 54.9002 39.4856 53.0295 42.5172C52.454 43.3834 51.6625 44.3218 50.7272 45.1879C50.5114 45.3323 50.7272 45.6932 50.8711 45.9097C51.4467 46.9925 51.6625 47.7143 51.015 48.9414C49.2882 52.4782 42.3812 55.7264 38.7838 53.9941C38.0643 53.6331 37.7766 53.2001 37.3449 52.6948C37.0571 52.3339 36.7693 51.973 36.4815 51.7564V64.6047C36.4815 65.3987 35.2584 65.3987 35.2584 64.6047V61.2844ZM37.7046 21.0072C38.7119 19.5636 39.5753 18.3365 40.2947 17.1094C41.8056 14.8718 43.1727 12.7785 45.7628 9.96345C43.6043 5.9213 37.4888 2.67314 33.2438 1.59042L29.7903 7.36492C29.6464 7.50928 29.5025 7.58147 29.2867 7.65365C27.8477 7.79801 26.8405 7.79801 25.3295 7.65365C25.1857 7.65365 24.9698 7.50928 24.8259 7.36492L21.3724 1.59042C17.1275 2.67314 11.0119 5.9213 8.85345 9.96345C11.4436 12.7785 12.8106 14.8718 14.3215 17.1094C15.1129 18.3365 15.9044 19.5636 16.9116 21.0072C23.8906 16.8207 30.7976 16.8207 37.7046 21.0072ZM19.214 21.1516L19.7176 28.7306C22.5955 28.514 25.1857 29.6689 27.3441 31.4735C29.5025 29.6689 32.0927 28.514 34.8986 28.7306L35.4023 21.1516C30.0062 18.4087 24.6101 18.4087 19.214 21.1516ZM36.6254 21.8012L36.0498 29.5968C36.0498 29.8855 35.6901 30.102 35.4023 30.102C32.5243 29.5968 29.8623 30.896 27.7038 32.7727C27.488 32.9171 27.1282 32.9893 26.9124 32.7727C24.8259 30.896 22.1638 29.5968 19.2859 30.102C18.9262 30.102 18.5664 29.8855 18.5664 29.5246L17.9909 21.8012C17.7031 21.9455 17.4153 22.1621 17.1275 22.3786C16.8397 22.523 16.4799 22.4508 16.2641 22.1621C15.3288 20.935 14.6093 19.8523 13.8898 18.7696C14.0337 19.6357 14.1776 20.5741 14.1776 21.6568C14.6812 22.3786 15.1129 22.8839 15.4727 23.3892C17.3433 25.8433 17.6311 26.2764 17.6311 30.5351C17.775 32.1231 18.1347 34.072 19.9334 34.4329C24.754 34.5773 29.6464 34.5773 34.4669 34.4329C36.2656 34.072 36.6254 32.1231 36.7693 30.5351C36.7693 26.2764 37.129 25.8433 38.9277 23.3892C39.2875 22.8839 39.7192 22.3786 40.2228 21.6568C40.2947 20.7185 40.2947 19.9245 40.4386 19.2027C39.863 20.141 39.1436 21.0794 38.3521 22.1621C38.1363 22.4508 37.7766 22.523 37.4888 22.3786C37.201 22.1621 36.9132 21.9455 36.6254 21.8012Z" stroke="#003C7E" stroke-width="0.4" mask="url(#path-1-outside-1_58_150)"/>
</svg>
