<svg width="68" height="66" viewBox="0 0 68 66" fill="none" xmlns="http://www.w3.org/2000/svg">
<path d="M66.1963 35.3723C66.4636 35.2838 66.7184 35.304 66.9307 35.4094C67.1414 35.5141 67.3009 35.6984 67.3906 35.9211C67.4848 36.1551 67.4625 36.4144 67.3525 36.6086C67.2463 36.7963 67.0504 36.9288 66.8027 36.8987C58.8395 39.5826 46.3543 42.4164 37.5957 42.8176C35.4309 47.9426 33.0331 51.8571 30.2451 54.9338C26.2753 59.3405 20.9076 62.8927 14.7686 65.3625L14.7676 65.3616C14.6864 65.401 14.6199 65.4255 14.5586 65.4377C14.4945 65.4505 14.4423 65.4504 14.4033 65.4504C14.2223 65.4504 14.0566 65.4048 13.9131 65.3098C13.7705 65.2154 13.6578 65.0773 13.5713 64.9055L13.5664 64.8948C13.3762 64.4225 13.6613 63.8788 14.1152 63.6985H14.1162C19.986 61.3972 25.0802 57.9454 28.8604 53.8079C32.4059 49.9034 35.3421 44.46 38.0508 36.7737L38.0527 36.7678H38.0537C38.2357 36.3158 38.7818 36.0343 39.2549 36.2219C39.7061 36.4012 39.9892 36.9391 39.8057 37.4094L39.8066 37.4104C39.3681 38.7171 38.86 39.9602 38.416 41.1233C46.9801 40.6258 58.6783 37.8876 66.1963 35.3733V35.3723ZM45.4619 15.6204L44.2607 7.86938C42.5364 7.73277 41.0709 6.39522 40.7568 4.60181V4.59888C40.5961 3.56118 40.8362 2.51708 41.4854 1.71118C42.1261 0.91566 43.0105 0.354853 44.0586 0.19458C46.1544 -0.125659 48.1697 1.31492 48.4922 3.47583L48.5176 3.67017C48.6212 4.64279 48.3712 5.60806 47.7627 6.36353C47.313 6.95794 46.7836 7.41876 46.1094 7.6731L47.3809 15.3977L63.6406 11.5129C63.8849 11.4198 64.1435 11.4732 64.3457 11.5959C64.5455 11.7173 64.7079 11.9176 64.7598 12.1516C64.8524 12.3943 64.7999 12.6505 64.6768 12.8508C64.5526 13.0526 64.3465 13.215 64.1074 13.2639L64.1084 13.2649L47.6602 17.1575L48.9561 25.4807L48.9688 25.5706C49.0048 26.0175 48.6415 26.419 48.2178 26.5032L48.2031 26.5061H48.0342C47.5815 26.5061 47.2042 26.2313 47.1113 25.7708L47.1104 25.7639L45.8174 17.5344L35.9814 19.8821L35.9824 19.8831C32.4504 20.7983 29.2264 22.9337 27.0781 25.9055L26.0703 27.2913C24.8258 28.9908 23.426 30.6136 21.9482 32.0813L19.5811 34.4309L24.1885 38.4807L24.1953 38.4875C24.5429 38.8331 24.6605 39.3922 24.2725 39.7776C24.0829 39.9658 23.8088 40.052 23.5469 40.052C23.3201 40.052 23.1024 40.0574 22.8984 39.8547V39.8538L18.2051 35.72L1.72266 52.1682V52.1692C1.6364 52.2548 1.54394 52.3244 1.43555 52.3723C1.32634 52.4205 1.20783 52.4436 1.07422 52.4436C0.940811 52.4435 0.822946 52.4205 0.713867 52.3723C0.60547 52.3244 0.513018 52.2548 0.426758 52.1692C0.0577357 51.8027 0.0577357 51.2447 0.426758 50.8782L16.7402 34.4456L9.28516 27.9377C8.64221 28.4459 7.80126 28.6614 7.04102 28.6614C6.15557 28.6613 5.18993 28.3422 4.46289 27.7004L4.46191 27.6995C2.85183 26.2602 2.68863 23.7796 4.14062 22.177C5.58942 20.5782 8.08551 20.4163 9.69824 21.8577L9.70117 21.8596C11.0368 23.1081 11.3726 25.0446 10.5596 26.6262L18.1143 33.2307L20.5723 30.7151C21.9628 29.2572 23.2766 27.723 24.5127 26.1116L25.5176 24.7288L25.5186 24.7278C26.354 23.5964 27.3353 22.6134 28.3887 21.7083L21.7783 11.0686C21.3983 11.2007 20.9681 11.2678 20.6025 11.2678C19.2388 11.2678 17.9473 10.6293 17.2197 9.42505C16.0926 7.58511 16.6556 5.1838 18.5098 4.06274C19.3975 3.50255 20.4454 3.34422 21.4883 3.58325H21.4912C22.4593 3.82373 23.3429 4.46366 23.9053 5.34106C24.4645 6.21395 24.6331 7.25488 24.3135 8.14868L24.2412 8.41919C24.061 9.00548 23.7232 9.57032 23.2734 9.98853L29.7939 20.5305C31.5467 19.4085 33.3818 18.5067 35.4434 17.9758L35.4463 17.9749L45.4619 15.6204ZM8.33594 23.1584C7.54621 22.4454 6.1711 22.5162 5.45117 23.3743C5.08188 23.8145 4.87265 24.313 4.94336 24.8752C5.00827 25.391 5.18403 25.8382 5.51367 26.179L5.66504 26.3176L5.66992 26.3225L5.83496 26.4553C6.68129 27.061 7.86653 26.7793 8.55762 26.0247C9.26922 25.2472 9.13448 23.8796 8.33594 23.1584ZM21.0312 5.49146C20.4486 5.34678 19.9455 5.41843 19.4365 5.70728C18.5055 6.27974 18.2156 7.56895 18.792 8.49927C19.3656 9.42491 20.6699 9.72021 21.6172 9.29028C22.1111 9.00786 22.4018 8.51176 22.5498 7.99731C22.6935 7.42169 22.6216 6.9246 22.332 6.42114C22.0492 5.92957 21.5498 5.63854 21.0312 5.49048V5.49146ZM44.3271 2.10864C43.7587 2.18067 43.3292 2.46079 42.9629 2.89478C42.6739 3.32771 42.5312 3.82902 42.6035 4.40356C42.7471 5.54264 43.8248 6.26443 44.9141 6.12036H44.916C45.4879 6.04927 45.9194 5.76774 46.2871 5.3313C46.5747 4.89949 46.717 4.39993 46.6455 3.82739L46.6104 3.6438C46.4078 2.8007 45.6812 2.19457 44.8125 2.11743L44.624 2.10864H44.3271Z" fill="#003C7E" stroke="#003C7E" stroke-width="0.3"/>
</svg>
