<svg width="64" height="70" viewBox="0 0 64 70" fill="none" xmlns="http://www.w3.org/2000/svg">
<path fill-rule="evenodd" clip-rule="evenodd" d="M35.9413 64.2362C37.3714 61.128 37.4735 57.6571 37.4735 54.2381C37.4735 52.8394 37.5757 51.5961 37.116 50.7154C35.7881 50.56 34.4091 51.5961 33.4898 52.1141C32.8258 52.4768 32.3151 52.5804 32.264 53.3574C32.0597 56.2066 32.6215 55.9994 31.7533 60.1437C31.549 61.1798 30.9361 63.0447 30.2211 63.4074C29.0974 63.6146 24.2965 56.6211 31.9576 48.0216C35.022 44.5508 38.7504 43.6701 42.7852 42.2196C52.1828 38.8524 59.231 32.6877 62.4997 23.2076C63.1637 21.3427 64.3894 15.9033 63.8787 13.6239C62.8061 13.1577 59.946 12.9505 58.567 12.9505C53.3064 12.9505 48.7098 14.0383 44.2664 16.6803C40.1294 19.2187 35.0731 23.4148 32.6726 27.7663C32.4172 28.2326 32.4683 28.4916 32.1108 28.5952C31.9065 28.388 31.2425 27.1965 30.9361 26.7303C30.4254 26.005 30.17 25.6424 29.6082 24.9689C25.0115 18.9597 18.0144 14.9708 10.7109 13.4167C8.56578 12.9505 1.61975 12.5878 0.0364604 13.8829C-0.218909 18.0272 0.904715 21.9643 2.23263 25.0726C6.11424 33.931 13.6221 39.3186 22.56 41.7534C23.0197 41.9088 24.8583 42.3232 25.3691 42.2714C25.8287 41.598 26.033 39.733 25.9819 38.6969C25.9309 37.9199 25.7776 37.7645 25.0626 37.5055C24.5519 37.2982 24.0411 37.091 23.4283 36.9874C23.3772 36.7802 22.9175 36.7284 22.2025 36.4694C20.9256 35.9513 18.6273 34.9153 17.5037 34.2418C13.9285 32.1179 10.3023 28.5952 8.36149 24.8653C7.64645 23.5184 5.6035 19.6332 6.06317 18.0272C8.25934 17.7164 13.1113 19.3223 14.7457 20.1512C19.5977 22.6378 23.5815 25.4352 26.6459 30.2011C29.2507 34.2936 28.6889 34.2936 29.8125 38.0753C30.7829 38.1789 31.4979 37.8163 32.3662 37.6091C35.0731 36.9356 34.0005 37.4019 35.2774 34.3454C36.8607 30.6156 39.1079 27.9736 41.7127 25.4352C43.8067 23.363 46.3093 21.8089 48.9141 20.4102C51.1102 19.2705 56.3708 17.6128 58.567 18.0272C58.6692 19.3223 57.2391 22.845 56.7284 23.8293C54.1236 28.9578 50.2931 32.2733 45.1857 35.2261C41.917 37.1428 37.8311 38.1271 34.5113 39.7848C30.9361 41.598 28.3824 43.5147 26.0841 46.6747C22.8664 51.0262 20.9767 59.9883 24.2454 64.6507C25.6244 66.6192 28.076 69.1058 30.4254 69.9346C32.2129 70.6081 35.1752 65.8939 35.9413 64.2362Z" fill="url(#paint0_linear_58_118)" fill-opacity="0.2"/>
<path fill-rule="evenodd" clip-rule="evenodd" d="M26.1352 10.3603C25.5223 6.94122 28.2803 3.98841 30.9872 3.72939C34.5113 3.36676 37.2182 5.59433 37.6778 8.70255C38.1886 12.2252 35.686 15.0744 32.8258 15.3334C29.3017 15.5925 26.697 13.3131 26.1352 10.3603ZM41.5084 10.7229C42.0702 7.82189 40.8955 5.07629 39.4654 3.36676C38.495 2.22708 38.1886 1.96806 36.8607 1.191C36.1456 0.776572 34.358 0.103123 33.3366 0.0513192C22.7643 -0.829345 19.2913 9.84224 24.2454 15.3334C25.7776 17.043 27.412 18.2863 30.3743 18.7007C33.5409 19.1669 36.0435 18.079 37.9332 16.7321C39.8229 15.437 40.9976 13.3131 41.5084 10.7229Z" fill="url(#paint1_linear_58_118)" fill-opacity="0.2"/>
<defs>
<linearGradient id="paint0_linear_58_118" x1="0" y1="35" x2="64" y2="35" gradientUnits="userSpaceOnUse">
<stop stop-color="#4D6FAC"/>
<stop offset="1" stop-color="#B1C0D0"/>
</linearGradient>
<linearGradient id="paint1_linear_58_118" x1="0" y1="35" x2="64" y2="35" gradientUnits="userSpaceOnUse">
<stop stop-color="#4D6FAC"/>
<stop offset="1" stop-color="#B1C0D0"/>
</linearGradient>
</defs>
</svg>
