<svg width="46" height="52" viewBox="0 0 46 52" fill="none" xmlns="http://www.w3.org/2000/svg">
<path fill-rule="evenodd" clip-rule="evenodd" d="M25.503 47.7183C26.5178 45.4094 26.5902 42.831 26.5902 40.2911C26.5902 39.2521 26.6627 38.3285 26.3366 37.6743C25.3943 37.5589 24.4158 38.3285 23.7635 38.7134C23.2923 38.9827 22.9299 39.0597 22.8937 39.6369C22.7487 41.7535 23.1474 41.5996 22.5313 44.6782C22.3863 45.4478 21.9514 46.8332 21.4441 47.1026C20.6468 47.2565 17.2402 42.0614 22.6762 35.6732C24.8507 33.0949 27.4963 32.4407 30.3593 31.3631C37.0275 28.8618 42.0287 24.2823 44.3481 17.2399C44.8193 15.8546 45.689 11.8139 45.3266 10.1206C44.5656 9.77428 42.5361 9.62034 41.5576 9.62034C37.8248 9.62034 34.5632 10.4285 31.4102 12.3911C28.4747 14.2768 24.8869 17.3939 23.1836 20.6264C23.0024 20.9728 23.0387 21.1652 22.785 21.2422C22.64 21.0882 22.1689 20.2031 21.9514 19.8568C21.589 19.318 21.4078 19.0486 21.0092 18.5484C17.7475 14.0844 12.7826 11.1212 7.60016 9.96669C6.07805 9.62034 1.14933 9.35096 0.0258713 10.313C-0.155332 13.3917 0.641962 16.3164 1.58422 18.6253C4.3385 25.2059 9.66587 29.2081 16.008 31.0168C16.3341 31.1322 17.6388 31.4401 18.0012 31.4016C18.3274 30.9013 18.4723 29.516 18.4361 28.7463C18.3999 28.1691 18.2911 28.0536 17.7838 27.8612C17.4214 27.7073 17.059 27.5533 16.6241 27.4764C16.5878 27.3224 16.2617 27.284 15.7543 27.0915C14.8483 26.7067 13.2175 25.9371 12.4202 25.4368C9.88332 23.859 7.31023 21.2422 5.93309 18.4714C5.42572 17.4708 3.9761 14.5846 4.30226 13.3917C5.86061 13.1608 9.30347 14.3537 10.4632 14.9695C13.906 16.8166 16.7328 18.8947 18.9072 22.4351C20.7555 25.4753 20.3569 25.4753 21.1541 28.2845C21.8427 28.3615 22.3501 28.0921 22.9662 27.9382C24.8869 27.4379 24.1259 27.7842 25.0319 25.5137C26.1553 22.743 27.7499 20.7804 29.5982 18.8947C31.0841 17.3554 32.8599 16.2009 34.7081 15.1619C36.2665 14.3152 39.9993 13.0838 41.5576 13.3917C41.6301 14.3537 40.6154 16.9706 40.2529 17.7017C38.4047 21.5115 35.6866 23.9744 32.0626 26.168C29.7432 27.5918 26.8439 28.323 24.4883 29.5544C21.9514 30.9013 20.1394 32.3252 18.5086 34.6727C16.2254 37.9052 14.8845 44.5627 17.2039 48.0262C18.1824 49.4885 19.922 51.3357 21.589 51.9514C22.8575 52.4517 24.9594 48.9498 25.503 47.7183Z" fill="url(#paint0_linear_58_71)"/>
<path fill-rule="evenodd" clip-rule="evenodd" d="M18.5448 7.6962C18.1099 5.15634 20.0669 2.96282 21.9877 2.7704C24.4883 2.50102 26.409 4.15578 26.7352 6.46475C27.0976 9.08159 25.3218 11.1981 23.2923 11.3906C20.7917 11.583 18.9435 9.88972 18.5448 7.6962ZM29.4532 7.96558C29.8519 5.81055 29.0184 3.77096 28.0036 2.50102C27.315 1.6544 27.0976 1.46199 26.1553 0.884745C25.648 0.576882 24.3796 0.0766056 23.6547 0.0381228C16.1529 -0.616085 13.6886 7.31138 17.2039 11.3906C18.2911 12.6605 19.4508 13.5841 21.5528 13.8919C23.7997 14.2383 25.5755 13.4301 26.9164 12.4296C28.2573 11.4675 29.0908 9.88972 29.4532 7.96558Z" fill="url(#paint1_linear_58_71)"/>
<defs>
<linearGradient id="paint0_linear_58_71" x1="0" y1="26" x2="45.4127" y2="26" gradientUnits="userSpaceOnUse">
<stop stop-color="white"/>
<stop offset="1" stop-color="#B1C0D0"/>
</linearGradient>
<linearGradient id="paint1_linear_58_71" x1="0" y1="26" x2="45.4127" y2="26" gradientUnits="userSpaceOnUse">
<stop stop-color="white"/>
<stop offset="1" stop-color="#B1C0D0"/>
</linearGradient>
</defs>
</svg>
