<svg width="65" height="66" viewBox="0 0 65 66" fill="none" xmlns="http://www.w3.org/2000/svg">
<mask id="path-1-outside-1_58_143" maskUnits="userSpaceOnUse" x="-0.899902" y="-0.900024" width="66" height="67" fill="black">
<rect fill="white" x="-0.899902" y="-0.900024" width="66" height="67"/>
<path d="M45.3362 48.2519H45.8434L50.8132 52.416C50.9147 52.5175 51.1175 52.6191 51.3204 52.6191C51.5232 52.6191 51.7261 52.5175 51.9289 52.3144C52.2332 52.0097 52.1318 51.5019 51.8275 51.1972L46.6548 46.83C46.5533 46.7285 46.3505 46.6269 46.1476 46.6269H44.9305C44.4234 44.7988 44.1191 42.7675 43.8148 40.6347H51.3204C51.7261 40.6347 52.1318 40.33 52.1318 39.8222C52.1318 39.3144 51.8275 39.0097 51.3204 39.0097H43.612C43.5106 37.7909 43.5106 36.6738 43.5106 35.3535C43.7134 33.4238 43.5106 31.9003 43.2063 30.58L45.0319 29.2597C45.3362 29.0566 45.4377 28.5488 45.2348 28.2441C45.0319 27.9394 44.5248 27.8378 44.2205 28.0409L42.6991 29.1581C42.192 28.0409 41.482 27.1269 40.8735 26.5175C38.8449 24.5878 35.9036 23.8769 32.9622 24.3847C30.4266 24.7909 29.108 26.7206 28.1952 28.0409C27.7895 28.6503 27.2823 29.3613 26.9781 29.3613C26.7752 29.3613 26.4709 29.2597 26.1667 28.955C25.4567 28.3456 25.051 27.4316 24.9495 26.4159C24.8481 25.705 24.7467 24.7909 24.4424 23.7753H28.6009C28.8037 23.7753 28.9052 23.6738 29.108 23.5722L34.585 19.0019C34.8893 18.6972 34.9907 18.2909 34.6865 17.8847C34.3822 17.58 33.9765 17.4784 33.5708 17.7831L28.2966 22.1503H23.8339C23.2253 20.83 22.3125 19.6113 20.9939 18.7988C20.1825 18.3925 19.6754 17.6816 19.4725 16.7675C19.1682 15.3456 19.6754 13.3144 20.7911 11.9941C21.0953 11.5878 21.0953 11.08 20.8925 10.5722C20.5882 10.1659 20.0811 9.96282 19.5739 10.0644C18.3568 10.3691 16.734 10.5722 15.4155 10.2675C15.4155 9.65814 15.7197 8.64251 16.6326 7.3222C18.2554 5.18939 22.3125 2.4472 32.0494 1.22845C32.4551 1.12689 32.7594 0.822198 32.7594 0.415948C32.7594 0.00969782 32.2522 0.11126 31.8465 0.11126C23.5296 1.12689 17.9511 3.36126 15.314 6.81439C13.9955 8.54095 13.7926 9.96282 13.7926 10.7753C9.22846 13.8222 7.09851 19.6113 6.79423 22.5566C6.69281 23.3691 6.79423 24.2831 6.89566 25.4003C6.99709 26.3144 6.59138 27.2284 5.8814 27.7363C1.82434 30.7831 0.100098 32.8144 0.100098 34.6425C0.100098 36.166 1.41864 36.9785 2.4329 37.6894L2.73718 37.8925C3.34574 38.2988 3.75144 38.705 3.85287 39.1113C3.85287 39.416 3.75144 39.6191 3.75144 39.6191C2.94003 40.5331 2.63576 41.4472 2.73718 42.3613C2.83861 43.1738 3.34574 43.8847 3.9543 44.291C3.44717 44.7988 3.14289 45.5097 3.24431 46.2206C3.34574 46.6269 3.54859 47.4394 4.66428 47.8456C5.77997 48.2519 5.27284 49.8769 5.17141 49.9784C5.17141 50.08 5.17141 50.08 5.17141 50.1816C4.86713 52.5175 5.37427 54.3456 6.79423 55.3613C9.22847 57.291 13.5898 56.2753 15.5169 55.4628C15.7197 55.3613 15.9226 55.2597 16.1255 55.1581C16.6326 54.955 17.2411 54.7519 17.7483 54.5488C17.7483 54.5488 17.7483 54.5488 17.8497 54.5488C18.7625 54.2441 19.6754 54.2441 20.5882 54.6503C22.6167 55.5644 24.5438 58.8144 26.4709 64.6034C26.5724 64.9081 26.8766 65.1113 27.1809 65.1113C27.2823 65.1113 27.3838 65.1113 27.3838 65.1113C27.7895 65.0097 27.9923 64.5019 27.8909 64.1972C25.761 57.9003 23.631 54.4472 21.1968 53.33H21.0953C23.4281 52.2128 26.4709 50.4863 28.398 48.455H43.8148C46.5533 58.3066 51.6247 64.6034 51.9289 65.0097C52.1318 65.2128 52.3346 65.3144 52.5375 65.3144C52.7403 65.3144 52.8418 65.2128 53.0446 65.1113C53.3489 64.8066 53.4503 64.4003 53.1461 63.9941C52.9432 63.791 48.0747 57.6972 45.3362 48.2519ZM29.4123 46.7285C29.818 46.0175 30.0209 45.3066 30.1223 44.4941C30.1223 44.0878 29.818 43.6816 29.4123 43.6816C29.0066 43.6816 28.6009 43.9863 28.6009 44.3925C28.6009 45.205 28.1952 45.916 27.5866 46.7285H19.9797C19.6754 45.7128 18.6611 44.9003 17.5454 44.9003C16.1255 44.9003 15.0098 46.0175 15.0098 47.4394C15.0098 48.8613 16.1255 49.9784 17.5454 49.9784C18.6611 49.9784 19.6754 49.2675 19.9797 48.1503H26.1667C23.5296 50.4863 19.2697 52.3144 17.2411 53.0253C16.6326 53.2284 16.1255 53.4316 15.5169 53.6347L14.9083 53.8378C12.9812 54.5488 9.43132 55.2597 7.70707 53.9394C6.79423 53.2285 6.48995 52.0097 6.69281 50.1816C6.79423 49.7753 7.19994 48.5566 6.69281 47.4394C6.38853 46.83 5.8814 46.3222 5.27284 46.1191C4.96856 46.0175 4.86713 45.916 4.86713 45.7128C4.86713 45.5097 5.06999 45.0019 5.37427 44.7988C5.67854 44.5956 5.8814 44.2909 5.8814 43.8847C5.8814 43.4784 5.67854 43.1738 5.37427 42.9706C5.06999 42.7675 4.46143 42.3613 4.36 41.7519C4.25858 41.3456 4.46143 40.8378 4.96856 40.33C5.06999 40.2284 5.57712 39.6191 5.47569 38.705C5.37427 37.8925 4.76571 37.08 3.75144 36.3691L3.44717 36.166C2.4329 35.455 1.82434 35.0488 1.82434 34.3378C1.82434 33.5253 2.63575 31.9003 6.99709 28.7519C8.2142 27.8378 8.82276 26.4159 8.61991 24.9941C8.31563 24.2831 8.31563 23.3691 8.31563 22.7597C8.61991 19.8144 10.7499 14.7363 14.6041 11.9941C15.9226 12.4003 17.5454 12.2988 18.9654 12.0956C17.9511 13.7206 17.444 15.8534 17.8497 17.4784C18.154 18.9003 18.9654 19.9159 20.1825 20.5253C20.9939 20.9316 21.6025 21.6425 22.1096 22.455H17.2411C16.9369 21.4394 15.9226 20.6269 14.8069 20.6269C13.3869 20.6269 12.2713 21.7441 12.2713 23.1659C12.2713 24.5878 13.3869 25.705 14.8069 25.705C15.9226 25.705 16.9369 24.9941 17.2411 23.8769H22.7182C23.0224 24.8925 23.2253 25.9081 23.3267 26.7206C23.4281 28.1425 24.0367 29.3613 25.051 30.2753C25.761 30.8847 26.3695 31.1894 27.0795 31.0878C28.0938 30.9863 28.7023 30.0722 29.4123 29.0566C30.2237 27.8378 31.238 26.4159 33.1651 26.0097C35.7007 25.6034 38.135 26.2128 39.8592 27.8378C40.5692 28.5488 41.0763 29.3613 41.482 30.2753L38.3378 32.5097H21.8053C21.501 31.4941 20.4868 30.6816 19.3711 30.6816C17.9511 30.6816 16.8354 31.7988 16.8354 33.2206C16.8354 34.6425 17.9511 35.7597 19.3711 35.7597C20.4868 35.7597 21.501 35.0488 21.8053 33.9316H38.5407C38.7435 33.9316 38.8449 33.9316 38.9464 33.83L41.7863 31.7988C41.9892 32.9159 42.0906 34.1347 41.9892 35.455C41.9892 36.6738 41.9892 37.9941 42.0906 39.1113H13.7926C13.4884 38.0956 12.4741 37.2831 11.3584 37.2831C9.93845 37.2831 8.82276 38.4003 8.82276 39.8222C8.82276 41.2441 9.93845 42.3613 11.3584 42.3613C12.4741 42.3613 13.4884 41.6503 13.7926 40.5331H42.2934C42.4963 42.6659 42.902 44.5956 43.3077 46.5253H29.4123V46.7285ZM17.5454 48.5566C17.0383 48.5566 16.5312 48.0488 16.5312 47.541C16.5312 47.0331 17.0383 46.5253 17.5454 46.5253C18.154 46.5253 18.5597 47.0331 18.5597 47.541C18.5597 48.0488 18.154 48.5566 17.5454 48.5566ZM15.8212 23.2675C15.8212 23.7753 15.314 24.2831 14.8069 24.2831C14.2998 24.2831 13.7926 23.7753 13.7926 23.2675C13.7926 22.6581 14.2998 22.2519 14.8069 22.2519C15.4155 22.2519 15.8212 22.7597 15.8212 23.2675ZM20.3854 33.3222C20.3854 33.83 19.8782 34.3378 19.3711 34.3378C18.864 34.3378 18.3568 33.83 18.3568 33.3222C18.3568 32.7128 18.864 32.3066 19.3711 32.3066C19.8782 32.3066 20.3854 32.7128 20.3854 33.3222ZM11.3584 41.0409C10.7499 41.0409 10.3442 40.5331 10.3442 40.0253C10.3442 39.5175 10.7499 39.0097 11.3584 39.0097C11.967 39.0097 12.3727 39.5175 12.3727 40.0253C12.3727 40.6347 11.967 41.0409 11.3584 41.0409Z"/>
<path d="M37.1207 13.0097H41.482C41.8877 13.0097 42.2934 12.705 42.2934 12.1972C42.2934 11.7909 41.9892 11.3847 41.482 11.3847H37.1207C36.715 11.3847 36.3093 11.6894 36.3093 12.1972C36.3093 12.705 36.715 13.0097 37.1207 13.0097Z"/>
<path d="M37.1207 16.4628H45.3362C45.7419 16.4628 46.1476 16.1581 46.1476 15.6503C46.1476 15.2441 45.8434 14.8378 45.3362 14.8378H37.1207C36.715 14.8378 36.3093 15.1425 36.3093 15.6503C36.3093 16.0566 36.715 16.4628 37.1207 16.4628Z"/>
<path d="M47.669 23.2675H52.0304C52.4361 23.2675 52.8418 22.9628 52.8418 22.455C52.8418 22.0488 52.5375 21.6425 52.0304 21.6425H47.669C47.2633 21.6425 46.8576 21.9472 46.8576 22.455C46.8576 22.9628 47.2633 23.2675 47.669 23.2675Z"/>
<path d="M47.669 26.7206H55.8846C56.2903 26.7206 56.696 26.4159 56.696 25.9081C56.696 25.5019 56.3917 25.0956 55.8846 25.0956H47.669C47.2633 25.0956 46.8576 25.4003 46.8576 25.9081C46.8576 26.3144 47.2633 26.7206 47.669 26.7206Z"/>
<path d="M54.4646 39.5175C54.4646 39.9238 54.7689 40.33 55.276 40.33H59.6373C60.043 40.33 60.4488 40.0253 60.4488 39.5175C60.4488 39.1113 60.1445 38.705 59.6373 38.705H55.276C54.7689 38.705 54.4646 39.1113 54.4646 39.5175Z"/>
<path d="M54.4646 42.8691C54.4646 43.2753 54.7689 43.6816 55.276 43.6816H63.4915C63.8972 43.6816 64.303 43.3769 64.303 42.8691C64.303 42.4628 63.9987 42.0566 63.4915 42.0566H55.276C54.7689 42.1581 54.4646 42.4628 54.4646 42.8691Z"/>
<path d="M55.1746 50.3847C54.7689 50.3847 54.3632 50.6894 54.3632 51.1972C54.3632 51.6035 54.6674 52.0097 55.1746 52.0097H59.5359C59.9416 52.0097 60.3473 51.705 60.3473 51.1972C60.3473 50.791 60.043 50.3847 59.5359 50.3847H55.1746Z"/>
<path d="M63.4915 53.8378H55.276C54.8703 53.8378 54.4646 54.1425 54.4646 54.6503C54.4646 55.0566 54.7689 55.4628 55.276 55.4628H63.4915C63.8972 55.4628 64.303 55.1581 64.303 54.6503C64.2015 54.1425 63.8972 53.8378 63.4915 53.8378Z"/>
</mask>
<path d="M45.3362 48.2519H45.8434L50.8132 52.416C50.9147 52.5175 51.1175 52.6191 51.3204 52.6191C51.5232 52.6191 51.7261 52.5175 51.9289 52.3144C52.2332 52.0097 52.1318 51.5019 51.8275 51.1972L46.6548 46.83C46.5533 46.7285 46.3505 46.6269 46.1476 46.6269H44.9305C44.4234 44.7988 44.1191 42.7675 43.8148 40.6347H51.3204C51.7261 40.6347 52.1318 40.33 52.1318 39.8222C52.1318 39.3144 51.8275 39.0097 51.3204 39.0097H43.612C43.5106 37.7909 43.5106 36.6738 43.5106 35.3535C43.7134 33.4238 43.5106 31.9003 43.2063 30.58L45.0319 29.2597C45.3362 29.0566 45.4377 28.5488 45.2348 28.2441C45.0319 27.9394 44.5248 27.8378 44.2205 28.0409L42.6991 29.1581C42.192 28.0409 41.482 27.1269 40.8735 26.5175C38.8449 24.5878 35.9036 23.8769 32.9622 24.3847C30.4266 24.7909 29.108 26.7206 28.1952 28.0409C27.7895 28.6503 27.2823 29.3613 26.9781 29.3613C26.7752 29.3613 26.4709 29.2597 26.1667 28.955C25.4567 28.3456 25.051 27.4316 24.9495 26.4159C24.8481 25.705 24.7467 24.7909 24.4424 23.7753H28.6009C28.8037 23.7753 28.9052 23.6738 29.108 23.5722L34.585 19.0019C34.8893 18.6972 34.9907 18.2909 34.6865 17.8847C34.3822 17.58 33.9765 17.4784 33.5708 17.7831L28.2966 22.1503H23.8339C23.2253 20.83 22.3125 19.6113 20.9939 18.7988C20.1825 18.3925 19.6754 17.6816 19.4725 16.7675C19.1682 15.3456 19.6754 13.3144 20.7911 11.9941C21.0953 11.5878 21.0953 11.08 20.8925 10.5722C20.5882 10.1659 20.0811 9.96282 19.5739 10.0644C18.3568 10.3691 16.734 10.5722 15.4155 10.2675C15.4155 9.65814 15.7197 8.64251 16.6326 7.3222C18.2554 5.18939 22.3125 2.4472 32.0494 1.22845C32.4551 1.12689 32.7594 0.822198 32.7594 0.415948C32.7594 0.00969782 32.2522 0.11126 31.8465 0.11126C23.5296 1.12689 17.9511 3.36126 15.314 6.81439C13.9955 8.54095 13.7926 9.96282 13.7926 10.7753C9.22846 13.8222 7.09851 19.6113 6.79423 22.5566C6.69281 23.3691 6.79423 24.2831 6.89566 25.4003C6.99709 26.3144 6.59138 27.2284 5.8814 27.7363C1.82434 30.7831 0.100098 32.8144 0.100098 34.6425C0.100098 36.166 1.41864 36.9785 2.4329 37.6894L2.73718 37.8925C3.34574 38.2988 3.75144 38.705 3.85287 39.1113C3.85287 39.416 3.75144 39.6191 3.75144 39.6191C2.94003 40.5331 2.63576 41.4472 2.73718 42.3613C2.83861 43.1738 3.34574 43.8847 3.9543 44.291C3.44717 44.7988 3.14289 45.5097 3.24431 46.2206C3.34574 46.6269 3.54859 47.4394 4.66428 47.8456C5.77997 48.2519 5.27284 49.8769 5.17141 49.9784C5.17141 50.08 5.17141 50.08 5.17141 50.1816C4.86713 52.5175 5.37427 54.3456 6.79423 55.3613C9.22847 57.291 13.5898 56.2753 15.5169 55.4628C15.7197 55.3613 15.9226 55.2597 16.1255 55.1581C16.6326 54.955 17.2411 54.7519 17.7483 54.5488C17.7483 54.5488 17.7483 54.5488 17.8497 54.5488C18.7625 54.2441 19.6754 54.2441 20.5882 54.6503C22.6167 55.5644 24.5438 58.8144 26.4709 64.6034C26.5724 64.9081 26.8766 65.1113 27.1809 65.1113C27.2823 65.1113 27.3838 65.1113 27.3838 65.1113C27.7895 65.0097 27.9923 64.5019 27.8909 64.1972C25.761 57.9003 23.631 54.4472 21.1968 53.33H21.0953C23.4281 52.2128 26.4709 50.4863 28.398 48.455H43.8148C46.5533 58.3066 51.6247 64.6034 51.9289 65.0097C52.1318 65.2128 52.3346 65.3144 52.5375 65.3144C52.7403 65.3144 52.8418 65.2128 53.0446 65.1113C53.3489 64.8066 53.4503 64.4003 53.1461 63.9941C52.9432 63.791 48.0747 57.6972 45.3362 48.2519ZM29.4123 46.7285C29.818 46.0175 30.0209 45.3066 30.1223 44.4941C30.1223 44.0878 29.818 43.6816 29.4123 43.6816C29.0066 43.6816 28.6009 43.9863 28.6009 44.3925C28.6009 45.205 28.1952 45.916 27.5866 46.7285H19.9797C19.6754 45.7128 18.6611 44.9003 17.5454 44.9003C16.1255 44.9003 15.0098 46.0175 15.0098 47.4394C15.0098 48.8613 16.1255 49.9784 17.5454 49.9784C18.6611 49.9784 19.6754 49.2675 19.9797 48.1503H26.1667C23.5296 50.4863 19.2697 52.3144 17.2411 53.0253C16.6326 53.2284 16.1255 53.4316 15.5169 53.6347L14.9083 53.8378C12.9812 54.5488 9.43132 55.2597 7.70707 53.9394C6.79423 53.2285 6.48995 52.0097 6.69281 50.1816C6.79423 49.7753 7.19994 48.5566 6.69281 47.4394C6.38853 46.83 5.8814 46.3222 5.27284 46.1191C4.96856 46.0175 4.86713 45.916 4.86713 45.7128C4.86713 45.5097 5.06999 45.0019 5.37427 44.7988C5.67854 44.5956 5.8814 44.2909 5.8814 43.8847C5.8814 43.4784 5.67854 43.1738 5.37427 42.9706C5.06999 42.7675 4.46143 42.3613 4.36 41.7519C4.25858 41.3456 4.46143 40.8378 4.96856 40.33C5.06999 40.2284 5.57712 39.6191 5.47569 38.705C5.37427 37.8925 4.76571 37.08 3.75144 36.3691L3.44717 36.166C2.4329 35.455 1.82434 35.0488 1.82434 34.3378C1.82434 33.5253 2.63575 31.9003 6.99709 28.7519C8.2142 27.8378 8.82276 26.4159 8.61991 24.9941C8.31563 24.2831 8.31563 23.3691 8.31563 22.7597C8.61991 19.8144 10.7499 14.7363 14.6041 11.9941C15.9226 12.4003 17.5454 12.2988 18.9654 12.0956C17.9511 13.7206 17.444 15.8534 17.8497 17.4784C18.154 18.9003 18.9654 19.9159 20.1825 20.5253C20.9939 20.9316 21.6025 21.6425 22.1096 22.455H17.2411C16.9369 21.4394 15.9226 20.6269 14.8069 20.6269C13.3869 20.6269 12.2713 21.7441 12.2713 23.1659C12.2713 24.5878 13.3869 25.705 14.8069 25.705C15.9226 25.705 16.9369 24.9941 17.2411 23.8769H22.7182C23.0224 24.8925 23.2253 25.9081 23.3267 26.7206C23.4281 28.1425 24.0367 29.3613 25.051 30.2753C25.761 30.8847 26.3695 31.1894 27.0795 31.0878C28.0938 30.9863 28.7023 30.0722 29.4123 29.0566C30.2237 27.8378 31.238 26.4159 33.1651 26.0097C35.7007 25.6034 38.135 26.2128 39.8592 27.8378C40.5692 28.5488 41.0763 29.3613 41.482 30.2753L38.3378 32.5097H21.8053C21.501 31.4941 20.4868 30.6816 19.3711 30.6816C17.9511 30.6816 16.8354 31.7988 16.8354 33.2206C16.8354 34.6425 17.9511 35.7597 19.3711 35.7597C20.4868 35.7597 21.501 35.0488 21.8053 33.9316H38.5407C38.7435 33.9316 38.8449 33.9316 38.9464 33.83L41.7863 31.7988C41.9892 32.9159 42.0906 34.1347 41.9892 35.455C41.9892 36.6738 41.9892 37.9941 42.0906 39.1113H13.7926C13.4884 38.0956 12.4741 37.2831 11.3584 37.2831C9.93845 37.2831 8.82276 38.4003 8.82276 39.8222C8.82276 41.2441 9.93845 42.3613 11.3584 42.3613C12.4741 42.3613 13.4884 41.6503 13.7926 40.5331H42.2934C42.4963 42.6659 42.902 44.5956 43.3077 46.5253H29.4123V46.7285ZM17.5454 48.5566C17.0383 48.5566 16.5312 48.0488 16.5312 47.541C16.5312 47.0331 17.0383 46.5253 17.5454 46.5253C18.154 46.5253 18.5597 47.0331 18.5597 47.541C18.5597 48.0488 18.154 48.5566 17.5454 48.5566ZM15.8212 23.2675C15.8212 23.7753 15.314 24.2831 14.8069 24.2831C14.2998 24.2831 13.7926 23.7753 13.7926 23.2675C13.7926 22.6581 14.2998 22.2519 14.8069 22.2519C15.4155 22.2519 15.8212 22.7597 15.8212 23.2675ZM20.3854 33.3222C20.3854 33.83 19.8782 34.3378 19.3711 34.3378C18.864 34.3378 18.3568 33.83 18.3568 33.3222C18.3568 32.7128 18.864 32.3066 19.3711 32.3066C19.8782 32.3066 20.3854 32.7128 20.3854 33.3222ZM11.3584 41.0409C10.7499 41.0409 10.3442 40.5331 10.3442 40.0253C10.3442 39.5175 10.7499 39.0097 11.3584 39.0097C11.967 39.0097 12.3727 39.5175 12.3727 40.0253C12.3727 40.6347 11.967 41.0409 11.3584 41.0409Z" fill="#003C7E"/>
<path d="M37.1207 13.0097H41.482C41.8877 13.0097 42.2934 12.705 42.2934 12.1972C42.2934 11.7909 41.9892 11.3847 41.482 11.3847H37.1207C36.715 11.3847 36.3093 11.6894 36.3093 12.1972C36.3093 12.705 36.715 13.0097 37.1207 13.0097Z" fill="#003C7E"/>
<path d="M37.1207 16.4628H45.3362C45.7419 16.4628 46.1476 16.1581 46.1476 15.6503C46.1476 15.2441 45.8434 14.8378 45.3362 14.8378H37.1207C36.715 14.8378 36.3093 15.1425 36.3093 15.6503C36.3093 16.0566 36.715 16.4628 37.1207 16.4628Z" fill="#003C7E"/>
<path d="M47.669 23.2675H52.0304C52.4361 23.2675 52.8418 22.9628 52.8418 22.455C52.8418 22.0488 52.5375 21.6425 52.0304 21.6425H47.669C47.2633 21.6425 46.8576 21.9472 46.8576 22.455C46.8576 22.9628 47.2633 23.2675 47.669 23.2675Z" fill="#003C7E"/>
<path d="M47.669 26.7206H55.8846C56.2903 26.7206 56.696 26.4159 56.696 25.9081C56.696 25.5019 56.3917 25.0956 55.8846 25.0956H47.669C47.2633 25.0956 46.8576 25.4003 46.8576 25.9081C46.8576 26.3144 47.2633 26.7206 47.669 26.7206Z" fill="#003C7E"/>
<path d="M54.4646 39.5175C54.4646 39.9238 54.7689 40.33 55.276 40.33H59.6373C60.043 40.33 60.4488 40.0253 60.4488 39.5175C60.4488 39.1113 60.1445 38.705 59.6373 38.705H55.276C54.7689 38.705 54.4646 39.1113 54.4646 39.5175Z" fill="#003C7E"/>
<path d="M54.4646 42.8691C54.4646 43.2753 54.7689 43.6816 55.276 43.6816H63.4915C63.8972 43.6816 64.303 43.3769 64.303 42.8691C64.303 42.4628 63.9987 42.0566 63.4915 42.0566H55.276C54.7689 42.1581 54.4646 42.4628 54.4646 42.8691Z" fill="#003C7E"/>
<path d="M55.1746 50.3847C54.7689 50.3847 54.3632 50.6894 54.3632 51.1972C54.3632 51.6035 54.6674 52.0097 55.1746 52.0097H59.5359C59.9416 52.0097 60.3473 51.705 60.3473 51.1972C60.3473 50.791 60.043 50.3847 59.5359 50.3847H55.1746Z" fill="#003C7E"/>
<path d="M63.4915 53.8378H55.276C54.8703 53.8378 54.4646 54.1425 54.4646 54.6503C54.4646 55.0566 54.7689 55.4628 55.276 55.4628H63.4915C63.8972 55.4628 64.303 55.1581 64.303 54.6503C64.2015 54.1425 63.8972 53.8378 63.4915 53.8378Z" fill="#003C7E"/>
<path d="M45.3362 48.2519H45.8434L50.8132 52.416C50.9147 52.5175 51.1175 52.6191 51.3204 52.6191C51.5232 52.6191 51.7261 52.5175 51.9289 52.3144C52.2332 52.0097 52.1318 51.5019 51.8275 51.1972L46.6548 46.83C46.5533 46.7285 46.3505 46.6269 46.1476 46.6269H44.9305C44.4234 44.7988 44.1191 42.7675 43.8148 40.6347H51.3204C51.7261 40.6347 52.1318 40.33 52.1318 39.8222C52.1318 39.3144 51.8275 39.0097 51.3204 39.0097H43.612C43.5106 37.7909 43.5106 36.6738 43.5106 35.3535C43.7134 33.4238 43.5106 31.9003 43.2063 30.58L45.0319 29.2597C45.3362 29.0566 45.4377 28.5488 45.2348 28.2441C45.0319 27.9394 44.5248 27.8378 44.2205 28.0409L42.6991 29.1581C42.192 28.0409 41.482 27.1269 40.8735 26.5175C38.8449 24.5878 35.9036 23.8769 32.9622 24.3847C30.4266 24.7909 29.108 26.7206 28.1952 28.0409C27.7895 28.6503 27.2823 29.3613 26.9781 29.3613C26.7752 29.3613 26.4709 29.2597 26.1667 28.955C25.4567 28.3456 25.051 27.4316 24.9495 26.4159C24.8481 25.705 24.7467 24.7909 24.4424 23.7753H28.6009C28.8037 23.7753 28.9052 23.6738 29.108 23.5722L34.585 19.0019C34.8893 18.6972 34.9907 18.2909 34.6865 17.8847C34.3822 17.58 33.9765 17.4784 33.5708 17.7831L28.2966 22.1503H23.8339C23.2253 20.83 22.3125 19.6113 20.9939 18.7988C20.1825 18.3925 19.6754 17.6816 19.4725 16.7675C19.1682 15.3456 19.6754 13.3144 20.7911 11.9941C21.0953 11.5878 21.0953 11.08 20.8925 10.5722C20.5882 10.1659 20.0811 9.96282 19.5739 10.0644C18.3568 10.3691 16.734 10.5722 15.4155 10.2675C15.4155 9.65814 15.7197 8.64251 16.6326 7.3222C18.2554 5.18939 22.3125 2.4472 32.0494 1.22845C32.4551 1.12689 32.7594 0.822198 32.7594 0.415948C32.7594 0.00969782 32.2522 0.11126 31.8465 0.11126C23.5296 1.12689 17.9511 3.36126 15.314 6.81439C13.9955 8.54095 13.7926 9.96282 13.7926 10.7753C9.22846 13.8222 7.09851 19.6113 6.79423 22.5566C6.69281 23.3691 6.79423 24.2831 6.89566 25.4003C6.99709 26.3144 6.59138 27.2284 5.8814 27.7363C1.82434 30.7831 0.100098 32.8144 0.100098 34.6425C0.100098 36.166 1.41864 36.9785 2.4329 37.6894L2.73718 37.8925C3.34574 38.2988 3.75144 38.705 3.85287 39.1113C3.85287 39.416 3.75144 39.6191 3.75144 39.6191C2.94003 40.5331 2.63576 41.4472 2.73718 42.3613C2.83861 43.1738 3.34574 43.8847 3.9543 44.291C3.44717 44.7988 3.14289 45.5097 3.24431 46.2206C3.34574 46.6269 3.54859 47.4394 4.66428 47.8456C5.77997 48.2519 5.27284 49.8769 5.17141 49.9784C5.17141 50.08 5.17141 50.08 5.17141 50.1816C4.86713 52.5175 5.37427 54.3456 6.79423 55.3613C9.22847 57.291 13.5898 56.2753 15.5169 55.4628C15.7197 55.3613 15.9226 55.2597 16.1255 55.1581C16.6326 54.955 17.2411 54.7519 17.7483 54.5488C17.7483 54.5488 17.7483 54.5488 17.8497 54.5488C18.7625 54.2441 19.6754 54.2441 20.5882 54.6503C22.6167 55.5644 24.5438 58.8144 26.4709 64.6034C26.5724 64.9081 26.8766 65.1113 27.1809 65.1113C27.2823 65.1113 27.3838 65.1113 27.3838 65.1113C27.7895 65.0097 27.9923 64.5019 27.8909 64.1972C25.761 57.9003 23.631 54.4472 21.1968 53.33H21.0953C23.4281 52.2128 26.4709 50.4863 28.398 48.455H43.8148C46.5533 58.3066 51.6247 64.6034 51.9289 65.0097C52.1318 65.2128 52.3346 65.3144 52.5375 65.3144C52.7403 65.3144 52.8418 65.2128 53.0446 65.1113C53.3489 64.8066 53.4503 64.4003 53.1461 63.9941C52.9432 63.791 48.0747 57.6972 45.3362 48.2519ZM29.4123 46.7285C29.818 46.0175 30.0209 45.3066 30.1223 44.4941C30.1223 44.0878 29.818 43.6816 29.4123 43.6816C29.0066 43.6816 28.6009 43.9863 28.6009 44.3925C28.6009 45.205 28.1952 45.916 27.5866 46.7285H19.9797C19.6754 45.7128 18.6611 44.9003 17.5454 44.9003C16.1255 44.9003 15.0098 46.0175 15.0098 47.4394C15.0098 48.8613 16.1255 49.9784 17.5454 49.9784C18.6611 49.9784 19.6754 49.2675 19.9797 48.1503H26.1667C23.5296 50.4863 19.2697 52.3144 17.2411 53.0253C16.6326 53.2284 16.1255 53.4316 15.5169 53.6347L14.9083 53.8378C12.9812 54.5488 9.43132 55.2597 7.70707 53.9394C6.79423 53.2285 6.48995 52.0097 6.69281 50.1816C6.79423 49.7753 7.19994 48.5566 6.69281 47.4394C6.38853 46.83 5.8814 46.3222 5.27284 46.1191C4.96856 46.0175 4.86713 45.916 4.86713 45.7128C4.86713 45.5097 5.06999 45.0019 5.37427 44.7988C5.67854 44.5956 5.8814 44.2909 5.8814 43.8847C5.8814 43.4784 5.67854 43.1738 5.37427 42.9706C5.06999 42.7675 4.46143 42.3613 4.36 41.7519C4.25858 41.3456 4.46143 40.8378 4.96856 40.33C5.06999 40.2284 5.57712 39.6191 5.47569 38.705C5.37427 37.8925 4.76571 37.08 3.75144 36.3691L3.44717 36.166C2.4329 35.455 1.82434 35.0488 1.82434 34.3378C1.82434 33.5253 2.63575 31.9003 6.99709 28.7519C8.2142 27.8378 8.82276 26.4159 8.61991 24.9941C8.31563 24.2831 8.31563 23.3691 8.31563 22.7597C8.61991 19.8144 10.7499 14.7363 14.6041 11.9941C15.9226 12.4003 17.5454 12.2988 18.9654 12.0956C17.9511 13.7206 17.444 15.8534 17.8497 17.4784C18.154 18.9003 18.9654 19.9159 20.1825 20.5253C20.9939 20.9316 21.6025 21.6425 22.1096 22.455H17.2411C16.9369 21.4394 15.9226 20.6269 14.8069 20.6269C13.3869 20.6269 12.2713 21.7441 12.2713 23.1659C12.2713 24.5878 13.3869 25.705 14.8069 25.705C15.9226 25.705 16.9369 24.9941 17.2411 23.8769H22.7182C23.0224 24.8925 23.2253 25.9081 23.3267 26.7206C23.4281 28.1425 24.0367 29.3613 25.051 30.2753C25.761 30.8847 26.3695 31.1894 27.0795 31.0878C28.0938 30.9863 28.7023 30.0722 29.4123 29.0566C30.2237 27.8378 31.238 26.4159 33.1651 26.0097C35.7007 25.6034 38.135 26.2128 39.8592 27.8378C40.5692 28.5488 41.0763 29.3613 41.482 30.2753L38.3378 32.5097H21.8053C21.501 31.4941 20.4868 30.6816 19.3711 30.6816C17.9511 30.6816 16.8354 31.7988 16.8354 33.2206C16.8354 34.6425 17.9511 35.7597 19.3711 35.7597C20.4868 35.7597 21.501 35.0488 21.8053 33.9316H38.5407C38.7435 33.9316 38.8449 33.9316 38.9464 33.83L41.7863 31.7988C41.9892 32.9159 42.0906 34.1347 41.9892 35.455C41.9892 36.6738 41.9892 37.9941 42.0906 39.1113H13.7926C13.4884 38.0956 12.4741 37.2831 11.3584 37.2831C9.93845 37.2831 8.82276 38.4003 8.82276 39.8222C8.82276 41.2441 9.93845 42.3613 11.3584 42.3613C12.4741 42.3613 13.4884 41.6503 13.7926 40.5331H42.2934C42.4963 42.6659 42.902 44.5956 43.3077 46.5253H29.4123V46.7285ZM17.5454 48.5566C17.0383 48.5566 16.5312 48.0488 16.5312 47.541C16.5312 47.0331 17.0383 46.5253 17.5454 46.5253C18.154 46.5253 18.5597 47.0331 18.5597 47.541C18.5597 48.0488 18.154 48.5566 17.5454 48.5566ZM15.8212 23.2675C15.8212 23.7753 15.314 24.2831 14.8069 24.2831C14.2998 24.2831 13.7926 23.7753 13.7926 23.2675C13.7926 22.6581 14.2998 22.2519 14.8069 22.2519C15.4155 22.2519 15.8212 22.7597 15.8212 23.2675ZM20.3854 33.3222C20.3854 33.83 19.8782 34.3378 19.3711 34.3378C18.864 34.3378 18.3568 33.83 18.3568 33.3222C18.3568 32.7128 18.864 32.3066 19.3711 32.3066C19.8782 32.3066 20.3854 32.7128 20.3854 33.3222ZM11.3584 41.0409C10.7499 41.0409 10.3442 40.5331 10.3442 40.0253C10.3442 39.5175 10.7499 39.0097 11.3584 39.0097C11.967 39.0097 12.3727 39.5175 12.3727 40.0253C12.3727 40.6347 11.967 41.0409 11.3584 41.0409Z" stroke="#003C7E" stroke-width="0.2" mask="url(#path-1-outside-1_58_143)"/>
<path d="M37.1207 13.0097H41.482C41.8877 13.0097 42.2934 12.705 42.2934 12.1972C42.2934 11.7909 41.9892 11.3847 41.482 11.3847H37.1207C36.715 11.3847 36.3093 11.6894 36.3093 12.1972C36.3093 12.705 36.715 13.0097 37.1207 13.0097Z" stroke="#003C7E" stroke-width="0.2" mask="url(#path-1-outside-1_58_143)"/>
<path d="M37.1207 16.4628H45.3362C45.7419 16.4628 46.1476 16.1581 46.1476 15.6503C46.1476 15.2441 45.8434 14.8378 45.3362 14.8378H37.1207C36.715 14.8378 36.3093 15.1425 36.3093 15.6503C36.3093 16.0566 36.715 16.4628 37.1207 16.4628Z" stroke="#003C7E" stroke-width="0.2" mask="url(#path-1-outside-1_58_143)"/>
<path d="M47.669 23.2675H52.0304C52.4361 23.2675 52.8418 22.9628 52.8418 22.455C52.8418 22.0488 52.5375 21.6425 52.0304 21.6425H47.669C47.2633 21.6425 46.8576 21.9472 46.8576 22.455C46.8576 22.9628 47.2633 23.2675 47.669 23.2675Z" stroke="#003C7E" stroke-width="0.2" mask="url(#path-1-outside-1_58_143)"/>
<path d="M47.669 26.7206H55.8846C56.2903 26.7206 56.696 26.4159 56.696 25.9081C56.696 25.5019 56.3917 25.0956 55.8846 25.0956H47.669C47.2633 25.0956 46.8576 25.4003 46.8576 25.9081C46.8576 26.3144 47.2633 26.7206 47.669 26.7206Z" stroke="#003C7E" stroke-width="0.2" mask="url(#path-1-outside-1_58_143)"/>
<path d="M54.4646 39.5175C54.4646 39.9238 54.7689 40.33 55.276 40.33H59.6373C60.043 40.33 60.4488 40.0253 60.4488 39.5175C60.4488 39.1113 60.1445 38.705 59.6373 38.705H55.276C54.7689 38.705 54.4646 39.1113 54.4646 39.5175Z" stroke="#003C7E" stroke-width="0.2" mask="url(#path-1-outside-1_58_143)"/>
<path d="M54.4646 42.8691C54.4646 43.2753 54.7689 43.6816 55.276 43.6816H63.4915C63.8972 43.6816 64.303 43.3769 64.303 42.8691C64.303 42.4628 63.9987 42.0566 63.4915 42.0566H55.276C54.7689 42.1581 54.4646 42.4628 54.4646 42.8691Z" stroke="#003C7E" stroke-width="0.2" mask="url(#path-1-outside-1_58_143)"/>
<path d="M55.1746 50.3847C54.7689 50.3847 54.3632 50.6894 54.3632 51.1972C54.3632 51.6035 54.6674 52.0097 55.1746 52.0097H59.5359C59.9416 52.0097 60.3473 51.705 60.3473 51.1972C60.3473 50.791 60.043 50.3847 59.5359 50.3847H55.1746Z" stroke="#003C7E" stroke-width="0.2" mask="url(#path-1-outside-1_58_143)"/>
<path d="M63.4915 53.8378H55.276C54.8703 53.8378 54.4646 54.1425 54.4646 54.6503C54.4646 55.0566 54.7689 55.4628 55.276 55.4628H63.4915C63.8972 55.4628 64.303 55.1581 64.303 54.6503C64.2015 54.1425 63.8972 53.8378 63.4915 53.8378Z" stroke="#003C7E" stroke-width="0.2" mask="url(#path-1-outside-1_58_143)"/>
</svg>
