<svg width="74" height="65" viewBox="0 0 74 65" fill="none" xmlns="http://www.w3.org/2000/svg">
<path d="M19.0492 32.5264C20.6319 32.6916 23.1309 32.5264 26.3795 31.039C26.6294 32.0306 27.0459 32.9395 27.629 33.8484C29.2116 36.2447 31.7939 37.8147 35.2091 38.4757C36.292 38.7236 37.5414 38.8063 38.7076 38.8063C40.7901 38.8063 42.9558 38.4757 45.1216 37.8973C48.7034 36.9058 51.952 35.1705 54.2844 33.0221C56.7833 30.7085 58.1994 28.0643 58.4493 25.1723C61.8645 24.2634 64.6133 22.776 66.5292 20.7929C71.2772 15.9177 71.9436 8.72889 68.0286 4.18423C64.7799 0.383244 58.5326 -1.1041 53.7846 0.879025C50.3694 2.28374 48.5368 5.17579 48.6201 8.89415C47.1207 9.55519 46.0378 10.3815 45.2049 11.2904C45.2049 10.6294 45.2049 10.1336 45.2049 9.88571C45.4548 6.82839 43.6222 5.58894 42.0395 5.42368C40.3736 5.25842 38.2078 6.24998 37.1249 8.72889C36.6252 9.80308 36.292 10.9599 36.0421 12.0341C34.7093 11.2078 33.0433 10.7946 31.2108 10.8773C25.0467 11.1252 21.215 18.7271 19.7989 23.1065C16.7169 23.9328 14.218 26.4117 14.218 28.808C14.218 29.7169 14.7177 32.0306 19.0492 32.5264ZM20.7985 24.6765C21.1317 24.5939 21.3816 24.346 21.4649 24.0155C22.7144 19.5534 26.3795 12.7778 31.2941 12.5299C33.0433 12.4472 34.5427 12.943 35.7089 13.852C35.2924 17.2398 35.7089 20.545 37.1249 23.7676C37.2915 24.2634 37.8746 24.4286 38.2911 24.2634C38.7076 24.0981 38.9575 23.5197 38.7909 23.1065C36.875 18.6445 36.8751 14.0172 38.8742 9.3073C39.5406 7.73733 40.8734 7.07628 41.9562 7.15891C43.0391 7.24154 43.5389 8.15048 43.4556 9.63782C43.3723 10.6294 43.3723 13.5214 44.122 16.083C44.122 16.1656 44.2053 16.3309 44.2053 16.4135C44.2053 16.4961 44.2886 16.5788 44.2886 16.5788C44.2886 16.5788 44.2886 16.6614 44.3719 16.6614C45.0383 18.2314 46.2044 19.4708 46.9541 19.9666C47.3706 20.2145 47.9537 20.1318 48.2036 19.7187C48.4535 19.3055 48.3702 18.7271 47.9537 18.4792C47.5372 18.2314 46.5376 17.2398 46.0378 16.0003C45.9545 15.8351 45.8713 15.5872 45.8713 15.4219C45.788 15.0914 45.7047 14.6783 45.788 14.2651C45.9545 12.6951 47.3706 11.2904 49.9529 10.2162C50.2861 10.051 50.5359 9.72045 50.5359 9.3073C50.2861 6.08472 51.7021 3.60582 54.5343 2.449C58.5326 0.796395 64.0303 2.03585 66.6958 5.25842C69.9444 9.14204 69.3613 15.2567 65.2797 19.4708C63.5305 21.2887 60.8649 22.6934 57.4497 23.5197C57.0332 23.6023 56.7833 23.9328 56.7833 24.346C56.6167 30.6259 50.2028 34.5921 44.7051 36.0795C39.0408 37.6494 32.0438 37.2363 29.2116 32.7743C27.7123 30.4606 27.629 27.8991 28.9617 24.5112C29.045 24.1807 29.2116 23.9328 29.4615 23.6023C29.9613 22.6108 30.6277 21.4539 30.3778 19.7187C30.2945 19.3055 29.9613 18.975 29.4615 18.975C29.3782 18.975 29.3782 18.975 29.2949 18.975C28.7951 19.0577 28.4619 19.4708 28.5452 19.9666C28.7118 21.0408 28.2953 21.8671 27.8789 22.6934C27.7123 23.0239 27.4624 23.437 27.2958 23.8502C26.5461 25.7507 26.2129 27.4033 26.2962 29.0559C23.8805 30.2954 21.3816 30.8738 19.3824 30.6259C18.2163 30.5432 16.2171 30.1301 16.2171 28.7254C16.0505 27.3207 18.0497 25.2549 20.7985 24.6765ZM33.793 56.2412V53.3492C33.793 53.1013 33.793 52.7707 33.8763 52.3576C34.0429 50.9529 34.2928 48.8045 33.3765 46.7387C32.3769 44.2598 30.0446 42.5246 26.4628 41.533L20.1321 37.8973C17.3 36.3274 15.1342 36.4926 13.6349 37.3189L8.55368 28.5601C6.38793 24.9244 3.63909 24.4286 1.80653 25.1723C0.973547 25.5028 0.39046 26.0812 0.140566 26.9075C-0.109329 27.7338 -0.0260307 28.5601 0.39046 29.3038L9.55326 45.0861C10.4695 46.6561 11.6357 47.8129 13.2184 48.7219L17.5499 51.2008C18.5495 51.7792 18.7994 51.9444 18.7994 53.3492V56.2412C17.6332 56.4065 16.8002 57.398 16.8002 58.6375V62.6037C16.8002 63.9258 17.8831 65 19.2158 65H33.3765C34.7093 65 35.7922 63.9258 35.7922 62.6037V58.6375C35.7922 57.398 34.9592 56.4065 33.793 56.2412ZM18.3829 49.6308L14.0514 47.1519C12.7186 46.4082 11.8023 45.4993 11.0526 44.1772L1.88983 28.3949C1.72323 28.147 1.72323 27.8164 1.80653 27.4859C1.88983 27.1554 2.13972 26.9075 2.47291 26.8249C3.63909 26.3291 5.47165 26.8249 7.05431 29.469L12.3854 38.641C12.0522 39.2194 11.8856 39.9631 12.0522 40.7067C12.2188 41.533 12.7186 42.2767 13.4683 42.6899L20.382 46.6561C20.7985 46.904 21.3816 46.7387 21.6315 46.3256C21.8814 45.9124 21.7148 45.334 21.2983 45.0861L14.3845 41.1199C14.1347 40.9546 13.8848 40.7067 13.8015 40.3762C13.7182 40.0457 13.8015 39.7152 14.0514 39.4673L14.1347 39.3847C14.1347 39.3847 14.1347 39.3847 14.218 39.302C15.0509 38.3931 16.8002 38.0626 19.3824 39.4673L25.7964 43.1856C25.8797 43.1856 25.963 43.2683 26.0463 43.2683C29.1283 44.0946 31.0442 45.4167 31.8772 47.4824C32.5435 49.135 32.377 50.9529 32.2104 52.275C32.1271 52.6881 32.1271 53.1013 32.1271 53.4318V56.2412H20.6319V53.4318C20.6319 51.0355 19.7156 50.3745 18.3829 49.6308ZM33.9596 62.6037C33.9596 62.9343 33.7097 63.1821 33.3765 63.1821H19.2158C18.8827 63.1821 18.6328 62.9343 18.6328 62.6037V58.6375C18.6328 58.307 18.8827 58.0591 19.2158 58.0591H33.3765C33.7097 58.0591 33.9596 58.307 33.9596 58.6375V62.6037ZM73.8594 26.9075C73.6095 26.0812 72.9431 25.5028 72.1935 25.1723C70.2776 24.4286 67.5288 24.9244 65.4463 28.5601L60.3651 37.3189C58.9491 36.41 56.7 36.3274 53.8679 37.8973L47.5372 41.533C44.0387 42.5246 41.7063 44.2598 40.6235 46.7387C39.7905 48.8045 39.9571 50.9529 40.1237 52.3576C40.207 52.7707 40.207 53.1013 40.207 53.3492V56.2412C39.0408 56.4065 38.2078 57.398 38.2078 58.6375V62.6037C38.2078 63.9258 39.2907 65 40.6235 65H54.7842C56.1169 65 57.1998 63.9258 57.1998 62.6037V58.6375C57.1998 57.4807 56.3668 56.4891 55.2006 56.2412V53.3492C55.2006 51.8618 55.5338 51.6966 56.4501 51.2008L60.7816 48.7219C62.3643 47.8129 63.5305 46.6561 64.4467 45.0861L73.6095 29.3038C74.026 28.5601 74.1093 27.7338 73.8594 26.9075ZM55.4505 58.6375V62.6037C55.4505 62.9343 55.2006 63.1821 54.8675 63.1821H40.7068C40.3736 63.1821 40.1237 62.9343 40.1237 62.6037V58.6375C40.1237 58.307 40.3736 58.0591 40.7068 58.0591H54.8675C55.1173 57.9764 55.4505 58.307 55.4505 58.6375ZM72.1102 28.3949L62.9474 44.1772C62.1977 45.4993 61.2814 46.4082 59.9486 47.1519L55.6171 49.6308C54.2844 50.3745 53.4514 51.0355 53.4514 53.3492V56.1586H42.0395V53.3492C42.0395 53.0186 41.9562 52.6055 41.9562 52.1923C41.7896 50.8703 41.623 49.135 42.2894 47.3998C43.1224 45.4167 45.0383 44.012 48.1203 43.1856C48.2036 43.1856 48.2869 43.103 48.3702 43.103L54.7842 39.3847C57.2831 37.8973 59.0324 38.3105 59.9486 39.2194C59.9486 39.2194 59.9486 39.2194 60.0319 39.302L60.1152 39.3847C60.2818 39.6326 60.3651 39.9631 60.3651 40.2936C60.2818 40.6241 60.1152 40.872 59.782 41.0373L52.8683 45.0035C52.4518 45.2514 52.2852 45.8298 52.5351 46.243C52.785 46.6561 53.3681 46.8214 53.7846 46.5735L60.6983 42.6072C61.448 42.1941 61.9478 41.4504 62.1144 40.6241C62.281 39.8804 62.1144 39.2194 61.7812 38.5584L67.1123 29.3864C68.6949 26.7423 70.4442 26.2465 71.6937 26.7423C72.0269 26.8249 72.1935 27.0728 72.3601 27.4033C72.2768 27.8164 72.1935 28.147 72.1102 28.3949Z" fill="#003C7E"/>
</svg>
