<svg width="16" height="16" viewBox="0 0 16 16" fill="none" xmlns="http://www.w3.org/2000/svg">
<path d="M12.3701 14.9103L13.7895 12.7701L10.5684 10.3642L8.77186 11.8506C8.63569 11.963 8.44713 11.9732 8.30572 11.8864C7.46246 11.4624 6.47255 10.6401 5.60834 9.71552L5.59263 9.69509C4.72318 8.76034 3.97944 7.71321 3.63375 6.86019C3.5709 6.71206 3.61804 6.5435 3.72803 6.44134L5.41455 4.83745L3.26712 1.48154L0.946853 2.65636C0.889239 3.04456 0.884001 3.4532 0.920665 3.87205C1.11446 6.09911 2.53385 8.63264 4.47701 10.7167L4.49272 10.732C6.43065 12.8058 8.87662 14.4199 11.1236 14.8235C11.553 14.895 11.9668 14.9256 12.3701 14.9103ZM8.44189 0.878801C8.22191 0.848153 8.07002 0.654052 8.10145 0.439519C8.13287 0.224986 8.3319 0.0768555 8.55188 0.107503C9.47371 0.235201 10.3851 0.526354 11.244 0.975852C12.0663 1.41003 12.8415 1.98722 13.5119 2.71255C14.1876 3.43788 14.7061 4.23982 15.0675 5.08263C15.4446 5.95609 15.6541 6.87041 15.696 7.77451C15.7065 7.98904 15.5336 8.17293 15.3137 8.18314C15.0937 8.19336 14.9051 8.0248 14.8946 7.81027C14.858 6.993 14.6694 6.17062 14.329 5.37889C13.999 4.61781 13.5329 3.89248 12.9201 3.23356C12.3073 2.57463 11.6107 2.04852 10.8617 1.66031C10.0917 1.25679 9.26944 0.991175 8.44189 0.878801ZM8.3319 3.10586C8.11192 3.07521 7.96003 2.88111 7.99146 2.66658C8.02289 2.45204 8.22191 2.30391 8.44189 2.33456C9.08088 2.4214 9.71987 2.62571 10.317 2.9373C10.8879 3.23867 11.4273 3.64219 11.8987 4.14788C12.3701 4.65356 12.7263 5.21033 12.9829 5.79774C13.2448 6.40558 13.3914 7.04408 13.4176 7.67235C13.4281 7.88688 13.2553 8.07077 13.0353 8.08099C12.8153 8.0912 12.6268 7.92264 12.6163 7.70811C12.5901 7.16667 12.4696 6.62012 12.2444 6.094C12.0244 5.58831 11.7154 5.10306 11.3069 4.66889C10.9036 4.23471 10.4374 3.88227 9.93986 3.62176C9.42657 3.35104 8.88186 3.17737 8.3319 3.10586ZM8.22715 5.18479C8.00717 5.15414 7.85528 4.96004 7.88671 4.74551C7.91813 4.53097 8.11716 4.38284 8.33714 4.41349C8.71949 4.46457 9.0966 4.58205 9.45276 4.77105C9.7932 4.94982 10.1075 5.18479 10.3851 5.48616C10.6626 5.78242 10.8774 6.11443 11.024 6.46177C11.1812 6.82443 11.265 7.20242 11.2807 7.5753C11.2912 7.78983 11.1183 7.97372 10.8983 7.98394C10.6784 7.99415 10.4898 7.82559 10.4793 7.61106C10.4689 7.32501 10.4008 7.03897 10.2855 6.76314C10.1703 6.49753 10.0079 6.24213 9.7932 6.01227C9.57846 5.78242 9.33229 5.59853 9.07041 5.46062C8.80329 5.31249 8.51522 5.22054 8.22715 5.18479ZM14.6642 12.8927L12.9305 15.4977C12.8677 15.5948 12.7577 15.6612 12.6268 15.6765C12.0925 15.7225 11.5373 15.6867 10.9821 15.5896C8.55712 15.1606 5.95402 13.4494 3.90611 11.2581L3.8904 11.2377C1.83725 9.03617 0.339288 6.33407 0.129783 3.93334C0.0826446 3.3868 0.0983575 2.85557 0.192635 2.34989C0.208348 2.2273 0.281674 2.11492 0.407377 2.05363L3.2357 0.623404C3.41901 0.531461 3.64947 0.587649 3.75946 0.761318L6.27352 4.68932C6.37303 4.84256 6.35208 5.04687 6.21067 5.17457L4.48749 6.80911C4.82793 7.53444 5.46169 8.38746 6.18448 9.16898L6.20019 9.1843C6.93346 9.97092 7.75577 10.6707 8.46285 11.0793L10.3013 9.56229C10.4427 9.4448 10.6522 9.43459 10.8041 9.55207L14.5752 12.3665C14.7323 12.4942 14.7742 12.719 14.6642 12.8927Z" fill="#003C7E"/>
<path d="M3.27734 0.496356C3.48723 0.435943 3.72394 0.5118 3.84683 0.705479L6.36131 4.63313C6.48725 4.82719 6.46018 5.08622 6.28112 5.24934L6.28213 5.25035L4.61529 6.83096C4.95576 7.5271 5.56142 8.34239 6.25675 9.09477L6.273 9.10999L6.27604 9.11304C6.98349 9.87196 7.77224 10.5451 8.4535 10.9515L10.2351 9.48256L10.3051 9.43383C10.4763 9.33488 10.6977 9.33996 10.8654 9.46835L14.6377 12.2834L14.6407 12.2854L14.7077 12.3514C14.8476 12.5155 14.8741 12.756 14.7524 12.9483L14.7504 12.9503L13.0175 15.5552L13.0165 15.5542C12.935 15.6796 12.797 15.7611 12.6389 15.7796H12.6358C12.091 15.8265 11.5262 15.7906 10.9639 15.6923C8.50887 15.2579 5.88719 13.5297 3.83059 11.3291L3.82348 11.322L3.90611 11.2581C5.95402 13.4494 8.55712 15.1606 10.9821 15.5896C11.5373 15.6867 12.0925 15.7225 12.6268 15.6765C12.7577 15.6612 12.8677 15.5948 12.9305 15.4977L14.6642 12.8927C14.7742 12.719 14.7323 12.4942 14.5752 12.3665L10.8041 9.55207C10.6522 9.43459 10.4427 9.4448 10.3013 9.56229L8.46285 11.0793L8.19261 10.9129C7.55151 10.4945 6.84179 9.87258 6.20019 9.1843L6.18448 9.16898C5.46169 8.38746 4.82793 7.53444 4.48749 6.80911L6.21067 5.17457C6.35208 5.04687 6.37303 4.84256 6.27352 4.68932L3.75946 0.761318C3.64947 0.587649 3.41901 0.531461 3.2357 0.623404L0.407377 2.05363C0.281674 2.11492 0.208348 2.2273 0.192635 2.34989C0.0983575 2.85557 0.0826446 3.3868 0.129783 3.93334C0.339288 6.33407 1.83725 9.03617 3.8904 11.2377L3.90611 11.2581L3.82348 11.322L3.81435 11.3088L3.43469 10.8886C1.56862 8.75887 0.225019 6.22325 0.0258782 3.94283C-0.0218642 3.38885 -0.00541595 2.84708 0.0908466 2.33075C0.109747 2.19662 0.18264 2.07175 0.305039 1.99169L0.361887 1.96022L3.18903 0.530871L3.27734 0.496356ZM5.41455 4.83745L3.72803 6.44134L3.68949 6.48276C3.6078 6.58547 3.57881 6.73069 3.63375 6.86019C3.97944 7.71321 4.72318 8.76034 5.59263 9.69509L5.60834 9.71552C6.47255 10.6401 7.46246 11.4624 8.30572 11.8864C8.42937 11.9623 8.58924 11.9644 8.71845 11.8885L8.77186 11.8506L10.5684 10.3642L13.7895 12.7701L12.3701 14.9103C11.9668 14.9256 11.553 14.895 11.1236 14.8235C9.01708 14.4451 6.73565 13.0025 4.86196 11.1149L4.49272 10.732L4.47701 10.7167C2.53385 8.63264 1.11446 6.09911 0.920665 3.87205C0.884001 3.4532 0.889239 3.04456 0.946853 2.65636L3.26712 1.48154L5.41455 4.83745ZM1.04405 2.72362C0.99481 3.08688 0.989339 3.46921 1.02375 3.86263C1.21462 6.05609 2.61627 8.56742 4.5493 10.6419L4.56554 10.6571L4.56859 10.6612C6.49791 12.7258 8.92497 14.3226 11.1416 14.7208C11.5465 14.7882 11.9351 14.8167 12.314 14.8061L13.6479 12.794L10.5711 10.4957L8.83823 11.9311C8.66994 12.07 8.4371 12.0836 8.25859 11.9778C7.40008 11.5461 6.40016 10.7149 5.53195 9.78609L5.52586 9.77898L5.51063 9.75868C4.63984 8.82119 3.88867 7.76623 3.53722 6.89897C3.45734 6.70734 3.51889 6.49333 3.657 6.365L5.2802 4.82094L3.22963 1.61608L1.04405 2.72362ZM8.56618 0.00501782L8.91538 0.0608516C9.72958 0.210157 10.531 0.486053 11.2918 0.884147C12.1234 1.32327 12.9084 1.90742 13.587 2.64139C14.2706 3.37527 14.7973 4.18728 15.1635 5.04123C15.5454 5.9258 15.7574 6.85236 15.8 7.76897L15.7939 7.87048C15.7568 8.0985 15.5586 8.27539 15.3188 8.2867C15.0437 8.29948 14.8045 8.08921 14.791 7.81566C14.7548 7.01135 14.5692 6.2003 14.2337 5.41988C13.9084 4.66968 13.4486 3.95443 12.8439 3.30429C12.3146 2.73516 11.7222 2.2669 11.0878 1.90235L10.8137 1.75211C10.0541 1.35399 9.24314 1.0923 8.42812 0.981602C8.15464 0.943258 7.95846 0.699085 7.99872 0.424279C8.0387 0.152003 8.29101 -0.033318 8.56618 0.00501782ZM8.45654 2.23127C9.1078 2.31977 9.75758 2.52847 10.365 2.84544C10.9458 3.15206 11.4954 3.56237 11.975 4.07683C12.4546 4.59137 12.8173 5.15812 13.0784 5.7559C13.345 6.37472 13.4942 7.02635 13.521 7.66745L13.516 7.76795C13.479 7.99629 13.28 8.17403 13.0399 8.18518C12.7991 8.19624 12.5856 8.03608 12.5272 7.81262L12.512 7.71313C12.4864 7.18372 12.3688 6.64899 12.1486 6.13456C11.9602 5.70199 11.7052 5.28391 11.3771 4.90215L11.2309 4.73973C10.8357 4.31424 10.3791 3.96844 9.89194 3.7134C9.38939 3.44841 8.85563 3.27871 8.31848 3.20886C8.04481 3.17069 7.84881 2.92647 7.88908 2.65154C7.929 2.37918 8.18133 2.19292 8.45654 2.23127ZM8.55188 0.107503C8.3319 0.0768555 8.13287 0.224986 8.10145 0.439519C8.07002 0.654052 8.22191 0.848153 8.44189 0.878801C9.26944 0.991175 10.0917 1.25679 10.8617 1.66031C11.6107 2.04852 12.3073 2.57463 12.9201 3.23356C13.5329 3.89248 13.999 4.61781 14.329 5.37889C14.6694 6.17062 14.858 6.993 14.8946 7.81027C14.904 7.99772 15.0492 8.15062 15.2325 8.17909L15.3137 8.18314C15.5336 8.17293 15.7065 7.98904 15.696 7.77451C15.6593 6.9835 15.4944 6.18419 15.2011 5.41176L15.0675 5.08263C14.7061 4.23982 14.1876 3.43788 13.5119 2.71255C12.9252 2.07778 12.2582 1.55633 11.5496 1.14504L11.244 0.975852C10.4925 0.582593 9.70075 0.310806 8.89711 0.163383L8.55188 0.107503ZM8.35198 4.31031C8.74607 4.36297 9.13393 4.48404 9.50111 4.67882L9.75896 4.82805C10.0109 4.98811 10.2462 5.18241 10.4604 5.41481C10.7461 5.71972 10.9687 6.062 11.1202 6.42083C11.2823 6.79494 11.3678 7.18493 11.3842 7.56999C11.3976 7.8449 11.1775 8.07498 10.903 8.08773C10.6278 8.10043 10.3885 7.88933 10.3751 7.61568C10.3652 7.34371 10.3003 7.06918 10.1894 6.80355C10.0787 6.54908 9.9231 6.30303 9.71733 6.08278C9.51086 5.86183 9.2738 5.6855 9.02197 5.55287L9.01994 5.55186C8.76453 5.41022 8.48888 5.32204 8.21393 5.28791C7.94027 5.24979 7.74336 5.00547 7.78351 4.73059C7.82341 4.45821 8.07676 4.27197 8.35198 4.31031ZM8.44189 2.33456C8.22191 2.30391 8.02289 2.45204 7.99146 2.66658L7.98755 2.74595C7.99864 2.92714 8.13955 3.07899 8.3319 3.10586C8.88186 3.17737 9.42657 3.35104 9.93986 3.62176C10.4374 3.88227 10.9036 4.23471 11.3069 4.66889C11.7154 5.10306 12.0244 5.58831 12.2444 6.094C12.4696 6.62012 12.5901 7.16667 12.6163 7.70811C12.6268 7.92264 12.8153 8.0912 13.0353 8.08099C13.2553 8.07077 13.4281 7.88688 13.4176 7.67235C13.3947 7.12255 13.2793 6.56502 13.0754 6.02695L12.9829 5.79774C12.7584 5.28384 12.4578 4.79306 12.0704 4.33975L11.8987 4.14788C11.4863 3.70545 11.0215 3.34161 10.5294 3.05558L10.317 2.9373C9.79464 2.66473 9.24031 2.47393 8.6819 2.37237L8.44189 2.33456ZM8.33714 4.41349C8.11716 4.38284 7.91813 4.53097 7.88671 4.74551L7.88299 4.825C7.89414 5.00615 8.03481 5.15795 8.22715 5.18479C8.51522 5.22054 8.80329 5.31249 9.07041 5.46062C9.33229 5.59853 9.57846 5.78242 9.7932 6.01227C10.0079 6.24213 10.1703 6.49753 10.2855 6.76314C10.4008 7.03897 10.4689 7.32501 10.4793 7.61106C10.4885 7.79884 10.634 7.95185 10.8177 7.98012L10.8983 7.98394C11.1183 7.97372 11.2912 7.78983 11.2807 7.5753C11.265 7.20242 11.1812 6.82443 11.024 6.46177C10.914 6.20126 10.7656 5.94892 10.5812 5.71428L10.3851 5.48616C10.1768 5.2601 9.94818 5.07099 9.70312 4.91535L9.45276 4.77105C9.18583 4.62943 8.90687 4.52806 8.62302 4.46462L8.33714 4.41349Z" fill="#003C7E"/>
</svg>
