<svg width="67" height="66" viewBox="0 0 67 66" fill="none" xmlns="http://www.w3.org/2000/svg">
<mask id="path-1-outside-1_58_157" maskUnits="userSpaceOnUse" x="-0.799805" y="-0.799988" width="68" height="67" fill="black">
<rect fill="white" x="-0.799805" y="-0.799988" width="68" height="67"/>
<path d="M44.4228 53.943C47.6442 53.943 50.2633 51.322 50.2633 48.0851C50.2633 46.578 49.6871 45.202 48.7573 44.1667C54.5978 39.3704 57.9502 32.6345 57.9502 25.5841C57.9502 18.7827 54.9383 12.4006 49.4645 7.60425C44.0038 2.83408 36.7621 0.200012 29.0621 0.200012C21.3621 0.200012 14.1335 2.83408 8.68591 7.61735C3.2121 12.4137 0.200195 18.7958 0.200195 25.5972C0.200195 32.3986 3.2121 38.7807 8.68591 43.577C14.1335 48.3603 21.3752 50.9944 29.0752 50.9944C32.4014 50.9944 35.6621 50.4964 38.7657 49.5266C39.3942 52.069 41.6859 53.943 44.4228 53.943ZM44.4228 52.8946C41.7776 52.8946 39.63 50.7454 39.63 48.0851C39.63 45.4248 41.7776 43.2756 44.4228 43.2756C47.0681 43.2756 49.2157 45.4248 49.2157 48.0851C49.2157 50.7454 47.055 52.8946 44.4228 52.8946ZM29.0621 49.946C13.7276 49.946 1.24781 39.0165 1.24781 25.5972C1.24781 12.1647 13.7276 1.2484 29.0621 1.2484C44.3966 1.2484 56.8764 12.1647 56.8764 25.5972C56.8764 32.3724 53.6288 38.8593 47.9585 43.4591C46.9764 42.699 45.7454 42.2534 44.4097 42.2534C41.1883 42.2534 38.5692 44.8744 38.5692 48.1113C38.5692 48.2423 38.5692 48.3603 38.5823 48.4913C35.5442 49.448 32.349 49.946 29.0621 49.946ZM49.805 56.9833C49.805 59.5518 51.9002 61.6486 54.4669 61.6486C57.0335 61.6486 59.1288 59.5518 59.1288 56.9833C59.1288 54.4147 57.0335 52.318 54.4669 52.318C51.9002 52.318 49.805 54.4016 49.805 56.9833ZM58.0681 56.9833C58.0681 58.9752 56.4442 60.6002 54.4538 60.6002C52.4633 60.6002 50.8395 58.9752 50.8395 56.9833C50.8395 54.9913 52.4633 53.3663 54.4538 53.3663C56.4442 53.3663 58.0681 54.9782 58.0681 56.9833ZM66.2002 62.3038C66.2002 60.705 64.9038 59.4077 63.3192 59.4077C61.7347 59.4077 60.4383 60.705 60.4383 62.3038C60.4383 63.9026 61.7347 65.2 63.3192 65.2C64.9038 65.2 66.2002 63.9026 66.2002 62.3038ZM63.3192 64.1516C62.3109 64.1516 61.4859 63.326 61.4859 62.3038C61.4859 61.2817 62.3109 60.4561 63.3192 60.4561C64.3276 60.4561 65.1526 61.2817 65.1526 62.3038C65.1526 63.326 64.3276 64.1516 63.3192 64.1516ZM25.3038 8.61332C25.7883 8.07602 26.5216 7.49941 27.5561 7.26352C29.049 6.9359 30.2669 7.52562 30.7121 7.78771C30.9609 7.93187 31.2883 7.85324 31.4323 7.60425C31.5764 7.35525 31.4978 7.02763 31.249 6.88348C30.6859 6.54275 29.1931 5.80888 27.3204 6.22824C25.2776 6.68691 24.1907 8.20707 23.7847 8.92783C20.0264 8.87541 16.805 10.7494 15.7311 13.6718C15.1811 15.1526 15.3121 16.5942 15.5871 17.6688C13.4002 18.5075 11.8419 20.4208 11.5669 22.6748C11.2788 25.073 12.5752 26.8421 13.2169 27.5629C12.8502 28.2968 12.3788 29.6204 12.7585 31.1536C13.1776 32.8442 14.474 34.194 16.1895 34.8099C14.199 35.0065 11.0169 34.9409 8.89543 33.0145C7.99186 32.202 7.29781 31.0488 6.86567 29.6859C6.77401 29.4107 6.48591 29.2534 6.21091 29.3452C5.93591 29.4369 5.77877 29.7252 5.87043 30.0004C6.35496 31.5337 7.15377 32.8442 8.18829 33.7877C10.0609 35.4913 12.5359 35.95 14.6442 35.95C15.6133 35.95 16.5169 35.8583 17.2371 35.7403C17.9442 36.7756 19.5681 37.4833 21.5192 37.4833C24.1252 37.4833 26.1811 36.2121 26.1811 34.5871C26.1811 32.9621 24.1383 31.6909 21.5192 31.6909C19.2538 31.6909 17.4204 32.6476 16.9621 33.9581C15.3514 33.5387 14.1204 32.3855 13.7538 30.9046C13.5704 30.1446 13.6359 29.45 13.7931 28.8865C14.6835 30.1184 16.7264 30.9571 19.149 30.9571C22.4228 30.9571 24.9895 29.4238 24.9895 27.4712C24.9895 25.5186 22.4228 23.9853 19.149 23.9853C16.5169 23.9853 14.3431 24.9813 13.5966 26.3835C13.0597 25.6365 12.405 24.3653 12.5883 22.7928C12.8109 20.9712 14.0419 19.4248 15.7966 18.6909C16.3335 20.3028 18.6514 21.4692 21.5192 21.4692C24.7931 21.4692 27.3597 19.9359 27.3597 17.9833C27.3597 16.0307 24.7931 14.4974 21.5192 14.4974C19.28 14.4974 17.3811 15.2051 16.399 16.2796C16.3466 15.5851 16.399 14.7988 16.7002 14.0125C17.5645 11.6799 20.1966 10.0811 23.2609 9.96312C23.0776 10.9067 23.549 12.1516 24.5573 13.1607C25.3954 13.9994 26.43 14.4974 27.3335 14.4974C27.8573 14.4974 28.3157 14.327 28.6431 13.9994C29.5466 13.0821 29.18 11.2867 27.805 9.9107C27.0585 9.17683 26.1419 8.70505 25.3038 8.61332ZM21.5323 32.7393C23.6538 32.7393 25.1466 33.7091 25.1466 34.5871C25.1466 35.4651 23.6669 36.4349 21.5323 36.4349C19.4109 36.4349 17.9181 35.4651 17.9181 34.5871C17.9181 33.7091 19.4109 32.7393 21.5323 32.7393ZM19.1752 25.0468C21.7681 25.0468 23.9681 26.1607 23.9681 27.4843C23.9681 28.8079 21.7681 29.9218 19.1752 29.9218C16.5823 29.9218 14.3823 28.8079 14.3823 27.4843C14.3823 26.1607 16.5823 25.0468 19.1752 25.0468ZM21.5323 15.572C24.1252 15.572 26.3252 16.6859 26.3252 18.0095C26.3252 19.3331 24.1252 20.447 21.5323 20.447C18.9395 20.447 16.7395 19.3331 16.7395 18.0095C16.7395 16.6859 18.9395 15.572 21.5323 15.572ZM27.9097 13.2917C27.7788 13.4228 27.5954 13.4883 27.3466 13.4883C26.7311 13.4883 25.9454 13.0952 25.3169 12.453C24.3085 11.444 24.0597 10.2645 24.4788 9.84517C24.6097 9.71412 24.7931 9.6486 25.0419 9.6486C25.6573 9.6486 26.4431 10.0417 27.0716 10.6839C28.08 11.693 28.3288 12.8724 27.9097 13.2917ZM5.89662 25.6365C5.88353 25.6365 5.87043 25.6365 5.85734 25.6365C5.56924 25.6103 5.34662 25.3613 5.37281 25.073C5.49067 23.4611 5.87043 21.823 6.48591 20.1849C6.59067 19.9097 6.89186 19.7786 7.16686 19.8835C7.44186 19.9883 7.57281 20.2897 7.46805 20.5649C6.89186 22.0982 6.53829 23.6446 6.42043 25.1516C6.39424 25.4268 6.15853 25.6365 5.89662 25.6365ZM8.27996 16.5417C8.92162 15.4934 9.68115 14.4712 10.5061 13.5145C10.6895 13.2917 11.03 13.2786 11.2395 13.4621C11.4621 13.6456 11.4752 13.9863 11.2919 14.196C10.4931 15.1133 9.77281 16.0962 9.15734 17.0921C9.05258 17.2494 8.88234 17.3411 8.7121 17.3411C8.62043 17.3411 8.52877 17.3149 8.4371 17.2625C8.20139 17.1184 8.13591 16.7907 8.27996 16.5417ZM24.9764 39.1214C25.0942 39.3835 24.9633 39.698 24.7014 39.8028C23.6931 40.2222 22.6323 40.4319 21.5454 40.4319C20.4585 40.4319 19.3978 40.2222 18.3895 39.8028C18.1276 39.6849 17.9966 39.3835 18.1145 39.1214C18.2323 38.8593 18.5335 38.7282 18.7954 38.8462C19.6728 39.2131 20.6026 39.3966 21.5454 39.3966C22.4883 39.3966 23.4181 39.2131 24.2954 38.8462C24.5573 38.7282 24.8585 38.8593 24.9764 39.1214ZM27.3335 24.326C27.7526 25.3351 27.9621 26.3966 27.9621 27.4843C27.9621 28.572 27.7526 29.6335 27.3335 30.6426C27.255 30.8391 27.0585 30.9702 26.849 30.9702C26.7835 30.9702 26.7181 30.9571 26.6526 30.9309C26.3907 30.826 26.2597 30.5115 26.3645 30.2494C26.7311 29.3714 26.9145 28.4409 26.9145 27.4843C26.9145 26.5276 26.7311 25.6103 26.3645 24.7192C26.2597 24.4571 26.3776 24.1426 26.6526 24.0377C26.9145 23.9198 27.2288 24.0508 27.3335 24.326ZM46.8192 38.6627C48.4038 38.6627 49.9621 38.0075 51.0883 36.8673C52.2014 35.7403 52.7907 34.2595 52.7645 32.7C52.7383 31.3502 52.2407 30.0921 51.4419 29.1093C51.9264 28.0347 52.1752 26.8946 52.1752 25.702C52.1752 21.7444 49.3728 18.3764 45.5621 17.6294C45.6538 17.2887 45.6931 16.948 45.68 16.5942C45.6276 14.6022 44.8026 12.7282 43.3752 11.3391C41.9478 9.95001 40.0621 9.18993 38.0716 9.18993C38.0585 9.18993 38.0585 9.18993 38.0454 9.18993C33.8681 9.20304 30.4633 12.6758 30.4633 16.9349V32.202C30.4633 35.7534 33.3442 38.6496 36.8931 38.6496L46.8192 38.6627ZM31.5109 32.2151V31.7958C33.2919 33.3028 35.5966 33.329 35.7145 33.329C39.0669 33.329 40.7954 30.8391 40.874 30.7343C41.0312 30.4984 40.9788 30.1708 40.73 30.0004C40.4942 29.8432 40.1669 29.8956 39.9966 30.1446C39.9835 30.1708 38.5038 32.2807 35.7014 32.2807C35.6752 32.2807 32.9645 32.2544 31.4978 30.2625V26.0165C32.2181 25.6889 32.8859 25.6234 33.3312 25.6234C34.2609 25.6234 34.9942 25.9117 35.4526 26.1476C35.7145 26.2786 36.0288 26.1869 36.1597 25.9379C36.2907 25.6889 36.199 25.3613 35.9502 25.2303C35.3871 24.9288 34.4835 24.575 33.3442 24.575C32.8728 24.575 32.2181 24.6405 31.5109 24.8895V19.949C32.6502 18.5599 34.3395 18.5206 34.5359 18.5206C36.4347 18.5206 37.5347 19.9228 37.6657 20.0932C37.8359 20.329 38.1633 20.3684 38.399 20.198C38.6347 20.0276 38.674 19.7 38.5038 19.4641C38.255 19.1365 36.8931 17.4722 34.5359 17.4722C34.2085 17.4722 32.7942 17.5377 31.5109 18.5075V16.9349C31.5109 13.2524 34.4442 10.2514 38.0454 10.2383C38.0585 10.2383 38.0585 10.2383 38.0716 10.2383C41.5942 10.2383 44.5276 13.0952 44.6323 16.6335C44.6585 17.3411 44.3835 18.0357 43.899 18.5337C43.4407 19.0055 42.8383 19.2544 42.1966 19.2544C40.8609 19.2544 39.774 18.1536 39.774 16.8169C39.774 16.5286 39.5383 16.2928 39.2502 16.2928C38.9621 16.2928 38.7264 16.5286 38.7264 16.8169C38.7264 18.7303 40.2847 20.3028 42.1966 20.3028C42.1966 20.3028 42.1966 20.3028 42.2097 20.3028C43.1264 20.3028 44.0038 19.9359 44.6585 19.2676C44.855 19.071 45.0121 18.8613 45.1561 18.6254C48.5871 19.1889 51.1407 22.1768 51.1407 25.702C51.1407 26.6063 50.9704 27.4843 50.6561 28.3099C49.6478 27.4712 48.3514 26.9601 46.9502 26.9601C46.0335 26.9601 45.1692 27.1698 44.3573 27.5629C44.0954 27.694 43.9907 28.0085 44.1216 28.2706C44.2526 28.5327 44.5669 28.6375 44.8288 28.5065C45.4966 28.1788 46.2038 28.0085 46.9633 28.0085C49.5562 28.0085 51.7038 30.1184 51.7562 32.7131C51.7823 33.9843 51.2978 35.203 50.3812 36.1204C49.4514 37.0639 48.1681 37.6012 46.8585 37.6012H45.7716C46.2692 36.7887 46.3085 35.9631 46.3085 35.7534C46.3085 34.1022 45.1562 33.1456 44.9204 32.9621C44.6847 32.7917 44.3573 32.8311 44.1871 33.0669C44.0169 33.3028 44.0562 33.6305 44.2919 33.8008C44.3966 33.8794 45.2609 34.5609 45.2609 35.7534C45.2609 35.8714 45.2347 36.8936 44.4228 37.6012H36.9323C33.9204 37.6143 31.5109 35.1899 31.5109 32.2151Z"/>
</mask>
<path d="M44.4228 53.943C47.6442 53.943 50.2633 51.322 50.2633 48.0851C50.2633 46.578 49.6871 45.202 48.7573 44.1667C54.5978 39.3704 57.9502 32.6345 57.9502 25.5841C57.9502 18.7827 54.9383 12.4006 49.4645 7.60425C44.0038 2.83408 36.7621 0.200012 29.0621 0.200012C21.3621 0.200012 14.1335 2.83408 8.68591 7.61735C3.2121 12.4137 0.200195 18.7958 0.200195 25.5972C0.200195 32.3986 3.2121 38.7807 8.68591 43.577C14.1335 48.3603 21.3752 50.9944 29.0752 50.9944C32.4014 50.9944 35.6621 50.4964 38.7657 49.5266C39.3942 52.069 41.6859 53.943 44.4228 53.943ZM44.4228 52.8946C41.7776 52.8946 39.63 50.7454 39.63 48.0851C39.63 45.4248 41.7776 43.2756 44.4228 43.2756C47.0681 43.2756 49.2157 45.4248 49.2157 48.0851C49.2157 50.7454 47.055 52.8946 44.4228 52.8946ZM29.0621 49.946C13.7276 49.946 1.24781 39.0165 1.24781 25.5972C1.24781 12.1647 13.7276 1.2484 29.0621 1.2484C44.3966 1.2484 56.8764 12.1647 56.8764 25.5972C56.8764 32.3724 53.6288 38.8593 47.9585 43.4591C46.9764 42.699 45.7454 42.2534 44.4097 42.2534C41.1883 42.2534 38.5692 44.8744 38.5692 48.1113C38.5692 48.2423 38.5692 48.3603 38.5823 48.4913C35.5442 49.448 32.349 49.946 29.0621 49.946ZM49.805 56.9833C49.805 59.5518 51.9002 61.6486 54.4669 61.6486C57.0335 61.6486 59.1288 59.5518 59.1288 56.9833C59.1288 54.4147 57.0335 52.318 54.4669 52.318C51.9002 52.318 49.805 54.4016 49.805 56.9833ZM58.0681 56.9833C58.0681 58.9752 56.4442 60.6002 54.4538 60.6002C52.4633 60.6002 50.8395 58.9752 50.8395 56.9833C50.8395 54.9913 52.4633 53.3663 54.4538 53.3663C56.4442 53.3663 58.0681 54.9782 58.0681 56.9833ZM66.2002 62.3038C66.2002 60.705 64.9038 59.4077 63.3192 59.4077C61.7347 59.4077 60.4383 60.705 60.4383 62.3038C60.4383 63.9026 61.7347 65.2 63.3192 65.2C64.9038 65.2 66.2002 63.9026 66.2002 62.3038ZM63.3192 64.1516C62.3109 64.1516 61.4859 63.326 61.4859 62.3038C61.4859 61.2817 62.3109 60.4561 63.3192 60.4561C64.3276 60.4561 65.1526 61.2817 65.1526 62.3038C65.1526 63.326 64.3276 64.1516 63.3192 64.1516ZM25.3038 8.61332C25.7883 8.07602 26.5216 7.49941 27.5561 7.26352C29.049 6.9359 30.2669 7.52562 30.7121 7.78771C30.9609 7.93187 31.2883 7.85324 31.4323 7.60425C31.5764 7.35525 31.4978 7.02763 31.249 6.88348C30.6859 6.54275 29.1931 5.80888 27.3204 6.22824C25.2776 6.68691 24.1907 8.20707 23.7847 8.92783C20.0264 8.87541 16.805 10.7494 15.7311 13.6718C15.1811 15.1526 15.3121 16.5942 15.5871 17.6688C13.4002 18.5075 11.8419 20.4208 11.5669 22.6748C11.2788 25.073 12.5752 26.8421 13.2169 27.5629C12.8502 28.2968 12.3788 29.6204 12.7585 31.1536C13.1776 32.8442 14.474 34.194 16.1895 34.8099C14.199 35.0065 11.0169 34.9409 8.89543 33.0145C7.99186 32.202 7.29781 31.0488 6.86567 29.6859C6.77401 29.4107 6.48591 29.2534 6.21091 29.3452C5.93591 29.4369 5.77877 29.7252 5.87043 30.0004C6.35496 31.5337 7.15377 32.8442 8.18829 33.7877C10.0609 35.4913 12.5359 35.95 14.6442 35.95C15.6133 35.95 16.5169 35.8583 17.2371 35.7403C17.9442 36.7756 19.5681 37.4833 21.5192 37.4833C24.1252 37.4833 26.1811 36.2121 26.1811 34.5871C26.1811 32.9621 24.1383 31.6909 21.5192 31.6909C19.2538 31.6909 17.4204 32.6476 16.9621 33.9581C15.3514 33.5387 14.1204 32.3855 13.7538 30.9046C13.5704 30.1446 13.6359 29.45 13.7931 28.8865C14.6835 30.1184 16.7264 30.9571 19.149 30.9571C22.4228 30.9571 24.9895 29.4238 24.9895 27.4712C24.9895 25.5186 22.4228 23.9853 19.149 23.9853C16.5169 23.9853 14.3431 24.9813 13.5966 26.3835C13.0597 25.6365 12.405 24.3653 12.5883 22.7928C12.8109 20.9712 14.0419 19.4248 15.7966 18.6909C16.3335 20.3028 18.6514 21.4692 21.5192 21.4692C24.7931 21.4692 27.3597 19.9359 27.3597 17.9833C27.3597 16.0307 24.7931 14.4974 21.5192 14.4974C19.28 14.4974 17.3811 15.2051 16.399 16.2796C16.3466 15.5851 16.399 14.7988 16.7002 14.0125C17.5645 11.6799 20.1966 10.0811 23.2609 9.96312C23.0776 10.9067 23.549 12.1516 24.5573 13.1607C25.3954 13.9994 26.43 14.4974 27.3335 14.4974C27.8573 14.4974 28.3157 14.327 28.6431 13.9994C29.5466 13.0821 29.18 11.2867 27.805 9.9107C27.0585 9.17683 26.1419 8.70505 25.3038 8.61332ZM21.5323 32.7393C23.6538 32.7393 25.1466 33.7091 25.1466 34.5871C25.1466 35.4651 23.6669 36.4349 21.5323 36.4349C19.4109 36.4349 17.9181 35.4651 17.9181 34.5871C17.9181 33.7091 19.4109 32.7393 21.5323 32.7393ZM19.1752 25.0468C21.7681 25.0468 23.9681 26.1607 23.9681 27.4843C23.9681 28.8079 21.7681 29.9218 19.1752 29.9218C16.5823 29.9218 14.3823 28.8079 14.3823 27.4843C14.3823 26.1607 16.5823 25.0468 19.1752 25.0468ZM21.5323 15.572C24.1252 15.572 26.3252 16.6859 26.3252 18.0095C26.3252 19.3331 24.1252 20.447 21.5323 20.447C18.9395 20.447 16.7395 19.3331 16.7395 18.0095C16.7395 16.6859 18.9395 15.572 21.5323 15.572ZM27.9097 13.2917C27.7788 13.4228 27.5954 13.4883 27.3466 13.4883C26.7311 13.4883 25.9454 13.0952 25.3169 12.453C24.3085 11.444 24.0597 10.2645 24.4788 9.84517C24.6097 9.71412 24.7931 9.6486 25.0419 9.6486C25.6573 9.6486 26.4431 10.0417 27.0716 10.6839C28.08 11.693 28.3288 12.8724 27.9097 13.2917ZM5.89662 25.6365C5.88353 25.6365 5.87043 25.6365 5.85734 25.6365C5.56924 25.6103 5.34662 25.3613 5.37281 25.073C5.49067 23.4611 5.87043 21.823 6.48591 20.1849C6.59067 19.9097 6.89186 19.7786 7.16686 19.8835C7.44186 19.9883 7.57281 20.2897 7.46805 20.5649C6.89186 22.0982 6.53829 23.6446 6.42043 25.1516C6.39424 25.4268 6.15853 25.6365 5.89662 25.6365ZM8.27996 16.5417C8.92162 15.4934 9.68115 14.4712 10.5061 13.5145C10.6895 13.2917 11.03 13.2786 11.2395 13.4621C11.4621 13.6456 11.4752 13.9863 11.2919 14.196C10.4931 15.1133 9.77281 16.0962 9.15734 17.0921C9.05258 17.2494 8.88234 17.3411 8.7121 17.3411C8.62043 17.3411 8.52877 17.3149 8.4371 17.2625C8.20139 17.1184 8.13591 16.7907 8.27996 16.5417ZM24.9764 39.1214C25.0942 39.3835 24.9633 39.698 24.7014 39.8028C23.6931 40.2222 22.6323 40.4319 21.5454 40.4319C20.4585 40.4319 19.3978 40.2222 18.3895 39.8028C18.1276 39.6849 17.9966 39.3835 18.1145 39.1214C18.2323 38.8593 18.5335 38.7282 18.7954 38.8462C19.6728 39.2131 20.6026 39.3966 21.5454 39.3966C22.4883 39.3966 23.4181 39.2131 24.2954 38.8462C24.5573 38.7282 24.8585 38.8593 24.9764 39.1214ZM27.3335 24.326C27.7526 25.3351 27.9621 26.3966 27.9621 27.4843C27.9621 28.572 27.7526 29.6335 27.3335 30.6426C27.255 30.8391 27.0585 30.9702 26.849 30.9702C26.7835 30.9702 26.7181 30.9571 26.6526 30.9309C26.3907 30.826 26.2597 30.5115 26.3645 30.2494C26.7311 29.3714 26.9145 28.4409 26.9145 27.4843C26.9145 26.5276 26.7311 25.6103 26.3645 24.7192C26.2597 24.4571 26.3776 24.1426 26.6526 24.0377C26.9145 23.9198 27.2288 24.0508 27.3335 24.326ZM46.8192 38.6627C48.4038 38.6627 49.9621 38.0075 51.0883 36.8673C52.2014 35.7403 52.7907 34.2595 52.7645 32.7C52.7383 31.3502 52.2407 30.0921 51.4419 29.1093C51.9264 28.0347 52.1752 26.8946 52.1752 25.702C52.1752 21.7444 49.3728 18.3764 45.5621 17.6294C45.6538 17.2887 45.6931 16.948 45.68 16.5942C45.6276 14.6022 44.8026 12.7282 43.3752 11.3391C41.9478 9.95001 40.0621 9.18993 38.0716 9.18993C38.0585 9.18993 38.0585 9.18993 38.0454 9.18993C33.8681 9.20304 30.4633 12.6758 30.4633 16.9349V32.202C30.4633 35.7534 33.3442 38.6496 36.8931 38.6496L46.8192 38.6627ZM31.5109 32.2151V31.7958C33.2919 33.3028 35.5966 33.329 35.7145 33.329C39.0669 33.329 40.7954 30.8391 40.874 30.7343C41.0312 30.4984 40.9788 30.1708 40.73 30.0004C40.4942 29.8432 40.1669 29.8956 39.9966 30.1446C39.9835 30.1708 38.5038 32.2807 35.7014 32.2807C35.6752 32.2807 32.9645 32.2544 31.4978 30.2625V26.0165C32.2181 25.6889 32.8859 25.6234 33.3312 25.6234C34.2609 25.6234 34.9942 25.9117 35.4526 26.1476C35.7145 26.2786 36.0288 26.1869 36.1597 25.9379C36.2907 25.6889 36.199 25.3613 35.9502 25.2303C35.3871 24.9288 34.4835 24.575 33.3442 24.575C32.8728 24.575 32.2181 24.6405 31.5109 24.8895V19.949C32.6502 18.5599 34.3395 18.5206 34.5359 18.5206C36.4347 18.5206 37.5347 19.9228 37.6657 20.0932C37.8359 20.329 38.1633 20.3684 38.399 20.198C38.6347 20.0276 38.674 19.7 38.5038 19.4641C38.255 19.1365 36.8931 17.4722 34.5359 17.4722C34.2085 17.4722 32.7942 17.5377 31.5109 18.5075V16.9349C31.5109 13.2524 34.4442 10.2514 38.0454 10.2383C38.0585 10.2383 38.0585 10.2383 38.0716 10.2383C41.5942 10.2383 44.5276 13.0952 44.6323 16.6335C44.6585 17.3411 44.3835 18.0357 43.899 18.5337C43.4407 19.0055 42.8383 19.2544 42.1966 19.2544C40.8609 19.2544 39.774 18.1536 39.774 16.8169C39.774 16.5286 39.5383 16.2928 39.2502 16.2928C38.9621 16.2928 38.7264 16.5286 38.7264 16.8169C38.7264 18.7303 40.2847 20.3028 42.1966 20.3028C42.1966 20.3028 42.1966 20.3028 42.2097 20.3028C43.1264 20.3028 44.0038 19.9359 44.6585 19.2676C44.855 19.071 45.0121 18.8613 45.1561 18.6254C48.5871 19.1889 51.1407 22.1768 51.1407 25.702C51.1407 26.6063 50.9704 27.4843 50.6561 28.3099C49.6478 27.4712 48.3514 26.9601 46.9502 26.9601C46.0335 26.9601 45.1692 27.1698 44.3573 27.5629C44.0954 27.694 43.9907 28.0085 44.1216 28.2706C44.2526 28.5327 44.5669 28.6375 44.8288 28.5065C45.4966 28.1788 46.2038 28.0085 46.9633 28.0085C49.5562 28.0085 51.7038 30.1184 51.7562 32.7131C51.7823 33.9843 51.2978 35.203 50.3812 36.1204C49.4514 37.0639 48.1681 37.6012 46.8585 37.6012H45.7716C46.2692 36.7887 46.3085 35.9631 46.3085 35.7534C46.3085 34.1022 45.1562 33.1456 44.9204 32.9621C44.6847 32.7917 44.3573 32.8311 44.1871 33.0669C44.0169 33.3028 44.0562 33.6305 44.2919 33.8008C44.3966 33.8794 45.2609 34.5609 45.2609 35.7534C45.2609 35.8714 45.2347 36.8936 44.4228 37.6012H36.9323C33.9204 37.6143 31.5109 35.1899 31.5109 32.2151Z" fill="#003C7E"/>
<path d="M44.4228 53.943C47.6442 53.943 50.2633 51.322 50.2633 48.0851C50.2633 46.578 49.6871 45.202 48.7573 44.1667C54.5978 39.3704 57.9502 32.6345 57.9502 25.5841C57.9502 18.7827 54.9383 12.4006 49.4645 7.60425C44.0038 2.83408 36.7621 0.200012 29.0621 0.200012C21.3621 0.200012 14.1335 2.83408 8.68591 7.61735C3.2121 12.4137 0.200195 18.7958 0.200195 25.5972C0.200195 32.3986 3.2121 38.7807 8.68591 43.577C14.1335 48.3603 21.3752 50.9944 29.0752 50.9944C32.4014 50.9944 35.6621 50.4964 38.7657 49.5266C39.3942 52.069 41.6859 53.943 44.4228 53.943ZM44.4228 52.8946C41.7776 52.8946 39.63 50.7454 39.63 48.0851C39.63 45.4248 41.7776 43.2756 44.4228 43.2756C47.0681 43.2756 49.2157 45.4248 49.2157 48.0851C49.2157 50.7454 47.055 52.8946 44.4228 52.8946ZM29.0621 49.946C13.7276 49.946 1.24781 39.0165 1.24781 25.5972C1.24781 12.1647 13.7276 1.2484 29.0621 1.2484C44.3966 1.2484 56.8764 12.1647 56.8764 25.5972C56.8764 32.3724 53.6288 38.8593 47.9585 43.4591C46.9764 42.699 45.7454 42.2534 44.4097 42.2534C41.1883 42.2534 38.5692 44.8744 38.5692 48.1113C38.5692 48.2423 38.5692 48.3603 38.5823 48.4913C35.5442 49.448 32.349 49.946 29.0621 49.946ZM49.805 56.9833C49.805 59.5518 51.9002 61.6486 54.4669 61.6486C57.0335 61.6486 59.1288 59.5518 59.1288 56.9833C59.1288 54.4147 57.0335 52.318 54.4669 52.318C51.9002 52.318 49.805 54.4016 49.805 56.9833ZM58.0681 56.9833C58.0681 58.9752 56.4442 60.6002 54.4538 60.6002C52.4633 60.6002 50.8395 58.9752 50.8395 56.9833C50.8395 54.9913 52.4633 53.3663 54.4538 53.3663C56.4442 53.3663 58.0681 54.9782 58.0681 56.9833ZM66.2002 62.3038C66.2002 60.705 64.9038 59.4077 63.3192 59.4077C61.7347 59.4077 60.4383 60.705 60.4383 62.3038C60.4383 63.9026 61.7347 65.2 63.3192 65.2C64.9038 65.2 66.2002 63.9026 66.2002 62.3038ZM63.3192 64.1516C62.3109 64.1516 61.4859 63.326 61.4859 62.3038C61.4859 61.2817 62.3109 60.4561 63.3192 60.4561C64.3276 60.4561 65.1526 61.2817 65.1526 62.3038C65.1526 63.326 64.3276 64.1516 63.3192 64.1516ZM25.3038 8.61332C25.7883 8.07602 26.5216 7.49941 27.5561 7.26352C29.049 6.9359 30.2669 7.52562 30.7121 7.78771C30.9609 7.93187 31.2883 7.85324 31.4323 7.60425C31.5764 7.35525 31.4978 7.02763 31.249 6.88348C30.6859 6.54275 29.1931 5.80888 27.3204 6.22824C25.2776 6.68691 24.1907 8.20707 23.7847 8.92783C20.0264 8.87541 16.805 10.7494 15.7311 13.6718C15.1811 15.1526 15.3121 16.5942 15.5871 17.6688C13.4002 18.5075 11.8419 20.4208 11.5669 22.6748C11.2788 25.073 12.5752 26.8421 13.2169 27.5629C12.8502 28.2968 12.3788 29.6204 12.7585 31.1536C13.1776 32.8442 14.474 34.194 16.1895 34.8099C14.199 35.0065 11.0169 34.9409 8.89543 33.0145C7.99186 32.202 7.29781 31.0488 6.86567 29.6859C6.77401 29.4107 6.48591 29.2534 6.21091 29.3452C5.93591 29.4369 5.77877 29.7252 5.87043 30.0004C6.35496 31.5337 7.15377 32.8442 8.18829 33.7877C10.0609 35.4913 12.5359 35.95 14.6442 35.95C15.6133 35.95 16.5169 35.8583 17.2371 35.7403C17.9442 36.7756 19.5681 37.4833 21.5192 37.4833C24.1252 37.4833 26.1811 36.2121 26.1811 34.5871C26.1811 32.9621 24.1383 31.6909 21.5192 31.6909C19.2538 31.6909 17.4204 32.6476 16.9621 33.9581C15.3514 33.5387 14.1204 32.3855 13.7538 30.9046C13.5704 30.1446 13.6359 29.45 13.7931 28.8865C14.6835 30.1184 16.7264 30.9571 19.149 30.9571C22.4228 30.9571 24.9895 29.4238 24.9895 27.4712C24.9895 25.5186 22.4228 23.9853 19.149 23.9853C16.5169 23.9853 14.3431 24.9813 13.5966 26.3835C13.0597 25.6365 12.405 24.3653 12.5883 22.7928C12.8109 20.9712 14.0419 19.4248 15.7966 18.6909C16.3335 20.3028 18.6514 21.4692 21.5192 21.4692C24.7931 21.4692 27.3597 19.9359 27.3597 17.9833C27.3597 16.0307 24.7931 14.4974 21.5192 14.4974C19.28 14.4974 17.3811 15.2051 16.399 16.2796C16.3466 15.5851 16.399 14.7988 16.7002 14.0125C17.5645 11.6799 20.1966 10.0811 23.2609 9.96312C23.0776 10.9067 23.549 12.1516 24.5573 13.1607C25.3954 13.9994 26.43 14.4974 27.3335 14.4974C27.8573 14.4974 28.3157 14.327 28.6431 13.9994C29.5466 13.0821 29.18 11.2867 27.805 9.9107C27.0585 9.17683 26.1419 8.70505 25.3038 8.61332ZM21.5323 32.7393C23.6538 32.7393 25.1466 33.7091 25.1466 34.5871C25.1466 35.4651 23.6669 36.4349 21.5323 36.4349C19.4109 36.4349 17.9181 35.4651 17.9181 34.5871C17.9181 33.7091 19.4109 32.7393 21.5323 32.7393ZM19.1752 25.0468C21.7681 25.0468 23.9681 26.1607 23.9681 27.4843C23.9681 28.8079 21.7681 29.9218 19.1752 29.9218C16.5823 29.9218 14.3823 28.8079 14.3823 27.4843C14.3823 26.1607 16.5823 25.0468 19.1752 25.0468ZM21.5323 15.572C24.1252 15.572 26.3252 16.6859 26.3252 18.0095C26.3252 19.3331 24.1252 20.447 21.5323 20.447C18.9395 20.447 16.7395 19.3331 16.7395 18.0095C16.7395 16.6859 18.9395 15.572 21.5323 15.572ZM27.9097 13.2917C27.7788 13.4228 27.5954 13.4883 27.3466 13.4883C26.7311 13.4883 25.9454 13.0952 25.3169 12.453C24.3085 11.444 24.0597 10.2645 24.4788 9.84517C24.6097 9.71412 24.7931 9.6486 25.0419 9.6486C25.6573 9.6486 26.4431 10.0417 27.0716 10.6839C28.08 11.693 28.3288 12.8724 27.9097 13.2917ZM5.89662 25.6365C5.88353 25.6365 5.87043 25.6365 5.85734 25.6365C5.56924 25.6103 5.34662 25.3613 5.37281 25.073C5.49067 23.4611 5.87043 21.823 6.48591 20.1849C6.59067 19.9097 6.89186 19.7786 7.16686 19.8835C7.44186 19.9883 7.57281 20.2897 7.46805 20.5649C6.89186 22.0982 6.53829 23.6446 6.42043 25.1516C6.39424 25.4268 6.15853 25.6365 5.89662 25.6365ZM8.27996 16.5417C8.92162 15.4934 9.68115 14.4712 10.5061 13.5145C10.6895 13.2917 11.03 13.2786 11.2395 13.4621C11.4621 13.6456 11.4752 13.9863 11.2919 14.196C10.4931 15.1133 9.77281 16.0962 9.15734 17.0921C9.05258 17.2494 8.88234 17.3411 8.7121 17.3411C8.62043 17.3411 8.52877 17.3149 8.4371 17.2625C8.20139 17.1184 8.13591 16.7907 8.27996 16.5417ZM24.9764 39.1214C25.0942 39.3835 24.9633 39.698 24.7014 39.8028C23.6931 40.2222 22.6323 40.4319 21.5454 40.4319C20.4585 40.4319 19.3978 40.2222 18.3895 39.8028C18.1276 39.6849 17.9966 39.3835 18.1145 39.1214C18.2323 38.8593 18.5335 38.7282 18.7954 38.8462C19.6728 39.2131 20.6026 39.3966 21.5454 39.3966C22.4883 39.3966 23.4181 39.2131 24.2954 38.8462C24.5573 38.7282 24.8585 38.8593 24.9764 39.1214ZM27.3335 24.326C27.7526 25.3351 27.9621 26.3966 27.9621 27.4843C27.9621 28.572 27.7526 29.6335 27.3335 30.6426C27.255 30.8391 27.0585 30.9702 26.849 30.9702C26.7835 30.9702 26.7181 30.9571 26.6526 30.9309C26.3907 30.826 26.2597 30.5115 26.3645 30.2494C26.7311 29.3714 26.9145 28.4409 26.9145 27.4843C26.9145 26.5276 26.7311 25.6103 26.3645 24.7192C26.2597 24.4571 26.3776 24.1426 26.6526 24.0377C26.9145 23.9198 27.2288 24.0508 27.3335 24.326ZM46.8192 38.6627C48.4038 38.6627 49.9621 38.0075 51.0883 36.8673C52.2014 35.7403 52.7907 34.2595 52.7645 32.7C52.7383 31.3502 52.2407 30.0921 51.4419 29.1093C51.9264 28.0347 52.1752 26.8946 52.1752 25.702C52.1752 21.7444 49.3728 18.3764 45.5621 17.6294C45.6538 17.2887 45.6931 16.948 45.68 16.5942C45.6276 14.6022 44.8026 12.7282 43.3752 11.3391C41.9478 9.95001 40.0621 9.18993 38.0716 9.18993C38.0585 9.18993 38.0585 9.18993 38.0454 9.18993C33.8681 9.20304 30.4633 12.6758 30.4633 16.9349V32.202C30.4633 35.7534 33.3442 38.6496 36.8931 38.6496L46.8192 38.6627ZM31.5109 32.2151V31.7958C33.2919 33.3028 35.5966 33.329 35.7145 33.329C39.0669 33.329 40.7954 30.8391 40.874 30.7343C41.0312 30.4984 40.9788 30.1708 40.73 30.0004C40.4942 29.8432 40.1669 29.8956 39.9966 30.1446C39.9835 30.1708 38.5038 32.2807 35.7014 32.2807C35.6752 32.2807 32.9645 32.2544 31.4978 30.2625V26.0165C32.2181 25.6889 32.8859 25.6234 33.3312 25.6234C34.2609 25.6234 34.9942 25.9117 35.4526 26.1476C35.7145 26.2786 36.0288 26.1869 36.1597 25.9379C36.2907 25.6889 36.199 25.3613 35.9502 25.2303C35.3871 24.9288 34.4835 24.575 33.3442 24.575C32.8728 24.575 32.2181 24.6405 31.5109 24.8895V19.949C32.6502 18.5599 34.3395 18.5206 34.5359 18.5206C36.4347 18.5206 37.5347 19.9228 37.6657 20.0932C37.8359 20.329 38.1633 20.3684 38.399 20.198C38.6347 20.0276 38.674 19.7 38.5038 19.4641C38.255 19.1365 36.8931 17.4722 34.5359 17.4722C34.2085 17.4722 32.7942 17.5377 31.5109 18.5075V16.9349C31.5109 13.2524 34.4442 10.2514 38.0454 10.2383C38.0585 10.2383 38.0585 10.2383 38.0716 10.2383C41.5942 10.2383 44.5276 13.0952 44.6323 16.6335C44.6585 17.3411 44.3835 18.0357 43.899 18.5337C43.4407 19.0055 42.8383 19.2544 42.1966 19.2544C40.8609 19.2544 39.774 18.1536 39.774 16.8169C39.774 16.5286 39.5383 16.2928 39.2502 16.2928C38.9621 16.2928 38.7264 16.5286 38.7264 16.8169C38.7264 18.7303 40.2847 20.3028 42.1966 20.3028C42.1966 20.3028 42.1966 20.3028 42.2097 20.3028C43.1264 20.3028 44.0038 19.9359 44.6585 19.2676C44.855 19.071 45.0121 18.8613 45.1561 18.6254C48.5871 19.1889 51.1407 22.1768 51.1407 25.702C51.1407 26.6063 50.9704 27.4843 50.6561 28.3099C49.6478 27.4712 48.3514 26.9601 46.9502 26.9601C46.0335 26.9601 45.1692 27.1698 44.3573 27.5629C44.0954 27.694 43.9907 28.0085 44.1216 28.2706C44.2526 28.5327 44.5669 28.6375 44.8288 28.5065C45.4966 28.1788 46.2038 28.0085 46.9633 28.0085C49.5562 28.0085 51.7038 30.1184 51.7562 32.7131C51.7823 33.9843 51.2978 35.203 50.3812 36.1204C49.4514 37.0639 48.1681 37.6012 46.8585 37.6012H45.7716C46.2692 36.7887 46.3085 35.9631 46.3085 35.7534C46.3085 34.1022 45.1562 33.1456 44.9204 32.9621C44.6847 32.7917 44.3573 32.8311 44.1871 33.0669C44.0169 33.3028 44.0562 33.6305 44.2919 33.8008C44.3966 33.8794 45.2609 34.5609 45.2609 35.7534C45.2609 35.8714 45.2347 36.8936 44.4228 37.6012H36.9323C33.9204 37.6143 31.5109 35.1899 31.5109 32.2151Z" stroke="#003C7E" stroke-width="0.4" mask="url(#path-1-outside-1_58_157)"/>
</svg>
