<svg width="63" height="65" viewBox="0 0 63 65" fill="none" xmlns="http://www.w3.org/2000/svg">
<path d="M2.06018 50.4723L11.6128 62.792C16.8956 57.067 20.0798 57.7192 26.3034 59.0236C29.4876 59.7483 32.7442 60.2556 36.0007 60.5455H36.0731C37.3034 60.6904 39.3297 60.2556 42.2968 59.3135C46.3494 57.8641 50.402 56.2698 54.2375 54.3856C56.1914 53.516 58.1453 52.5014 59.8822 51.2695C60.7506 50.6172 61.1124 50.0375 61.1124 49.4577C61.1124 48.5156 60.6782 48.1533 60.0993 48.1533C59.0861 48.1533 58.073 48.3707 57.1322 48.6606C55.5401 49.0954 54.1651 49.6027 52.7177 50.1099C49.3165 51.4144 45.7704 52.3565 42.152 52.8638C42.0797 52.8638 42.0073 52.8638 41.9349 52.8638C41.2112 52.7913 39.7639 52.5014 37.5928 52.0666C35.4218 51.6318 32.4547 50.9796 28.764 50.1099C28.3297 50.0375 28.0403 49.5302 28.1126 49.0954C28.185 48.6606 28.6192 48.3707 29.1258 48.4432C30.8626 48.6606 32.5995 48.5881 34.2639 48.2258C36.435 47.7909 38.4613 47.1387 40.4876 46.1966C42.5862 45.1096 43.527 44.0226 43.6717 43.1529C43.7441 42.8631 43.6717 42.5007 43.527 42.2108C43.3823 41.8485 43.0928 41.6311 42.8033 41.4137C41.8625 40.7615 40.7047 40.6165 39.6191 40.9064H39.4744C38.8231 41.0513 38.0994 41.2687 37.3757 41.4137C33.1784 42.5007 28.2574 43.8052 21.6719 43.1529C21.5995 43.1529 21.5272 43.1529 21.4548 43.0805C18.5601 41.921 15.3759 41.9934 12.4812 43.2254C9.65882 44.5298 6.25752 46.9213 2.06018 50.4723ZM32.5271 33.5146C38.9678 34.1668 44.3231 33.0073 48.448 29.9636C52.573 26.9199 55.6125 22.0645 57.494 15.3973C50.5467 15.1075 44.9744 16.4844 40.8494 19.4556C36.7244 22.4268 33.9021 27.1373 32.5271 33.5146ZM49.4612 31.413C44.7573 34.819 38.8231 36.051 31.5139 35.1814C24.2048 36.051 18.1982 34.819 13.5667 31.413C8.86277 28.0069 5.53384 22.4268 3.57991 14.8176C3.43517 14.3828 3.72465 13.8755 4.23122 13.803C4.30359 13.803 4.30359 13.803 4.37596 13.803C7.48778 13.5856 10.672 13.7306 13.7838 14.2378C13.7114 12.9334 13.7114 11.629 13.7838 10.3245C13.9285 8.44032 14.1456 6.6286 14.5075 4.81688C14.5798 4.38206 15.014 4.01972 15.5206 4.09219C15.593 4.09219 15.593 4.09219 15.6654 4.16466C19.0667 5.4691 22.2508 7.20835 25.1456 9.45489C25.7245 8.07798 26.3758 6.77354 27.1719 5.4691C28.2574 3.65737 29.4876 1.91812 30.8626 0.323804C31.1521 -0.0385405 31.731 -0.111009 32.0929 0.178866C32.1652 0.251335 32.1652 0.251335 32.2376 0.323804C33.6126 1.91812 34.8429 3.65737 35.9284 5.4691C36.7244 6.77354 37.3757 8.07798 37.9547 9.45489C40.8494 7.20835 44.0336 5.4691 47.4349 4.16466C47.5073 4.16466 47.5073 4.16466 47.5796 4.09219C48.0138 4.01972 48.5204 4.30959 48.5928 4.74441C48.9546 6.55613 49.1717 8.44032 49.3165 10.252C49.3888 11.5565 49.3888 12.8609 49.3165 14.1654C52.4283 13.6581 55.6125 13.5131 58.7243 13.7306C58.7967 13.7306 58.7967 13.7306 58.869 13.7306C59.3032 13.8755 59.5927 14.3103 59.5203 14.7451C57.4217 22.4268 54.1651 28.0069 49.4612 31.413ZM31.5863 30.2535C33.2508 24.8908 36.0007 20.8325 39.8363 18.0062C42.152 16.3394 44.7573 15.1799 47.5073 14.5277C47.5796 13.1508 47.652 11.7739 47.5073 10.3245C47.4349 8.87514 47.2901 7.49823 47.0007 6.04885C40.5599 8.7302 36.1455 12.3536 33.6126 16.7742C31.5863 20.6876 30.8626 25.1082 31.5863 30.2535ZM30.4284 33.5146C30.356 33.0798 30.2837 32.7174 30.1389 32.2826C28.6916 26.5576 26.014 22.2819 22.1061 19.4556C17.9811 16.4844 12.4088 15.1075 5.46148 15.3973C7.34304 22.1369 10.3825 26.9924 14.5075 29.9636C18.6324 33.0073 23.9877 34.1668 30.4284 33.5146ZM29.56 25.7604C29.6324 23.7313 29.9218 21.6297 30.5732 19.673C29.4876 16.6293 27.6784 13.948 25.2903 11.7739C22.5403 9.38242 19.4285 7.42576 16.0272 6.12132C15.8101 7.49823 15.593 8.94761 15.5206 10.397C15.4483 11.7739 15.4483 13.1508 15.5206 14.6002C18.2706 15.2524 20.8758 16.4844 23.1916 18.0787C25.8692 20.0353 28.1126 22.7167 29.56 25.7604ZM31.5139 17.354C31.731 16.9192 31.9481 16.4844 32.1652 16.0496C33.3231 14.0204 34.7705 12.1362 36.5073 10.5419C35.9284 9.02007 35.2047 7.64316 34.4087 6.26625C33.5402 4.81688 32.5995 3.43997 31.5139 2.13553C30.4284 3.43997 29.4876 4.81688 28.6192 6.26625C27.8232 7.64316 27.0995 9.09254 26.5205 10.5419C28.5468 12.4261 30.2837 14.7451 31.5139 17.354ZM10.8891 64.6762L0.178617 50.9071C-0.110855 50.5448 -0.0384868 50.0375 0.323353 49.7476C4.9549 45.7618 8.64567 43.1529 12.047 41.776C15.2311 40.3991 18.8495 40.3266 22.1785 41.6311C28.4745 42.2108 33.1784 40.9789 37.231 39.9643C37.9547 39.7469 38.6784 39.602 39.3297 39.457C40.9218 38.9497 42.6586 39.2396 44.0336 40.1817C44.6125 40.544 45.0467 41.0513 45.3362 41.6311C45.6257 42.2833 45.7704 43.008 45.6257 43.6602C45.3362 45.0371 44.1783 46.4865 41.5731 47.8634C41.5731 47.8634 41.5731 47.8634 41.5007 47.8634C39.5468 48.733 37.5205 49.4577 35.4218 49.8925C36.435 50.1099 37.3034 50.3274 38.1718 50.4723C40.1981 50.9071 41.5731 51.1245 42.2968 51.2695C45.7704 50.7622 49.0993 49.8925 52.3559 48.6606C53.8033 48.1533 55.2506 47.646 56.8427 47.1387C58.0006 46.7039 59.2309 46.559 60.4611 46.559C61.9085 46.7039 62.9216 47.5011 62.994 49.5302C63.0664 50.6897 62.4874 51.7043 61.1124 52.7188C59.2309 54.0233 57.2046 55.1103 55.1059 56.0524C51.1256 57.8641 47.073 59.5309 42.8757 60.9803C39.6915 62.0673 37.3757 62.5021 35.9284 62.2847C32.5995 61.9948 29.2705 61.4876 26.014 60.7629C20.2245 59.5309 17.3298 58.9512 12.3364 64.6762C12.2641 64.7487 12.2641 64.8211 12.1917 64.8211C11.7575 65.111 11.2509 65.0385 10.8891 64.6762Z" fill="#003C7E"/>
</svg>
