<svg width="47" height="45" viewBox="0 0 47 45" fill="none" xmlns="http://www.w3.org/2000/svg">
<path d="M32.3718 44.4886C32.0986 44.4886 31.88 44.2747 31.88 44.0072V38.203C31.88 34.3246 28.6556 31.1684 24.6935 31.1684C22.9448 31.1684 21.2233 31.7301 19.857 32.7733L18.6274 33.7094C17.4798 34.5653 15.8949 34.5653 14.7473 33.7094L13.5177 32.7733C12.1241 31.7301 10.4027 31.1684 8.68119 31.1684C4.71908 31.1684 1.49475 34.3246 1.49475 38.203V44.0072C1.49475 44.2747 1.27615 44.4886 1.0029 44.4886C0.729655 44.4886 0.511056 44.2747 0.511056 44.0072V38.203C0.456407 33.7897 4.11794 30.2055 8.62654 30.2055C10.5939 30.2055 12.5067 30.8475 14.0642 31.9976L15.2938 32.9338C16.0862 33.5222 17.2065 33.5222 17.999 32.9338L19.2286 31.9976C20.7861 30.8475 22.7262 30.2055 24.6662 30.2055C29.1748 30.2055 32.8363 33.7897 32.8363 38.203V44.0072C32.8637 44.2747 32.6451 44.4886 32.3718 44.4886Z" fill="#003C7E"/>
<path d="M16.66 27.9587C12.5886 27.9587 9.25501 24.7223 9.25501 20.7102C9.25501 18.2494 10.512 15.9759 12.6433 14.6385C12.8619 14.5048 13.1898 14.5583 13.3264 14.7723C13.463 14.9862 13.4084 15.2805 13.1898 15.4409C11.359 16.5911 10.2387 18.5704 10.2387 20.7102C10.266 24.1606 13.1351 26.9958 16.66 26.9958C17.4525 26.9958 18.2176 26.8621 18.9553 26.5679C19.2013 26.4609 19.5018 26.5946 19.5838 26.8353C19.6931 27.0761 19.5565 27.3703 19.3106 27.4505C18.4635 27.7715 17.5891 27.9587 16.66 27.9587Z" fill="#003C7E"/>
<path d="M29.8579 27.8785C28.9016 27.8785 27.9452 27.7715 27.0162 27.5843C23.3546 26.8353 20.2123 24.749 18.1629 21.6998C13.9276 15.3875 15.7037 6.90852 22.1523 2.76267C28.601 -1.38318 37.263 0.355404 41.4983 6.66779C45.7337 12.9802 43.9576 21.4591 37.5089 25.605C35.1863 27.1028 32.5358 27.8785 29.8579 27.8785ZM29.8033 1.4788C27.3441 1.4788 24.8848 2.14748 22.6715 3.56509C16.6874 7.41672 15.0205 15.334 18.9553 21.1916C20.8681 24.0269 23.7918 25.9794 27.1801 26.6481C30.5684 27.3435 34.0386 26.6749 36.9351 24.8025C42.9192 20.9509 44.586 13.0337 40.6513 7.176C38.1647 3.48485 34.0113 1.4788 29.8033 1.4788Z" fill="#003C7E"/>
<path d="M42.8646 37.1598C42.6186 37.1598 42.3727 37.1331 42.1268 37.0796C41.1704 36.8924 40.3507 36.3307 39.8042 35.555L37.4542 32.0511C36.9077 31.2487 36.7438 30.3125 36.9351 29.3764C37.1264 28.4402 37.7002 27.6378 38.4926 27.1028C39.3123 26.5679 40.2687 26.4074 41.2251 26.5946C42.1814 26.7819 43.0012 27.3435 43.5477 28.1192L45.8976 31.6231C46.9906 33.2815 46.5261 35.4748 44.8593 36.5714C44.2581 36.9459 43.575 37.1598 42.8646 37.1598ZM40.4873 27.4773C39.9681 27.4773 39.4763 27.611 39.0391 27.9052C37.8095 28.7077 37.4816 30.3125 38.274 31.5161L40.6239 35.0201C41.0065 35.6085 41.6076 35.983 42.3181 36.1434C43.0285 36.2772 43.739 36.1434 44.3128 35.769C45.5424 34.9666 45.8703 33.3617 45.0779 32.1581L42.7279 28.6542C42.3454 28.0657 41.7443 27.6913 41.0338 27.5308C40.8699 27.504 40.6786 27.4773 40.4873 27.4773Z" fill="#003C7E"/>
<path d="M29.9946 24.5351C29.8853 24.5351 29.776 24.5083 29.6667 24.4281C29.4481 24.2408 29.4481 23.9466 29.612 23.7594C31.0602 22.1278 31.88 20.0148 31.88 17.8482C31.88 12.8732 27.7266 8.80759 22.6442 8.80759C22.3163 8.78084 22.043 8.78084 21.7698 8.80759C21.4965 8.83434 21.2506 8.6471 21.2233 8.37963C21.196 8.11215 21.3872 7.87143 21.6605 7.84468C21.9611 7.81793 22.289 7.79119 22.6442 7.79119C28.2731 7.79119 32.8637 12.2848 32.8637 17.7947C32.8637 20.202 31.9893 22.529 30.3771 24.3478C30.2951 24.4816 30.1312 24.5351 29.9946 24.5351Z" fill="#003C7E"/>
<path d="M32.8363 38.203C32.8363 33.9276 29.4001 30.4307 25.0863 30.2163L24.6662 30.2055C22.7262 30.2055 20.7861 30.8475 19.2286 31.9976L17.999 32.9338L17.8463 33.0368C17.1191 33.4874 16.1726 33.4876 15.4456 33.0368L15.2938 32.9338L14.0642 31.9976C12.604 30.9194 10.8317 30.288 8.99477 30.2133L8.62654 30.2055C4.11794 30.2055 0.456407 33.7897 0.511056 38.203V44.0072C0.511077 44.2413 0.678599 44.4341 0.903586 44.4786L1.0029 44.4886C1.24167 44.4884 1.43963 44.3249 1.48531 44.1051L1.49475 44.0072V38.203C1.49475 34.3246 4.71908 31.1684 8.68119 31.1684L9.00375 31.1751C10.6165 31.2406 12.2112 31.7953 13.5177 32.7733L14.7473 33.7094C15.8232 34.5118 17.2831 34.5618 18.4071 33.8598L18.6274 33.7094L19.857 32.7733C21.2233 31.7301 22.9448 31.1684 24.6935 31.1684C28.6556 31.1684 31.88 34.3246 31.88 38.203V44.0072C31.88 44.2413 32.0475 44.4341 32.2725 44.4786L32.3718 44.4886C32.6451 44.4886 32.8637 44.2747 32.8363 44.0072V38.203ZM38.2135 26.6747C39.1525 26.0618 40.2464 25.8815 41.3236 26.0924C42.4165 26.3064 43.3471 26.9478 43.9648 27.8242L43.9718 27.8342L46.3216 31.3379L46.3236 31.3419C47.5745 33.2398 47.0393 35.7493 45.1402 36.9989L45.1292 37.0059C44.4548 37.426 43.6787 37.6711 42.8642 37.6711C42.5811 37.671 42.2987 37.6402 42.0181 37.5792C40.9296 37.363 40.0025 36.7232 39.3869 35.8493L39.3799 35.8403L37.0301 32.3357C36.4034 31.4132 36.2174 30.3353 36.4344 29.2734C36.6549 28.1945 37.3138 27.2813 38.2065 26.6787L38.2135 26.6747ZM41.2251 26.5946C40.2687 26.4074 39.3123 26.5679 38.4926 27.1028C37.7002 27.6378 37.1264 28.4402 36.9351 29.3764L36.9033 29.5521C36.7658 30.4291 36.942 31.2989 37.4542 32.0511L39.8042 35.555C40.3507 36.3307 41.1704 36.8924 42.1268 37.0796C42.3727 37.1331 42.6186 37.1598 42.8646 37.1598C43.4863 37.1598 44.0871 36.9961 44.6303 36.7043L44.8593 36.5714C46.474 35.509 46.9601 33.4177 45.9953 31.7803L45.8976 31.6231L43.5477 28.1192C43.0353 27.392 42.2826 26.8524 41.4024 26.6337L41.2251 26.5946ZM40.7708 27.4936C40.863 27.5037 40.9518 27.5174 41.0338 27.5308C41.7443 27.6913 42.3454 28.0657 42.7279 28.6542L45.0779 32.1581C45.8703 33.3617 45.5424 34.9666 44.3128 35.769L44.0915 35.8983C43.637 36.1337 43.1152 36.2315 42.5838 36.1809L42.3181 36.1434C41.6966 36.0031 41.1588 35.6989 40.7778 35.2311L40.6239 35.0201L38.274 31.5161C37.4816 30.3125 37.8095 28.7077 39.0391 27.9052C39.4763 27.611 39.9681 27.4773 40.4873 27.4773L40.7708 27.4936ZM40.4874 27.989C40.0593 27.989 39.6686 28.0977 39.324 28.3296L39.318 28.3336C38.3256 28.9813 38.0656 30.2657 38.6984 31.231L41.0482 34.7347L41.0522 34.7407C41.3484 35.1963 41.8211 35.5029 42.4182 35.6406C43.0049 35.7496 43.5779 35.6383 44.0336 35.3409C45.0261 34.6933 45.2859 33.4088 44.6533 32.4435L42.3034 28.9389L42.2995 28.9329C42.0033 28.4775 41.5312 28.1707 40.9345 28.033C40.7818 28.0084 40.6302 27.989 40.4874 27.989ZM8.74433 20.71C8.74438 18.071 10.0939 15.6347 12.3723 14.2051L12.3773 14.2021C12.6063 14.0622 12.8735 14.0287 13.1087 14.0722C13.3151 14.1105 13.535 14.2157 13.6934 14.4088L13.7573 14.4967L13.8062 14.5826C14.0278 15.0199 13.8922 15.5591 13.4919 15.853L13.4769 15.864L13.4609 15.874C11.7746 16.9335 10.75 18.7518 10.7499 20.71C10.7771 23.8723 13.4115 26.4848 16.6599 26.4849L16.66 26.9958L16.3316 26.9873C12.9586 26.8177 10.2652 24.0528 10.2387 20.7102C10.2387 18.5704 11.359 16.5911 13.1898 15.4409C13.4084 15.2805 13.463 14.9862 13.3264 14.7723C13.1898 14.5583 12.8619 14.5048 12.6433 14.6385C10.512 15.9759 9.25501 18.2494 9.25501 20.7102L9.26518 21.0836C9.45795 24.7974 12.5092 27.7618 16.2807 27.9491L16.66 27.9587C17.5891 27.9587 18.4635 27.7715 19.3106 27.4505C19.5565 27.3703 19.6931 27.0761 19.5838 26.8353C19.5018 26.5946 19.2013 26.4609 18.9553 26.5679C18.2176 26.8621 17.4525 26.9958 16.66 26.9958L16.6599 26.4849C17.3934 26.4849 18.0938 26.3605 18.7663 26.0924C19.2751 25.8808 19.8879 26.1437 20.0674 26.6707C20.267 27.1793 19.9881 27.7519 19.4907 27.9281C18.5951 28.2674 17.6597 28.4704 16.6599 28.4704C12.3185 28.4704 8.74433 25.0164 8.74433 20.71ZM21.8764 2.33275C28.5546 -1.96063 37.5289 -0.165089 41.9223 6.38275C46.3189 12.9356 44.4721 21.7364 37.7854 26.0354L37.7844 26.0344C35.3803 27.5847 32.6345 28.3895 29.8578 28.3895C28.8638 28.3895 27.8735 28.279 26.9153 28.0859L26.9143 28.0849C23.1246 27.3098 19.8654 25.1482 17.7395 21.9855L17.7385 21.9845C13.3422 15.4317 15.1898 6.63164 21.8764 2.33275ZM41.4983 6.66779C37.263 0.355404 28.601 -1.38318 22.1523 2.76267L21.8535 2.95998C15.6496 7.17273 13.9939 15.4861 18.1629 21.6998C20.2123 24.749 23.3546 26.8353 27.0162 27.5843C27.9452 27.7715 28.9016 27.8785 29.8579 27.8785C32.5358 27.8785 35.1863 27.1028 37.5089 25.605C43.9576 21.4591 45.7337 12.9802 41.4983 6.66779ZM30.1971 1.4848C34.2689 1.60581 38.2423 3.60021 40.6513 7.176C44.586 13.0337 42.9192 20.9509 36.9351 24.8025C34.0386 26.6749 30.5684 27.3435 27.1801 26.6481C23.7918 25.9794 20.8681 24.0269 18.9553 21.1916C15.0205 15.334 16.6874 7.41672 22.6715 3.56509C24.8848 2.14748 27.3441 1.4788 29.8033 1.4788L30.1971 1.4848ZM29.803 1.99018C27.438 1.99024 25.0748 2.63204 22.9471 3.9947C17.2008 7.69343 15.606 15.2895 19.3779 20.9058C21.2152 23.629 24.0232 25.5037 27.2785 26.1463L27.2825 26.1473C30.5382 26.8155 33.8725 26.173 36.6579 24.3725C42.4047 20.6736 43.9998 13.0779 40.227 7.46141C37.8416 3.9214 33.8522 1.99018 29.803 1.99018ZM32.8637 17.7947C32.8637 12.2848 28.2731 7.79119 22.6442 7.79119C22.289 7.79119 21.9611 7.81793 21.6605 7.84468C21.3872 7.87143 21.196 8.11215 21.2233 8.37963C21.2506 8.6471 21.4965 8.83434 21.7698 8.80759L21.9752 8.79277C22.1827 8.78272 22.3983 8.78754 22.6442 8.80759C27.7266 8.80759 31.88 12.8732 31.88 17.8482L31.8704 18.2541C31.775 20.2771 30.9695 22.2299 29.612 23.7594C29.4481 23.9466 29.4481 24.2408 29.6667 24.4281C29.7487 24.4883 29.8307 24.518 29.9127 24.5293L29.9946 24.5351C30.1312 24.5351 30.2951 24.4816 30.3771 24.3478C31.9893 22.529 32.8637 20.202 32.8637 17.7947ZM33.3472 44.0072C33.3768 44.5906 32.8888 44.9997 32.3723 45C31.8277 45 31.3695 44.5678 31.3695 44.0072V38.2034C31.3695 34.6181 28.384 31.6795 24.6932 31.6795C23.0515 31.6795 21.4403 32.2077 20.1672 33.1796L20.1662 33.1806L18.9369 34.1165L18.9329 34.1194C17.6041 35.1104 15.7705 35.1104 14.4418 34.1194L14.4378 34.1165L13.2085 33.1806C11.9053 32.2063 10.2927 31.6795 8.68146 31.6795C4.9907 31.6795 2.00516 34.6181 2.00516 38.2034V44.0072C2.00514 44.5676 1.54773 44.9998 1.00337 45C0.458797 45 0.000597736 44.5678 0.000574346 44.0072V38.2034C-0.0544409 33.4935 3.85005 29.6939 8.62658 29.6939C10.5744 29.6939 12.4703 30.2899 14.0546 31.3649L14.3679 31.5866L14.3739 31.5906L15.6032 32.5264C16.2131 32.9763 17.0796 32.976 17.6896 32.5264L18.9189 31.5906L18.9249 31.5856C20.5699 30.3708 22.6166 29.6939 24.6663 29.6939C29.4462 29.694 33.3472 33.497 33.3472 38.2034V44.0072ZM33.3741 17.7946C33.3741 20.3223 32.457 22.7657 30.7668 24.6771C30.5513 24.9678 30.2127 25.0467 29.9945 25.0467C29.7912 25.0467 29.573 24.9926 29.3649 24.8399L29.349 24.8289L29.335 24.817C28.8893 24.4352 28.8863 23.8131 29.2282 23.4227L29.2302 23.4197C30.5974 21.8793 31.3694 19.8865 31.3695 17.8486C31.3695 13.1667 27.4548 9.31912 22.6437 9.31912H22.6238L22.6028 9.31712C22.2996 9.29238 22.0572 9.29286 21.8195 9.31612C21.2916 9.3678 20.7734 9.00334 20.715 8.43121C20.6595 7.88621 21.0521 7.39028 21.611 7.33557H21.615C21.917 7.30869 22.2643 7.27966 22.6437 7.27964C28.544 7.27964 33.3741 11.9916 33.3741 17.7946Z" fill="#003C7E"/>
</svg>
