<svg width="48" height="48" viewBox="0 0 48 48" fill="none" xmlns="http://www.w3.org/2000/svg">
<mask id="path-1-outside-1_58_106" maskUnits="userSpaceOnUse" x="-0.799805" y="-0.799988" width="49" height="49" fill="black">
<rect fill="white" x="-0.799805" y="-0.799988" width="49" height="49"/>
<path d="M19.962 47.0115C19.7854 47.0115 19.6382 46.982 19.4616 46.9525L13.3687 45.7424C12.4562 45.5653 11.6321 45.0635 11.014 44.3847L9.98376 43.204C9.77772 42.9974 9.80715 42.6433 10.0426 42.4662C10.2487 42.2596 10.6019 42.2891 10.7785 42.5252L11.8087 43.7058C12.2502 44.2371 12.8978 44.5913 13.5748 44.7389L19.6677 45.949C20.0503 46.0375 20.433 45.949 20.7567 45.7424C21.0805 45.5358 21.2866 45.1816 21.3454 44.7979C21.4632 44.06 21.0511 43.3811 20.3447 43.1745L16.6948 42.1415C16.5182 42.0825 16.4005 41.9644 16.3416 41.7873L14.8404 37.0058C14.3695 35.5891 13.0155 34.615 11.5143 34.615H6.68711C5.00935 34.615 3.56706 35.7957 3.24329 37.4485L1.38892 46.6278C1.33005 46.923 1.06514 47.1001 0.770797 47.0411C0.476454 46.982 0.299847 46.7164 0.358716 46.4212L2.21308 37.2419C2.6546 35.1168 4.5384 33.5525 6.71654 33.5525H11.5143C13.4864 33.5525 15.2231 34.7921 15.8412 36.6516L17.2835 41.1675L20.6684 42.1415C21.9047 42.4957 22.67 43.7058 22.4345 44.975C22.3168 45.6538 21.9341 46.2146 21.3749 46.5983C20.9333 46.864 20.4624 47.0115 19.962 47.0115Z"/>
<path d="M9.21846 31.1617C6.83428 31.1617 4.89161 29.2137 4.89161 26.823C4.89161 24.4322 6.83428 22.4842 9.21846 22.4842C11.6026 22.4842 13.5453 24.4322 13.5453 26.823C13.5453 29.2137 11.6026 31.1617 9.21846 31.1617ZM9.21846 23.5467C7.42297 23.5467 5.95125 25.0225 5.95125 26.823C5.95125 28.6234 7.42297 30.0992 9.21846 30.0992C11.014 30.0992 12.4857 28.6234 12.4857 26.823C12.4857 24.993 11.0434 23.5467 9.21846 23.5467Z"/>
<path d="M27.4383 47.0115C26.938 47.0115 26.467 46.864 26.0549 46.5688C25.4957 46.1851 25.113 45.6243 24.9953 44.9455C24.7598 43.6763 25.5251 42.4662 26.7614 42.112L30.1463 41.138L31.5592 36.6221C32.2067 34.7626 33.9433 33.4935 35.886 33.4935H40.6838C42.862 33.4935 44.7458 35.0283 45.1873 37.1829L47.0416 46.3622C47.1005 46.6574 46.9239 46.923 46.6296 46.982C46.3352 47.0411 46.0703 46.864 46.0114 46.5688L44.1571 37.3895C43.8333 35.7366 42.3616 34.556 40.7132 34.556H35.9449C34.4437 34.556 33.0897 35.53 32.6188 36.9468L31.1176 41.7283C31.0588 41.9054 30.941 42.0234 30.7644 42.0825L27.0557 43.145C26.3493 43.3516 25.9078 44.06 26.0549 44.7684C26.1138 45.1521 26.3493 45.4767 26.6436 45.7129C26.9674 45.9195 27.35 46.008 27.7327 45.9195L33.8256 44.7093C34.5026 44.5618 35.1207 44.2076 35.5917 43.6763L36.6219 42.4957C36.8279 42.2891 37.1517 42.2596 37.3577 42.4366C37.5638 42.6433 37.5932 42.9679 37.4166 43.1745L36.3864 44.3552C35.7683 45.0635 34.9441 45.5358 34.0316 45.7129L27.9387 46.982C27.7916 47.0115 27.615 47.0115 27.4383 47.0115Z"/>
<path d="M38.1819 31.1617C35.7977 31.1617 33.855 29.2137 33.855 26.823C33.855 24.4322 35.7977 22.4842 38.1819 22.4842C40.5661 22.4842 42.5087 24.4322 42.5087 26.823C42.5087 29.2137 40.5661 31.1617 38.1819 31.1617ZM38.1819 23.5467C36.3864 23.5467 34.9147 25.0225 34.9147 26.823C34.9147 28.6234 36.3864 30.0992 38.1819 30.0992C39.9774 30.0992 41.4491 28.6234 41.4491 26.823C41.4491 24.993 39.9774 23.5467 38.1819 23.5467Z"/>
<path d="M34.2377 19.1785C34.0022 19.1785 33.7962 19.0309 33.7373 18.7948C33.649 18.5291 33.7962 18.2044 34.0905 18.1159C38.123 16.8763 40.8016 13.6 40.8016 10.0287C40.8016 5.27667 36.1804 1.41015 30.4701 1.41015C29.6165 1.41015 28.7923 1.49869 27.9682 1.67579C27.6738 1.73482 27.4089 1.55772 27.35 1.26257C27.2912 0.967414 27.4678 0.701775 27.7621 0.642744C28.6452 0.465651 29.5576 0.34759 30.4701 0.34759C36.7396 0.34759 41.8612 4.68636 41.8612 10.0287C41.8612 14.0723 38.8589 17.7322 34.3849 19.1194C34.3554 19.1489 34.2966 19.1785 34.2377 19.1785Z"/>
<path d="M25.4662 25.2586C25.2013 25.2586 24.9364 25.1701 24.7598 24.993L22.5817 23.163C21.8752 23.2811 21.1688 23.3106 20.4624 23.3106C13.6925 23.3106 8.2177 18.6472 8.2177 12.8917C8.2177 7.13615 13.6925 2.44319 20.4624 2.44319C23.3764 2.44319 26.2021 3.32865 28.4097 4.92249C28.6452 5.09958 28.704 5.42425 28.5274 5.66037C28.3508 5.8965 28.027 5.95553 27.7916 5.77844C25.7606 4.30266 23.1409 3.47623 20.4624 3.47623C14.2812 3.47623 9.27733 7.66743 9.27733 12.8326C9.27733 17.9978 14.3106 22.189 20.4624 22.189C21.1983 22.189 21.9341 22.13 22.67 22.0119C22.8171 21.9824 22.9938 22.0415 23.1115 22.13L25.4662 24.1371C25.4662 24.1371 25.4957 24.1666 25.5251 24.1371C25.5545 24.1371 25.5545 24.1075 25.5545 24.1075L25.9666 21.2445C25.9961 21.0674 26.0844 20.9199 26.261 20.8608C29.6459 19.1489 31.6769 16.1384 31.6769 12.8326C31.6769 11.1207 31.1176 9.43835 30.058 7.96258C29.8814 7.72646 29.9403 7.40179 30.1757 7.22469C30.4112 7.0476 30.735 7.10663 30.9116 7.34276C32.1184 8.99562 32.7365 10.8846 32.7365 12.8326C32.7365 16.404 30.529 19.7688 26.9968 21.6578L26.6142 24.2551C26.5553 24.6683 26.2904 24.993 25.9078 25.1406C25.7312 25.2291 25.6134 25.2586 25.4662 25.2586Z"/>
<path d="M11.5144 33.4049C13.5487 33.4049 15.3422 34.6841 15.9807 36.6049L15.9813 36.6067L17.3995 41.0472L20.7089 41.9996L20.8299 42.0373C22.0656 42.4542 22.8201 43.6972 22.5793 45.0001C22.4543 45.7209 22.0476 46.3155 21.458 46.72L21.4542 46.7226L21.4505 46.7249C20.9895 47.0023 20.4927 47.159 19.9621 47.159C19.7704 47.159 19.6085 47.1268 19.4375 47.0982L19.4352 47.0976L19.4329 47.0973L13.3408 45.887C12.3939 45.7032 11.5423 45.1838 10.9053 44.4842L9.87308 43.3012C9.61134 43.0303 9.6517 42.5824 9.94753 42.3535C10.2172 42.0934 10.6606 42.1338 10.8889 42.4279L11.9194 43.6085L11.9217 43.6114C12.339 44.1136 12.9558 44.4525 13.6058 44.5943L19.6962 45.8043L19.6985 45.8046L19.7008 45.8052C20.0395 45.8835 20.3823 45.8064 20.6779 45.6178C20.9608 45.4372 21.1465 45.1233 21.1999 44.7756L21.2001 44.7747C21.3067 44.107 20.9354 43.5011 20.3033 43.3162L16.6548 42.2835L16.6516 42.2826L16.6482 42.2815C16.4277 42.2077 16.2756 42.0552 16.202 41.8341L16.2012 41.8315L14.7007 37.0523C14.2499 35.6965 12.9527 34.7625 11.5144 34.7625H6.68704C5.07919 34.7625 3.69792 35.8938 3.38774 37.4768L3.38746 37.4777L1.53315 46.6572C1.45817 47.032 1.11572 47.2608 0.741812 47.1858C0.367836 47.1108 0.139554 46.7673 0.21435 46.3923L2.06895 37.2125V37.2119C2.52446 35.0195 4.46771 33.4049 6.71665 33.4049L6.71654 33.5525L6.6146 33.5536C4.47985 33.6016 2.6477 35.15 2.21308 37.2419L0.358716 46.4212C0.299847 46.7164 0.476454 46.982 0.770797 47.0411C1.06514 47.1001 1.33005 46.923 1.38892 46.6278L3.24329 37.4485C3.56706 35.7957 5.00935 34.615 6.68711 34.615H11.5143C13.0155 34.615 14.3695 35.5891 14.8404 37.0058L16.3416 41.7873C16.4005 41.9644 16.5182 42.0825 16.6948 42.1415L20.3447 43.1745C21.0511 43.3811 21.4632 44.06 21.3454 44.7979C21.2866 45.1816 21.0805 45.5358 20.7567 45.7424C20.433 45.949 20.0503 46.0375 19.6677 45.949L13.5748 44.7389C12.8978 44.5913 12.2502 44.2371 11.8087 43.7058L10.7785 42.5252C10.6019 42.2891 10.2487 42.2596 10.0426 42.4662C9.80715 42.6433 9.77772 42.9974 9.98376 43.204L11.014 44.3847C11.6321 45.0635 12.4562 45.5653 13.3687 45.7424L19.4616 46.9525C19.6162 46.9783 19.7482 47.0042 19.8972 47.0103L19.962 47.0115C20.4311 47.0115 20.8745 46.8819 21.2918 46.6468L21.3749 46.5983C21.9341 46.2146 22.3168 45.6538 22.4345 44.975C22.67 43.7058 21.9047 42.4957 20.6684 42.1415L17.2835 41.1675L15.8412 36.6516C15.2424 34.8503 13.594 33.6308 11.6986 33.5562L11.5143 33.5525L11.5144 33.4049ZM40.6838 33.3458C42.8967 33.3458 44.8151 34.8808 45.309 37.0494L45.3315 37.1531V37.1537L47.1858 46.3329L47.186 46.3332C47.2609 46.7083 47.0323 47.0517 46.6583 47.1267C46.2844 47.2016 45.9422 46.9729 45.8672 46.5981L44.0129 37.4189L44.0127 37.418C43.7027 35.8357 42.2926 34.7038 40.7134 34.7037H35.9449C34.5074 34.7037 33.2104 35.6363 32.7589 36.9909L32.7592 36.9912L31.2581 41.7727L31.2573 41.775C31.1837 41.9961 31.0314 42.1487 30.8109 42.2224L30.808 42.2235L30.8048 42.2244L27.0965 43.2865L27.0968 43.2868C26.4804 43.4672 26.0929 44.0698 26.1882 44.6793L26.1991 44.7384L26.2003 44.7459C26.2515 45.0801 26.4575 45.3726 26.7291 45.5924C27.0232 45.778 27.3633 45.8535 27.6996 45.7758L27.7042 45.7746L33.7943 44.5649C34.4415 44.4238 35.0318 44.0856 35.4816 43.5782L36.5112 42.3985L36.5144 42.3947L36.5178 42.3913C36.7538 42.1546 37.1296 42.0965 37.4008 42.2838L37.4534 42.3247L37.4578 42.3282L37.4618 42.3322C37.7135 42.5846 37.7627 42.9966 37.5285 43.2707L37.5273 43.2718L36.4971 44.4525C35.8578 45.1851 35.0051 45.6735 34.0613 45.857L34.0616 45.8573L27.9686 47.1264L27.9675 47.1267C27.8031 47.1597 27.6106 47.159 27.4383 47.159C26.9087 47.159 26.4087 47.0026 25.9717 46.6903C25.3822 46.2858 24.9754 45.6915 24.8504 44.9707C24.6019 43.6258 25.4139 42.3447 26.7208 41.9702L30.0296 41.0178L31.4188 36.5778L31.4194 36.5758L31.4203 36.5735C32.0877 34.6568 33.8787 33.3458 35.886 33.3458L35.886 33.4935C33.9433 33.4935 32.2067 34.7626 31.5592 36.6221L30.1463 41.138L26.7614 42.112C25.5251 42.4662 24.7598 43.6763 24.9953 44.9455C25.113 45.6243 25.4957 46.1851 26.0549 46.5688C26.467 46.864 26.938 47.0115 27.4383 47.0115C27.615 47.0115 27.7916 47.0115 27.9387 46.982L34.0316 45.7129C34.887 45.5468 35.6648 45.1215 36.268 44.4853L36.3864 44.3552L37.4166 43.1745C37.5932 42.9679 37.5638 42.6433 37.3577 42.4366C37.1517 42.2596 36.8279 42.2891 36.6219 42.4957L35.5917 43.6763C35.1207 44.2076 34.5026 44.5618 33.8256 44.7093L27.7327 45.9195C27.374 46.0025 27.0152 45.9298 26.705 45.7501L26.6436 45.7129C26.3493 45.4767 26.1138 45.1521 26.0549 44.7684C25.9078 44.06 26.3493 43.3516 27.0557 43.145L30.7644 42.0825C30.9189 42.0308 31.0285 41.934 31.0929 41.792L31.1176 41.7283L32.6188 36.9468C33.075 35.5743 34.36 34.6172 35.8047 34.5587L35.9449 34.556H40.7132C42.3616 34.556 43.8333 35.7366 44.1571 37.3895L46.0114 46.5688C46.0703 46.864 46.3352 47.0411 46.6296 46.982C46.9055 46.9267 47.0781 46.6897 47.0501 46.4171L47.0416 46.3622L45.1873 37.1829C44.7458 35.0283 42.862 33.4935 40.6838 33.4935L40.6838 33.3458ZM11.5144 33.4049L11.5143 33.5525H6.71654L6.71665 33.4049H11.5144ZM40.6838 33.3458L40.6838 33.4935H35.886L35.886 33.3458H40.6838ZM13.5453 26.823C13.5453 24.4695 11.6628 22.5452 9.32981 22.4856L9.21846 22.4842C6.83428 22.4842 4.89161 24.4322 4.89161 26.823L4.89309 26.9346C4.95148 29.2369 6.81104 31.1018 9.10704 31.1604L9.21846 31.1617C11.5654 31.1617 13.4847 29.274 13.544 26.9346L13.5453 26.823ZM42.5087 26.823C42.5087 24.4322 40.5661 22.4842 38.1819 22.4842C35.7977 22.4842 33.855 24.4322 33.855 26.823L33.8563 26.9346C33.9147 29.237 35.7745 31.1019 38.0706 31.1604L38.1819 31.1617C40.5289 31.1617 42.448 29.274 42.5073 26.9346L42.5087 26.823ZM12.3385 26.823C12.3385 25.0746 10.9622 23.6943 9.21857 23.6942C7.50435 23.6942 6.09835 25.1041 6.09835 26.823C6.09838 28.5419 7.50437 29.9515 9.21857 29.9515L9.21846 30.0992L9.05099 30.0948C7.3878 30.0093 6.04067 28.6586 5.95549 26.9908L5.95125 26.823C5.95125 25.0225 7.42297 23.5467 9.21846 23.5467L9.38845 23.551C11.1322 23.6375 12.4857 25.0502 12.4857 26.823L12.4814 26.9908C12.3933 28.7142 10.9578 30.0991 9.21846 30.0992L9.21857 29.9515C10.9327 29.9515 12.3385 28.5419 12.3385 26.823ZM41.302 26.823C41.302 25.0754 39.8969 23.6942 38.1818 23.6942C36.4676 23.6943 35.0619 25.1041 35.0619 26.823C35.0619 28.5419 36.4677 29.9515 38.1818 29.9515L38.1819 30.0992C36.4425 30.0991 35.0071 28.7142 34.919 26.9908L34.9147 26.823C34.9147 25.0225 36.3864 23.5467 38.1819 23.5467C39.9774 23.5467 41.4491 24.993 41.4491 26.823L41.4449 26.9908C41.3569 28.7142 39.9213 30.0992 38.1819 30.0992L38.1818 29.9515C39.896 29.9515 41.302 28.5419 41.302 26.823ZM9.27733 12.8326C9.27733 7.66743 14.2812 3.47623 20.4624 3.47623C23.1409 3.47623 25.7606 4.30266 27.7916 5.77844C28.027 5.95553 28.3508 5.8965 28.5274 5.66037C28.704 5.42425 28.6452 5.09958 28.4097 4.92249C26.2021 3.32865 23.3764 2.44319 20.4624 2.44319C13.6925 2.44319 8.2177 7.13615 8.2177 12.8917C8.2177 18.6472 13.6925 23.3106 20.4624 23.3106C21.1688 23.3106 21.8752 23.2811 22.5817 23.163L24.7598 24.993C24.9143 25.1479 25.1364 25.235 25.3669 25.2544L25.4662 25.2586C25.6134 25.2586 25.7312 25.2291 25.9078 25.1406C26.2904 24.993 26.5553 24.6683 26.6142 24.2551L26.9968 21.6578C30.529 19.7688 32.7365 16.404 32.7365 12.8326C32.7365 10.9455 32.1564 9.11378 31.023 7.49846L30.9116 7.34276C30.735 7.10663 30.4112 7.0476 30.1757 7.22469C29.9403 7.40179 29.8814 7.72646 30.058 7.96258C31.1176 9.43835 31.6769 11.1207 31.6769 12.8326L31.6755 12.9874C31.6132 16.2321 29.593 19.1757 26.261 20.8608C26.0844 20.9199 25.9961 21.0674 25.9666 21.2445L25.5545 24.1075L25.5509 24.1222C25.5472 24.1296 25.5399 24.1371 25.5251 24.1371C25.4957 24.1666 25.4662 24.1371 25.4662 24.1371L23.1115 22.13C22.9938 22.0415 22.8171 21.9824 22.67 22.0119C21.9341 22.13 21.1983 22.189 20.4624 22.189L20.4623 22.0415C21.0992 22.0415 21.7363 21.9969 22.3735 21.9074L22.6469 21.8662C22.8196 21.8336 23.006 21.889 23.1436 21.9737L23.1999 22.0121L23.2033 22.0147L23.2068 22.0175L25.4333 23.9153L25.8208 21.2234L25.8214 21.2203C25.8559 21.0127 25.9657 20.81 26.2017 20.7254C29.5419 19.0333 31.5298 16.0707 31.5298 12.8326C31.5298 11.1536 30.9813 9.50101 29.9385 8.04871C29.7117 7.74255 29.793 7.32821 30.0874 7.10675C30.3739 6.89127 30.7565 6.94919 30.9856 7.20129L31.0293 7.25432L31.0305 7.25548C32.2552 8.93286 32.8836 10.8523 32.8836 12.8326C32.8836 16.4447 30.6654 19.8352 27.1316 21.7521L26.7599 24.2767L26.7596 24.2764C26.6933 24.7408 26.3952 25.1072 25.968 25.2749C25.7786 25.3693 25.6394 25.4063 25.4661 25.4063C25.1749 25.4063 24.8723 25.3101 24.6621 25.1034L22.5376 23.3186C21.8426 23.4293 21.1499 23.4581 20.4623 23.4581C13.6347 23.4581 8.07051 18.7504 8.07051 12.8917C8.07051 7.03342 13.6341 2.29555 20.4623 2.2955C23.3131 2.2955 26.0829 3.13454 28.2845 4.65356L28.4958 4.80258L28.4981 4.80431C28.7933 5.02636 28.8744 5.44243 28.6453 5.74886C28.4243 6.04431 28.0107 6.12587 27.7053 5.89788L27.5156 5.76327C25.5391 4.39125 23.029 3.62369 20.4623 3.62369C14.3364 3.62375 9.42442 7.7728 9.42438 12.8326C9.42438 17.8921 14.3655 22.0414 20.4623 22.0415L20.4624 22.189C14.3106 22.189 9.27733 17.9978 9.27733 12.8326ZM41.8612 10.0287C41.8612 4.68636 36.7396 0.34759 30.4701 0.34759C29.5576 0.34759 28.6452 0.465651 27.7621 0.642744L27.7085 0.656291C27.4467 0.735154 27.2949 0.985874 27.35 1.26257C27.4089 1.55772 27.6738 1.73482 27.9682 1.67579C28.7923 1.49869 29.6165 1.41015 30.4701 1.41015C36.1804 1.41015 40.8016 5.27667 40.8016 10.0287L40.7996 10.1958C40.7175 13.7019 38.06 16.8956 34.0905 18.1159L34.0372 18.1353C33.7787 18.2449 33.6545 18.5457 33.7373 18.7948C33.7925 19.0161 33.977 19.1596 34.1938 19.1767L34.2377 19.1785C34.2966 19.1785 34.3554 19.1489 34.3849 19.1194C38.8589 17.7322 41.8612 14.0723 41.8612 10.0287ZM13.6924 26.823C13.6923 29.2952 11.684 31.3094 9.21857 31.3094C6.75312 31.3094 4.74452 29.2953 4.74449 26.823C4.74449 24.3508 6.7531 22.3366 9.21857 22.3366C11.684 22.3367 13.6924 24.3508 13.6924 26.823ZM42.6559 26.823C42.6559 29.2953 40.6473 31.3094 38.1818 31.3094C35.7164 31.3094 33.7078 29.2952 33.7077 26.823C33.7077 24.3508 35.7164 22.3367 38.1818 22.3366C40.6473 22.3366 42.6559 24.3508 42.6559 26.823ZM42.0083 10.0286C42.0083 14.1412 38.9634 17.8428 34.456 19.2516C34.3997 19.2938 34.3205 19.326 34.2378 19.326C33.9397 19.326 33.6709 19.137 33.5945 18.8305C33.4889 18.4922 33.6745 18.0869 34.0484 17.9744C38.0319 16.7494 40.6544 13.5218 40.6544 10.0286C40.6544 5.38229 36.1253 1.55761 30.47 1.55761C29.6268 1.55762 28.8131 1.64528 27.9991 1.82019L27.9971 1.82048C27.623 1.89549 27.2806 1.66661 27.2057 1.29157C27.1309 0.916512 27.3592 0.573092 27.7332 0.498049C28.6227 0.319668 29.5452 0.200023 30.47 0.200012C36.7968 0.200012 42.0083 4.58276 42.0083 10.0286Z"/>
</mask>
<path d="M19.962 47.0115C19.7854 47.0115 19.6382 46.982 19.4616 46.9525L13.3687 45.7424C12.4562 45.5653 11.6321 45.0635 11.014 44.3847L9.98376 43.204C9.77772 42.9974 9.80715 42.6433 10.0426 42.4662C10.2487 42.2596 10.6019 42.2891 10.7785 42.5252L11.8087 43.7058C12.2502 44.2371 12.8978 44.5913 13.5748 44.7389L19.6677 45.949C20.0503 46.0375 20.433 45.949 20.7567 45.7424C21.0805 45.5358 21.2866 45.1816 21.3454 44.7979C21.4632 44.06 21.0511 43.3811 20.3447 43.1745L16.6948 42.1415C16.5182 42.0825 16.4005 41.9644 16.3416 41.7873L14.8404 37.0058C14.3695 35.5891 13.0155 34.615 11.5143 34.615H6.68711C5.00935 34.615 3.56706 35.7957 3.24329 37.4485L1.38892 46.6278C1.33005 46.923 1.06514 47.1001 0.770797 47.0411C0.476454 46.982 0.299847 46.7164 0.358716 46.4212L2.21308 37.2419C2.6546 35.1168 4.5384 33.5525 6.71654 33.5525H11.5143C13.4864 33.5525 15.2231 34.7921 15.8412 36.6516L17.2835 41.1675L20.6684 42.1415C21.9047 42.4957 22.67 43.7058 22.4345 44.975C22.3168 45.6538 21.9341 46.2146 21.3749 46.5983C20.9333 46.864 20.4624 47.0115 19.962 47.0115Z" fill="#003C7E"/>
<path d="M9.21846 31.1617C6.83428 31.1617 4.89161 29.2137 4.89161 26.823C4.89161 24.4322 6.83428 22.4842 9.21846 22.4842C11.6026 22.4842 13.5453 24.4322 13.5453 26.823C13.5453 29.2137 11.6026 31.1617 9.21846 31.1617ZM9.21846 23.5467C7.42297 23.5467 5.95125 25.0225 5.95125 26.823C5.95125 28.6234 7.42297 30.0992 9.21846 30.0992C11.014 30.0992 12.4857 28.6234 12.4857 26.823C12.4857 24.993 11.0434 23.5467 9.21846 23.5467Z" fill="#003C7E"/>
<path d="M27.4383 47.0115C26.938 47.0115 26.467 46.864 26.0549 46.5688C25.4957 46.1851 25.113 45.6243 24.9953 44.9455C24.7598 43.6763 25.5251 42.4662 26.7614 42.112L30.1463 41.138L31.5592 36.6221C32.2067 34.7626 33.9433 33.4935 35.886 33.4935H40.6838C42.862 33.4935 44.7458 35.0283 45.1873 37.1829L47.0416 46.3622C47.1005 46.6574 46.9239 46.923 46.6296 46.982C46.3352 47.0411 46.0703 46.864 46.0114 46.5688L44.1571 37.3895C43.8333 35.7366 42.3616 34.556 40.7132 34.556H35.9449C34.4437 34.556 33.0897 35.53 32.6188 36.9468L31.1176 41.7283C31.0588 41.9054 30.941 42.0234 30.7644 42.0825L27.0557 43.145C26.3493 43.3516 25.9078 44.06 26.0549 44.7684C26.1138 45.1521 26.3493 45.4767 26.6436 45.7129C26.9674 45.9195 27.35 46.008 27.7327 45.9195L33.8256 44.7093C34.5026 44.5618 35.1207 44.2076 35.5917 43.6763L36.6219 42.4957C36.8279 42.2891 37.1517 42.2596 37.3577 42.4366C37.5638 42.6433 37.5932 42.9679 37.4166 43.1745L36.3864 44.3552C35.7683 45.0635 34.9441 45.5358 34.0316 45.7129L27.9387 46.982C27.7916 47.0115 27.615 47.0115 27.4383 47.0115Z" fill="#003C7E"/>
<path d="M38.1819 31.1617C35.7977 31.1617 33.855 29.2137 33.855 26.823C33.855 24.4322 35.7977 22.4842 38.1819 22.4842C40.5661 22.4842 42.5087 24.4322 42.5087 26.823C42.5087 29.2137 40.5661 31.1617 38.1819 31.1617ZM38.1819 23.5467C36.3864 23.5467 34.9147 25.0225 34.9147 26.823C34.9147 28.6234 36.3864 30.0992 38.1819 30.0992C39.9774 30.0992 41.4491 28.6234 41.4491 26.823C41.4491 24.993 39.9774 23.5467 38.1819 23.5467Z" fill="#003C7E"/>
<path d="M34.2377 19.1785C34.0022 19.1785 33.7962 19.0309 33.7373 18.7948C33.649 18.5291 33.7962 18.2044 34.0905 18.1159C38.123 16.8763 40.8016 13.6 40.8016 10.0287C40.8016 5.27667 36.1804 1.41015 30.4701 1.41015C29.6165 1.41015 28.7923 1.49869 27.9682 1.67579C27.6738 1.73482 27.4089 1.55772 27.35 1.26257C27.2912 0.967414 27.4678 0.701775 27.7621 0.642744C28.6452 0.465651 29.5576 0.34759 30.4701 0.34759C36.7396 0.34759 41.8612 4.68636 41.8612 10.0287C41.8612 14.0723 38.8589 17.7322 34.3849 19.1194C34.3554 19.1489 34.2966 19.1785 34.2377 19.1785Z" fill="#003C7E"/>
<path d="M25.4662 25.2586C25.2013 25.2586 24.9364 25.1701 24.7598 24.993L22.5817 23.163C21.8752 23.2811 21.1688 23.3106 20.4624 23.3106C13.6925 23.3106 8.2177 18.6472 8.2177 12.8917C8.2177 7.13615 13.6925 2.44319 20.4624 2.44319C23.3764 2.44319 26.2021 3.32865 28.4097 4.92249C28.6452 5.09958 28.704 5.42425 28.5274 5.66037C28.3508 5.8965 28.027 5.95553 27.7916 5.77844C25.7606 4.30266 23.1409 3.47623 20.4624 3.47623C14.2812 3.47623 9.27733 7.66743 9.27733 12.8326C9.27733 17.9978 14.3106 22.189 20.4624 22.189C21.1983 22.189 21.9341 22.13 22.67 22.0119C22.8171 21.9824 22.9938 22.0415 23.1115 22.13L25.4662 24.1371C25.4662 24.1371 25.4957 24.1666 25.5251 24.1371C25.5545 24.1371 25.5545 24.1075 25.5545 24.1075L25.9666 21.2445C25.9961 21.0674 26.0844 20.9199 26.261 20.8608C29.6459 19.1489 31.6769 16.1384 31.6769 12.8326C31.6769 11.1207 31.1176 9.43835 30.058 7.96258C29.8814 7.72646 29.9403 7.40179 30.1757 7.22469C30.4112 7.0476 30.735 7.10663 30.9116 7.34276C32.1184 8.99562 32.7365 10.8846 32.7365 12.8326C32.7365 16.404 30.529 19.7688 26.9968 21.6578L26.6142 24.2551C26.5553 24.6683 26.2904 24.993 25.9078 25.1406C25.7312 25.2291 25.6134 25.2586 25.4662 25.2586Z" fill="#003C7E"/>
<path d="M11.5144 33.4049C13.5487 33.4049 15.3422 34.6841 15.9807 36.6049L15.9813 36.6067L17.3995 41.0472L20.7089 41.9996L20.8299 42.0373C22.0656 42.4542 22.8201 43.6972 22.5793 45.0001C22.4543 45.7209 22.0476 46.3155 21.458 46.72L21.4542 46.7226L21.4505 46.7249C20.9895 47.0023 20.4927 47.159 19.9621 47.159C19.7704 47.159 19.6085 47.1268 19.4375 47.0982L19.4352 47.0976L19.4329 47.0973L13.3408 45.887C12.3939 45.7032 11.5423 45.1838 10.9053 44.4842L9.87308 43.3012C9.61134 43.0303 9.6517 42.5824 9.94753 42.3535C10.2172 42.0934 10.6606 42.1338 10.8889 42.4279L11.9194 43.6085L11.9217 43.6114C12.339 44.1136 12.9558 44.4525 13.6058 44.5943L19.6962 45.8043L19.6985 45.8046L19.7008 45.8052C20.0395 45.8835 20.3823 45.8064 20.6779 45.6178C20.9608 45.4372 21.1465 45.1233 21.1999 44.7756L21.2001 44.7747C21.3067 44.107 20.9354 43.5011 20.3033 43.3162L16.6548 42.2835L16.6516 42.2826L16.6482 42.2815C16.4277 42.2077 16.2756 42.0552 16.202 41.8341L16.2012 41.8315L14.7007 37.0523C14.2499 35.6965 12.9527 34.7625 11.5144 34.7625H6.68704C5.07919 34.7625 3.69792 35.8938 3.38774 37.4768L3.38746 37.4777L1.53315 46.6572C1.45817 47.032 1.11572 47.2608 0.741812 47.1858C0.367836 47.1108 0.139554 46.7673 0.21435 46.3923L2.06895 37.2125V37.2119C2.52446 35.0195 4.46771 33.4049 6.71665 33.4049L6.71654 33.5525L6.6146 33.5536C4.47985 33.6016 2.6477 35.15 2.21308 37.2419L0.358716 46.4212C0.299847 46.7164 0.476454 46.982 0.770797 47.0411C1.06514 47.1001 1.33005 46.923 1.38892 46.6278L3.24329 37.4485C3.56706 35.7957 5.00935 34.615 6.68711 34.615H11.5143C13.0155 34.615 14.3695 35.5891 14.8404 37.0058L16.3416 41.7873C16.4005 41.9644 16.5182 42.0825 16.6948 42.1415L20.3447 43.1745C21.0511 43.3811 21.4632 44.06 21.3454 44.7979C21.2866 45.1816 21.0805 45.5358 20.7567 45.7424C20.433 45.949 20.0503 46.0375 19.6677 45.949L13.5748 44.7389C12.8978 44.5913 12.2502 44.2371 11.8087 43.7058L10.7785 42.5252C10.6019 42.2891 10.2487 42.2596 10.0426 42.4662C9.80715 42.6433 9.77772 42.9974 9.98376 43.204L11.014 44.3847C11.6321 45.0635 12.4562 45.5653 13.3687 45.7424L19.4616 46.9525C19.6162 46.9783 19.7482 47.0042 19.8972 47.0103L19.962 47.0115C20.4311 47.0115 20.8745 46.8819 21.2918 46.6468L21.3749 46.5983C21.9341 46.2146 22.3168 45.6538 22.4345 44.975C22.67 43.7058 21.9047 42.4957 20.6684 42.1415L17.2835 41.1675L15.8412 36.6516C15.2424 34.8503 13.594 33.6308 11.6986 33.5562L11.5143 33.5525L11.5144 33.4049ZM40.6838 33.3458C42.8967 33.3458 44.8151 34.8808 45.309 37.0494L45.3315 37.1531V37.1537L47.1858 46.3329L47.186 46.3332C47.2609 46.7083 47.0323 47.0517 46.6583 47.1267C46.2844 47.2016 45.9422 46.9729 45.8672 46.5981L44.0129 37.4189L44.0127 37.418C43.7027 35.8357 42.2926 34.7038 40.7134 34.7037H35.9449C34.5074 34.7037 33.2104 35.6363 32.7589 36.9909L32.7592 36.9912L31.2581 41.7727L31.2573 41.775C31.1837 41.9961 31.0314 42.1487 30.8109 42.2224L30.808 42.2235L30.8048 42.2244L27.0965 43.2865L27.0968 43.2868C26.4804 43.4672 26.0929 44.0698 26.1882 44.6793L26.1991 44.7384L26.2003 44.7459C26.2515 45.0801 26.4575 45.3726 26.7291 45.5924C27.0232 45.778 27.3633 45.8535 27.6996 45.7758L27.7042 45.7746L33.7943 44.5649C34.4415 44.4238 35.0318 44.0856 35.4816 43.5782L36.5112 42.3985L36.5144 42.3947L36.5178 42.3913C36.7538 42.1546 37.1296 42.0965 37.4008 42.2838L37.4534 42.3247L37.4578 42.3282L37.4618 42.3322C37.7135 42.5846 37.7627 42.9966 37.5285 43.2707L37.5273 43.2718L36.4971 44.4525C35.8578 45.1851 35.0051 45.6735 34.0613 45.857L34.0616 45.8573L27.9686 47.1264L27.9675 47.1267C27.8031 47.1597 27.6106 47.159 27.4383 47.159C26.9087 47.159 26.4087 47.0026 25.9717 46.6903C25.3822 46.2858 24.9754 45.6915 24.8504 44.9707C24.6019 43.6258 25.4139 42.3447 26.7208 41.9702L30.0296 41.0178L31.4188 36.5778L31.4194 36.5758L31.4203 36.5735C32.0877 34.6568 33.8787 33.3458 35.886 33.3458L35.886 33.4935C33.9433 33.4935 32.2067 34.7626 31.5592 36.6221L30.1463 41.138L26.7614 42.112C25.5251 42.4662 24.7598 43.6763 24.9953 44.9455C25.113 45.6243 25.4957 46.1851 26.0549 46.5688C26.467 46.864 26.938 47.0115 27.4383 47.0115C27.615 47.0115 27.7916 47.0115 27.9387 46.982L34.0316 45.7129C34.887 45.5468 35.6648 45.1215 36.268 44.4853L36.3864 44.3552L37.4166 43.1745C37.5932 42.9679 37.5638 42.6433 37.3577 42.4366C37.1517 42.2596 36.8279 42.2891 36.6219 42.4957L35.5917 43.6763C35.1207 44.2076 34.5026 44.5618 33.8256 44.7093L27.7327 45.9195C27.374 46.0025 27.0152 45.9298 26.705 45.7501L26.6436 45.7129C26.3493 45.4767 26.1138 45.1521 26.0549 44.7684C25.9078 44.06 26.3493 43.3516 27.0557 43.145L30.7644 42.0825C30.9189 42.0308 31.0285 41.934 31.0929 41.792L31.1176 41.7283L32.6188 36.9468C33.075 35.5743 34.36 34.6172 35.8047 34.5587L35.9449 34.556H40.7132C42.3616 34.556 43.8333 35.7366 44.1571 37.3895L46.0114 46.5688C46.0703 46.864 46.3352 47.0411 46.6296 46.982C46.9055 46.9267 47.0781 46.6897 47.0501 46.4171L47.0416 46.3622L45.1873 37.1829C44.7458 35.0283 42.862 33.4935 40.6838 33.4935L40.6838 33.3458ZM11.5144 33.4049L11.5143 33.5525H6.71654L6.71665 33.4049H11.5144ZM40.6838 33.3458L40.6838 33.4935H35.886L35.886 33.3458H40.6838ZM13.5453 26.823C13.5453 24.4695 11.6628 22.5452 9.32981 22.4856L9.21846 22.4842C6.83428 22.4842 4.89161 24.4322 4.89161 26.823L4.89309 26.9346C4.95148 29.2369 6.81104 31.1018 9.10704 31.1604L9.21846 31.1617C11.5654 31.1617 13.4847 29.274 13.544 26.9346L13.5453 26.823ZM42.5087 26.823C42.5087 24.4322 40.5661 22.4842 38.1819 22.4842C35.7977 22.4842 33.855 24.4322 33.855 26.823L33.8563 26.9346C33.9147 29.237 35.7745 31.1019 38.0706 31.1604L38.1819 31.1617C40.5289 31.1617 42.448 29.274 42.5073 26.9346L42.5087 26.823ZM12.3385 26.823C12.3385 25.0746 10.9622 23.6943 9.21857 23.6942C7.50435 23.6942 6.09835 25.1041 6.09835 26.823C6.09838 28.5419 7.50437 29.9515 9.21857 29.9515L9.21846 30.0992L9.05099 30.0948C7.3878 30.0093 6.04067 28.6586 5.95549 26.9908L5.95125 26.823C5.95125 25.0225 7.42297 23.5467 9.21846 23.5467L9.38845 23.551C11.1322 23.6375 12.4857 25.0502 12.4857 26.823L12.4814 26.9908C12.3933 28.7142 10.9578 30.0991 9.21846 30.0992L9.21857 29.9515C10.9327 29.9515 12.3385 28.5419 12.3385 26.823ZM41.302 26.823C41.302 25.0754 39.8969 23.6942 38.1818 23.6942C36.4676 23.6943 35.0619 25.1041 35.0619 26.823C35.0619 28.5419 36.4677 29.9515 38.1818 29.9515L38.1819 30.0992C36.4425 30.0991 35.0071 28.7142 34.919 26.9908L34.9147 26.823C34.9147 25.0225 36.3864 23.5467 38.1819 23.5467C39.9774 23.5467 41.4491 24.993 41.4491 26.823L41.4449 26.9908C41.3569 28.7142 39.9213 30.0992 38.1819 30.0992L38.1818 29.9515C39.896 29.9515 41.302 28.5419 41.302 26.823ZM9.27733 12.8326C9.27733 7.66743 14.2812 3.47623 20.4624 3.47623C23.1409 3.47623 25.7606 4.30266 27.7916 5.77844C28.027 5.95553 28.3508 5.8965 28.5274 5.66037C28.704 5.42425 28.6452 5.09958 28.4097 4.92249C26.2021 3.32865 23.3764 2.44319 20.4624 2.44319C13.6925 2.44319 8.2177 7.13615 8.2177 12.8917C8.2177 18.6472 13.6925 23.3106 20.4624 23.3106C21.1688 23.3106 21.8752 23.2811 22.5817 23.163L24.7598 24.993C24.9143 25.1479 25.1364 25.235 25.3669 25.2544L25.4662 25.2586C25.6134 25.2586 25.7312 25.2291 25.9078 25.1406C26.2904 24.993 26.5553 24.6683 26.6142 24.2551L26.9968 21.6578C30.529 19.7688 32.7365 16.404 32.7365 12.8326C32.7365 10.9455 32.1564 9.11378 31.023 7.49846L30.9116 7.34276C30.735 7.10663 30.4112 7.0476 30.1757 7.22469C29.9403 7.40179 29.8814 7.72646 30.058 7.96258C31.1176 9.43835 31.6769 11.1207 31.6769 12.8326L31.6755 12.9874C31.6132 16.2321 29.593 19.1757 26.261 20.8608C26.0844 20.9199 25.9961 21.0674 25.9666 21.2445L25.5545 24.1075L25.5509 24.1222C25.5472 24.1296 25.5399 24.1371 25.5251 24.1371C25.4957 24.1666 25.4662 24.1371 25.4662 24.1371L23.1115 22.13C22.9938 22.0415 22.8171 21.9824 22.67 22.0119C21.9341 22.13 21.1983 22.189 20.4624 22.189L20.4623 22.0415C21.0992 22.0415 21.7363 21.9969 22.3735 21.9074L22.6469 21.8662C22.8196 21.8336 23.006 21.889 23.1436 21.9737L23.1999 22.0121L23.2033 22.0147L23.2068 22.0175L25.4333 23.9153L25.8208 21.2234L25.8214 21.2203C25.8559 21.0127 25.9657 20.81 26.2017 20.7254C29.5419 19.0333 31.5298 16.0707 31.5298 12.8326C31.5298 11.1536 30.9813 9.50101 29.9385 8.04871C29.7117 7.74255 29.793 7.32821 30.0874 7.10675C30.3739 6.89127 30.7565 6.94919 30.9856 7.20129L31.0293 7.25432L31.0305 7.25548C32.2552 8.93286 32.8836 10.8523 32.8836 12.8326C32.8836 16.4447 30.6654 19.8352 27.1316 21.7521L26.7599 24.2767L26.7596 24.2764C26.6933 24.7408 26.3952 25.1072 25.968 25.2749C25.7786 25.3693 25.6394 25.4063 25.4661 25.4063C25.1749 25.4063 24.8723 25.3101 24.6621 25.1034L22.5376 23.3186C21.8426 23.4293 21.1499 23.4581 20.4623 23.4581C13.6347 23.4581 8.07051 18.7504 8.07051 12.8917C8.07051 7.03342 13.6341 2.29555 20.4623 2.2955C23.3131 2.2955 26.0829 3.13454 28.2845 4.65356L28.4958 4.80258L28.4981 4.80431C28.7933 5.02636 28.8744 5.44243 28.6453 5.74886C28.4243 6.04431 28.0107 6.12587 27.7053 5.89788L27.5156 5.76327C25.5391 4.39125 23.029 3.62369 20.4623 3.62369C14.3364 3.62375 9.42442 7.7728 9.42438 12.8326C9.42438 17.8921 14.3655 22.0414 20.4623 22.0415L20.4624 22.189C14.3106 22.189 9.27733 17.9978 9.27733 12.8326ZM41.8612 10.0287C41.8612 4.68636 36.7396 0.34759 30.4701 0.34759C29.5576 0.34759 28.6452 0.465651 27.7621 0.642744L27.7085 0.656291C27.4467 0.735154 27.2949 0.985874 27.35 1.26257C27.4089 1.55772 27.6738 1.73482 27.9682 1.67579C28.7923 1.49869 29.6165 1.41015 30.4701 1.41015C36.1804 1.41015 40.8016 5.27667 40.8016 10.0287L40.7996 10.1958C40.7175 13.7019 38.06 16.8956 34.0905 18.1159L34.0372 18.1353C33.7787 18.2449 33.6545 18.5457 33.7373 18.7948C33.7925 19.0161 33.977 19.1596 34.1938 19.1767L34.2377 19.1785C34.2966 19.1785 34.3554 19.1489 34.3849 19.1194C38.8589 17.7322 41.8612 14.0723 41.8612 10.0287ZM13.6924 26.823C13.6923 29.2952 11.684 31.3094 9.21857 31.3094C6.75312 31.3094 4.74452 29.2953 4.74449 26.823C4.74449 24.3508 6.7531 22.3366 9.21857 22.3366C11.684 22.3367 13.6924 24.3508 13.6924 26.823ZM42.6559 26.823C42.6559 29.2953 40.6473 31.3094 38.1818 31.3094C35.7164 31.3094 33.7078 29.2952 33.7077 26.823C33.7077 24.3508 35.7164 22.3367 38.1818 22.3366C40.6473 22.3366 42.6559 24.3508 42.6559 26.823ZM42.0083 10.0286C42.0083 14.1412 38.9634 17.8428 34.456 19.2516C34.3997 19.2938 34.3205 19.326 34.2378 19.326C33.9397 19.326 33.6709 19.137 33.5945 18.8305C33.4889 18.4922 33.6745 18.0869 34.0484 17.9744C38.0319 16.7494 40.6544 13.5218 40.6544 10.0286C40.6544 5.38229 36.1253 1.55761 30.47 1.55761C29.6268 1.55762 28.8131 1.64528 27.9991 1.82019L27.9971 1.82048C27.623 1.89549 27.2806 1.66661 27.2057 1.29157C27.1309 0.916512 27.3592 0.573092 27.7332 0.498049C28.6227 0.319668 29.5452 0.200023 30.47 0.200012C36.7968 0.200012 42.0083 4.58276 42.0083 10.0286Z" fill="#003C7E"/>
<path d="M13.3687 45.7424L13.3882 45.6443L13.3878 45.6442L13.3687 45.7424ZM11.014 44.3847L10.9386 44.4504L10.94 44.452L11.014 44.3847ZM9.98376 43.204L10.0593 43.1382L10.0546 43.1334L9.98376 43.204ZM10.0426 42.4662L10.1027 42.5461L10.1084 42.5418L10.1134 42.5368L10.0426 42.4662ZM10.7785 42.5252L10.6982 42.5853L10.7031 42.5909L10.7785 42.5252ZM11.8087 43.7058L11.8856 43.6419L11.884 43.6401L11.8087 43.7058ZM13.5748 44.7389L13.5535 44.8366L13.5553 44.8369L13.5748 44.7389ZM19.6677 45.949L19.6902 45.8515L19.6872 45.8509L19.6677 45.949ZM21.3454 44.7979L21.2467 44.7821L21.2466 44.7827L21.3454 44.7979ZM20.3447 43.1745L20.3727 43.0786L20.3719 43.0783L20.3447 43.1745ZM16.6948 42.1415L16.6631 42.2364L16.6676 42.2377L16.6948 42.1415ZM16.3416 41.7873L16.2462 41.8173L16.2467 41.8189L16.3416 41.7873ZM14.8404 37.0058L14.9359 36.9758L14.9353 36.9743L14.8404 37.0058ZM3.24329 37.4485L3.34131 37.4683L3.34142 37.4678L3.24329 37.4485ZM1.38892 46.6278L1.2909 46.608L1.29085 46.6083L1.38892 46.6278ZM0.358716 46.4212L0.260696 46.4014L0.260648 46.4017L0.358716 46.4212ZM6.71654 33.5525L6.61654 33.5524L6.61647 33.6525H6.71654V33.5525ZM11.5143 33.5525V33.6525H11.6143L11.6143 33.5525L11.5143 33.5525ZM17.2835 41.1675L17.1882 41.1979L17.2045 41.2488L17.2558 41.2636L17.2835 41.1675ZM20.6684 42.1415L20.6408 42.2376L20.6409 42.2376L20.6684 42.1415ZM22.4345 44.975L22.3362 44.9567L22.336 44.9579L22.4345 44.975ZM26.0549 46.5688L26.1132 46.4875L26.1115 46.4864L26.0549 46.5688ZM24.9953 44.9455L25.0938 44.9284L25.0936 44.9272L24.9953 44.9455ZM26.7614 42.112L26.7889 42.2081L26.789 42.2081L26.7614 42.112ZM30.1463 41.138L30.174 41.2341L30.2257 41.2192L30.2417 41.1678L30.1463 41.138ZM31.5592 36.6221L31.4647 36.5892L31.4637 36.5922L31.5592 36.6221ZM45.1873 37.1829L45.2853 37.1631L45.2852 37.1628L45.1873 37.1829ZM46.0114 46.5688L46.1095 46.5493L46.1095 46.549L46.0114 46.5688ZM44.1571 37.3895L44.0589 37.4087L44.0591 37.4093L44.1571 37.3895ZM27.0557 43.145L27.0282 43.0489L27.0276 43.049L27.0557 43.145ZM26.0549 44.7684L26.1539 44.7532L26.1528 44.748L26.0549 44.7684ZM33.8256 44.7093L33.8451 44.8074L33.8469 44.807L33.8256 44.7093ZM35.5917 43.6763L35.6665 43.7426L35.667 43.742L35.5917 43.6763ZM36.6219 42.4957L36.5509 42.4249L36.5465 42.4299L36.6219 42.4957ZM37.3577 42.4366L37.4287 42.3658L37.4229 42.3608L37.3577 42.4366ZM37.4166 43.1745L37.492 43.2403L37.4926 43.2395L37.4166 43.1745ZM27.9387 46.982L27.9584 47.0801L27.9591 47.0799L27.9387 46.982ZM27.9682 1.67579L27.9878 1.77384L27.9892 1.77355L27.9682 1.67579ZM34.3849 19.1194L34.3552 19.0239L34.3316 19.0313L34.3141 19.0488L34.3849 19.1194ZM22.5817 23.163L22.646 23.0865L22.6107 23.0568L22.5652 23.0644L22.5817 23.163ZM28.4097 4.92249L28.4698 4.84255L28.4682 4.84141L28.4097 4.92249ZM27.7916 5.77844L27.8517 5.6985L27.8503 5.69754L27.7916 5.77844ZM22.67 22.0119L22.6858 22.1108L22.6896 22.11L22.67 22.0119ZM23.1115 22.13L23.1765 22.0538L23.1716 22.0501L23.1115 22.13ZM25.4662 24.1371L25.5373 24.0662L25.5311 24.061L25.4662 24.1371ZM25.9666 21.2445L25.868 21.2281L25.8676 21.2303L25.9666 21.2445ZM30.058 7.96258L30.1392 7.90424L30.1381 7.90269L30.058 7.96258ZM26.9968 21.6578L26.9497 21.5696L26.9052 21.5933L26.8979 21.6432L26.9968 21.6578ZM26.6142 24.2551L26.5152 24.2405L26.5152 24.241L26.6142 24.2551ZM25.9078 25.1406L25.8716 25.0468L25.8629 25.0512L25.9078 25.1406ZM19.4616 46.9525L19.4811 46.8544L13.3882 45.6443L13.3687 45.7424L13.3492 45.8405L19.4421 47.0506L19.4616 46.9525ZM13.3687 45.7424L13.3878 45.6442C12.4988 45.4717 11.6932 44.9821 11.0879 44.3173L11.014 44.3847L10.94 44.452C11.571 45.1449 12.4137 45.6589 13.3497 45.8405L13.3687 45.7424ZM11.014 44.3847L11.0893 44.3189L10.0591 43.1383L9.98376 43.204L9.90841 43.2698L10.9386 44.4504L11.014 44.3847ZM9.98376 43.204L10.0546 43.1334C9.89281 42.9712 9.91422 42.6879 10.1027 42.5461L10.0426 42.4662L9.98252 42.3862C9.70008 42.5987 9.66263 43.0237 9.91295 43.2747L9.98376 43.204ZM10.0426 42.4662L10.1134 42.5368C10.275 42.3748 10.5571 42.3961 10.6984 42.5851L10.7785 42.5252L10.8586 42.4653C10.6467 42.182 10.2224 42.1443 9.97182 42.3955L10.0426 42.4662ZM10.7785 42.5252L10.7031 42.5909L11.7333 43.7716L11.8087 43.7058L11.884 43.6401L10.8538 42.4594L10.7785 42.5252ZM11.8087 43.7058L11.7318 43.7697C12.1897 44.3207 12.8582 44.685 13.5535 44.8366L13.5748 44.7389L13.5961 44.6411C12.9374 44.4976 12.3107 44.1535 11.8856 43.6419L11.8087 43.7058ZM13.5748 44.7389L13.5553 44.8369L19.6482 46.0471L19.6677 45.949L19.6872 45.8509L13.5942 44.6408L13.5748 44.7389ZM19.6677 45.949L19.6451 46.0464C20.0577 46.1419 20.4676 46.0455 20.8105 45.8267L20.7567 45.7424L20.7029 45.6581C20.3983 45.8525 20.0429 45.9332 19.6902 45.8516L19.6677 45.949ZM20.7567 45.7424L20.8105 45.8267C21.162 45.6024 21.3817 45.221 21.4443 44.8131L21.3454 44.7979L21.2466 44.7827C21.1914 45.1422 20.9991 45.4691 20.7029 45.6581L20.7567 45.7424ZM21.3454 44.7979L21.4442 44.8136C21.5695 44.0284 21.1298 43.3 20.3727 43.0786L20.3447 43.1745L20.3166 43.2705C20.9724 43.4623 21.3569 44.0916 21.2467 44.7821L21.3454 44.7979ZM20.3447 43.1745L20.3719 43.0783L16.722 42.0453L16.6948 42.1415L16.6676 42.2377L20.3174 43.2708L20.3447 43.1745ZM16.6948 42.1415L16.7265 42.0467C16.5798 41.9976 16.4854 41.9031 16.4365 41.7558L16.3416 41.7873L16.2467 41.8189C16.3155 42.0257 16.4566 42.1673 16.6631 42.2363L16.6948 42.1415ZM16.3416 41.7873L16.437 41.7574L14.9358 36.9758L14.8404 37.0058L14.745 37.0358L16.2462 41.8173L16.3416 41.7873ZM14.8404 37.0058L14.9353 36.9743C14.4507 35.5164 13.0583 34.515 11.5143 34.515V34.615V34.715C12.9727 34.715 14.2883 35.6617 14.7455 37.0373L14.8404 37.0058ZM11.5143 34.615V34.515H6.68711V34.615V34.715H11.5143V34.615ZM6.68711 34.615V34.515C4.96169 34.515 3.47815 35.7294 3.14515 37.4293L3.24329 37.4485L3.34142 37.4678C3.65597 35.862 5.057 34.715 6.68711 34.715V34.615ZM3.24329 37.4485L3.14527 37.4287L1.2909 46.608L1.38892 46.6278L1.48694 46.6476L3.34131 37.4683L3.24329 37.4485ZM1.38892 46.6278L1.29085 46.6083C1.24275 46.8495 1.03038 46.9911 0.790461 46.943L0.770797 47.0411L0.751134 47.1391C1.0999 47.2091 1.41736 46.9965 1.48699 46.6474L1.38892 46.6278ZM0.770797 47.0411L0.790461 46.943C0.550461 46.8949 0.408664 46.6821 0.456785 46.4408L0.358716 46.4212L0.260648 46.4017C0.191031 46.7507 0.402447 47.0692 0.751134 47.1391L0.770797 47.0411ZM0.358716 46.4212L0.456736 46.441L2.3111 37.2617L2.21308 37.2419L2.11506 37.2221L0.260696 46.4014L0.358716 46.4212ZM6.71654 33.5525V33.6525H11.5143V33.5525V33.4525H6.71654V33.5525ZM15.8412 36.6516L15.7459 36.682L17.1882 41.1979L17.2835 41.1675L17.3787 41.1371L15.9365 36.6212L15.8412 36.6516ZM17.2835 41.1675L17.2558 41.2636L20.6408 42.2376L20.6684 42.1415L20.6961 42.0454L17.3111 41.0714L17.2835 41.1675ZM20.6684 42.1415L20.6409 42.2376C21.8285 42.5779 22.5621 43.7392 22.3362 44.9567L22.4345 44.975L22.5328 44.9932C22.7779 43.6725 21.9809 42.4135 20.696 42.0454L20.6684 42.1415ZM22.4345 44.975L22.336 44.9579C22.2232 45.6084 21.8569 46.1463 21.3183 46.5159L21.3749 46.5983L21.4314 46.6808C22.0113 46.2829 22.4104 45.6993 22.533 44.9921L22.4345 44.975ZM4.89161 26.823H4.99161C4.99161 24.4872 6.88977 22.5842 9.21846 22.5842V22.4842V22.3842C6.77879 22.3842 4.79161 24.3772 4.79161 26.823H4.89161ZM9.21846 23.5467V23.4467C7.36748 23.4467 5.85125 24.9676 5.85125 26.823H5.95125H6.05125C6.05125 25.0775 7.47846 23.6467 9.21846 23.6467V23.5467ZM27.4383 47.0115V46.9115C26.9585 46.9115 26.508 46.7703 26.1132 46.4875L26.0549 46.5688L25.9967 46.6501C26.4261 46.9576 26.9174 47.1115 27.4383 47.1115V47.0115ZM26.0549 46.5688L26.1115 46.4864C25.5729 46.1168 25.2066 45.5789 25.0938 44.9284L24.9953 44.9455L24.8968 44.9626C25.0194 45.6698 25.4185 46.2534 25.9984 46.6513L26.0549 46.5688ZM24.9953 44.9455L25.0936 44.9272C24.8677 43.7096 25.6013 42.5484 26.7889 42.2081L26.7614 42.112L26.7338 42.0158C25.4489 42.384 24.6519 43.643 24.897 44.9637L24.9953 44.9455ZM26.7614 42.112L26.789 42.2081L30.174 41.2341L30.1463 41.138L30.1187 41.0419L26.7337 42.0159L26.7614 42.112ZM30.1463 41.138L30.2417 41.1678L31.6546 36.652L31.5592 36.6221L31.4637 36.5922L30.0509 41.1081L30.1463 41.138ZM31.5592 36.6221L31.6536 36.655C32.2877 34.8342 33.9875 33.5935 35.886 33.5935V33.4935V33.3935C33.8992 33.3935 32.1257 34.6911 31.4647 36.5892L31.5592 36.6221ZM35.886 33.4935V33.5935H40.6838V33.4935V33.3935H35.886V33.4935ZM40.6838 33.4935V33.5935C42.8143 33.5935 44.6573 35.0947 45.0893 37.203L45.1873 37.1829L45.2852 37.1628C44.8342 34.9619 42.9097 33.3935 40.6838 33.3935V33.4935ZM45.1873 37.1829L45.0893 37.2027L46.9436 46.382L47.0416 46.3622L47.1397 46.3424L45.2853 37.1631L45.1873 37.1829ZM46.6296 46.982L46.6099 46.884C46.37 46.9321 46.1576 46.7904 46.1095 46.5493L46.0114 46.5688L45.9134 46.5884C45.983 46.9375 46.3005 47.15 46.6492 47.0801L46.6296 46.982ZM46.0114 46.5688L46.1095 46.549L44.2551 37.3697L44.1571 37.3895L44.0591 37.4093L45.9134 46.5886L46.0114 46.5688ZM44.1571 37.3895L44.2552 37.3703C43.9221 35.6698 42.4087 34.456 40.7132 34.456V34.556V34.656C42.3144 34.656 43.7445 35.8034 44.0589 37.4087L44.1571 37.3895ZM40.7132 34.556V34.456H35.9449V34.556V34.656H40.7132V34.556ZM32.6188 36.9468L32.5234 36.9168L31.0222 41.6983L31.1176 41.7283L31.2131 41.7582L32.7142 36.9767L32.6188 36.9468ZM30.7644 42.0825L30.7369 41.9863L27.0282 43.0489L27.0557 43.145L27.0832 43.2412L30.792 42.1786L30.7644 42.0825ZM27.0557 43.145L27.0276 43.049C26.2735 43.2696 25.7988 44.027 25.957 44.7887L26.0549 44.7684L26.1528 44.748C26.0168 44.093 26.4251 43.4337 27.0838 43.241L27.0557 43.145ZM26.0549 44.7684L25.9561 44.7835C26.0198 45.1989 26.2734 45.5441 26.581 45.7909L26.6436 45.7129L26.7062 45.6349C26.4251 45.4094 26.2078 45.1052 26.1538 44.7532L26.0549 44.7684ZM27.7327 45.9195L27.7522 46.0176L33.8451 44.8074L33.8256 44.7093L33.8061 44.6113L27.7132 45.8214L27.7327 45.9195ZM33.8256 44.7093L33.8469 44.807C34.5442 44.655 35.1812 44.2901 35.6665 43.7426L35.5917 43.6763L35.5168 43.61C35.0602 44.125 34.461 44.4685 33.8043 44.6116L33.8256 44.7093ZM35.5917 43.6763L35.667 43.742L36.6972 42.5614L36.6219 42.4957L36.5465 42.4299L35.5163 43.6105L35.5917 43.6763ZM36.6219 42.4957L36.6927 42.5663C36.8677 42.3908 37.1323 42.3747 37.2925 42.5125L37.3577 42.4366L37.4229 42.3608C37.1711 42.1444 36.7882 42.1873 36.5511 42.4251L36.6219 42.4957ZM37.3577 42.4366L37.2869 42.5073C37.462 42.6828 37.4782 42.9486 37.3406 43.1096L37.4166 43.1745L37.4926 43.2395C37.7082 42.9873 37.6656 42.6037 37.4285 42.366L37.3577 42.4366ZM37.4166 43.1745L37.3413 43.1088L36.3111 44.2894L36.3864 44.3552L36.4617 44.4209L37.4919 43.2403L37.4166 43.1745ZM34.0316 45.7129L34.0113 45.615L27.9183 46.8841L27.9387 46.982L27.9591 47.0799L34.052 45.8108L34.0316 45.7129ZM27.9387 46.982L27.9191 46.884C27.7836 46.9111 27.6178 46.9115 27.4383 46.9115V47.0115V47.1115C27.6121 47.1115 27.7995 47.1119 27.9584 47.0801L27.9387 46.982ZM33.855 26.823H33.955C33.955 24.4872 35.8532 22.5842 38.1819 22.5842V22.4842V22.3842C35.7422 22.3842 33.755 24.3772 33.755 26.823H33.855ZM38.1819 22.4842V22.5842C40.5106 22.5842 42.4087 24.4872 42.4087 26.823H42.5087H42.6087C42.6087 24.3772 40.6216 22.3842 38.1819 22.3842V22.4842ZM38.1819 23.5467V23.4467C36.3309 23.4467 34.8147 24.9676 34.8147 26.823H34.9147H35.0147C35.0147 25.0775 36.4419 23.6467 38.1819 23.6467V23.5467ZM41.4491 26.823H41.5491C41.5491 24.9374 40.0323 23.4467 38.1819 23.4467V23.5467V23.6467C39.9225 23.6467 41.3491 25.0486 41.3491 26.823H41.4491ZM40.8016 10.0287H40.9016C40.9016 5.20531 36.2179 1.31015 30.4701 1.31015V1.41015V1.51015C36.1428 1.51015 40.7016 5.34803 40.7016 10.0287H40.8016ZM30.4701 1.41015V1.31015C29.6094 1.31015 28.7782 1.39945 27.9472 1.57802L27.9682 1.67579L27.9892 1.77355C28.8065 1.59794 29.6236 1.51015 30.4701 1.51015V1.41015ZM27.9682 1.67579L27.9485 1.57774C27.7086 1.62585 27.4962 1.4842 27.4481 1.24301L27.35 1.26257L27.252 1.28213C27.3216 1.63125 27.6391 1.84378 27.9878 1.77383L27.9682 1.67579ZM27.7621 0.642744L27.7818 0.740792C28.6604 0.564582 29.566 0.44759 30.4701 0.44759V0.34759V0.24759C29.5492 0.24759 28.6299 0.366721 27.7425 0.544697L27.7621 0.642744ZM30.4701 0.34759V0.44759C36.7004 0.44759 41.7612 4.75631 41.7612 10.0287H41.8612H41.9612C41.9612 4.61642 36.7789 0.24759 30.4701 0.24759V0.34759ZM41.8612 10.0287H41.7612C41.7612 14.02 38.7961 17.647 34.3552 19.0239L34.3849 19.1194L34.4145 19.2149C38.9217 17.8174 41.9612 14.1245 41.9612 10.0287H41.8612ZM34.3849 19.1194L34.3141 19.0488C34.3099 19.053 34.2991 19.0611 34.2828 19.0681C34.267 19.075 34.251 19.0785 34.2377 19.0785V19.1785V19.2785C34.3249 19.2785 34.4088 19.2371 34.4557 19.19L34.3849 19.1194ZM24.7598 24.993L24.8241 24.9164L22.646 23.0865L22.5817 23.163L22.5173 23.2396L24.6955 25.0696L24.7598 24.993ZM22.5817 23.163L22.5652 23.0644C21.8666 23.1812 21.1663 23.2106 20.4624 23.2106V23.3106V23.4106C21.1713 23.4106 21.8839 23.381 22.5982 23.2617L22.5817 23.163ZM20.4624 23.3106V23.2106C13.732 23.2106 8.3177 18.5774 8.3177 12.8917H8.2177H8.1177C8.1177 18.7169 13.653 23.4106 20.4624 23.4106V23.3106ZM8.2177 12.8917H8.3177C8.3177 7.20555 13.7324 2.54319 20.4624 2.54319V2.44319V2.34319C13.6526 2.34319 8.1177 7.06675 8.1177 12.8917H8.2177ZM20.4624 2.44319V2.54319C23.3568 2.54319 26.1617 3.42283 28.3511 5.00356L28.4097 4.92249L28.4682 4.84141C26.2425 3.23447 23.396 2.34319 20.4624 2.34319V2.44319ZM28.4097 4.92249L28.3496 5.00241C28.5445 5.14898 28.5884 5.4119 28.4473 5.60048L28.5274 5.66037L28.6075 5.72027C28.8197 5.4366 28.7458 5.05018 28.4698 4.84257L28.4097 4.92249ZM28.5274 5.66037L28.4473 5.60048C28.3012 5.79592 28.0394 5.83969 27.8517 5.69851L27.7916 5.77844L27.7315 5.85836C28.0147 6.07136 28.4005 5.99708 28.6075 5.72027L28.5274 5.66037ZM27.7916 5.77844L27.8503 5.69754C25.8012 4.20858 23.1607 3.37623 20.4624 3.37623V3.47623V3.57623C23.1212 3.57623 25.7199 4.39675 27.7328 5.85933L27.7916 5.77844ZM20.4624 3.47623V3.37623C14.2434 3.37623 9.17733 7.59625 9.17733 12.8326H9.27733H9.37733C9.37733 7.7386 14.319 3.57623 20.4624 3.57623V3.47623ZM9.27733 12.8326H9.17733C9.17733 18.0692 14.273 22.289 20.4624 22.289V22.189V22.089C14.3482 22.089 9.37733 17.9265 9.37733 12.8326H9.27733ZM20.4624 22.189V22.289C21.2036 22.289 21.9448 22.2296 22.6858 22.1107L22.67 22.0119L22.6541 21.9132C21.9234 22.0304 21.1929 22.089 20.4624 22.089V22.189ZM22.67 22.0119L22.6896 22.11C22.8014 22.0876 22.9495 22.1333 23.0514 22.2099L23.1115 22.13L23.1716 22.0501C23.038 21.9496 22.8329 21.8773 22.6503 21.9139L22.67 22.0119ZM23.1115 22.13L23.0466 22.2061L25.4014 24.2132L25.4662 24.1371L25.5311 24.061L23.1764 22.0539L23.1115 22.13ZM25.4662 24.1371C25.3954 24.2077 25.3955 24.2077 25.3955 24.2077C25.3955 24.2078 25.3955 24.2078 25.3956 24.2078C25.3956 24.2079 25.3957 24.2079 25.3957 24.208C25.3958 24.208 25.3959 24.2081 25.396 24.2083C25.3962 24.2085 25.3964 24.2087 25.3967 24.2089C25.3971 24.2093 25.3976 24.2098 25.3982 24.2103C25.3992 24.2113 25.4005 24.2125 25.402 24.2137C25.4048 24.2162 25.4086 24.2193 25.4131 24.2225C25.4217 24.2287 25.4352 24.237 25.4529 24.243C25.4711 24.249 25.4955 24.2531 25.5232 24.2476C25.5516 24.2419 25.5762 24.2274 25.5959 24.2077L25.5251 24.1371L25.4543 24.0664C25.4593 24.0614 25.4692 24.0544 25.4838 24.0515C25.4977 24.0487 25.5093 24.0509 25.5163 24.0533C25.523 24.0555 25.5273 24.0583 25.5295 24.0599C25.5308 24.0608 25.532 24.0618 25.5332 24.0628C25.5337 24.0633 25.5344 24.0639 25.535 24.0644C25.5353 24.0647 25.5356 24.0651 25.536 24.0654C25.5362 24.0656 25.5363 24.0657 25.5365 24.0659C25.5366 24.066 25.5367 24.0661 25.5368 24.0662C25.5368 24.0662 25.5369 24.0663 25.5369 24.0663C25.5369 24.0663 25.537 24.0664 25.537 24.0664C25.537 24.0664 25.5371 24.0664 25.4662 24.1371ZM25.5545 24.1075L25.6535 24.1218L26.0656 21.2588L25.9666 21.2445L25.8676 21.2303L25.4556 24.0933L25.5545 24.1075ZM25.9666 21.2445L26.0653 21.2609C26.0909 21.1069 26.1625 20.9992 26.2927 20.9557L26.261 20.8608L26.2293 20.766C26.0062 20.8405 25.9012 21.028 25.868 21.2281L25.9666 21.2445ZM31.6769 12.8326H31.7769C31.7769 11.0985 31.2103 9.39592 30.1392 7.90426L30.058 7.96258L29.9768 8.02091C31.025 9.48078 31.5769 11.143 31.5769 12.8326H31.6769ZM30.058 7.96258L30.1381 7.90269C29.997 7.71411 30.041 7.45118 30.2358 7.30461L30.1757 7.22469L30.1156 7.14477C29.8396 7.35239 29.7658 7.73881 29.9779 8.02247L30.058 7.96258ZM30.1757 7.22469L30.2358 7.30461C30.4236 7.16344 30.6853 7.20721 30.8315 7.40265L30.9116 7.34276L30.9917 7.28286C30.7846 7.00605 30.3989 6.93177 30.1156 7.14477L30.1757 7.22469ZM32.7365 12.8326H32.6365C32.6365 16.3614 30.4546 19.6951 26.9497 21.5696L26.9968 21.6578L27.044 21.7459C30.6033 19.8424 32.8365 16.4466 32.8365 12.8326H32.7365ZM26.9968 21.6578L26.8979 21.6432L26.5153 24.2405L26.6142 24.2551L26.7131 24.2697L27.0958 21.6723L26.9968 21.6578ZM26.6142 24.2551L26.5152 24.241C26.4615 24.6177 26.2212 24.9125 25.8718 25.0473L25.9078 25.1406L25.9437 25.2339C26.3596 25.0735 26.6491 24.719 26.7132 24.2692L26.6142 24.2551ZM25.9078 25.1406L25.8629 25.0512C25.6969 25.1344 25.5945 25.1586 25.4662 25.1586V25.2586V25.3586C25.6323 25.3586 25.7654 25.3238 25.9526 25.23L25.9078 25.1406ZM6.71665 33.4049L6.61665 33.4048L6.61654 33.5524L6.71654 33.5525L6.81654 33.5526L6.81665 33.405L6.71665 33.4049ZM11.5143 33.5525L11.6143 33.5525L11.6144 33.4049L11.5144 33.4049L11.4144 33.4049L11.4143 33.5525L11.5143 33.5525ZM35.886 33.3458L35.786 33.3458L35.786 33.4935L35.886 33.4935L35.986 33.4935L35.986 33.3458L35.886 33.3458ZM40.6838 33.4935L40.7838 33.4934L40.7837 33.3458L40.6838 33.3458L40.5838 33.3459L40.5838 33.4935L40.6838 33.4935ZM9.21857 29.9515L9.11857 29.9515L9.11846 30.0991L9.21846 30.0992L9.31846 30.0993L9.31857 29.9516L9.21857 29.9515ZM38.1818 29.9515L38.0818 29.9516L38.0819 30.0992L38.1819 30.0992L38.2819 30.0991L38.2818 29.9515L38.1818 29.9515ZM20.4624 22.189L20.5624 22.189L20.5623 22.0414L20.4623 22.0415L20.3623 22.0415L20.3624 22.1891L20.4624 22.189ZM19.4616 46.9525L19.4946 46.7552L19.4287 47.1498L19.4616 46.9525ZM6.71654 33.5525L6.7188 33.7525L6.71654 33.3525V33.5525ZM11.5143 33.5525V33.3525L11.5103 33.7524L11.5143 33.5525ZM21.3749 46.5983L21.478 46.7697L21.274 46.4256L21.3749 46.5983ZM4.89161 26.823L5.09159 26.8203L4.69161 26.823H4.89161ZM9.21846 22.4842V22.2842L9.21588 22.6842L9.21846 22.4842ZM9.21846 23.5467V23.3467L9.21351 23.7467L9.21846 23.5467ZM5.95125 26.823L6.15118 26.8179L5.75125 26.823H5.95125ZM12.4857 26.823H12.6857H12.4857ZM47.0416 46.3622L47.2378 46.3231L46.844 46.3926L47.0416 46.3622ZM35.9449 34.556L35.9487 34.756L35.9449 34.356V34.556ZM32.6188 36.9468L32.429 36.8837L32.8086 37.0099L32.6188 36.9468ZM31.1176 41.7283L31.3074 41.7914L30.9312 41.6558L31.1176 41.7283ZM26.6436 45.7129L26.7474 45.5419L26.536 45.8815L26.6436 45.7129ZM27.7327 45.9195L27.7778 46.1143L27.6876 45.7246L27.7327 45.9195ZM36.3864 44.3552L36.5371 44.4867L36.2384 44.2206L36.3864 44.3552ZM34.0316 45.7129L33.9935 45.5165L34.0698 45.9092L34.0316 45.7129ZM33.855 26.823L34.055 26.8206L33.655 26.823H33.855ZM42.5087 26.823H42.7087L42.3088 26.8204L42.5087 26.823ZM34.9147 26.823L35.1146 26.8178L34.7147 26.823H34.9147ZM41.4491 26.823H41.6491L41.2492 26.818L41.4491 26.823ZM34.2377 19.1785V19.3785L34.2458 18.9786L34.2377 19.1785ZM33.7373 18.7948L33.9314 18.7464L33.9295 18.7389L33.9271 18.7317L33.7373 18.7948ZM40.8016 10.0287H41.0016L40.6016 10.0263L40.8016 10.0287ZM27.35 1.26257L27.1539 1.30169L27.5462 1.22349L27.35 1.26257ZM27.7621 0.642744L27.8111 0.836657L27.7228 0.446649L27.7621 0.642744ZM25.4662 25.2586V25.4586L25.4747 25.0588L25.4662 25.2586ZM24.7598 24.993L24.9014 24.8518L24.6182 25.1342L24.7598 24.993ZM25.5545 24.1075L25.7545 24.1075L25.3604 24.0596L25.5545 24.1075ZM31.6769 12.8326H31.8769L31.4769 12.8308L31.6769 12.8326ZM30.9116 7.34276L31.0731 7.22482L30.7489 7.45913L30.9116 7.34276ZM11.5144 33.4049L11.5144 33.2049H11.5144V33.4049ZM15.9807 36.6049L16.1705 36.5418V36.5418L15.9807 36.6049ZM15.9813 36.6067L16.1718 36.5458L16.1711 36.5436L15.9813 36.6067ZM17.3995 41.0472L17.209 41.1081L17.2415 41.2099L17.3442 41.2394L17.3995 41.0472ZM20.7089 41.9996L20.7685 41.8086L20.7642 41.8074L20.7089 41.9996ZM20.8299 42.0373L20.8939 41.8478L20.8895 41.8464L20.8299 42.0373ZM22.5793 45.0001L22.3826 44.9638L22.3822 44.9659L22.5793 45.0001ZM21.458 46.72L21.3448 46.5551L21.3439 46.5557L21.458 46.72ZM21.4542 46.7226L21.5594 46.8931L21.5683 46.8869L21.4542 46.7226ZM21.4505 46.7249L21.5536 46.8963L21.5555 46.8951L21.4505 46.7249ZM19.9621 47.159V47.359H19.9621L19.9621 47.159ZM19.4375 47.0982L19.3889 47.2922L19.3967 47.2941L19.4046 47.2955L19.4375 47.0982ZM19.4352 47.0976L19.4839 46.9036L19.4721 46.9007L19.4601 46.8992L19.4352 47.0976ZM19.4329 47.0973L19.394 47.2935L19.401 47.2949L19.4081 47.2958L19.4329 47.0973ZM13.3408 45.887L13.3798 45.6908L13.3789 45.6907L13.3408 45.887ZM10.9053 44.4842L10.7546 44.6157L10.7574 44.6188L10.9053 44.4842ZM9.87308 43.3012L10.024 43.1696L10.0169 43.1623L9.87308 43.3012ZM9.94753 42.3535L10.0699 42.5117L10.0785 42.505L10.0864 42.4975L9.94753 42.3535ZM10.8889 42.4279L10.7307 42.5507L10.7382 42.5594L10.8889 42.4279ZM11.9194 43.6085L12.0759 43.4837L12.0701 43.477L11.9194 43.6085ZM11.9217 43.6114L11.7653 43.7361L11.7679 43.7392L11.9217 43.6114ZM13.6058 44.5943L13.5632 44.7897L13.5669 44.7904L13.6058 44.5943ZM19.6962 45.8043L19.6573 46.0005L19.6643 46.0019L19.6714 46.0027L19.6962 45.8043ZM19.6985 45.8046L19.7472 45.6106L19.7354 45.6076L19.7234 45.6061L19.6985 45.8046ZM19.7008 45.8052L19.6522 45.9992L19.6558 46L19.7008 45.8052ZM20.6779 45.6178L20.7854 45.7864L20.7855 45.7864L20.6779 45.6178ZM21.1999 44.7756L21.0101 44.7125L21.0047 44.7285L21.0022 44.7452L21.1999 44.7756ZM21.2001 44.7747L21.3899 44.8378L21.3951 44.8223L21.3976 44.8062L21.2001 44.7747ZM20.3033 43.3162L20.3595 43.1243L20.3578 43.1238L20.3033 43.3162ZM16.6548 42.2835L16.7092 42.091L16.7075 42.0906L16.6548 42.2835ZM16.6516 42.2826L16.5881 42.4726L16.5989 42.4755L16.6516 42.2826ZM16.6482 42.2815L16.5847 42.4711L16.5848 42.4711L16.6482 42.2815ZM16.202 41.8341L16.0123 41.8972L16.0123 41.8972L16.202 41.8341ZM16.2012 41.8315L16.0103 41.8914L16.0114 41.8946L16.2012 41.8315ZM14.7007 37.0523L14.8916 36.9924L14.8905 36.9892L14.7007 37.0523ZM11.5144 34.7625L11.5144 34.5625H11.5144V34.7625ZM6.68704 34.7625V34.5625H6.68704L6.68704 34.7625ZM3.38774 37.4768L3.57753 37.5399L3.58156 37.5278L3.58401 37.5153L3.38774 37.4768ZM3.38746 37.4777L3.19767 37.4146L3.19383 37.4262L3.19142 37.4381L3.38746 37.4777ZM1.53315 46.6572L1.33711 46.6176L1.33703 46.618L1.53315 46.6572ZM0.741812 47.1858L0.702454 47.3819L0.702486 47.3819L0.741812 47.1858ZM0.21435 46.3923L0.0183104 46.3527L0.0182129 46.3532L0.21435 46.3923ZM2.06895 37.2125L2.26499 37.2521L2.26895 37.2325V37.2125H2.06895ZM2.06895 37.2119L1.87313 37.1713L1.86895 37.1914V37.2119H2.06895ZM6.6146 33.5536L6.61234 33.3536L6.61012 33.3537L6.6146 33.5536ZM19.8972 47.0103L19.889 47.2102L19.8932 47.2102L19.8972 47.0103ZM21.2918 46.6468L21.39 46.8211L21.3927 46.8195L21.2918 46.6468ZM11.6986 33.5562L11.7065 33.3564L11.7027 33.3563L11.6986 33.5562ZM45.309 37.0494L45.5045 37.0071L45.504 37.005L45.309 37.0494ZM45.3315 37.1531H45.5314V37.1318L45.5269 37.1109L45.3315 37.1531ZM45.3315 37.1537H45.1315V37.1737L45.1354 37.1933L45.3315 37.1537ZM47.1858 46.3329L46.9897 46.3725L47.0016 46.4315L47.0441 46.4741L47.1858 46.3329ZM47.186 46.3332L47.3822 46.2941L47.3704 46.2348L47.3277 46.192L47.186 46.3332ZM46.6583 47.1267L46.6976 47.3228L46.6976 47.3228L46.6583 47.1267ZM45.8672 46.5981L46.0634 46.5589L46.0633 46.5585L45.8672 46.5981ZM44.0129 37.4189L44.209 37.3793L44.2066 37.3674L44.2027 37.3558L44.0129 37.4189ZM44.0127 37.418L43.8164 37.4565L43.8188 37.469L43.8229 37.4811L44.0127 37.418ZM40.7134 34.7037L40.7134 34.5037H40.7134V34.7037ZM32.7589 36.9909L32.5691 36.9276L32.5301 37.0447L32.6173 37.1321L32.7589 36.9909ZM32.7592 36.9912L32.95 37.0511L32.9862 36.9356L32.9008 36.8499L32.7592 36.9912ZM31.2581 41.7727L31.4457 41.8429L31.449 41.8326L31.2581 41.7727ZM31.2573 41.775L31.0698 41.7049L31.0675 41.7119L31.2573 41.775ZM30.8109 42.2224L30.7474 42.0324L30.7364 42.0367L30.8109 42.2224ZM30.808 42.2235L30.8608 42.4164L30.8718 42.4134L30.8825 42.4091L30.808 42.2235ZM30.8048 42.2244L30.7521 42.0315L30.7498 42.0321L30.8048 42.2244ZM27.0965 43.2865L27.0414 43.0943L26.7154 43.1877L26.9549 43.4278L27.0965 43.2865ZM27.0968 43.2868L27.153 43.4788L27.4763 43.3842L27.2384 43.1456L27.0968 43.2868ZM26.1882 44.6793L25.9905 44.7102L25.9915 44.7157L26.1882 44.6793ZM26.1991 44.7384L26.3969 44.708L26.3958 44.702L26.1991 44.7384ZM26.2003 44.7459L26.3979 44.7156V44.7156L26.2003 44.7459ZM26.7291 45.5924L26.6033 45.7479L26.6125 45.7553L26.6224 45.7616L26.7291 45.5924ZM27.6996 45.7758L27.7447 45.9706L27.7482 45.9698L27.6996 45.7758ZM27.7042 45.7746L27.6651 45.5782L27.6555 45.5806L27.7042 45.7746ZM33.7943 44.5649L33.8332 44.7611L33.8369 44.7603L33.7943 44.5649ZM35.4816 43.5782L35.6312 43.7109L35.6322 43.7097L35.4816 43.5782ZM36.5112 42.3985L36.6619 42.53L36.664 42.5275L36.5112 42.3985ZM36.5144 42.3947L36.3727 42.2535L36.3669 42.2594L36.3615 42.2658L36.5144 42.3947ZM36.5178 42.3913L36.3762 42.25L36.3762 42.2501L36.5178 42.3913ZM37.4008 42.2838L37.5239 42.1257L37.5145 42.1192L37.4008 42.2838ZM37.4534 42.3247L37.5786 42.1687L37.5763 42.1669L37.4534 42.3247ZM37.4578 42.3282L37.5994 42.1869L37.5915 42.1791L37.5829 42.1721L37.4578 42.3282ZM37.4618 42.3322L37.3202 42.4734V42.4734L37.4618 42.3322ZM37.5285 43.2707L37.6701 43.4119L37.6755 43.4065L37.6805 43.4006L37.5285 43.2707ZM37.5273 43.2718L37.3854 43.1303L37.3766 43.1403L37.5273 43.2718ZM36.4971 44.4525L36.6478 44.584L36.6478 44.584L36.4971 44.4525ZM34.0613 45.857L34.0231 45.6607L33.6546 45.7324L33.9197 45.9983L34.0613 45.857ZM34.0616 45.8573L34.1024 46.0531L34.4642 45.9778L34.2032 45.7161L34.0616 45.8573ZM27.9686 47.1264L27.9278 46.9305L27.92 46.9324L27.9686 47.1264ZM27.9675 47.1267L28.0068 47.3231L28.0161 47.3207L27.9675 47.1267ZM27.4383 47.159L27.4383 47.359H27.4383V47.159ZM25.9717 46.6903L26.088 46.5276L26.0849 46.5254L25.9717 46.6903ZM24.8504 44.9707L25.0475 44.9365L25.0471 44.9344L24.8504 44.9707ZM26.7208 41.9702L26.7759 42.1624L26.7761 42.1624L26.7208 41.9702ZM30.0296 41.0178L30.0849 41.21L30.1883 41.1803L30.2205 41.0776L30.0296 41.0178ZM31.4188 36.5778L31.6098 36.6376L31.6112 36.6326L31.4188 36.5778ZM31.4194 36.5758L31.2321 36.5058L31.2292 36.5133L31.227 36.521L31.4194 36.5758ZM31.4203 36.5735L31.6076 36.6436L31.6091 36.6393L31.4203 36.5735ZM35.886 33.3458V33.1458V33.1458V33.3458ZM36.268 44.4853L36.4132 44.623L36.416 44.6199L36.268 44.4853ZM26.705 45.7501L26.6012 45.9211L26.6048 45.9232L26.705 45.7501ZM31.0929 41.792L31.2753 41.8748L31.2793 41.8645L31.0929 41.792ZM35.8047 34.5587L35.8008 34.3587L35.7966 34.3589L35.8047 34.5587ZM47.0501 46.4171L47.2493 46.3966L47.2478 46.3867L47.0501 46.4171ZM9.32981 22.4856L9.33491 22.2857L9.3324 22.2856L9.32981 22.4856ZM4.89309 26.9346L4.6931 26.9372L4.69316 26.9396L4.89309 26.9346ZM9.10704 31.1604L9.10194 31.3604L9.10466 31.3604L9.10704 31.1604ZM13.544 26.9346L13.744 26.9396L13.744 26.9369L13.544 26.9346ZM33.8563 26.9346L33.6563 26.9369L33.6564 26.9396L33.8563 26.9346ZM38.0706 31.1604L38.0655 31.3604L38.0682 31.3604L38.0706 31.1604ZM42.5073 26.9346L42.7073 26.9396L42.7073 26.9372L42.5073 26.9346ZM12.3385 26.823L12.5385 26.823V26.823H12.3385ZM9.21857 23.6942L9.21857 23.4942H9.21857V23.6942ZM6.09835 26.823H5.89835V26.823L6.09835 26.823ZM9.21857 29.9515V30.1515H9.21858L9.21857 29.9515ZM9.05099 30.0948L9.04072 30.2946L9.04576 30.2947L9.05099 30.0948ZM5.95549 26.9908L5.75549 26.9958L5.75575 27.001L5.95549 26.9908ZM9.38845 23.551L9.39837 23.3511L9.3934 23.351L9.38845 23.551ZM12.4814 26.9908L12.6812 27.001L12.6813 26.9959L12.4814 26.9908ZM41.302 26.823L41.502 26.823V26.823H41.302ZM38.1818 23.6942V23.4942H38.1818L38.1818 23.6942ZM35.0619 26.823H34.8619V26.823L35.0619 26.823ZM38.1818 29.9515L38.1818 30.1515H38.1818V29.9515ZM34.919 26.9908L34.719 26.996L34.7193 27.001L34.919 26.9908ZM41.4449 26.9908L41.6447 27.001L41.6448 26.9958L41.4449 26.9908ZM25.3669 25.2544L25.3502 25.4539L25.3585 25.4543L25.3669 25.2544ZM31.023 7.49846L31.1867 7.38358L31.1857 7.38209L31.023 7.49846ZM31.6755 12.9874L31.8755 12.9912L31.8755 12.9892L31.6755 12.9874ZM25.5509 24.1222L25.7301 24.2111L25.7398 24.1915L25.7451 24.1702L25.5509 24.1222ZM20.4623 22.0415L20.4623 22.2415H20.4623V22.0415ZM22.3735 21.9074L22.4013 22.1055L22.4033 22.1052L22.3735 21.9074ZM22.6469 21.8662L22.6767 22.0641L22.684 22.0627L22.6469 21.8662ZM23.1436 21.9737L23.2562 21.8082L23.2484 21.8034L23.1436 21.9737ZM23.1999 22.0121L23.3202 21.852L23.3124 21.8467L23.1999 22.0121ZM23.2033 22.0147L23.3318 21.861L23.3236 21.8548L23.2033 22.0147ZM23.2068 22.0175L23.3365 21.8653L23.335 21.8641L23.2068 22.0175ZM25.4333 23.9153L25.3036 24.0675L25.5796 24.3028L25.6313 23.9438L25.4333 23.9153ZM25.8208 21.2234L25.6239 21.1877L25.6229 21.1949L25.8208 21.2234ZM25.8214 21.2203L26.0182 21.256L26.0187 21.2531L25.8214 21.2203ZM26.2017 20.7254L26.2692 20.9136L26.2809 20.9094L26.2921 20.9038L26.2017 20.7254ZM31.5298 12.8326H31.7298V12.8326L31.5298 12.8326ZM29.9385 8.04871L30.101 7.93204L30.0992 7.92966L29.9385 8.04871ZM30.0874 7.10675L29.9672 6.94691L29.9671 6.94693L30.0874 7.10675ZM30.9856 7.20129L31.1402 7.07397L31.1336 7.06676L30.9856 7.20129ZM31.0293 7.25432L30.875 7.38149L30.881 7.38882L30.8877 7.39555L31.0293 7.25432ZM31.0305 7.25548L31.192 7.13754L31.1829 7.12513L31.1721 7.11425L31.0305 7.25548ZM32.8836 12.8326H33.0836V12.8326L32.8836 12.8326ZM27.1316 21.7521L27.0362 21.5763L26.9483 21.624L26.9337 21.7229L27.1316 21.7521ZM26.7599 24.2767L26.6183 24.418L26.8997 24.7002L26.9578 24.3059L26.7599 24.2767ZM26.7596 24.2764L26.9012 24.1352L26.6183 23.8515L26.5616 24.2482L26.7596 24.2764ZM25.968 25.2749L25.8949 25.0887L25.8867 25.092L25.8788 25.0959L25.968 25.2749ZM25.4661 25.4063L25.4661 25.6063H25.4661V25.4063ZM24.6621 25.1034L24.8024 24.9608L24.7968 24.9553L24.7908 24.9503L24.6621 25.1034ZM22.5376 23.3186L22.6663 23.1655L22.5963 23.1068L22.5062 23.1211L22.5376 23.3186ZM20.4623 23.4581L20.4623 23.6581H20.4623V23.4581ZM20.4623 2.2955V2.0955H20.4623L20.4623 2.2955ZM28.2845 4.65356L28.3998 4.49012L28.3981 4.48894L28.2845 4.65356ZM28.4958 4.80258L28.6161 4.64266L28.6111 4.63915L28.4958 4.80258ZM28.4981 4.80431L28.6183 4.64447L28.6183 4.64447L28.4981 4.80431ZM28.6453 5.74886L28.8054 5.86865L28.8054 5.86863L28.6453 5.74886ZM27.7053 5.89788L27.825 5.73757L27.821 5.73477L27.7053 5.89788ZM27.5156 5.76327L27.6313 5.60015L27.6296 5.59898L27.5156 5.76327ZM20.4623 3.62369V3.42369H20.4623L20.4623 3.62369ZM9.42438 12.8326L9.22438 12.8326V12.8326H9.42438ZM27.7085 0.656291L27.6595 0.462179L27.6508 0.464795L27.7085 0.656291ZM40.7996 10.1958L40.9995 10.2005L40.9996 10.1981L40.7996 10.1958ZM34.0372 18.1353L33.9688 17.947L33.9591 17.9511L34.0372 18.1353ZM34.1938 19.1767L34.1781 19.3762L34.1857 19.3765L34.1938 19.1767ZM13.6924 26.823L13.8924 26.823V26.823H13.6924ZM9.21857 31.3094V31.5094H9.21857L9.21857 31.3094ZM4.74449 26.823H4.54449V26.823L4.74449 26.823ZM9.21857 22.3366L9.21857 22.1366H9.21857V22.3366ZM42.6559 26.823L42.8559 26.823V26.823H42.6559ZM38.1818 31.3094L38.1818 31.5094H38.1818V31.3094ZM33.7077 26.823H33.5077V26.823L33.7077 26.823ZM38.1818 22.3366V22.1366H38.1818L38.1818 22.3366ZM42.0083 10.0286H42.2083V10.0286L42.0083 10.0286ZM34.456 19.2516L34.3963 19.0607L34.3635 19.071L34.336 19.0916L34.456 19.2516ZM34.2378 19.326V19.526H34.2379L34.2378 19.326ZM33.5945 18.8305L33.7889 18.782L33.7854 18.7709L33.5945 18.8305ZM34.0484 17.9744L34.106 18.166L34.1072 18.1656L34.0484 17.9744ZM40.6544 10.0286H40.8544V10.0286L40.6544 10.0286ZM30.47 1.55761V1.35761H30.47L30.47 1.55761ZM27.9991 1.82019L28.0275 2.01865L28.0411 2.01573L27.9991 1.82019ZM27.9971 1.82048L27.9687 1.62219L27.9577 1.62439L27.9971 1.82048ZM27.2057 1.29157L27.0096 1.33069L27.0096 1.3307L27.2057 1.29157ZM27.7332 0.498049L27.6939 0.301954L27.6939 0.301957L27.7332 0.498049ZM30.47 0.200012V1.22041e-05H30.47L30.47 0.200012ZM19.962 47.0115V46.8115C19.8061 46.8115 19.6788 46.786 19.4946 46.7552L19.4616 46.9525L19.4287 47.1498C19.5977 47.178 19.7647 47.2115 19.962 47.2115V47.0115ZM2.21308 37.2419L2.4089 37.2826C2.83151 35.2485 4.63501 33.7525 6.71654 33.7525V33.5525V33.3525C4.44179 33.3525 2.47768 34.9851 2.01726 37.2012L2.21308 37.2419ZM11.5143 33.5525V33.7525C13.4016 33.7525 15.0609 34.9382 15.6514 36.7147L15.8412 36.6516L16.031 36.5885C15.3853 34.6461 13.5713 33.3525 11.5143 33.3525V33.5525ZM21.3749 46.5983L21.2718 46.427C20.8568 46.6766 20.4211 46.8115 19.962 46.8115V47.0115V47.2115C20.5037 47.2115 21.0099 47.0513 21.478 46.7697L21.3749 46.5983ZM9.21846 31.1617V30.9617C6.94526 30.9617 5.09161 29.1038 5.09161 26.823H4.89161H4.69161C4.69161 29.3237 6.7233 31.3617 9.21846 31.3617V31.1617ZM9.21846 22.4842V22.6842C11.4917 22.6842 13.3453 24.5421 13.3453 26.823H13.5453H13.7453C13.7453 24.3223 11.7136 22.2842 9.21846 22.2842V22.4842ZM13.5453 26.823H13.3453C13.3453 29.1038 11.4917 30.9617 9.21846 30.9617V31.1617V31.3617C11.7136 31.3617 13.7453 29.3237 13.7453 26.823H13.5453ZM5.95125 26.823H5.75125C5.75125 28.7333 7.31199 30.2992 9.21846 30.2992V30.0992V29.8992C7.53394 29.8992 6.15125 28.5135 6.15125 26.823H5.95125ZM9.21846 30.0992V30.2992C11.1249 30.2992 12.6857 28.7333 12.6857 26.823H12.4857H12.2857C12.2857 28.5135 10.903 29.8992 9.21846 29.8992V30.0992ZM12.4857 26.823H12.6857C12.6857 24.8831 11.1544 23.3467 9.21846 23.3467V23.5467V23.7467C10.9324 23.7467 12.2857 25.1029 12.2857 26.823H12.4857ZM47.0416 46.3622L46.8455 46.4013C46.8829 46.5887 46.7759 46.7487 46.5902 46.7859L46.6296 46.982L46.6689 47.1781C47.0719 47.0973 47.3181 46.726 47.2378 46.3231L47.0416 46.3622ZM35.9449 34.556V34.356C34.3581 34.356 32.9273 35.3847 32.429 36.8837L32.6188 36.9468L32.8086 37.0099C33.2522 35.6754 34.5293 34.756 35.9449 34.756V34.556ZM31.1176 41.7283L30.9279 41.6652C30.8888 41.7827 30.8178 41.8538 30.701 41.8928L30.7644 42.0825L30.8278 42.2721C31.0643 42.1931 31.2288 42.028 31.3074 41.7914L31.1176 41.7283ZM26.6436 45.7129L26.536 45.8815C26.8982 46.1125 27.3353 46.2167 27.7778 46.1143L27.7327 45.9195L27.6876 45.7246C27.3648 45.7993 27.0366 45.7264 26.7512 45.5443L26.6436 45.7129ZM36.3864 44.3552L36.2357 44.2237C35.6469 44.8984 34.8624 45.3479 33.9935 45.5165L34.0316 45.7129L34.0698 45.9092C35.0259 45.7236 35.8897 45.2286 36.5371 44.4867L36.3864 44.3552ZM38.1819 31.1617V30.9617C35.9087 30.9617 34.055 29.1038 34.055 26.823H33.855H33.655C33.655 29.3237 35.6867 31.3617 38.1819 31.3617V31.1617ZM42.5087 26.823H42.3087C42.3087 29.1038 40.4551 30.9617 38.1819 30.9617V31.1617V31.3617C40.6771 31.3617 42.7087 29.3237 42.7087 26.823H42.5087ZM34.9147 26.823H34.7147C34.7147 28.7333 36.2754 30.2992 38.1819 30.2992V30.0992V29.8992C36.4974 29.8992 35.1147 28.5135 35.1147 26.823H34.9147ZM38.1819 30.0992V30.2992C40.0884 30.2992 41.6491 28.7333 41.6491 26.823H41.4491H41.2491C41.2491 28.5135 39.8664 29.8992 38.1819 29.8992V30.0992ZM34.2377 19.1785V18.9785C34.0877 18.9785 33.9665 18.8874 33.9314 18.7464L33.7373 18.7948L33.5432 18.8431C33.6258 19.1743 33.9167 19.3785 34.2377 19.3785V19.1785ZM33.7373 18.7948L33.9271 18.7317C33.8724 18.567 33.9676 18.3617 34.1481 18.3074L34.0905 18.1159L34.0329 17.9244C33.6247 18.0472 33.4256 18.4912 33.5475 18.8578L33.7373 18.7948ZM34.0905 18.1159L34.1493 18.3071C38.2479 17.0471 41.0016 13.7052 41.0016 10.0287H40.8016H40.6016C40.6016 13.4949 37.9981 16.7054 34.0317 17.9247L34.0905 18.1159ZM27.35 1.26257L27.5462 1.22345C27.5088 1.03607 27.6158 0.876073 27.8015 0.83884L27.7621 0.642744L27.7228 0.446649C27.3198 0.527478 27.0735 0.898762 27.1539 1.30169L27.35 1.26257ZM25.4662 25.2586V25.0586C25.2412 25.0586 25.0321 24.9828 24.9014 24.8518L24.7598 24.993L24.6182 25.1342C24.8408 25.3574 25.1615 25.4586 25.4662 25.4586V25.2586ZM25.5251 24.1371V24.3371C25.5676 24.3371 25.6127 24.3258 25.6533 24.2987C25.6926 24.2725 25.7162 24.2389 25.7298 24.2115C25.7431 24.1849 25.7487 24.1608 25.7514 24.1449C25.7528 24.1366 25.7535 24.1291 25.754 24.123C25.7542 24.1199 25.7543 24.1171 25.7544 24.1145C25.7545 24.1132 25.7545 24.112 25.7545 24.1108C25.7545 24.1103 25.7545 24.1097 25.7545 24.1091C25.7545 24.1089 25.7545 24.1086 25.7545 24.1083C25.7545 24.1082 25.7545 24.1081 25.7545 24.1079C25.7545 24.1079 25.7545 24.1078 25.7545 24.1077C25.7545 24.1076 25.7545 24.1075 25.5545 24.1075C25.3545 24.1075 25.3545 24.1074 25.3545 24.1074C25.3545 24.1073 25.3545 24.1072 25.3545 24.1072C25.3545 24.107 25.3545 24.1069 25.3545 24.1068C25.3545 24.1065 25.3545 24.1062 25.3545 24.106C25.3546 24.1055 25.3546 24.1049 25.3546 24.1044C25.3546 24.1034 25.3546 24.1023 25.3546 24.1012C25.3547 24.0991 25.3548 24.0969 25.355 24.0946C25.3553 24.0901 25.3559 24.085 25.3568 24.0794C25.3585 24.0691 25.3623 24.0523 25.3719 24.0331C25.3818 24.0131 25.4 23.9869 25.431 23.9662C25.4633 23.9446 25.4974 23.9371 25.5251 23.9371V24.1371ZM26.261 20.8608L26.3512 21.0393C29.7913 19.2995 31.8769 16.2265 31.8769 12.8326H31.6769H31.4769C31.4769 16.0502 29.5005 18.9983 26.1707 20.6824L26.261 20.8608ZM30.9116 7.34276L30.7501 7.46069C31.9326 9.08032 32.5365 10.9282 32.5365 12.8326H32.7365H32.9365C32.9365 10.841 32.3042 8.91092 31.0731 7.22482L30.9116 7.34276ZM11.5144 33.4049L11.5144 33.6049C13.4638 33.6049 15.18 34.8302 15.7909 36.668L15.9807 36.6049L16.1705 36.5418C15.5044 34.5381 13.6335 33.2049 11.5144 33.2049L11.5144 33.4049ZM15.9807 36.6049L15.7909 36.668L15.7915 36.6697L15.9813 36.6067L16.1711 36.5436L16.1705 36.5418L15.9807 36.6049ZM15.9813 36.6067L15.7908 36.6675L17.209 41.1081L17.3995 41.0472L17.5901 40.9864L16.1718 36.5458L15.9813 36.6067ZM17.3995 41.0472L17.3442 41.2394L20.6536 42.1918L20.7089 41.9996L20.7642 41.8074L17.4549 40.855L17.3995 41.0472ZM20.7089 41.9996L20.6493 42.1905L20.7703 42.2282L20.8299 42.0373L20.8895 41.8464L20.7685 41.8086L20.7089 41.9996ZM20.8299 42.0373L20.766 42.2268C21.9093 42.6125 22.605 43.7606 22.3826 44.9638L22.5793 45.0001L22.776 45.0365C23.0352 43.6337 22.2219 42.2958 20.8938 41.8478L20.8299 42.0373ZM22.5793 45.0001L22.3822 44.9659C22.2671 45.63 21.8931 46.1789 21.3448 46.5551L21.458 46.72L21.5711 46.8849C22.202 46.4521 22.6415 45.8119 22.7764 45.0343L22.5793 45.0001ZM21.458 46.72L21.3439 46.5557L21.3402 46.5583L21.4542 46.7226L21.5683 46.8869L21.572 46.8843L21.458 46.72ZM21.4542 46.7226L21.3492 46.5524L21.3455 46.5547L21.4505 46.7249L21.5555 46.8951L21.5593 46.8928L21.4542 46.7226ZM21.4505 46.7249L21.3474 46.5535C20.913 46.8149 20.4515 46.959 19.9621 46.959L19.9621 47.159L19.9621 47.359C20.534 47.359 21.066 47.1897 21.5536 46.8963L21.4505 46.7249ZM19.9621 47.159V46.959C19.7909 46.959 19.6486 46.9307 19.4705 46.9009L19.4375 47.0982L19.4046 47.2955C19.5685 47.3228 19.7498 47.359 19.9621 47.359V47.159ZM19.4375 47.0982L19.4862 46.9042L19.4839 46.9036L19.4352 47.0976L19.3866 47.2916L19.3889 47.2922L19.4375 47.0982ZM19.4352 47.0976L19.4601 46.8992L19.4578 46.8989L19.4329 47.0973L19.4081 47.2958L19.4104 47.2961L19.4352 47.0976ZM19.4329 47.0973L19.4719 46.9012L13.3798 45.6909L13.3408 45.887L13.3018 46.0832L19.394 47.2935L19.4329 47.0973ZM13.3408 45.887L13.3789 45.6907C12.4789 45.516 11.6645 45.021 11.0532 44.3495L10.9053 44.4842L10.7574 44.6188C11.4201 45.3466 12.3089 45.8905 13.3027 46.0834L13.3408 45.887ZM10.9053 44.4842L11.056 44.3527L10.0238 43.1698L9.87308 43.3012L9.72239 43.4327L10.7546 44.6157L10.9053 44.4842ZM9.87308 43.3012L10.0169 43.1623C9.8407 42.9799 9.86513 42.6701 10.0699 42.5117L9.94753 42.3535L9.82515 42.1953C9.43826 42.4946 9.38197 43.0807 9.72924 43.4402L9.87308 43.3012ZM9.94753 42.3535L10.0864 42.4975C10.2673 42.323 10.5729 42.3469 10.7309 42.5505L10.8889 42.4279L11.0469 42.3053C10.7484 41.9207 10.1671 41.8639 9.8087 42.2096L9.94753 42.3535ZM10.8889 42.4279L10.7382 42.5594L11.7687 43.74L11.9194 43.6085L12.0701 43.477L11.0396 42.2964L10.8889 42.4279ZM11.9194 43.6085L11.7631 43.7332L11.7654 43.7361L11.9217 43.6114L12.078 43.4867L12.0757 43.4838L11.9194 43.6085ZM11.9217 43.6114L11.7679 43.7392C12.218 44.2808 12.8766 44.64 13.5632 44.7897L13.6058 44.5943L13.6485 44.3989C13.035 44.2651 12.4601 43.9463 12.0755 43.4836L11.9217 43.6114ZM13.6058 44.5943L13.5669 44.7904L19.6573 46.0005L19.6962 45.8043L19.7352 45.6081L13.6448 44.3981L13.6058 44.5943ZM19.6962 45.8043L19.6714 46.0027L19.6737 46.003L19.6985 45.8046L19.7234 45.6061L19.7211 45.6058L19.6962 45.8043ZM19.6985 45.8046L19.6499 45.9986L19.6522 45.9992L19.7008 45.8052L19.7495 45.6112L19.7472 45.6106L19.6985 45.8046ZM19.7008 45.8052L19.6558 46C20.0543 46.0922 20.4515 45.9995 20.7854 45.7864L20.6779 45.6178L20.5703 45.4492C20.3131 45.6133 20.0248 45.6748 19.7459 45.6103L19.7008 45.8052ZM20.6779 45.6178L20.7855 45.7864C21.1237 45.5705 21.3367 45.2021 21.3975 44.8059L21.1999 44.7756L21.0022 44.7452C20.9562 45.0445 20.7979 45.3039 20.5702 45.4492L20.6779 45.6178ZM21.1999 44.7756L21.3896 44.8387L21.3899 44.8378L21.2001 44.7747L21.0104 44.7116L21.0101 44.7125L21.1999 44.7756ZM21.2001 44.7747L21.3976 44.8062C21.5193 44.0437 21.0927 43.3387 20.3595 43.1243L20.3033 43.3162L20.2472 43.5082C20.7781 43.6635 21.0941 44.1703 21.0026 44.7432L21.2001 44.7747ZM20.3033 43.3162L20.3578 43.1238L16.7092 42.091L16.6548 42.2835L16.6003 42.4759L20.2488 43.5087L20.3033 43.3162ZM16.6548 42.2835L16.7075 42.0906L16.7044 42.0897L16.6516 42.2826L16.5989 42.4755L16.602 42.4764L16.6548 42.2835ZM16.6516 42.2826L16.715 42.0929L16.7116 42.0918L16.6482 42.2815L16.5848 42.4711L16.5882 42.4723L16.6516 42.2826ZM16.6482 42.2815L16.7116 42.0918C16.551 42.0381 16.4455 41.9325 16.3918 41.771L16.202 41.8341L16.0123 41.8972C16.1056 42.1778 16.3044 42.3774 16.5847 42.4711L16.6482 42.2815ZM16.202 41.8341L16.3918 41.771L16.391 41.7684L16.2012 41.8315L16.0114 41.8946L16.0123 41.8972L16.202 41.8341ZM16.2012 41.8315L16.392 41.7716L14.8915 36.9924L14.7007 37.0523L14.5099 37.1122L16.0104 41.8914L16.2012 41.8315ZM14.7007 37.0523L14.8905 36.9892C14.4124 35.5512 13.0383 34.5625 11.5144 34.5625L11.5144 34.7625L11.5144 34.9625C12.8671 34.9625 14.0875 35.8418 14.5109 37.1154L14.7007 37.0523ZM11.5144 34.7625V34.5625H6.68704V34.7625V34.9625H11.5144V34.7625ZM6.68704 34.7625L6.68704 34.5625C4.98386 34.5625 3.52009 35.7612 3.19148 37.4384L3.38774 37.4768L3.58401 37.5153C3.87574 36.0264 5.17451 34.9625 6.68704 34.9625L6.68704 34.7625ZM3.38774 37.4768L3.19796 37.4137L3.19767 37.4146L3.38746 37.4777L3.57725 37.5408L3.57753 37.5399L3.38774 37.4768ZM3.38746 37.4777L3.19142 37.4381L1.33711 46.6176L1.53315 46.6572L1.72919 46.6968L3.5835 37.5173L3.38746 37.4777ZM1.53315 46.6572L1.33703 46.618C1.28364 46.8849 1.04626 47.0429 0.781138 46.9897L0.741812 47.1858L0.702486 47.3819C1.18519 47.4787 1.63271 47.1792 1.72926 46.6964L1.53315 46.6572ZM0.741812 47.1858L0.78117 46.9897C0.515868 46.9365 0.357183 46.6987 0.410488 46.4314L0.21435 46.3923L0.0182129 46.3532C-0.0780738 46.836 0.219804 47.285 0.702454 47.3819L0.741812 47.1858ZM0.21435 46.3923L0.410389 46.4319L2.26499 37.2521L2.06895 37.2125L1.87291 37.1729L0.0183111 46.3527L0.21435 46.3923ZM2.06895 37.2125H2.26895V37.2119H2.06895H1.86895V37.2125H2.06895ZM2.06895 37.2119L2.26476 37.2526C2.70138 35.1511 4.56433 33.6049 6.71665 33.6049V33.4049V33.2049C4.37109 33.2049 2.34754 34.8878 1.87313 37.1713L2.06895 37.2119ZM6.71654 33.5525L6.71428 33.3525L6.61234 33.3537L6.6146 33.5536L6.61687 33.7536L6.7188 33.7525L6.71654 33.5525ZM6.6146 33.5536L6.61012 33.3537C4.38076 33.4037 2.4705 35.0197 2.01726 37.2012L2.21308 37.2419L2.4089 37.2826C2.82489 35.2804 4.57894 33.7994 6.61909 33.7536L6.6146 33.5536ZM19.4616 46.9525L19.4287 47.1498C19.5761 47.1744 19.7242 47.2034 19.889 47.2101L19.8972 47.0103L19.9053 46.8104C19.7722 46.805 19.6562 46.7823 19.4946 46.7552L19.4616 46.9525ZM19.8972 47.0103L19.8932 47.2102L19.9581 47.2115L19.962 47.0115L19.9659 46.8116L19.9011 46.8103L19.8972 47.0103ZM19.962 47.0115L19.962 47.2115C20.4696 47.2115 20.9465 47.0709 21.39 46.8211L21.2918 46.6468L21.1937 46.4726C20.8025 46.6929 20.3926 46.8115 19.962 46.8115L19.962 47.0115ZM21.2918 46.6468L21.3927 46.8195L21.4757 46.771L21.3749 46.5983L21.274 46.4256L21.191 46.4741L21.2918 46.6468ZM15.8412 36.6516L16.031 36.5885C15.4055 34.7069 13.6837 33.4341 11.7065 33.3564L11.6986 33.5562L11.6908 33.7561C13.5043 33.8274 15.0793 34.9937 15.6514 36.7147L15.8412 36.6516ZM11.6986 33.5562L11.7027 33.3563L11.5184 33.3525L11.5143 33.5525L11.5103 33.7524L11.6946 33.7562L11.6986 33.5562ZM40.6838 33.3458V33.5458C42.8027 33.5458 44.6407 35.0157 45.114 37.0938L45.309 37.0494L45.504 37.005C44.9895 34.7459 42.9906 33.1458 40.6838 33.1458V33.3458ZM45.309 37.0494L45.1135 37.0916L45.136 37.1954L45.3315 37.1531L45.5269 37.1109L45.5045 37.0071L45.309 37.0494ZM45.3315 37.1531H45.1315V37.1537H45.3315H45.5314V37.1531H45.3315ZM45.3315 37.1537L45.1354 37.1933L46.9897 46.3725L47.1858 46.3329L47.3818 46.2933L45.5275 37.1141L45.3315 37.1537ZM47.1858 46.3329L47.0441 46.4741L47.0444 46.4744L47.186 46.3332L47.3277 46.192L47.3274 46.1917L47.1858 46.3329ZM47.186 46.3332L46.9899 46.3723C47.0432 46.6395 46.8844 46.8774 46.619 46.9306L46.6583 47.1267L46.6976 47.3228C47.1803 47.226 47.4785 46.777 47.3822 46.2941L47.186 46.3332ZM46.6583 47.1267L46.619 46.9306C46.3539 46.9837 46.1167 46.8258 46.0634 46.5589L45.8672 46.5981L45.6711 46.6373C45.7676 47.12 46.2149 47.4195 46.6976 47.3228L46.6583 47.1267ZM45.8672 46.5981L46.0633 46.5585L44.209 37.3793L44.0129 37.4189L43.8169 37.4585L45.6712 46.6377L45.8672 46.5981ZM44.0129 37.4189L44.2027 37.3558L44.2024 37.3549L44.0127 37.418L43.8229 37.4811L43.8232 37.482L44.0129 37.4189ZM44.0127 37.418L44.2089 37.3796C43.8803 35.7021 42.3869 34.5038 40.7134 34.5037L40.7134 34.7037L40.7134 34.9037C42.1983 34.9038 43.5251 35.9693 43.8164 37.4565L44.0127 37.418ZM40.7134 34.7037V34.5037H35.9449V34.7037V34.9037H40.7134V34.7037ZM35.9449 34.7037V34.5037C34.4219 34.5037 33.048 35.4908 32.5691 36.9276L32.7589 36.9909L32.9486 37.0541C33.3727 35.7817 34.5929 34.9037 35.9449 34.9037V34.7037ZM32.7589 36.9909L32.6173 37.1321L32.6176 37.1324L32.7592 36.9912L32.9008 36.8499L32.9005 36.8496L32.7589 36.9909ZM32.7592 36.9912L32.5684 36.9313L31.0673 41.7128L31.2581 41.7727L31.449 41.8326L32.95 37.0511L32.7592 36.9912ZM31.2581 41.7727L31.0708 41.7027L31.0699 41.705L31.2573 41.775L31.4446 41.8451L31.4455 41.8428L31.2581 41.7727ZM31.2573 41.775L31.0675 41.7119C31.0138 41.8734 30.9083 41.9789 30.7475 42.0327L30.8109 42.2224L30.8743 42.4121C31.1545 42.3184 31.3537 42.1189 31.4471 41.8381L31.2573 41.775ZM30.8109 42.2224L30.7364 42.0367L30.7335 42.0379L30.808 42.2235L30.8825 42.4091L30.8853 42.408L30.8109 42.2224ZM30.808 42.2235L30.7552 42.0306L30.7521 42.0315L30.8048 42.2244L30.8576 42.4173L30.8608 42.4164L30.808 42.2235ZM30.8048 42.2244L30.7498 42.0321L27.0414 43.0943L27.0965 43.2865L27.1516 43.4788L30.8599 42.4167L30.8048 42.2244ZM27.0965 43.2865L26.9549 43.4278L26.9552 43.4281L27.0968 43.2868L27.2384 43.1456L27.2381 43.1453L27.0965 43.2865ZM27.0968 43.2868L27.0406 43.0949C26.3314 43.3024 25.8792 43.9977 25.9906 44.7102L26.1882 44.6793L26.3858 44.6484C26.3066 44.1418 26.6293 43.632 27.153 43.4788L27.0968 43.2868ZM26.1882 44.6793L25.9915 44.7157L26.0024 44.7747L26.1991 44.7384L26.3958 44.702L26.3848 44.6429L26.1882 44.6793ZM26.1991 44.7384L26.0014 44.7687L26.0026 44.7762L26.2003 44.7459L26.3979 44.7156L26.3968 44.7081L26.1991 44.7384ZM26.2003 44.7459L26.0026 44.7762C26.0635 45.1733 26.3053 45.5066 26.6033 45.7479L26.7291 45.5924L26.855 45.437C26.6098 45.2385 26.4396 44.987 26.3979 44.7156L26.2003 44.7459ZM26.7291 45.5924L26.6224 45.7616C26.9548 45.9713 27.349 46.0621 27.7446 45.9706L27.6996 45.7758L27.6545 45.5809C27.3777 45.6449 27.0917 45.5847 26.8359 45.4233L26.7291 45.5924ZM27.6996 45.7758L27.7482 45.9698L27.7528 45.9686L27.7042 45.7746L27.6555 45.5806L27.6509 45.5818L27.6996 45.7758ZM27.7042 45.7746L27.7431 45.9708L33.8332 44.761L33.7943 44.5649L33.7553 44.3687L27.6652 45.5784L27.7042 45.7746ZM33.7943 44.5649L33.8369 44.7603C34.5246 44.6104 35.1527 44.2507 35.6312 43.7109L35.4816 43.5782L35.3319 43.4456C34.9109 43.9205 34.3583 44.2372 33.7517 44.3695L33.7943 44.5649ZM35.4816 43.5782L35.6322 43.7097L36.6619 42.53L36.5112 42.3985L36.3605 42.267L35.3309 43.4467L35.4816 43.5782ZM36.5112 42.3985L36.664 42.5275L36.6672 42.5237L36.5144 42.3947L36.3615 42.2658L36.3583 42.2695L36.5112 42.3985ZM36.5144 42.3947L36.656 42.536L36.6594 42.5325L36.5178 42.3913L36.3762 42.2501L36.3727 42.2535L36.5144 42.3947ZM36.5178 42.3913L36.6594 42.5325C36.8371 42.3543 37.1066 42.3237 37.2872 42.4484L37.4008 42.2838L37.5145 42.1192C37.1527 41.8694 36.6706 41.9549 36.3762 42.25L36.5178 42.3913ZM37.4008 42.2838L37.278 42.4416L37.3306 42.4825L37.4534 42.3247L37.5763 42.1669L37.5237 42.1259L37.4008 42.2838ZM37.4534 42.3247L37.3283 42.4807L37.3326 42.4842L37.4578 42.3282L37.5829 42.1721L37.5786 42.1687L37.4534 42.3247ZM37.4578 42.3282L37.3161 42.4694L37.3202 42.4734L37.4618 42.3322L37.6034 42.191L37.5994 42.1869L37.4578 42.3282ZM37.4618 42.3322L37.3202 42.4734C37.5107 42.6645 37.5321 42.9587 37.3764 43.1407L37.5285 43.2707L37.6805 43.4006C37.9934 43.0346 37.9164 42.5048 37.6034 42.191L37.4618 42.3322ZM37.5285 43.2707L37.3868 43.1295L37.3857 43.1306L37.5273 43.2718L37.6689 43.4131L37.6701 43.4119L37.5285 43.2707ZM37.5273 43.2718L37.3766 43.1403L36.3464 44.321L36.4971 44.4525L36.6478 44.584L37.678 43.4033L37.5273 43.2718ZM36.4971 44.4525L36.3464 44.321C35.7364 45.02 34.9233 45.4856 34.0231 45.6607L34.0613 45.857L34.0995 46.0534C35.0868 45.8613 35.9792 45.3502 36.6478 44.584L36.4971 44.4525ZM34.0613 45.857L33.9197 45.9983L33.92 45.9986L34.0616 45.8573L34.2032 45.7161L34.2029 45.7158L34.0613 45.857ZM34.0616 45.8573L34.0208 45.6615L27.9278 46.9306L27.9686 47.1264L28.0094 47.3222L34.1024 46.0531L34.0616 45.8573ZM27.9686 47.1264L27.92 46.9324L27.9188 46.9327L27.9675 47.1267L28.0161 47.3207L28.0172 47.3204L27.9686 47.1264ZM27.9675 47.1267L27.9282 46.9306C27.7872 46.9589 27.6163 46.959 27.4383 46.959V47.159V47.359C27.6049 47.359 27.819 47.3605 28.0068 47.3228L27.9675 47.1267ZM27.4383 47.159L27.4383 46.959C26.9497 46.959 26.4905 46.8152 26.088 46.5276L25.9717 46.6903L25.8554 46.8531C26.3269 47.19 26.8677 47.359 27.4383 47.359L27.4383 47.159ZM25.9717 46.6903L26.0849 46.5254C25.5366 46.1492 25.1626 45.6005 25.0475 44.9365L24.8504 44.9707L24.6534 45.0049C24.7882 45.7824 25.2278 46.4224 25.8586 46.8552L25.9717 46.6903ZM24.8504 44.9707L25.0471 44.9344C24.8177 43.6926 25.5662 42.5091 26.7759 42.1624L26.7208 41.9702L26.6657 41.7779C25.2616 42.1803 24.3862 43.5591 24.6537 45.007L24.8504 44.9707ZM26.7208 41.9702L26.7761 42.1624L30.0849 41.21L30.0296 41.0178L29.9743 40.8256L26.6655 41.778L26.7208 41.9702ZM30.0296 41.0178L30.2205 41.0776L31.6097 36.6376L31.4188 36.5778L31.2279 36.5181L29.8387 40.9581L30.0296 41.0178ZM31.4188 36.5778L31.6112 36.6326L31.6117 36.6306L31.4194 36.5758L31.227 36.521L31.2265 36.523L31.4188 36.5778ZM31.4194 36.5758L31.6067 36.6459L31.6076 36.6436L31.4203 36.5735L31.2329 36.5034L31.2321 36.5058L31.4194 36.5758ZM31.4203 36.5735L31.6091 36.6393C32.2497 34.7999 33.9669 33.5458 35.886 33.5458V33.3458V33.1458C33.7904 33.1458 31.9258 34.5137 31.2314 36.5077L31.4203 36.5735ZM34.0316 45.7129L34.0698 45.9092C34.966 45.7353 35.7812 45.2894 36.4131 44.6229L36.268 44.4853L36.1229 44.3477C35.5484 44.9535 34.8081 45.3584 33.9935 45.5165L34.0316 45.7129ZM36.268 44.4853L36.416 44.6199L36.5344 44.4897L36.3864 44.3552L36.2384 44.2206L36.1201 44.3508L36.268 44.4853ZM27.7327 45.9195L27.6876 45.7246C27.3849 45.7947 27.0777 45.7348 26.8052 45.577L26.705 45.7501L26.6048 45.9232C26.9527 46.1247 27.3631 46.2103 27.7778 46.1143L27.7327 45.9195ZM26.705 45.7501L26.8087 45.5791L26.7474 45.5419L26.6436 45.7129L26.5399 45.8839L26.6013 45.9211L26.705 45.7501ZM30.7644 42.0825L30.8278 42.2721C31.0323 42.2038 31.1865 42.0699 31.275 41.8746L31.0929 41.792L30.9107 41.7094C30.8705 41.7982 30.8055 41.8578 30.701 41.8928L30.7644 42.0825ZM31.0929 41.792L31.2793 41.8645L31.3041 41.8007L31.1176 41.7283L30.9312 41.6558L30.9064 41.7196L31.0929 41.792ZM32.6188 36.9468L32.8086 37.0099C33.2383 35.7172 34.4503 34.8137 35.8127 34.7586L35.8047 34.5587L35.7966 34.3589C34.2697 34.4207 32.9118 35.4314 32.429 36.8837L32.6188 36.9468ZM35.8047 34.5587L35.8085 34.7587L35.9487 34.756L35.9449 34.556L35.941 34.3561L35.8008 34.3588L35.8047 34.5587ZM46.6296 46.982L46.6689 47.1781C47.0453 47.1026 47.2877 46.7724 47.249 46.3966L47.0501 46.4171L46.8511 46.4376C46.8686 46.607 46.7657 46.7507 46.5902 46.7859L46.6296 46.982ZM47.0501 46.4171L47.2478 46.3867L47.2393 46.3318L47.0416 46.3622L46.844 46.3926L46.8524 46.4475L47.0501 46.4171ZM6.71665 33.4049V33.6049H11.5144V33.4049V33.2049H6.71665V33.4049ZM35.886 33.3458V33.5458H40.6838V33.3458V33.1458H35.886V33.3458ZM13.5453 26.823H13.7453C13.7453 24.3613 11.7766 22.348 9.33491 22.2857L9.32981 22.4856L9.32471 22.6856C11.5491 22.7423 13.3453 24.5778 13.3453 26.823H13.5453ZM9.32981 22.4856L9.3324 22.2856L9.22105 22.2842L9.21846 22.4842L9.21588 22.6842L9.32722 22.6856L9.32981 22.4856ZM4.89161 26.823L4.69163 26.8256L4.69311 26.9372L4.89309 26.9346L5.09308 26.9319L5.09159 26.8203L4.89161 26.823ZM4.89309 26.9346L4.69316 26.9396C4.75424 29.348 6.69897 31.299 9.10194 31.3603L9.10704 31.1604L9.11214 30.9605C6.9231 30.9046 5.14873 29.1259 5.09303 26.9295L4.89309 26.9346ZM9.10704 31.1604L9.10466 31.3604L9.21608 31.3617L9.21846 31.1617L9.22085 30.9618L9.10942 30.9604L9.10704 31.1604ZM9.21846 31.1617L9.21847 31.3617C11.6747 31.3617 13.6819 29.3867 13.744 26.9396L13.544 26.9346L13.3441 26.9295C13.2875 29.1613 11.4561 30.9617 9.21846 30.9617L9.21846 31.1617ZM13.544 26.9346L13.744 26.9369L13.7453 26.8253L13.5453 26.823L13.3453 26.8207L13.3441 26.9323L13.544 26.9346ZM33.855 26.823L33.6551 26.8253L33.6564 26.9369L33.8563 26.9346L34.0563 26.9322L34.055 26.8206L33.855 26.823ZM33.8563 26.9346L33.6564 26.9396C33.7175 29.348 35.6625 31.2991 38.0655 31.3603L38.0706 31.1604L38.0757 30.9605C35.8866 30.9046 34.112 29.1259 34.0563 26.9295L33.8563 26.9346ZM38.0706 31.1604L38.0682 31.3604L38.1795 31.3617L38.1819 31.1617L38.1843 30.9618L38.073 30.9604L38.0706 31.1604ZM38.1819 31.1617V31.3617C40.6382 31.3617 42.6452 29.3867 42.7072 26.9396L42.5073 26.9346L42.3074 26.9295C42.2508 29.1613 40.4196 30.9617 38.1819 30.9617V31.1617ZM42.5073 26.9346L42.7073 26.9372L42.7087 26.8256L42.5087 26.823L42.3088 26.8204L42.3073 26.932L42.5073 26.9346ZM12.3385 26.823H12.5385C12.5385 24.9647 11.0732 23.4943 9.21857 23.4942L9.21857 23.6942L9.21856 23.8942C10.8512 23.8943 12.1385 25.1845 12.1385 26.823H12.3385ZM9.21857 23.6942V23.4942C7.39338 23.4942 5.89835 24.9941 5.89835 26.823H6.09835H6.29835C6.29835 25.214 7.61533 23.8942 9.21857 23.8942V23.6942ZM6.09835 26.823L5.89835 26.823C5.89839 28.6519 7.39342 30.1515 9.21857 30.1515V29.9515V29.7515C7.61533 29.7515 6.29838 28.432 6.29835 26.823L6.09835 26.823ZM9.21846 30.0992L9.2237 29.8993L9.05622 29.8949L9.05099 30.0948L9.04576 30.2947L9.21323 30.2991L9.21846 30.0992ZM9.05099 30.0948L9.06125 29.8951C7.5009 29.8149 6.23521 28.5464 6.15523 26.9806L5.95549 26.9908L5.75575 27.001C5.84614 28.7707 7.27469 30.2038 9.04072 30.2945L9.05099 30.0948ZM5.95549 26.9908L6.15543 26.9857L6.15118 26.8179L5.95125 26.823L5.75131 26.828L5.75556 26.9958L5.95549 26.9908ZM9.21846 23.5467L9.21351 23.7467L9.3835 23.7509L9.38845 23.551L9.3934 23.351L9.22342 23.3468L9.21846 23.5467ZM9.38845 23.551L9.37853 23.7507C11.0155 23.832 12.2857 25.1565 12.2857 26.823H12.4857H12.6857C12.6857 24.9439 11.2488 23.4431 9.39837 23.3512L9.38845 23.551ZM12.4857 26.823L12.2857 26.8178L12.2814 26.9856L12.4814 26.9908L12.6813 26.9959L12.6856 26.8281L12.4857 26.823ZM12.4814 26.9908L12.2816 26.9806C12.199 28.5988 10.8501 29.8991 9.21846 29.8992L9.21846 30.0992L9.21847 30.2992C11.0655 30.2991 12.5877 28.8295 12.6811 27.001L12.4814 26.9908ZM9.21857 29.9515L9.21858 30.1515C11.0437 30.1515 12.5385 28.6518 12.5385 26.823L12.3385 26.823L12.1385 26.823C12.1385 28.432 10.8217 29.7515 9.21856 29.7515L9.21857 29.9515ZM41.302 26.823H41.502C41.502 24.9643 40.0067 23.4942 38.1818 23.4942V23.6942V23.8942C39.7871 23.8942 41.102 25.1865 41.102 26.823H41.302ZM38.1818 23.6942L38.1818 23.4942C36.3566 23.4943 34.8619 24.9942 34.8619 26.823H35.0619H35.2619C35.2619 25.214 36.5786 23.8942 38.1818 23.8942L38.1818 23.6942ZM35.0619 26.823L34.8619 26.823C34.8619 28.6519 36.3567 30.1515 38.1818 30.1515L38.1818 29.9515L38.1818 29.7515C36.5786 29.7515 35.2619 28.432 35.2619 26.823L35.0619 26.823ZM38.1819 30.0992L38.1819 29.8992C36.5502 29.8991 35.2014 28.5988 35.1188 26.9806L34.919 26.9908L34.7193 27.001C34.8127 28.8296 36.3349 30.2991 38.1819 30.2992L38.1819 30.0992ZM34.919 26.9908L35.119 26.9856L35.1146 26.8178L34.9147 26.823L34.7147 26.8282L34.7191 26.996L34.919 26.9908ZM41.4491 26.823L41.2492 26.818L41.245 26.9858L41.4449 26.9908L41.6448 26.9958L41.649 26.828L41.4491 26.823ZM41.4449 26.9908L41.2452 26.9806C41.1625 28.5988 39.8136 29.8992 38.1819 29.8992V30.0992V30.2992C40.0289 30.2992 41.5513 28.8296 41.6446 27.001L41.4449 26.9908ZM38.1818 29.9515V30.1515C40.007 30.1515 41.502 28.6519 41.502 26.823L41.302 26.823L41.102 26.823C41.102 28.432 39.7851 29.7515 38.1818 29.7515V29.9515ZM24.7598 24.993L24.6182 25.1342C24.8133 25.3298 25.0836 25.4313 25.3502 25.4537L25.3669 25.2544L25.3837 25.0551C25.1892 25.0388 25.0154 24.966 24.9014 24.8518L24.7598 24.993ZM25.3669 25.2544L25.3585 25.4543L25.4578 25.4585L25.4662 25.2586L25.4747 25.0588L25.3754 25.0546L25.3669 25.2544ZM32.7365 12.8326L32.9365 12.8326C32.9365 10.9033 32.3431 9.03167 31.1867 7.38359L31.023 7.49846L30.8593 7.61334C31.9697 9.19589 32.5365 10.9877 32.5365 12.8326L32.7365 12.8326ZM31.023 7.49846L31.1857 7.38209L31.0743 7.22638L30.9116 7.34276L30.7489 7.45913L30.8603 7.61484L31.023 7.49846ZM31.6769 12.8326L31.4769 12.8308L31.4755 12.9856L31.6755 12.9874L31.8755 12.9892L31.8769 12.8344L31.6769 12.8326ZM31.6755 12.9874L31.4755 12.9835C31.4149 16.1419 29.4486 19.0246 26.1707 20.6824L26.261 20.8608L26.3512 21.0393C29.7375 19.3267 31.8115 16.3224 31.8755 12.9912L31.6755 12.9874ZM25.5545 24.1075L25.3604 24.0596L25.3567 24.0743L25.5509 24.1222L25.7451 24.1702L25.7487 24.1555L25.5545 24.1075ZM25.5509 24.1222L25.3717 24.0334C25.3817 24.0133 25.3998 23.9871 25.4308 23.9663C25.4632 23.9446 25.4973 23.9371 25.5251 23.9371V24.1371V24.3371C25.5677 24.3371 25.6129 24.3258 25.6535 24.2986C25.6928 24.2722 25.7165 24.2386 25.7301 24.2111L25.5509 24.1222ZM20.4623 22.0415V22.2415C21.1086 22.2415 21.755 22.1962 22.4013 22.1055L22.3735 21.9074L22.3457 21.7094C21.7177 21.7975 21.0898 21.8415 20.4623 21.8415V22.0415ZM22.3735 21.9074L22.4033 22.1052L22.6767 22.064L22.6469 21.8662L22.617 21.6684L22.3437 21.7097L22.3735 21.9074ZM22.6469 21.8662L22.684 22.0627C22.7942 22.0419 22.9302 22.0772 23.0387 22.144L23.1436 21.9737L23.2484 21.8034C23.0818 21.7008 22.8449 21.6253 22.6097 21.6697L22.6469 21.8662ZM23.1436 21.9737L23.031 22.1391L23.0874 22.1774L23.1999 22.0121L23.3124 21.8467L23.2561 21.8084L23.1436 21.9737ZM23.1999 22.0121L23.0797 22.1719L23.0831 22.1745L23.2033 22.0147L23.3236 21.8548L23.3201 21.8522L23.1999 22.0121ZM23.2033 22.0147L23.0751 22.1681L23.0786 22.171L23.2068 22.0175L23.335 21.8641L23.3316 21.8612L23.2033 22.0147ZM23.2068 22.0175L23.0771 22.1697L25.3036 24.0675L25.4333 23.9153L25.5631 23.7631L23.3365 21.8653L23.2068 22.0175ZM25.4333 23.9153L25.6313 23.9438L26.0188 21.2519L25.8208 21.2234L25.6229 21.1949L25.2354 23.8868L25.4333 23.9153ZM25.8208 21.2234L26.0176 21.2591L26.0182 21.256L25.8214 21.2203L25.6246 21.1846L25.624 21.1878L25.8208 21.2234ZM25.8214 21.2203L26.0187 21.2531C26.0458 21.0899 26.1239 20.9658 26.2692 20.9136L26.2017 20.7254L26.1342 20.5371C25.8075 20.6543 25.666 20.9355 25.6241 21.1875L25.8214 21.2203ZM26.2017 20.7254L26.2921 20.9038C29.6874 19.1838 31.7298 16.1588 31.7298 12.8326H31.5298H31.3298C31.3298 15.9827 29.3964 18.8828 26.1113 20.547L26.2017 20.7254ZM31.5298 12.8326L31.7298 12.8326C31.7298 11.1091 31.1665 9.41614 30.1009 7.93206L29.9385 8.04871L29.776 8.16536C30.796 9.58587 31.3298 11.1981 31.3298 12.8326L31.5298 12.8326ZM29.9385 8.04871L30.0992 7.92966C29.9431 7.71895 29.9938 7.42746 30.2076 7.26657L30.0874 7.10675L29.9671 6.94693C29.5923 7.22895 29.4803 7.76614 29.7778 8.16775L29.9385 8.04871ZM30.0874 7.10675L30.2076 7.26659C30.4046 7.11839 30.6719 7.15354 30.8376 7.33582L30.9856 7.20129L31.1336 7.06676C30.841 6.74485 30.3431 6.66414 29.9672 6.94691L30.0874 7.10675ZM30.9856 7.20129L30.8313 7.32846L30.875 7.38149L31.0293 7.25432L31.1837 7.12716L31.14 7.07412L30.9856 7.20129ZM31.0293 7.25432L30.8877 7.39555L30.8889 7.3967L31.0305 7.25548L31.1721 7.11425L31.1709 7.1131L31.0293 7.25432ZM31.0305 7.25548L30.869 7.37341C32.0694 9.01754 32.6836 10.8959 32.6836 12.8326L32.8836 12.8326L33.0836 12.8326C33.0836 10.8087 32.441 8.84817 31.192 7.13754L31.0305 7.25548ZM32.8836 12.8326H32.6836C32.6836 16.36 30.5162 19.6886 27.0362 21.5763L27.1316 21.7521L27.2269 21.9279C30.8146 19.9818 33.0836 16.5293 33.0836 12.8326H32.8836ZM27.1316 21.7521L26.9337 21.7229L26.562 24.2476L26.7599 24.2767L26.9578 24.3059L27.3294 21.7812L27.1316 21.7521ZM26.7599 24.2767L26.9015 24.1355L26.9012 24.1352L26.7596 24.2764L26.618 24.4177L26.6183 24.418L26.7599 24.2767ZM26.7596 24.2764L26.5616 24.2482C26.5057 24.6398 26.2564 24.9468 25.8949 25.0887L25.968 25.2749L26.0411 25.4611C26.534 25.2676 26.8809 24.8417 26.9576 24.3047L26.7596 24.2764ZM25.968 25.2749L25.8788 25.0959C25.7104 25.1798 25.6017 25.2063 25.4661 25.2063V25.4063V25.6063C25.677 25.6063 25.8468 25.5587 26.0572 25.4539L25.968 25.2749ZM25.4661 25.4063L25.4661 25.2063C25.2146 25.2063 24.9669 25.1226 24.8024 24.9608L24.6621 25.1034L24.5219 25.246C24.7778 25.4976 25.1353 25.6063 25.4661 25.6063L25.4661 25.4063ZM24.6621 25.1034L24.7908 24.9503L22.6663 23.1655L22.5376 23.3186L22.409 23.4718L24.5335 25.2565L24.6621 25.1034ZM22.5376 23.3186L22.5062 23.1211C21.8258 23.2295 21.1448 23.2581 20.4623 23.2581V23.4581V23.6581C21.155 23.6581 21.8594 23.6292 22.5691 23.5161L22.5376 23.3186ZM20.4623 23.4581L20.4623 23.2581C13.7136 23.2581 8.27051 18.6108 8.27051 12.8917H8.07051H7.87051C7.87051 18.89 13.5558 23.6581 20.4623 23.6581L20.4623 23.4581ZM8.07051 12.8917H8.27051C8.27051 7.17232 13.7138 2.49555 20.4623 2.4955L20.4623 2.2955L20.4623 2.0955C13.5544 2.09555 7.87051 6.89452 7.87051 12.8917H8.07051ZM20.4623 2.2955V2.4955C23.275 2.4955 26.0047 3.32358 28.1709 4.81818L28.2845 4.65356L28.3981 4.48894C26.1611 2.9455 23.3512 2.0955 20.4623 2.0955V2.2955ZM28.2845 4.65356L28.1692 4.817L28.3805 4.96602L28.4958 4.80258L28.6111 4.63915L28.3998 4.49013L28.2845 4.65356ZM28.4958 4.80258L28.3756 4.96242L28.3779 4.96415L28.4981 4.80431L28.6183 4.64447L28.616 4.64274L28.4958 4.80258ZM28.4981 4.80431L28.3779 4.96415C28.5924 5.12549 28.6428 5.41817 28.4851 5.6291L28.6453 5.74886L28.8054 5.86863C29.106 5.46669 28.9943 4.92723 28.6183 4.64447L28.4981 4.80431ZM28.6453 5.74886L28.4851 5.62907C28.3245 5.84379 28.0344 5.89399 27.825 5.73761L27.7053 5.89788L27.5857 6.05815C27.987 6.35776 28.5241 6.24484 28.8054 5.86865L28.6453 5.74886ZM27.7053 5.89788L27.821 5.73477L27.6313 5.60016L27.5156 5.76327L27.3999 5.92639L27.5896 6.06099L27.7053 5.89788ZM27.5156 5.76327L27.6296 5.59898C25.6177 4.20241 23.0674 3.42369 20.4623 3.42369V3.62369V3.82369C22.9906 3.82369 25.4604 4.5801 27.4016 5.92757L27.5156 5.76327ZM20.4623 3.62369L20.4623 3.42369C14.2606 3.42375 9.22442 7.63059 9.22438 12.8326L9.42438 12.8326L9.62438 12.8326C9.62442 7.91502 14.4121 3.82375 20.4623 3.82369L20.4623 3.62369ZM9.42438 12.8326H9.22438C9.22438 18.0347 14.2901 22.2414 20.4623 22.2415L20.4623 22.0415L20.4623 21.8415C14.4409 21.8414 9.62438 17.7496 9.62438 12.8326H9.42438ZM27.7621 0.642744L27.7132 0.448831L27.6595 0.462378L27.7085 0.656291L27.7574 0.850205L27.8111 0.836657L27.7621 0.642744ZM27.7085 0.656291L27.6508 0.464795C27.2891 0.573766 27.0789 0.925221 27.1539 1.30165L27.35 1.26257L27.5462 1.22349C27.5109 1.04653 27.6044 0.896542 27.7662 0.847788L27.7085 0.656291ZM40.8016 10.0287L40.6016 10.0263L40.5996 10.1934L40.7996 10.1958L40.9996 10.1981L41.0015 10.031L40.8016 10.0287ZM40.7996 10.1958L40.5996 10.1911C40.52 13.5945 37.936 16.7245 34.0317 17.9247L34.0905 18.1159L34.1493 18.3071C38.184 17.0667 40.9151 13.8092 40.9995 10.2005L40.7996 10.1958ZM34.0905 18.1159L34.0223 17.9279L33.9689 17.9473L34.0372 18.1353L34.1054 18.3233L34.1588 18.3039L34.0905 18.1159ZM34.0372 18.1353L33.9591 17.9511C33.6018 18.1026 33.4328 18.5128 33.5475 18.8578L33.7373 18.7948L33.9271 18.7317C33.8762 18.5786 33.9556 18.3871 34.1152 18.3194L34.0372 18.1353ZM33.7373 18.7948L33.5432 18.8431C33.6205 19.1529 33.8808 19.3526 34.1781 19.3761L34.1938 19.1767L34.2095 18.9773C34.0731 18.9665 33.9645 18.8792 33.9314 18.7464L33.7373 18.7948ZM34.1938 19.1767L34.1857 19.3765L34.2295 19.3783L34.2377 19.1785L34.2458 18.9786L34.202 18.9768L34.1938 19.1767ZM13.6924 26.823L13.4924 26.823C13.4923 29.1853 11.573 31.1094 9.21856 31.1094L9.21857 31.3094L9.21857 31.5094C11.795 31.5094 13.8923 29.4051 13.8924 26.823L13.6924 26.823ZM9.21857 31.3094V31.1094C6.8641 31.1094 4.94452 29.1853 4.94449 26.823L4.74449 26.823L4.54449 26.823C4.54452 29.4052 6.64214 31.5094 9.21857 31.5094V31.3094ZM4.74449 26.823H4.94449C4.94449 24.4607 6.86408 22.5366 9.21857 22.5366V22.3366V22.1366C6.64213 22.1366 4.54449 24.2408 4.54449 26.823H4.74449ZM9.21857 22.3366L9.21856 22.5366C11.573 22.5367 13.4924 24.4607 13.4924 26.823H13.6924H13.8924C13.8924 24.2409 11.795 22.1367 9.21857 22.1366L9.21857 22.3366ZM42.6559 26.823L42.4559 26.823C42.4559 29.1853 40.5363 31.1094 38.1818 31.1094V31.3094V31.5094C40.7583 31.5094 42.8559 29.4052 42.8559 26.823L42.6559 26.823ZM38.1818 31.3094L38.1818 31.1094C35.8274 31.1094 33.9078 29.1853 33.9077 26.823L33.7077 26.823L33.5077 26.823C33.5078 29.4052 35.6054 31.5094 38.1818 31.5094L38.1818 31.3094ZM33.7077 26.823H33.9077C33.9077 24.4607 35.8274 22.5367 38.1818 22.5366L38.1818 22.3366L38.1818 22.1366C35.6054 22.1367 33.5077 24.2408 33.5077 26.823H33.7077ZM38.1818 22.3366V22.5366C40.5363 22.5366 42.4559 24.4607 42.4559 26.823H42.6559H42.8559C42.8559 24.2408 40.7583 22.1366 38.1818 22.1366V22.3366ZM42.0083 10.0286H41.8083C41.8083 14.0369 38.8376 17.6726 34.3963 19.0607L34.456 19.2516L34.5156 19.4425C39.0893 18.013 42.2083 14.2455 42.2083 10.0286H42.0083ZM34.456 19.2516L34.336 19.0916C34.3092 19.1117 34.2712 19.126 34.2377 19.126L34.2378 19.326L34.2379 19.526C34.3699 19.5259 34.4902 19.4758 34.5759 19.4117L34.456 19.2516ZM34.2378 19.326V19.126C34.0248 19.126 33.8412 18.9932 33.7885 18.7821L33.5945 18.8305L33.4004 18.8789C33.5006 19.2807 33.8545 19.526 34.2378 19.526V19.326ZM33.5945 18.8305L33.7854 18.7709C33.7108 18.5319 33.8455 18.2443 34.106 18.166L34.0484 17.9744L33.9907 17.7829C33.5036 17.9295 33.267 18.4524 33.4036 18.8901L33.5945 18.8305ZM34.0484 17.9744L34.1072 18.1656C38.1568 16.9203 40.8544 13.6269 40.8544 10.0286H40.6544H40.4544C40.4544 13.4167 37.9069 16.5786 33.9896 17.7833L34.0484 17.9744ZM40.6544 10.0286L40.8544 10.0286C40.8544 5.23971 36.2006 1.35761 30.47 1.35761V1.55761V1.75761C36.05 1.75761 40.4544 5.52487 40.4544 10.0286L40.6544 10.0286ZM30.47 1.55761L30.47 1.35761C29.6126 1.35762 28.7848 1.4468 27.9571 1.62466L27.9991 1.82019L28.0411 2.01573C28.8414 1.84376 29.6411 1.75762 30.47 1.75761L30.47 1.55761ZM27.9991 1.82019L27.9707 1.62221L27.9687 1.6225L27.9971 1.82048L28.0254 2.01846L28.0274 2.01817L27.9991 1.82019ZM27.9971 1.82048L27.9577 1.62439C27.6925 1.67757 27.4552 1.51953 27.4019 1.25243L27.2057 1.29157L27.0096 1.3307C27.106 1.8137 27.5535 2.11341 28.0364 2.01658L27.9971 1.82048ZM27.2057 1.29157L27.4019 1.25245C27.3486 0.985141 27.5072 0.747374 27.7725 0.694141L27.7332 0.498049L27.6939 0.301957C27.2111 0.398809 26.9133 0.847883 27.0096 1.33069L27.2057 1.29157ZM27.7332 0.498049L27.7725 0.694145C28.6532 0.517529 29.562 0.400023 30.47 0.400012L30.47 0.200012L30.47 1.22041e-05C29.5283 2.34395e-05 28.5921 0.121807 27.6939 0.301954L27.7332 0.498049ZM30.47 0.200012V0.400012C36.7185 0.400012 41.8083 4.72277 41.8083 10.0286L42.0083 10.0286L42.2083 10.0286C42.2083 4.44275 36.8752 1.22041e-05 30.47 1.22041e-05V0.200012Z" fill="#003C7E" mask="url(#path-1-outside-1_58_106)"/>
</svg>
