<svg width="47" height="44" viewBox="0 0 47 44" fill="none" xmlns="http://www.w3.org/2000/svg">
<path d="M23.5132 43.45C23.4331 43.45 23.353 43.423 23.2729 43.396C23.2195 43.369 16.5719 39.6955 10.5383 33.9151C2.50235 26.19 -0.781426 18.2218 1.03399 10.8478C1.94171 6.55306 5.30557 1.77212 10.7785 0.745708C10.8319 0.745708 18.0402 -0.90196 23.5132 5.36458C28.9594 -0.90196 36.1944 0.745708 36.2478 0.745708C41.6941 1.74511 45.058 6.55306 45.9657 10.8478C47.7811 18.1948 44.4973 26.163 36.4614 33.8881C30.4545 39.6685 23.8069 43.342 23.7268 43.369C23.6734 43.423 23.5933 43.45 23.5132 43.45ZM13.1279 1.50201C11.8998 1.50201 11.0722 1.69109 10.9921 1.7181C5.91961 2.63647 2.82272 7.09328 1.9684 11.0639C-2.0362 27.1894 20.9235 40.911 23.4865 42.3966C26.0494 40.938 49.0092 27.2164 45.0046 11.0909C44.1769 7.09328 41.08 2.63647 36.0609 1.7181C35.7406 1.63707 28.9861 0.124457 23.8869 6.44502C23.7001 6.6611 23.3263 6.6611 23.1394 6.44502C19.7222 2.23131 15.5841 1.50201 13.1279 1.50201Z" fill="#003C7E"/>
<path d="M6.10649 19.7344C5.89292 19.7344 5.70603 19.5993 5.65264 19.4103C4.79832 16.8172 4.66484 14.3052 5.25218 11.9282L5.27888 11.7932C5.70603 9.82138 6.82732 7.90361 8.32238 6.63409C8.53595 6.47203 8.82963 6.49904 8.98981 6.68811C9.14999 6.9042 9.1233 7.20132 8.93642 7.36339C7.60155 8.49785 6.58705 10.1995 6.21328 11.9823L6.18659 12.1443C5.62594 14.3592 5.75943 16.7092 6.56035 19.1131C6.64044 19.3562 6.50695 19.6534 6.26668 19.7344C6.21328 19.7344 6.15989 19.7344 6.10649 19.7344Z" fill="#003C7E"/>
<path d="M12.4872 31.4842C12.4605 31.4842 12.4605 31.4842 12.4872 31.4842C12.2202 31.4842 12.0066 31.2681 12.0066 30.998C12.0333 26.8113 17.2126 23.4079 23.5132 23.4079C29.7871 23.4079 34.9663 26.8113 35.0197 30.9709H34.0586C34.0052 27.3245 29.2798 24.3533 23.5132 24.3533C17.7465 24.3533 12.9944 27.3245 12.9677 30.9709C12.941 31.2681 12.7274 31.4842 12.4872 31.4842Z" fill="#003C7E"/>
<path d="M23.5132 21.6252C20.3629 21.6252 17.8266 19.0321 17.8266 15.8718C17.8266 12.6845 20.3896 10.1185 23.5132 10.1185C26.6635 10.1185 29.1997 12.7116 29.1997 15.8718C29.1997 19.0591 26.6368 21.6252 23.5132 21.6252ZM23.5132 11.0909C20.8968 11.0909 18.7877 13.2248 18.7877 15.8718C18.7877 18.5189 20.8968 20.6528 23.5132 20.6528C26.1295 20.6528 28.2386 18.5189 28.2386 15.8718C28.2386 13.2518 26.1028 11.0909 23.5132 11.0909Z" fill="#003C7E"/>
<path d="M31.8231 0.161145C33.1184 -0.0315546 34.239 -0.0212444 35.0412 0.0376096C35.4427 0.0670651 35.7653 0.109254 35.9912 0.143957C36.1039 0.161284 36.1923 0.176691 36.2537 0.188C36.2689 0.190781 36.2827 0.193334 36.2943 0.19552H36.2975L36.3455 0.204113C42.0643 1.25353 45.5515 6.27682 46.4961 10.7153L46.6573 11.4308C48.1118 18.6063 44.908 26.23 37.5847 33.5543L36.8387 34.2858C33.8062 37.2039 30.6162 39.587 28.177 41.2425C26.9567 42.0707 25.9221 42.718 25.1863 43.161C24.8184 43.3825 24.5249 43.5535 24.3196 43.6702C24.217 43.7285 24.1351 43.7729 24.0773 43.8045C24.0601 43.8139 24.0441 43.8218 24.0303 43.8292C23.8664 43.954 23.6748 43.9999 23.5137 44C23.3286 44 23.1614 43.9381 23.0996 43.9173L23.0622 43.9055L23.027 43.8872C22.919 43.8316 16.234 40.1319 10.161 34.3138C2.05684 26.523 -1.37925 18.3628 0.503509 10.7153C1.44881 6.27392 4.93719 1.28196 10.6787 0.205188L10.6925 0.203039L10.6936 0.201965C10.6945 0.2018 10.6957 0.202169 10.6968 0.201965L10.7278 0.19552H10.731C10.7426 0.193315 10.7563 0.19082 10.7715 0.188C10.8328 0.176677 10.9214 0.161329 11.0341 0.143957C11.2593 0.109258 11.5807 0.0670625 11.9809 0.0376096C12.7812 -0.0212624 13.8999 -0.0316008 15.1936 0.161145C17.6619 0.528894 20.7692 1.63839 23.5116 4.54933C26.2429 1.63758 29.3519 0.528834 31.8231 0.161145ZM36.2478 0.745708C36.1608 0.738002 28.9466 -0.886914 23.5132 5.36458C18.0529 -0.887401 10.8649 0.738122 10.7785 0.745708L10.272 0.852941C5.09804 2.07045 1.91345 6.68726 1.03399 10.8478C-0.781426 18.2218 2.50235 26.19 10.5383 33.9151C16.565 39.6889 23.2046 43.3607 23.2729 43.396C23.3129 43.4095 23.3531 43.4227 23.3931 43.4328L23.5132 43.45C23.5933 43.45 23.6734 43.423 23.7268 43.369C23.8153 43.3367 30.0502 39.8891 35.8962 34.4233L36.4614 33.8881C44.4973 26.163 47.7811 18.1948 45.9657 10.8478C45.058 6.55306 41.6941 1.74511 36.2478 0.745708ZM13.6075 1.51144C16.0985 1.60699 19.9357 2.49465 23.1394 6.44502C23.303 6.63416 23.6101 6.6582 23.8094 6.51622L23.8869 6.44502C28.9837 0.127489 35.7346 1.63574 36.0609 1.7181C41.08 2.63647 44.1769 7.09328 45.0046 11.0909C49.0092 27.2164 26.0494 40.938 23.4865 42.3966C20.9208 40.9093 -2.03591 27.1882 1.9684 11.0639C2.79616 7.21733 5.7286 2.91426 10.5228 1.81437L10.9921 1.7181C11.0748 1.69054 11.9021 1.50201 13.1279 1.50201L13.6075 1.51144ZM13.1283 2.05177C12.5418 2.05177 12.0524 2.09751 11.7033 2.14523C11.343 2.1945 11.159 2.24228 11.1654 2.23976L11.128 2.25265L11.0885 2.25909C6.29829 3.1265 3.3257 7.35532 2.50268 11.1805L2.49841 11.1977C0.570698 18.961 5.11914 26.2277 10.652 31.8323C15.8384 37.086 21.7551 40.7369 23.487 41.7592C25.2141 40.7517 31.1332 37.1079 36.321 31.856C41.8538 26.2548 46.4024 18.988 44.4746 11.2245L44.4714 11.2138L44.4692 11.203C43.6721 7.35274 40.6995 3.12578 35.9634 2.25909L35.9453 2.25587L35.9282 2.25157C35.6697 2.18618 29.2028 0.728022 24.311 6.79122L24.3057 6.79874L24.2993 6.80626C24.0862 7.05265 23.7857 7.15739 23.5137 7.15753C23.2416 7.15753 22.9403 7.05281 22.7271 6.80626L22.7217 6.79981L22.7164 6.79229C19.4335 2.74444 15.4754 2.05184 13.1283 2.05177ZM23.5137 22.8583C26.7429 22.8584 29.7127 23.7328 31.8978 25.169C34.0771 26.6012 35.5365 28.6403 35.5664 30.9644L35.5738 31.5208H33.5202L33.5117 30.9794C33.4887 29.4109 32.4579 27.9028 30.6394 26.7609C28.8294 25.6244 26.3096 24.9037 23.5137 24.9036C20.7175 24.9036 18.1909 25.6253 16.3773 26.762C14.669 27.8328 13.6579 29.2227 13.5285 30.6818L13.5136 30.9977L13.5115 31.0202C13.4683 31.5006 13.1211 31.9721 12.5946 32.0289L12.4868 32.0343H12.4676C11.9053 32.0238 11.46 31.5622 11.46 30.9977V30.9944C11.4749 28.6562 12.9277 26.6099 15.1082 25.1732C17.2942 23.733 20.2714 22.8583 23.5137 22.8583ZM29.1997 15.8718C29.1996 12.8102 26.8192 10.2804 23.8062 10.1256L23.5132 10.1185C20.3896 10.1185 17.8266 12.6845 17.8266 15.8718L17.8343 16.1659C17.9809 19.094 20.3041 21.4677 23.2202 21.6176L23.5132 21.6252C26.6368 21.6252 29.1997 19.0591 29.1997 15.8718ZM27.6924 15.8716C27.6923 13.5528 25.7985 11.6416 23.5137 11.6413C21.202 11.6413 19.334 13.5256 19.3339 15.8716C19.3339 18.2176 21.2019 20.1029 23.5137 20.1029L23.5132 20.6528L23.2693 20.6465C20.767 20.5187 18.7877 18.4361 18.7877 15.8718C18.7877 13.2248 20.8968 11.0909 23.5132 11.0909L23.7549 11.0967C26.2343 11.2261 28.2385 13.3339 28.2386 15.8718L28.2325 16.1187C28.1062 18.6501 26.0474 20.6525 23.5132 20.6528L23.5137 20.1029C25.8253 20.1026 27.6924 18.2175 27.6924 15.8716ZM7.99319 6.19503C8.39029 5.8937 8.96456 5.89889 9.33486 6.25519L9.40531 6.33146L9.41705 6.34542L9.42772 6.35939C9.74338 6.78526 9.71724 7.41287 9.29324 7.78058L9.28897 7.7838C8.05409 8.83332 7.10589 10.4163 6.75291 12.0721L6.72623 12.2343L6.72196 12.2579L6.71662 12.2805C6.21844 14.2488 6.29442 16.3416 6.94184 18.5045L7.07846 18.9385L7.07953 18.9396C7.24593 19.4446 6.99086 20.0698 6.44018 20.2555L6.35586 20.2845H6.10609C5.68156 20.2843 5.26906 20.0188 5.13479 19.5819L5.13373 19.583C4.25083 16.903 4.10684 14.2849 4.72172 11.796L4.74307 11.6854L4.74521 11.6757C5.19683 9.59138 6.37828 7.56464 7.96971 6.21329L7.98145 6.20362L7.99319 6.19503ZM8.98981 6.68811C8.82963 6.49904 8.53595 6.47203 8.32238 6.63409L8.04656 6.87931C6.68993 8.14319 5.67941 9.94468 5.27888 11.7932L5.25218 11.9282C4.66484 14.3052 4.79832 16.8172 5.65264 19.4103C5.69938 19.5758 5.84847 19.6997 6.02818 19.728L6.10649 19.7344H6.26668L6.35159 19.6947C6.53694 19.5804 6.63012 19.3258 6.56035 19.1131C5.75943 16.7092 5.62594 14.3592 6.18659 12.1443L6.21328 11.9823C6.56373 10.3111 7.47754 8.7111 8.69018 7.58292L8.93642 7.36339C9.1233 7.20132 9.14999 6.9042 8.98981 6.68811ZM12.0066 30.998C12.0066 31.2681 12.2202 31.4842 12.4872 31.4842L12.5754 31.4746C12.7489 31.4358 12.8957 31.2844 12.949 31.0782L12.9677 30.9709C12.9944 27.3245 17.7465 24.3533 23.5132 24.3533L24.0506 24.3622C29.5705 24.5399 34.0068 27.4385 34.0586 30.9709H35.0197C34.9679 26.9412 30.1054 23.6214 24.0975 23.418L23.5132 23.4079C17.2126 23.4079 12.0333 26.8113 12.0066 30.998ZM29.746 15.8716C29.746 19.3614 26.9399 22.1748 23.5137 22.1751C20.0572 22.1751 17.2803 19.3312 17.2803 15.8716C17.2804 12.3817 20.0873 9.56808 23.5137 9.56808C26.9699 9.56836 29.7459 12.4123 29.746 15.8716Z" fill="#003C7E"/>
</svg>
