<svg width="165" height="353" viewBox="0 0 165 353" fill="none" xmlns="http://www.w3.org/2000/svg">
<g filter="url(#filter0_d_58_268)">
<path fill-rule="evenodd" clip-rule="evenodd" d="M180.248 288.121C186.17 275.245 186.593 260.865 186.593 246.701C186.593 240.906 187.016 235.755 185.112 232.107C179.614 231.463 173.904 235.755 170.097 237.901C167.348 239.404 165.233 239.833 165.022 243.052C164.176 254.856 166.502 253.998 162.907 271.167C162.061 275.459 159.523 283.185 156.563 284.688C151.91 285.546 132.031 256.573 163.753 220.947C176.442 206.567 191.88 202.919 208.586 196.91C247.498 182.96 276.682 157.421 290.217 118.146C292.966 110.42 298.041 87.885 295.926 78.4419C291.485 76.5104 279.643 75.6519 273.933 75.6519C252.151 75.6519 233.118 80.1589 214.719 91.1043C197.589 101.62 176.653 119.004 166.714 137.032C165.656 138.964 165.868 140.037 164.387 140.466C163.542 139.607 160.792 134.671 159.523 132.74C157.409 129.735 156.351 128.233 154.025 125.443C134.992 100.547 106.02 84.0219 75.7785 77.5835C66.8964 75.6519 38.1355 74.1496 31.5797 79.515C30.5223 96.6843 35.1748 112.995 40.6732 125.872C56.7455 162.571 87.8327 184.891 124.841 194.978C126.744 195.622 134.358 197.339 136.472 197.124C138.376 194.334 139.222 186.608 139.01 182.316C138.799 179.097 138.164 178.453 135.204 177.38C133.089 176.521 130.974 175.663 128.436 175.234C128.225 174.375 126.322 174.161 123.361 173.087C118.074 170.941 108.557 166.649 103.905 163.859C89.1015 155.06 74.0866 140.466 66.0505 125.014C63.0898 119.434 54.6307 103.337 56.534 96.6843C65.6275 95.3966 85.7179 102.05 92.4852 105.484C112.576 115.785 129.071 127.374 141.759 147.119C152.545 164.074 150.218 164.074 154.871 179.741C158.889 180.17 161.85 178.667 165.445 177.809C176.653 175.019 172.212 176.951 177.499 164.288C184.055 148.836 193.36 137.89 204.145 127.374C212.816 118.79 223.178 112.351 233.964 106.557C243.057 101.835 264.839 94.9673 273.933 96.6843C274.356 102.05 268.434 116.644 266.32 120.721C255.534 141.968 239.673 155.704 218.526 167.937C204.991 175.877 188.073 179.955 174.327 186.823C159.523 194.334 148.95 202.275 139.433 215.367C126.11 233.394 118.285 270.523 131.82 289.838C137.53 297.994 147.681 308.295 157.409 311.729C164.81 314.519 177.076 294.989 180.248 288.121Z" fill="url(#paint0_linear_58_268)" fill-opacity="0.2" shape-rendering="crispEdges"/>
<path fill-rule="evenodd" clip-rule="evenodd" d="M139.645 64.9211C137.107 50.7565 148.527 38.5234 159.735 37.4503C174.327 35.948 185.535 45.1765 187.439 58.0534C189.553 72.6473 179.191 84.4512 167.348 85.5242C152.756 86.5973 141.971 77.1542 139.645 64.9211ZM203.299 66.4234C205.626 54.405 200.762 43.0303 194.84 35.948C190.822 31.2265 189.553 30.1534 184.055 26.9342C181.094 25.2172 173.692 22.4272 169.463 22.2126C125.687 18.5641 111.307 62.775 131.82 85.5242C138.164 92.6066 144.932 97.7573 157.197 99.4743C170.309 101.406 180.671 96.8989 188.496 91.3189C196.321 85.9535 201.185 77.1542 203.299 66.4234Z" fill="url(#paint1_linear_58_268)" fill-opacity="0.2" shape-rendering="crispEdges"/>
</g>
<defs>
<filter id="filter0_d_58_268" x="0.000141144" y="1.90735e-06" width="327.857" height="352.857" filterUnits="userSpaceOnUse" color-interpolation-filters="sRGB">
<feFlood flood-opacity="0" result="BackgroundImageFix"/>
<feColorMatrix in="SourceAlpha" type="matrix" values="0 0 0 0 0 0 0 0 0 0 0 0 0 0 0 0 0 0 127 0" result="hardAlpha"/>
<feOffset dy="9.42857"/>
<feGaussianBlur stdDeviation="15.7143"/>
<feComposite in2="hardAlpha" operator="out"/>
<feColorMatrix type="matrix" values="0 0 0 0 0.441667 0 0 0 0 0.720834 0 0 0 0 1 0 0 0 0.09 0"/>
<feBlend mode="normal" in2="BackgroundImageFix" result="effect1_dropShadow_58_268"/>
<feBlend mode="normal" in="SourceGraphic" in2="effect1_dropShadow_58_268" result="shape"/>
</filter>
<linearGradient id="paint0_linear_58_268" x1="31.4287" y1="167" x2="296.429" y2="167" gradientUnits="userSpaceOnUse">
<stop stop-color="#4D6FAC"/>
<stop offset="1" stop-color="#B1C0D0"/>
</linearGradient>
<linearGradient id="paint1_linear_58_268" x1="31.4287" y1="167" x2="296.429" y2="167" gradientUnits="userSpaceOnUse">
<stop stop-color="#4D6FAC"/>
<stop offset="1" stop-color="#B1C0D0"/>
</linearGradient>
</defs>
</svg>
