<svg width="169" height="353" viewBox="0 0 169 353" fill="none" xmlns="http://www.w3.org/2000/svg">
<g filter="url(#filter0_d_58_269)">
<path fill-rule="evenodd" clip-rule="evenodd" d="M20.8196 288.121C26.7409 275.245 27.1639 260.865 27.1639 246.701C27.1639 240.906 27.5868 235.755 25.6835 232.107C20.1851 231.463 14.4753 235.755 10.6687 237.901C7.91945 239.404 5.80467 239.833 5.59319 243.052C4.74728 254.856 7.07353 253.998 3.47842 271.167C2.63251 275.459 0.0947723 283.185 -2.86591 284.688C-7.51841 285.546 -27.3973 256.573 4.32433 220.947C17.013 206.567 32.4508 202.919 49.1575 196.91C88.0694 182.96 117.253 157.421 130.788 118.146C133.537 110.42 138.612 87.885 136.498 78.4419C132.057 76.5104 120.214 75.6519 114.504 75.6519C92.7219 75.6519 73.6889 80.1589 55.2904 91.1043C38.1607 101.62 17.2244 119.004 7.285 137.032C6.22762 138.964 6.4391 140.037 4.95876 140.466C4.11285 139.607 1.36363 134.671 0.0947723 132.74C-2.02 129.735 -3.07738 128.233 -5.40363 125.443C-24.4366 100.547 -53.409 84.0219 -83.6503 77.5835C-92.5323 75.6519 -121.293 74.1496 -127.849 79.515C-128.906 96.6843 -124.254 112.995 -118.756 125.872C-102.683 162.571 -71.5961 184.891 -34.5875 194.978C-32.6842 195.622 -25.071 197.339 -22.9563 197.124C-21.053 194.334 -20.207 186.608 -20.4185 182.316C-20.63 179.097 -21.2644 178.453 -24.2251 177.38C-26.3399 176.521 -28.4547 175.663 -30.9924 175.234C-31.2039 174.375 -33.1072 174.161 -36.0679 173.087C-41.3548 170.941 -50.8713 166.649 -55.5238 163.859C-70.3272 155.06 -85.3421 140.466 -93.3782 125.014C-96.3389 119.434 -104.798 103.337 -102.895 96.6843C-93.8012 95.3966 -73.7108 102.05 -66.9435 105.484C-46.8532 115.785 -30.358 127.374 -17.6693 147.119C-6.88397 164.074 -9.21023 164.074 -4.55772 179.741C-0.53965 180.17 2.42104 178.667 6.01614 177.809C17.2244 175.019 12.7834 176.951 18.0704 164.288C24.6262 148.836 33.9312 137.89 44.7165 127.374C53.3871 118.79 63.7495 112.351 74.5348 106.557C83.6284 101.835 105.411 94.9673 114.504 96.6843C114.927 102.05 109.006 116.644 106.891 120.721C96.1055 141.968 80.2447 155.704 59.097 167.937C45.5624 175.877 28.6442 179.955 14.8982 186.823C0.0947876 194.334 -10.4791 202.275 -19.9956 215.367C-33.3186 233.394 -41.1433 270.523 -27.6088 289.838C-21.8989 297.994 -11.748 308.295 -2.02 311.729C5.38171 314.519 17.6474 294.989 20.8196 288.121Z" fill="url(#paint0_linear_58_269)" fill-opacity="0.2" shape-rendering="crispEdges"/>
<path fill-rule="evenodd" clip-rule="evenodd" d="M-19.7841 64.9211C-22.3218 50.7565 -10.902 38.5234 0.306259 37.4503C14.8982 35.948 26.1065 45.1765 28.0098 58.0534C30.1246 72.6473 19.7622 84.4512 7.91945 85.5242C-6.67249 86.5973 -17.4578 77.1542 -19.7841 64.9211ZM43.8706 66.4234C46.1968 54.405 41.3329 43.0303 35.4115 35.948C31.3934 31.2265 30.1246 30.1534 24.6262 26.9342C21.6655 25.2172 14.2638 22.4272 10.0342 22.2126C-33.7416 18.5641 -48.1221 62.775 -27.6088 85.5242C-21.2644 92.6066 -14.4972 97.7573 -2.23148 99.4743C10.8801 101.406 21.2425 96.8989 29.0672 91.3189C36.8919 85.9535 41.7558 77.1542 43.8706 66.4234Z" fill="url(#paint1_linear_58_269)" fill-opacity="0.2" shape-rendering="crispEdges"/>
</g>
<defs>
<filter id="filter0_d_58_269" x="-159.429" y="1.90735e-06" width="327.857" height="352.857" filterUnits="userSpaceOnUse" color-interpolation-filters="sRGB">
<feFlood flood-opacity="0" result="BackgroundImageFix"/>
<feColorMatrix in="SourceAlpha" type="matrix" values="0 0 0 0 0 0 0 0 0 0 0 0 0 0 0 0 0 0 127 0" result="hardAlpha"/>
<feOffset dy="9.42857"/>
<feGaussianBlur stdDeviation="15.7143"/>
<feComposite in2="hardAlpha" operator="out"/>
<feColorMatrix type="matrix" values="0 0 0 0 0.441667 0 0 0 0 0.720834 0 0 0 0 1 0 0 0 0.09 0"/>
<feBlend mode="normal" in2="BackgroundImageFix" result="effect1_dropShadow_58_269"/>
<feBlend mode="normal" in="SourceGraphic" in2="effect1_dropShadow_58_269" result="shape"/>
</filter>
<linearGradient id="paint0_linear_58_269" x1="-128" y1="167" x2="137" y2="167" gradientUnits="userSpaceOnUse">
<stop stop-color="#4D6FAC"/>
<stop offset="1" stop-color="#B1C0D0"/>
</linearGradient>
<linearGradient id="paint1_linear_58_269" x1="-128" y1="167" x2="137" y2="167" gradientUnits="userSpaceOnUse">
<stop stop-color="#4D6FAC"/>
<stop offset="1" stop-color="#B1C0D0"/>
</linearGradient>
</defs>
</svg>
