<svg width="12" height="12" viewBox="0 0 12 12" fill="none" xmlns="http://www.w3.org/2000/svg">
<path d="M1.51498 0.263347C1.17158 -0.0845984 0.61113 -0.0882813 0.263185 0.255121C-0.0847616 0.598523 -0.0884438 1.15897 0.254958 1.50692L0.884969 0.885132L1.51498 0.263347ZM10.6504 11.6708C11.1393 11.6741 11.5382 11.2804 11.5414 10.7915L11.5938 2.82512C11.597 2.33627 11.2033 1.93736 10.7144 1.93415C10.2256 1.93094 9.82666 2.32463 9.82345 2.81349L9.77691 9.89471L2.69569 9.84818C2.20683 9.84497 1.80793 10.2387 1.80472 10.7275C1.80151 11.2164 2.1952 11.6153 2.68405 11.6185L10.6504 11.6708ZM0.884969 0.885132L0.254958 1.50692L10.0262 11.4075L10.6562 10.7857L11.2863 10.1639L1.51498 0.263347L0.884969 0.885132Z" fill="#003C7E"/>
</svg>
