<svg width="5" height="8" viewBox="0 0 5 8" fill="none" xmlns="http://www.w3.org/2000/svg">
<path d="M2.90595 3.69151L0.155951 0.941507C0.0547521 0.836728 -0.00124479 0.696393 2.10015e-05 0.550728C0.00128679 0.405063 0.059714 0.265723 0.162718 0.162718C0.265723 0.059714 0.405063 0.00128679 0.550728 2.10014e-05C0.696393 -0.00124479 0.836727 0.0547521 0.941507 0.155951L4.08428 3.29873C4.18843 3.40291 4.24694 3.54419 4.24694 3.69151C4.24694 3.83882 4.18843 3.9801 4.08428 4.08428L0.941507 7.22706C0.836727 7.32826 0.696393 7.38426 0.550728 7.38299C0.405063 7.38173 0.265723 7.3233 0.162718 7.22029C0.059714 7.11729 0.00128679 6.97795 2.10015e-05 6.83228C-0.00124479 6.68662 0.0547521 6.54628 0.155951 6.44151L2.90595 3.69151Z" fill="white"/>
</svg>
