<svg width="22" height="13" viewBox="0 0 22 13" fill="none" xmlns="http://www.w3.org/2000/svg">
<path fill-rule="evenodd" clip-rule="evenodd" d="M11 13C6.23009 13 2.11726 9.42561 0.511062 7.78531V7.76083C-0.170354 7.05085 -0.170354 5.92467 0.511062 5.19021V5.16573C2.14159 3.57439 6.23009 0 11 0C15.7699 0 19.8827 3.57439 21.4889 5.21469V5.23917C22.1704 5.94915 22.1704 7.07533 21.4889 7.80979V7.83428C19.8827 9.45009 15.7942 13 11 13ZM11 11.4821C13.7257 11.4821 15.9403 9.25424 15.9403 6.51224C15.9403 3.77025 13.7257 1.54237 11 1.54237C8.27434 1.54237 6.05973 3.77025 6.05973 6.51224C6.05973 9.25424 8.27434 11.4821 11 11.4821ZM11 4.21092C12.2655 4.21092 13.2876 5.23917 13.2876 6.51224C13.2876 7.78531 12.2655 8.81356 11 8.81356C9.73451 8.81356 8.71239 7.78531 8.71239 6.51224C8.71239 5.23917 9.75885 4.21092 11 4.21092Z" fill="#003C7E"/>
</svg>
