<svg width="16" height="16" viewBox="0 0 16 16" fill="none" xmlns="http://www.w3.org/2000/svg">
<path d="M6.76403 0.400391C3.26403 0.400391 0.400391 3.2413 0.400391 6.76403C0.400391 10.264 3.2413 13.1277 6.76403 13.1277C8.44585 13.1277 9.96857 12.4913 11.1049 11.4231L15.014 15.3322C15.1049 15.4231 15.2413 15.4231 15.3322 15.3322C15.4231 15.2413 15.4231 15.1049 15.3322 15.014L11.4231 11.1049C12.4913 9.96857 13.1277 8.44585 13.1277 6.76403C13.1277 3.2413 10.264 0.400391 6.76403 0.400391ZM6.76403 0.854936C10.0368 0.854936 12.6731 3.4913 12.6731 6.76403C12.6731 10.0368 10.0368 12.6731 6.76403 12.6731C3.4913 12.6731 0.854936 10.0368 0.854936 6.76403C0.854936 3.4913 3.4913 0.854936 6.76403 0.854936Z" fill="#003C7E"/>
<path d="M13.1277 6.76403C13.1277 3.2413 10.264 0.400391 6.76403 0.400391C3.26403 0.400391 0.400391 3.2413 0.400391 6.76403C0.400391 10.1546 3.06637 12.9477 6.43555 13.1191L6.76403 13.1277C8.44585 13.1277 9.96857 12.4913 11.1049 11.4231L15.014 15.3322C15.1049 15.4231 15.2413 15.4231 15.3322 15.3322C15.4231 15.2413 15.4231 15.1049 15.3322 15.014L11.4231 11.1049C12.4245 10.0395 13.0464 8.63445 13.1201 7.07715L13.1277 6.76403ZM12.2734 6.76367C12.2732 3.71202 9.81537 1.25488 6.76367 1.25488C3.71214 1.25507 1.25508 3.71214 1.25488 6.76367C1.25488 9.81537 3.71202 12.2732 6.76367 12.2734L6.76403 12.6731C3.4913 12.6731 0.854936 10.0368 0.854936 6.76403C0.854936 3.4913 3.4913 0.854936 6.76403 0.854936C10.0368 0.854936 12.6731 3.4913 12.6731 6.76403C12.6731 10.0368 10.0368 12.6731 6.76403 12.6731L6.76367 12.2734C9.81549 12.2734 12.2734 9.81549 12.2734 6.76367ZM13.5273 6.76367C13.5273 8.40943 12.9513 9.91412 11.9707 11.0869L15.6152 14.7314C15.8621 14.9786 15.8623 15.3682 15.6152 15.6152C15.3682 15.8623 14.9786 15.8621 14.7314 15.6152L11.0869 11.9707C9.91412 12.9513 8.40943 13.5273 6.76367 13.5273C3.01927 13.5272 0 10.4835 0 6.76367C0.000194803 3.01938 3.04397 0.000192182 6.76367 0C10.4835 0 13.5271 3.01927 13.5273 6.76367Z" fill="#003C7E"/>
</svg>
