<svg width="16" height="17" viewBox="0 0 16 17" fill="none" xmlns="http://www.w3.org/2000/svg">
<path d="M0.299805 15.9998C0.299805 16.1598 0.440179 16.2998 0.600607 16.2998C0.761035 16.2998 0.901409 16.1598 0.901409 15.9998C0.901409 12.1998 3.98964 9.1198 7.7998 9.1198C11.61 9.1198 14.6982 12.1998 14.6982 15.9998C14.6982 16.1598 14.8386 16.2998 14.999 16.2998C15.1594 16.2998 15.2998 16.1598 15.2998 15.9998C15.2998 12.4998 12.8733 9.5398 9.60462 8.7198C11.1688 8.0198 12.2316 6.4998 12.2316 4.6998C12.2316 2.2798 10.2463 0.299805 7.81986 0.299805C5.39339 0.299805 3.40809 2.2798 3.40809 4.6998C3.40809 6.4798 4.47093 8.0198 6.01505 8.7198C2.72628 9.5398 0.299805 12.4798 0.299805 15.9998ZM4.0097 4.6998C4.0097 2.5998 5.71424 0.899805 7.81986 0.899805C9.92547 0.899805 11.63 2.5998 11.63 4.6998C11.63 6.7998 9.92547 8.4998 7.81986 8.4998C5.71424 8.4998 4.0097 6.7998 4.0097 4.6998Z" fill="#003C7E"/>
<path d="M12.2316 4.6998C12.2316 2.3554 10.3684 0.424042 8.0459 0.305664L7.81986 0.299805C5.39339 0.299805 3.40809 2.2798 3.40809 4.6998L3.41992 5.03027C3.54221 6.66872 4.56752 8.06344 6.01505 8.7198C2.72628 9.5398 0.299805 12.4798 0.299805 15.9998L0.305664 16.0586C0.334669 16.1926 0.460193 16.2998 0.600607 16.2998C0.741026 16.2998 0.866498 16.1926 0.895508 16.0586L0.901409 15.9998C0.901409 12.1998 3.98964 9.1198 7.7998 9.1198L8.15527 9.12891C11.8002 9.31339 14.6982 12.3187 14.6982 15.9998L14.7041 16.0586C14.729 16.1737 14.825 16.2693 14.9404 16.2939L14.999 16.2998C15.1394 16.2998 15.2649 16.1926 15.2939 16.0586L15.2998 15.9998C15.2998 12.4998 12.8733 9.5398 9.60462 8.7198C11.071 8.06359 12.0971 6.68678 12.2197 5.03418L12.2316 4.6998ZM11.3301 4.7002C11.3301 2.76679 9.76079 1.20044 7.82031 1.2002C5.87963 1.2002 4.30957 2.76664 4.30957 4.7002C4.30978 6.63358 5.87976 8.2002 7.82031 8.2002L7.81986 8.4998L7.62402 8.49512C5.67455 8.39687 4.11336 6.83973 4.01465 4.89551L4.0097 4.6998C4.0097 2.5998 5.71424 0.899805 7.81986 0.899805L8.01562 0.904297C10.0301 1.00578 11.63 2.66528 11.63 4.6998L11.625 4.89551C11.523 6.90426 9.85945 8.49957 7.81986 8.4998L7.82031 8.2002C9.76066 8.19995 11.3299 6.63342 11.3301 4.7002ZM12.5312 4.7002C12.5311 6.36246 11.6807 7.79819 10.375 8.63965C13.4153 9.71377 15.5996 12.6123 15.5996 16C15.5995 16.3263 15.3243 16.5996 14.999 16.5996C14.6737 16.5996 14.3985 16.3264 14.3984 16C14.3984 12.3664 11.445 9.41992 7.7998 9.41992C4.15457 9.41992 1.20117 12.3664 1.20117 16C1.20106 16.3264 0.925878 16.5996 0.600586 16.5996C0.275302 16.5996 0.000109982 16.3263 0 16C0 12.5904 2.18831 9.7063 5.24805 8.63672C3.95675 7.7909 3.10853 6.34305 3.1084 4.7002C3.1084 2.11375 5.22891 0 7.82031 0C10.4115 0.00024734 12.5312 2.11391 12.5312 4.7002Z" fill="#003C7E"/>
</svg>
