<svg width="20" height="20" viewBox="0 0 20 20" fill="none" xmlns="http://www.w3.org/2000/svg">
<path d="M5.45455 0C5.20455 0 5 0.200222 5 0.444939V3.15905C4.22727 3.35928 3.63636 4.04894 3.63636 4.89433C3.63636 5.87319 4.45455 6.67408 5.45455 6.67408C6.45455 6.67408 7.27273 5.87319 7.27273 4.89433C7.27273 4.07119 6.68182 3.38153 5.90909 3.18131V0.444939C5.90909 0.200222 5.70455 0 5.45455 0ZM14.5455 0C14.2955 0 14.0909 0.200222 14.0909 0.444939V3.15905C13.3182 3.35928 12.7273 4.04894 12.7273 4.89433C12.7273 5.87319 13.5455 6.67408 14.5455 6.67408C15.5455 6.67408 16.3636 5.87319 16.3636 4.89433C16.3636 4.07119 15.7727 3.38153 15 3.18131V0.444939C15 0.200222 14.7955 0 14.5455 0ZM2.27273 1.33482C1.02273 1.33482 0 2.33593 0 3.55951V17.7753C0 18.9989 1.02273 20 2.27273 20H17.7273C18.9773 20 20 18.9989 20 17.7753V3.55951C20 2.33593 18.9773 1.33482 17.7273 1.33482H16.3636C16.1136 1.33482 15.9091 1.53504 15.9091 1.77975C15.9091 2.02447 16.1364 2.22469 16.3636 2.22469H17.7273C18.5 2.22469 19.0909 2.82536 19.0909 3.55951V7.56396H0.909091V3.55951C0.909091 2.80311 1.52273 2.22469 2.27273 2.22469H3.63636C3.88636 2.22469 4.09091 2.02447 4.09091 1.77975C4.09091 1.53504 3.86364 1.33482 3.63636 1.33482H2.27273ZM7.27273 1.33482C7.02273 1.33482 6.81818 1.53504 6.81818 1.77975C6.81818 2.02447 7.02273 2.22469 7.27273 2.22469H12.7273C12.9773 2.22469 13.1818 2.02447 13.1818 1.77975C13.1818 1.53504 12.9773 1.33482 12.7273 1.33482H7.27273ZM5.45455 4.00445C5.95455 4.00445 6.36364 4.40489 6.36364 4.89433C6.36364 5.38376 5.95455 5.7842 5.45455 5.7842C4.95455 5.7842 4.54545 5.38376 4.54545 4.89433C4.54545 4.38265 4.95455 4.00445 5.45455 4.00445ZM14.5455 4.00445C15.0455 4.00445 15.4545 4.40489 15.4545 4.89433C15.4545 5.38376 15.0455 5.7842 14.5455 5.7842C14.0455 5.7842 13.6364 5.38376 13.6364 4.89433C13.6364 4.38265 14.0455 4.00445 14.5455 4.00445ZM0.909091 8.45384H19.0909V17.7975C19.0909 18.5539 18.4773 19.1324 17.7273 19.1324H2.27273C1.5 19.1324 0.909091 18.5317 0.909091 17.7975V8.45384Z" fill="white"/>
</svg>
