<svg width="20" height="21" viewBox="0 0 20 21" fill="none" xmlns="http://www.w3.org/2000/svg">
<mask id="path-1-outside-1_89_497" maskUnits="userSpaceOnUse" x="-0.799805" y="-0.800049" width="21" height="22" fill="black">
<rect fill="white" x="-0.799805" y="-0.800049" width="21" height="22"/>
<path d="M19.1976 19.7036C19.1108 18.5813 19.0674 17.4806 19.0024 16.3799C18.9373 15.1929 18.7205 14.0491 17.9398 13.0995C17.6363 12.6247 17.2242 12.3009 16.7255 12.0635C16.6604 12.0204 16.5954 11.9988 16.5303 11.9556C15.4244 11.4161 14.2101 11.1787 13.0174 10.8549C12.909 10.8333 12.8005 10.7902 12.7572 10.7039C12.7355 10.6607 12.7355 10.5959 12.7355 10.5312C12.7355 10.2722 12.7138 9.97006 12.7355 9.71108C12.7572 9.56 12.9523 9.3226 12.9523 9.25786C13.7547 8.2435 14.1667 7.09965 14.4052 5.82631C14.7739 3.75443 13.7113 1.63939 11.803 0.689784C10.5887 0.128651 9.22256 0.020741 7.96484 0.517128C5.49278 1.48832 4.56033 4.09975 5.16751 6.53852C5.42772 7.50971 5.79636 8.43774 6.46859 9.21469C6.49028 9.25786 6.53365 9.30102 6.55533 9.34418C6.75049 9.60317 6.83723 10.337 6.66376 10.6391C6.62039 10.7254 6.51196 10.7902 6.42522 10.8549C5.90479 11.1571 5.34098 11.1787 4.77718 11.3729C3.758 11.7182 2.71713 11.9556 1.89311 12.6894C1.50278 12.9915 1.22088 13.38 1.02571 13.8117C0.808866 14.2001 0.635388 14.5886 0.570334 15.0203C0.331801 16.5958 0.288432 18.2144 0.201693 19.8331C0.180008 20.1784 0.396856 20.2 0.657073 20.2C6.68544 20.2 12.7138 20.2 18.7422 20.2C19.1108 20.2 19.2192 20.0489 19.1976 19.7036ZM7.98653 12.8836C7.61789 12.1067 7.3143 11.3297 7.22756 10.4664C7.22756 10.3585 7.24924 10.2506 7.24924 10.1211C7.44441 10.229 7.5962 10.337 7.76968 10.4449C8.83223 11.1139 9.93816 11.1571 11.0875 10.7039C11.4995 10.5528 11.8681 10.3154 12.2151 10.0348C12.2151 11.0276 11.8247 11.9124 11.4561 12.8189C10.8923 13.8332 10.3719 14.8692 9.74299 15.862C9.22256 15.1713 8.85392 14.416 8.39854 13.7038C8.24674 13.4232 8.11664 13.1642 7.98653 12.8836ZM17.8748 13.9627C18.0699 14.3728 18.2651 14.8044 18.3085 15.2577C18.5036 16.7037 18.5036 18.1712 18.6338 19.6172C18.0916 19.6172 17.5278 19.6172 16.9857 19.6388C16.9857 19.6172 16.964 19.5741 16.964 19.5525C16.964 19.2935 17.0508 18.9482 16.6604 18.9914C16.3352 19.0345 16.4219 19.3583 16.4653 19.5957C16.4436 19.6388 16.4436 19.6604 16.4219 19.682C16.4436 19.6604 16.4653 19.6388 16.4653 19.6172C16.4002 19.6388 16.3352 19.6604 16.2484 19.6604C14.1884 19.6604 12.1283 19.6604 10.0683 19.6388C10.0683 18.6676 10.0683 17.6964 10.0466 16.7037C10.0466 16.4663 10.0899 16.2504 10.2201 16.0562C10.5887 15.5598 10.8706 15.0203 11.1742 14.4807C11.7163 13.5527 12.1934 12.5815 12.497 11.5456C12.5837 11.2866 12.7138 11.2434 12.9307 11.265C13.3644 11.3513 13.5378 11.7182 13.733 12.0635C13.7547 12.1498 13.798 12.2578 13.8197 12.3441C13.9065 12.6894 14.1016 13.0563 13.9715 13.38C13.8631 13.6174 13.4511 13.5743 13.2126 13.7038C13.1909 13.7253 13.1692 13.7253 13.1258 13.7469C12.562 14.0059 12.5403 14.0707 12.8005 14.6102C12.9307 14.8692 13.0391 15.1282 12.974 15.4303C12.3235 16.0562 11.6946 16.7037 11.0441 17.3295C10.914 17.459 10.8272 17.5885 10.9357 17.7396C11.0224 17.8907 11.1742 17.9554 11.326 17.7828C11.9982 17.1137 12.6921 16.4878 13.3427 15.7972C13.7113 15.4303 13.5378 14.9771 13.3427 14.567C13.2126 14.2649 13.2993 14.157 13.5812 14.1138C13.6463 14.1138 13.6896 14.0707 13.733 14.0491C14.557 13.7901 14.6221 13.6606 14.4486 12.7973C14.3618 12.4304 14.2751 12.0851 14.1233 11.6966C15.6413 12.1283 17.0508 12.5815 17.8748 13.9627ZM6.01321 7.48813C5.49278 6.02055 5.18919 4.46664 5.94816 3.02064C7.66125 -0.281408 12.8656 0.236562 13.7764 3.90551C14.2101 5.67524 13.5812 7.59604 12.4753 8.99887C11.4561 10.2938 9.41772 10.9628 7.96484 9.94848C7.05408 9.3226 6.49028 8.43774 6.01321 7.48813ZM6.01321 17.5454C5.77468 17.5454 5.55783 17.5885 5.34098 17.4375C5.05908 17.2216 4.8856 16.9411 4.99403 16.5742C5.10245 16.1641 5.44941 15.9699 6.01321 15.9699C6.77218 16.4663 6.77218 17.0274 6.01321 17.5454ZM5.08077 11.8261C5.18919 11.8045 5.21088 11.8477 5.16751 12.0419C5.10245 12.2578 5.01571 12.452 4.97234 12.6678C4.7555 13.7901 4.77718 13.8332 5.92647 14.157C5.99153 14.2433 6.18669 14.2433 6.07827 14.4375C5.92647 14.6965 5.8831 14.9771 5.90479 15.2792C5.92647 15.4735 5.79636 15.4303 5.68794 15.4519C4.99403 15.5382 4.53865 15.9267 4.43022 16.531C4.3218 17.1137 4.62539 17.6533 5.23256 17.977C5.86142 18.2144 6.46859 18.0633 6.85892 17.5454C7.20587 17.0921 7.20587 16.3583 6.77218 15.9483C6.36017 15.5598 6.40354 15.1498 6.53365 14.6749C6.75049 14.416 7.01071 14.157 6.53365 13.898C6.25174 13.7685 5.96984 13.6174 5.66626 13.5311C5.38435 13.4448 5.38435 13.2937 5.42772 13.0779C5.51446 12.5599 5.68794 12.0851 5.92647 11.6103C6.01321 11.5671 6.0349 11.4592 6.14332 11.4161C6.72881 11.1355 6.75049 11.1355 6.94566 11.7398C7.50946 13.4448 8.37685 14.9987 9.48278 16.4231C9.56952 17.4806 9.52615 18.5597 9.50446 19.6388C7.35767 19.6388 5.18919 19.6388 3.0424 19.6388C2.97734 19.423 3.15082 19.0345 2.7605 19.0129C2.30512 18.9914 2.54365 19.423 2.43522 19.6388C2.15332 19.6388 1.84974 19.6388 1.56783 19.6388C1.17751 19.6388 0.722127 19.8115 0.765497 19.2288C0.787182 18.4734 0.852236 17.6964 0.91729 16.9411C1.00403 15.6246 1.06908 14.2649 2.0449 13.2721C2.84724 12.452 3.99653 12.1283 5.08077 11.8261ZM14.7088 16.7468C14.8823 16.6173 14.7305 16.2504 14.7739 16.013C14.7955 15.8404 14.8606 15.7325 15.0341 15.7109C15.2292 15.7109 15.316 15.8188 15.3594 15.9915C15.4027 16.2504 15.2292 16.6173 15.4461 16.7684C15.6196 16.8979 15.9448 16.79 16.2051 16.8116C16.3568 16.8116 16.487 16.8979 16.487 17.0706C16.487 17.2648 16.3785 17.3511 16.1834 17.3727C16.0966 17.3727 16.0099 17.3727 15.9232 17.3727C15.3594 17.3727 15.3594 17.3727 15.3594 17.9554C15.316 18.1712 15.4895 18.5813 15.0558 18.5813C14.6438 18.5597 14.7739 18.1712 14.7955 17.9123C14.8389 17.459 14.6871 17.2864 14.2317 17.3727C14.145 17.3943 14.0583 17.3727 13.9715 17.3727C13.798 17.3511 13.6896 17.2648 13.6896 17.1137C13.6679 16.9195 13.798 16.8116 13.9932 16.8116C14.2101 16.79 14.5353 16.8763 14.7088 16.7468Z"/>
</mask>
<path d="M19.1976 19.7036C19.1108 18.5813 19.0674 17.4806 19.0024 16.3799C18.9373 15.1929 18.7205 14.0491 17.9398 13.0995C17.6363 12.6247 17.2242 12.3009 16.7255 12.0635C16.6604 12.0204 16.5954 11.9988 16.5303 11.9556C15.4244 11.4161 14.2101 11.1787 13.0174 10.8549C12.909 10.8333 12.8005 10.7902 12.7572 10.7039C12.7355 10.6607 12.7355 10.5959 12.7355 10.5312C12.7355 10.2722 12.7138 9.97006 12.7355 9.71108C12.7572 9.56 12.9523 9.3226 12.9523 9.25786C13.7547 8.2435 14.1667 7.09965 14.4052 5.82631C14.7739 3.75443 13.7113 1.63939 11.803 0.689784C10.5887 0.128651 9.22256 0.020741 7.96484 0.517128C5.49278 1.48832 4.56033 4.09975 5.16751 6.53852C5.42772 7.50971 5.79636 8.43774 6.46859 9.21469C6.49028 9.25786 6.53365 9.30102 6.55533 9.34418C6.75049 9.60317 6.83723 10.337 6.66376 10.6391C6.62039 10.7254 6.51196 10.7902 6.42522 10.8549C5.90479 11.1571 5.34098 11.1787 4.77718 11.3729C3.758 11.7182 2.71713 11.9556 1.89311 12.6894C1.50278 12.9915 1.22088 13.38 1.02571 13.8117C0.808866 14.2001 0.635388 14.5886 0.570334 15.0203C0.331801 16.5958 0.288432 18.2144 0.201693 19.8331C0.180008 20.1784 0.396856 20.2 0.657073 20.2C6.68544 20.2 12.7138 20.2 18.7422 20.2C19.1108 20.2 19.2192 20.0489 19.1976 19.7036ZM7.98653 12.8836C7.61789 12.1067 7.3143 11.3297 7.22756 10.4664C7.22756 10.3585 7.24924 10.2506 7.24924 10.1211C7.44441 10.229 7.5962 10.337 7.76968 10.4449C8.83223 11.1139 9.93816 11.1571 11.0875 10.7039C11.4995 10.5528 11.8681 10.3154 12.2151 10.0348C12.2151 11.0276 11.8247 11.9124 11.4561 12.8189C10.8923 13.8332 10.3719 14.8692 9.74299 15.862C9.22256 15.1713 8.85392 14.416 8.39854 13.7038C8.24674 13.4232 8.11664 13.1642 7.98653 12.8836ZM17.8748 13.9627C18.0699 14.3728 18.2651 14.8044 18.3085 15.2577C18.5036 16.7037 18.5036 18.1712 18.6338 19.6172C18.0916 19.6172 17.5278 19.6172 16.9857 19.6388C16.9857 19.6172 16.964 19.5741 16.964 19.5525C16.964 19.2935 17.0508 18.9482 16.6604 18.9914C16.3352 19.0345 16.4219 19.3583 16.4653 19.5957C16.4436 19.6388 16.4436 19.6604 16.4219 19.682C16.4436 19.6604 16.4653 19.6388 16.4653 19.6172C16.4002 19.6388 16.3352 19.6604 16.2484 19.6604C14.1884 19.6604 12.1283 19.6604 10.0683 19.6388C10.0683 18.6676 10.0683 17.6964 10.0466 16.7037C10.0466 16.4663 10.0899 16.2504 10.2201 16.0562C10.5887 15.5598 10.8706 15.0203 11.1742 14.4807C11.7163 13.5527 12.1934 12.5815 12.497 11.5456C12.5837 11.2866 12.7138 11.2434 12.9307 11.265C13.3644 11.3513 13.5378 11.7182 13.733 12.0635C13.7547 12.1498 13.798 12.2578 13.8197 12.3441C13.9065 12.6894 14.1016 13.0563 13.9715 13.38C13.8631 13.6174 13.4511 13.5743 13.2126 13.7038C13.1909 13.7253 13.1692 13.7253 13.1258 13.7469C12.562 14.0059 12.5403 14.0707 12.8005 14.6102C12.9307 14.8692 13.0391 15.1282 12.974 15.4303C12.3235 16.0562 11.6946 16.7037 11.0441 17.3295C10.914 17.459 10.8272 17.5885 10.9357 17.7396C11.0224 17.8907 11.1742 17.9554 11.326 17.7828C11.9982 17.1137 12.6921 16.4878 13.3427 15.7972C13.7113 15.4303 13.5378 14.9771 13.3427 14.567C13.2126 14.2649 13.2993 14.157 13.5812 14.1138C13.6463 14.1138 13.6896 14.0707 13.733 14.0491C14.557 13.7901 14.6221 13.6606 14.4486 12.7973C14.3618 12.4304 14.2751 12.0851 14.1233 11.6966C15.6413 12.1283 17.0508 12.5815 17.8748 13.9627ZM6.01321 7.48813C5.49278 6.02055 5.18919 4.46664 5.94816 3.02064C7.66125 -0.281408 12.8656 0.236562 13.7764 3.90551C14.2101 5.67524 13.5812 7.59604 12.4753 8.99887C11.4561 10.2938 9.41772 10.9628 7.96484 9.94848C7.05408 9.3226 6.49028 8.43774 6.01321 7.48813ZM6.01321 17.5454C5.77468 17.5454 5.55783 17.5885 5.34098 17.4375C5.05908 17.2216 4.8856 16.9411 4.99403 16.5742C5.10245 16.1641 5.44941 15.9699 6.01321 15.9699C6.77218 16.4663 6.77218 17.0274 6.01321 17.5454ZM5.08077 11.8261C5.18919 11.8045 5.21088 11.8477 5.16751 12.0419C5.10245 12.2578 5.01571 12.452 4.97234 12.6678C4.7555 13.7901 4.77718 13.8332 5.92647 14.157C5.99153 14.2433 6.18669 14.2433 6.07827 14.4375C5.92647 14.6965 5.8831 14.9771 5.90479 15.2792C5.92647 15.4735 5.79636 15.4303 5.68794 15.4519C4.99403 15.5382 4.53865 15.9267 4.43022 16.531C4.3218 17.1137 4.62539 17.6533 5.23256 17.977C5.86142 18.2144 6.46859 18.0633 6.85892 17.5454C7.20587 17.0921 7.20587 16.3583 6.77218 15.9483C6.36017 15.5598 6.40354 15.1498 6.53365 14.6749C6.75049 14.416 7.01071 14.157 6.53365 13.898C6.25174 13.7685 5.96984 13.6174 5.66626 13.5311C5.38435 13.4448 5.38435 13.2937 5.42772 13.0779C5.51446 12.5599 5.68794 12.0851 5.92647 11.6103C6.01321 11.5671 6.0349 11.4592 6.14332 11.4161C6.72881 11.1355 6.75049 11.1355 6.94566 11.7398C7.50946 13.4448 8.37685 14.9987 9.48278 16.4231C9.56952 17.4806 9.52615 18.5597 9.50446 19.6388C7.35767 19.6388 5.18919 19.6388 3.0424 19.6388C2.97734 19.423 3.15082 19.0345 2.7605 19.0129C2.30512 18.9914 2.54365 19.423 2.43522 19.6388C2.15332 19.6388 1.84974 19.6388 1.56783 19.6388C1.17751 19.6388 0.722127 19.8115 0.765497 19.2288C0.787182 18.4734 0.852236 17.6964 0.91729 16.9411C1.00403 15.6246 1.06908 14.2649 2.0449 13.2721C2.84724 12.452 3.99653 12.1283 5.08077 11.8261ZM14.7088 16.7468C14.8823 16.6173 14.7305 16.2504 14.7739 16.013C14.7955 15.8404 14.8606 15.7325 15.0341 15.7109C15.2292 15.7109 15.316 15.8188 15.3594 15.9915C15.4027 16.2504 15.2292 16.6173 15.4461 16.7684C15.6196 16.8979 15.9448 16.79 16.2051 16.8116C16.3568 16.8116 16.487 16.8979 16.487 17.0706C16.487 17.2648 16.3785 17.3511 16.1834 17.3727C16.0966 17.3727 16.0099 17.3727 15.9232 17.3727C15.3594 17.3727 15.3594 17.3727 15.3594 17.9554C15.316 18.1712 15.4895 18.5813 15.0558 18.5813C14.6438 18.5597 14.7739 18.1712 14.7955 17.9123C14.8389 17.459 14.6871 17.2864 14.2317 17.3727C14.145 17.3943 14.0583 17.3727 13.9715 17.3727C13.798 17.3511 13.6896 17.2648 13.6896 17.1137C13.6679 16.9195 13.798 16.8116 13.9932 16.8116C14.2101 16.79 14.5353 16.8763 14.7088 16.7468Z" fill="white"/>
<path d="M19.1976 19.7036C19.1108 18.5813 19.0674 17.4806 19.0024 16.3799C18.9373 15.1929 18.7205 14.0491 17.9398 13.0995C17.6363 12.6247 17.2242 12.3009 16.7255 12.0635C16.6604 12.0204 16.5954 11.9988 16.5303 11.9556C15.4244 11.4161 14.2101 11.1787 13.0174 10.8549C12.909 10.8333 12.8005 10.7902 12.7572 10.7039C12.7355 10.6607 12.7355 10.5959 12.7355 10.5312C12.7355 10.2722 12.7138 9.97006 12.7355 9.71108C12.7572 9.56 12.9523 9.3226 12.9523 9.25786C13.7547 8.2435 14.1667 7.09965 14.4052 5.82631C14.7739 3.75443 13.7113 1.63939 11.803 0.689784C10.5887 0.128651 9.22256 0.020741 7.96484 0.517128C5.49278 1.48832 4.56033 4.09975 5.16751 6.53852C5.42772 7.50971 5.79636 8.43774 6.46859 9.21469C6.49028 9.25786 6.53365 9.30102 6.55533 9.34418C6.75049 9.60317 6.83723 10.337 6.66376 10.6391C6.62039 10.7254 6.51196 10.7902 6.42522 10.8549C5.90479 11.1571 5.34098 11.1787 4.77718 11.3729C3.758 11.7182 2.71713 11.9556 1.89311 12.6894C1.50278 12.9915 1.22088 13.38 1.02571 13.8117C0.808866 14.2001 0.635388 14.5886 0.570334 15.0203C0.331801 16.5958 0.288432 18.2144 0.201693 19.8331C0.180008 20.1784 0.396856 20.2 0.657073 20.2C6.68544 20.2 12.7138 20.2 18.7422 20.2C19.1108 20.2 19.2192 20.0489 19.1976 19.7036ZM7.98653 12.8836C7.61789 12.1067 7.3143 11.3297 7.22756 10.4664C7.22756 10.3585 7.24924 10.2506 7.24924 10.1211C7.44441 10.229 7.5962 10.337 7.76968 10.4449C8.83223 11.1139 9.93816 11.1571 11.0875 10.7039C11.4995 10.5528 11.8681 10.3154 12.2151 10.0348C12.2151 11.0276 11.8247 11.9124 11.4561 12.8189C10.8923 13.8332 10.3719 14.8692 9.74299 15.862C9.22256 15.1713 8.85392 14.416 8.39854 13.7038C8.24674 13.4232 8.11664 13.1642 7.98653 12.8836ZM17.8748 13.9627C18.0699 14.3728 18.2651 14.8044 18.3085 15.2577C18.5036 16.7037 18.5036 18.1712 18.6338 19.6172C18.0916 19.6172 17.5278 19.6172 16.9857 19.6388C16.9857 19.6172 16.964 19.5741 16.964 19.5525C16.964 19.2935 17.0508 18.9482 16.6604 18.9914C16.3352 19.0345 16.4219 19.3583 16.4653 19.5957C16.4436 19.6388 16.4436 19.6604 16.4219 19.682C16.4436 19.6604 16.4653 19.6388 16.4653 19.6172C16.4002 19.6388 16.3352 19.6604 16.2484 19.6604C14.1884 19.6604 12.1283 19.6604 10.0683 19.6388C10.0683 18.6676 10.0683 17.6964 10.0466 16.7037C10.0466 16.4663 10.0899 16.2504 10.2201 16.0562C10.5887 15.5598 10.8706 15.0203 11.1742 14.4807C11.7163 13.5527 12.1934 12.5815 12.497 11.5456C12.5837 11.2866 12.7138 11.2434 12.9307 11.265C13.3644 11.3513 13.5378 11.7182 13.733 12.0635C13.7547 12.1498 13.798 12.2578 13.8197 12.3441C13.9065 12.6894 14.1016 13.0563 13.9715 13.38C13.8631 13.6174 13.4511 13.5743 13.2126 13.7038C13.1909 13.7253 13.1692 13.7253 13.1258 13.7469C12.562 14.0059 12.5403 14.0707 12.8005 14.6102C12.9307 14.8692 13.0391 15.1282 12.974 15.4303C12.3235 16.0562 11.6946 16.7037 11.0441 17.3295C10.914 17.459 10.8272 17.5885 10.9357 17.7396C11.0224 17.8907 11.1742 17.9554 11.326 17.7828C11.9982 17.1137 12.6921 16.4878 13.3427 15.7972C13.7113 15.4303 13.5378 14.9771 13.3427 14.567C13.2126 14.2649 13.2993 14.157 13.5812 14.1138C13.6463 14.1138 13.6896 14.0707 13.733 14.0491C14.557 13.7901 14.6221 13.6606 14.4486 12.7973C14.3618 12.4304 14.2751 12.0851 14.1233 11.6966C15.6413 12.1283 17.0508 12.5815 17.8748 13.9627ZM6.01321 7.48813C5.49278 6.02055 5.18919 4.46664 5.94816 3.02064C7.66125 -0.281408 12.8656 0.236562 13.7764 3.90551C14.2101 5.67524 13.5812 7.59604 12.4753 8.99887C11.4561 10.2938 9.41772 10.9628 7.96484 9.94848C7.05408 9.3226 6.49028 8.43774 6.01321 7.48813ZM6.01321 17.5454C5.77468 17.5454 5.55783 17.5885 5.34098 17.4375C5.05908 17.2216 4.8856 16.9411 4.99403 16.5742C5.10245 16.1641 5.44941 15.9699 6.01321 15.9699C6.77218 16.4663 6.77218 17.0274 6.01321 17.5454ZM5.08077 11.8261C5.18919 11.8045 5.21088 11.8477 5.16751 12.0419C5.10245 12.2578 5.01571 12.452 4.97234 12.6678C4.7555 13.7901 4.77718 13.8332 5.92647 14.157C5.99153 14.2433 6.18669 14.2433 6.07827 14.4375C5.92647 14.6965 5.8831 14.9771 5.90479 15.2792C5.92647 15.4735 5.79636 15.4303 5.68794 15.4519C4.99403 15.5382 4.53865 15.9267 4.43022 16.531C4.3218 17.1137 4.62539 17.6533 5.23256 17.977C5.86142 18.2144 6.46859 18.0633 6.85892 17.5454C7.20587 17.0921 7.20587 16.3583 6.77218 15.9483C6.36017 15.5598 6.40354 15.1498 6.53365 14.6749C6.75049 14.416 7.01071 14.157 6.53365 13.898C6.25174 13.7685 5.96984 13.6174 5.66626 13.5311C5.38435 13.4448 5.38435 13.2937 5.42772 13.0779C5.51446 12.5599 5.68794 12.0851 5.92647 11.6103C6.01321 11.5671 6.0349 11.4592 6.14332 11.4161C6.72881 11.1355 6.75049 11.1355 6.94566 11.7398C7.50946 13.4448 8.37685 14.9987 9.48278 16.4231C9.56952 17.4806 9.52615 18.5597 9.50446 19.6388C7.35767 19.6388 5.18919 19.6388 3.0424 19.6388C2.97734 19.423 3.15082 19.0345 2.7605 19.0129C2.30512 18.9914 2.54365 19.423 2.43522 19.6388C2.15332 19.6388 1.84974 19.6388 1.56783 19.6388C1.17751 19.6388 0.722127 19.8115 0.765497 19.2288C0.787182 18.4734 0.852236 17.6964 0.91729 16.9411C1.00403 15.6246 1.06908 14.2649 2.0449 13.2721C2.84724 12.452 3.99653 12.1283 5.08077 11.8261ZM14.7088 16.7468C14.8823 16.6173 14.7305 16.2504 14.7739 16.013C14.7955 15.8404 14.8606 15.7325 15.0341 15.7109C15.2292 15.7109 15.316 15.8188 15.3594 15.9915C15.4027 16.2504 15.2292 16.6173 15.4461 16.7684C15.6196 16.8979 15.9448 16.79 16.2051 16.8116C16.3568 16.8116 16.487 16.8979 16.487 17.0706C16.487 17.2648 16.3785 17.3511 16.1834 17.3727C16.0966 17.3727 16.0099 17.3727 15.9232 17.3727C15.3594 17.3727 15.3594 17.3727 15.3594 17.9554C15.316 18.1712 15.4895 18.5813 15.0558 18.5813C14.6438 18.5597 14.7739 18.1712 14.7955 17.9123C14.8389 17.459 14.6871 17.2864 14.2317 17.3727C14.145 17.3943 14.0583 17.3727 13.9715 17.3727C13.798 17.3511 13.6896 17.2648 13.6896 17.1137C13.6679 16.9195 13.798 16.8116 13.9932 16.8116C14.2101 16.79 14.5353 16.8763 14.7088 16.7468Z" stroke="white" stroke-width="0.4" mask="url(#path-1-outside-1_89_497)"/>
</svg>
