<svg width="21" height="21" viewBox="0 0 21 21" fill="none" xmlns="http://www.w3.org/2000/svg">
<path d="M5.29443 0.0620117C5.61036 0.0224065 5.92426 0.0818691 6.21729 0.239746C6.55106 0.419666 6.78423 0.677958 6.91357 1.03857L8.46045 4.81006L8.50439 4.92627C8.59443 5.1969 8.60548 5.46902 8.5376 5.74072C8.46026 6.04987 8.30581 6.30729 8.07568 6.5376L8.07373 6.53955L6.67627 7.81299L6.67334 7.81494C6.55991 7.90581 6.49059 8.04414 6.46729 8.18408C6.44408 8.34833 6.46758 8.51295 6.53857 8.6792L6.71924 9.04443C7.17303 9.89986 7.84118 10.7782 8.62451 11.562C9.51965 12.4577 10.5127 13.2025 11.5034 13.6489C11.6703 13.7205 11.8366 13.7437 12.0015 13.7202C12.1409 13.6967 12.278 13.6273 12.3687 13.5142L12.3706 13.5112H12.3716L13.644 12.1128L13.646 12.1118C13.8456 11.9121 14.0683 11.7466 14.3315 11.6733L14.4468 11.6479C14.7559 11.5715 15.065 11.5978 15.3726 11.7261L19.1665 13.2739L19.1655 13.2749C19.4824 13.3886 19.7191 13.6002 19.8931 13.8569L19.9644 13.9692L19.9653 13.9722C20.0998 14.2413 20.1769 14.5516 20.1421 14.8843L20.1196 15.0288L19.3706 18.6997C19.319 18.9578 19.1909 19.2156 19.0356 19.397H19.0347C18.8536 19.6041 18.6471 19.7334 18.3921 19.8354C18.3719 19.8492 18.3503 19.8573 18.3345 19.8618C18.3107 19.8686 18.2907 19.8734 18.271 19.8833L18.2603 19.8892H18.2485C18.2326 19.8892 18.2203 19.8927 18.2017 19.8989C18.185 19.9045 18.1628 19.9091 18.1343 19.9106L18.1353 19.9126C16.6787 20.2643 15.1231 20.2136 13.5942 19.8374C10.6632 19.1354 7.71046 17.3066 5.33447 14.9292C3.10717 12.7005 1.29533 9.92037 0.499512 7.16455L0.354004 6.61377C0.00339787 5.06013 -0.0729062 3.52782 0.278809 2.06982L0.281738 2.05908L0.327637 2.08154L0.282715 2.05908C0.292487 2.03945 0.29746 2.02021 0.304199 1.99658C0.308586 1.98122 0.316605 1.95977 0.32959 1.93994C0.331991 1.91359 0.338458 1.89203 0.348145 1.87256C0.353643 1.86156 0.360154 1.84999 0.365723 1.84033C0.37148 1.83034 0.377823 1.82102 0.383301 1.81006C0.485038 1.55669 0.612991 1.3507 0.818848 1.17041C1.02595 0.989083 1.25912 0.885902 1.51611 0.834473L5.15967 0.0844727L5.29443 0.0620117ZM1.05127 2.23193L1.1001 2.24365C0.777926 3.55796 0.827483 4.97298 1.17529 6.39014V6.39111C1.84663 9.17725 3.58811 11.992 5.87939 14.2847C8.02747 16.434 10.6334 18.0998 13.2241 18.8325L13.7427 18.9663L14.2739 19.0825C15.5114 19.3207 16.7379 19.3236 17.8872 19.0415L17.8989 19.0386V19.0396L17.9009 19.0386C17.9041 19.0373 17.9082 19.0359 17.9146 19.0327C17.9203 19.0298 17.9289 19.0254 17.938 19.022C17.9473 19.0185 17.9597 19.0151 17.9741 19.0151C17.9722 19.0151 17.9722 19.0152 17.9751 19.0142C17.9784 19.0129 17.9822 19.0106 17.9888 19.0073C17.9945 19.0044 18.004 19 18.0132 18.9966C18.0184 18.9946 18.0248 18.994 18.0317 18.9927C18.146 18.9467 18.2387 18.8778 18.3335 18.7837C18.404 18.6894 18.452 18.5952 18.5005 18.4497L19.2476 14.8091L19.2485 14.8052C19.2934 14.648 19.2497 14.4873 19.1772 14.3423C19.1092 14.206 18.9709 14.088 18.8286 14.0161L15.0376 12.4683C14.8925 12.4199 14.7515 12.3973 14.6128 12.4204C14.4768 12.4431 14.3609 12.5106 14.2417 12.6294L12.9692 14.0288L12.9683 14.0278C12.7355 14.2865 12.4272 14.4414 12.1206 14.5181L12.1167 14.519C11.782 14.5706 11.4484 14.5183 11.1177 14.3911L11.1147 14.3901C10.0343 13.9124 8.93124 13.0841 7.97998 12.1323C7.02813 11.1799 6.22521 10.0757 5.72314 8.99561C5.58894 8.70452 5.5317 8.41069 5.57178 8.11572L5.59521 7.98975C5.64738 7.68043 5.80255 7.37068 6.08643 7.13818L7.48193 5.86572L7.48486 5.86377C7.59817 5.77301 7.66753 5.63539 7.69092 5.49561C7.71496 5.35126 7.71413 5.21323 7.646 5.07666L7.64404 5.07275L6.12158 1.32666V1.32568C6.0514 1.16286 5.93531 1.04755 5.79639 0.978027C5.65657 0.908077 5.49228 0.884041 5.32666 0.907715L5.32568 0.906738L1.68604 1.65674H1.68506C1.56645 1.68052 1.45237 1.72726 1.36182 1.81787L1.35596 1.82275L1.35498 1.82178C1.2652 1.88931 1.19753 1.97985 1.15088 2.09326C1.15047 2.11631 1.14623 2.14701 1.12158 2.17822C1.12034 2.18345 1.12116 2.18875 1.11963 2.19287C1.11626 2.20186 1.11177 2.21054 1.10889 2.21631C1.10553 2.22303 1.10331 2.22761 1.10205 2.23096C1.10113 2.23351 1.10104 2.23354 1.10107 2.23193V2.24365L1.05127 2.23193Z" fill="white" stroke="white" stroke-width="0.1"/>
</svg>
