<svg width="20" height="20" viewBox="0 0 20 20" fill="none" xmlns="http://www.w3.org/2000/svg">
<path d="M1.58714 8.75274H7.38321C8.14135 8.75274 8.75275 8.14133 8.75275 7.3832V1.58713C8.75275 0.828998 8.14135 0.217599 7.38321 0.217599H1.58714C0.828999 0.217599 0.217599 0.828998 0.217599 1.58713V7.3832C0.217599 8.14133 0.828999 8.75274 1.58714 8.75274ZM0.755631 1.58713C0.755631 1.14693 1.12247 0.780086 1.56268 0.780086H7.35875C7.79896 0.780086 8.1658 1.14693 8.1658 1.58713V7.3832C8.1658 7.82341 7.79896 8.19025 7.35875 8.19025H1.58714C1.14693 8.19025 0.780087 7.82341 0.780087 7.3832V1.58713H0.755631Z" fill="white"/>
<path d="M19.7824 1.58713C19.7824 0.828998 19.171 0.217599 18.4128 0.217599H12.6168C11.8586 0.217599 11.2472 0.828998 11.2472 1.58713V7.3832C11.2472 8.14133 11.8586 8.75274 12.6168 8.75274H18.4128C19.171 8.75274 19.7824 8.14133 19.7824 7.3832V1.58713ZM19.2443 7.3832C19.2443 7.82341 18.8775 8.19025 18.4373 8.19025H12.6168C12.1766 8.19025 11.8097 7.82341 11.8097 7.3832V1.58713C11.8097 1.14693 12.1766 0.780086 12.6168 0.780086H18.4128C18.8531 0.780086 19.2199 1.14693 19.2199 1.58713V7.3832H19.2443Z" fill="white"/>
<path d="M1.58714 19.7824H7.38321C8.14135 19.7824 8.75275 19.171 8.75275 18.4129V12.6168C8.75275 11.8587 8.14135 11.2473 7.38321 11.2473H1.58714C0.828999 11.2473 0.217599 11.8587 0.217599 12.6168V18.4129C0.217599 19.171 0.828999 19.7824 1.58714 19.7824ZM0.755631 12.6168C0.755631 12.1766 1.12247 11.8098 1.56268 11.8098H7.35875C7.79896 11.8098 8.1658 12.1766 8.1658 12.6168V18.4129C8.1658 18.8531 7.79896 19.2199 7.35875 19.2199H1.58714C1.14693 19.2199 0.780087 18.8531 0.780087 18.4129V12.6168H0.755631Z" fill="white"/>
<path d="M15.5271 11.2473C13.1793 11.2473 11.2717 13.1548 11.2717 15.5026C11.2717 17.8504 13.1793 19.7824 15.5271 19.7824C17.8748 19.7824 19.7824 17.8748 19.7824 15.5271C19.7824 13.1793 17.8748 11.2473 15.5271 11.2473ZM15.5271 19.2444C13.4728 19.2444 11.8097 17.5814 11.8097 15.5271C11.8097 13.4728 13.4728 11.8098 15.5271 11.8098C17.5814 11.8098 19.2444 13.4728 19.2444 15.5271C19.2444 17.5814 17.5814 19.2444 15.5271 19.2444Z" fill="white"/>
<path d="M0 18.4131V12.6165C0.000164865 11.7385 0.708905 11.0298 1.58688 11.0296L1.58714 11.2473C0.828999 11.2473 0.217599 11.8587 0.217599 12.6168V18.4129L0.225029 18.5532C0.295007 19.245 0.876528 19.7823 1.58714 19.7824H7.38321L7.52362 19.775C8.16926 19.7096 8.68004 19.1989 8.74536 18.5532L8.75275 18.4129V12.6168C8.75259 11.9062 8.21531 11.3246 7.52362 11.2546L7.38321 11.2473L7.38351 11.0296C8.26146 11.0298 8.97022 11.7385 8.97039 12.6165V18.4131C8.97025 19.2911 8.26148 19.9998 7.38351 20H1.58688C0.708887 19.9999 0.000135692 19.2911 0 18.4131ZM11.054 15.5026C11.054 13.0348 13.0592 11.0296 15.527 11.0296C17.9965 11.0296 20 13.0608 20 15.527C20 17.9948 17.9949 20 15.527 20C13.0576 20 11.054 17.9688 11.054 15.5026ZM19.0266 15.527C19.0266 13.5928 17.4612 12.0274 15.527 12.0274C13.5928 12.0274 12.0274 13.5928 12.0274 15.527C12.0274 17.4612 13.5928 19.0266 15.527 19.0266L15.5271 19.2444C13.5368 19.2443 11.9144 17.6834 11.8151 15.7181L11.8097 15.5271C11.8097 13.4728 13.4728 11.8098 15.5271 11.8098L15.7181 11.8151C17.6834 11.9144 19.2443 13.5369 19.2444 15.5271C19.2444 17.5814 17.5814 19.2444 15.5271 19.2444L15.527 19.0266C17.4613 19.0266 19.0266 17.4613 19.0266 15.527ZM7.35909 19.0022L7.35875 19.2199H1.58714L1.58688 19.0022H7.35909ZM7.9482 18.4131V12.6165C7.94803 12.2966 7.67899 12.0276 7.35909 12.0274H1.56247C1.29693 12.0275 1.06865 12.2134 0.997771 12.4594V18.4131C0.997913 18.7331 1.26693 19.0021 1.58688 19.0022L1.58714 19.2199C1.17468 19.2198 0.826505 18.8976 0.784418 18.4949L0.780087 18.4129V12.6168H0.755631C0.755791 12.2044 1.07797 11.8561 1.48073 11.814L1.56268 11.8098H7.35875C7.79896 11.8098 8.1658 12.1766 8.1658 12.6168V18.4129L8.16155 18.4949C8.11947 18.8976 7.77117 19.2197 7.35875 19.2199L7.35909 19.0022C7.67901 19.002 7.94806 18.733 7.9482 18.4131ZM7.38351 11.0296L7.38321 11.2473H1.58714L1.58688 11.0296H7.38351ZM0 7.38351V1.58688C0.000136103 0.708888 0.708887 0.000137079 1.58688 0L1.58714 0.217599C0.828999 0.217599 0.217599 0.828998 0.217599 1.58713V7.3832L0.225029 7.52362C0.290369 8.16926 0.801121 8.68004 1.44677 8.74536L1.58714 8.75274H7.38321L7.52362 8.74536C8.16925 8.68003 8.68002 8.16924 8.74536 7.52362L8.75275 7.3832V1.58713C8.75262 0.876541 8.21533 0.295027 7.52362 0.225029L7.38321 0.217599L7.38351 0C8.26148 0.000159538 8.97025 0.708901 8.97039 1.58688V7.38351C8.97022 8.26146 8.26146 8.97023 7.38351 8.97039H1.58688C0.708905 8.97025 0.000164642 8.26147 0 7.38351ZM11.0296 7.38351V1.58688C11.0298 0.708894 11.7385 0.000147107 12.6165 0L12.6168 0.217599C11.8586 0.217599 11.2472 0.828998 11.2472 1.58713V7.3832L11.2546 7.52362C11.32 8.16925 11.8307 8.68003 12.4764 8.74536L12.6168 8.75274H18.4128L18.5532 8.74536C19.1989 8.68003 19.7096 8.16925 19.775 7.52362L19.7824 7.3832V1.58713C19.7822 0.876534 19.245 0.295018 18.5532 0.225029L18.4128 0.217599L18.4131 0C19.2911 0.00014882 19.9999 0.708895 20 1.58688V7.38351C19.9998 8.26147 19.2911 8.97024 18.4131 8.97039H12.6165C11.7385 8.97024 11.0298 8.26147 11.0296 7.38351ZM7.35909 7.97261L7.35875 8.19025H1.58714L1.58688 7.97261H7.35909ZM7.9482 7.38351V1.58688C7.94806 1.26696 7.67901 0.997961 7.35909 0.997771H1.56247C1.29692 0.99787 1.06864 1.18378 0.997771 1.42978V7.38351C0.997943 7.70343 1.26695 7.97247 1.58688 7.97261L1.58714 8.19025C1.1747 8.19011 0.82653 7.86797 0.784418 7.46524L0.780087 7.3832V1.58713H0.755631C0.755763 1.17467 1.07796 0.826486 1.48073 0.784418L1.56268 0.780086H7.35875C7.79896 0.780086 8.1658 1.14693 8.1658 1.58713V7.3832L8.16155 7.46524C8.11945 7.86795 7.77115 8.19007 7.35875 8.19025L7.35909 7.97261C7.67899 7.97242 7.94803 7.70341 7.9482 7.38351ZM18.4375 7.97261L18.4373 8.19025H12.6168L12.6165 7.97261H18.4375ZM19.0022 1.58688C19.0021 1.26693 18.7331 0.997926 18.4131 0.997771H12.6165C12.2966 0.997924 12.0275 1.26693 12.0274 1.58688V7.38351C12.0276 7.70343 12.2966 7.97246 12.6165 7.97261L12.6168 8.19025C12.2043 8.1901 11.8561 7.86797 11.814 7.46524L11.8097 7.3832V1.58713C11.8099 1.17469 12.132 0.826514 12.5348 0.784418L12.6168 0.780086H18.4128C18.8531 0.780086 19.2199 1.14693 19.2199 1.58713V7.3832H19.2443C19.2443 7.82341 18.8775 8.19025 18.4373 8.19025L18.4375 7.97261C18.7034 7.9725 18.9317 7.786 19.0022 7.53954V1.58688ZM18.4131 0L18.4128 0.217599H12.6168L12.6165 0H18.4131ZM7.38351 0L7.38321 0.217599H1.58714L1.58688 0H7.38351ZM11.2717 15.5026C11.2717 17.8504 13.1793 19.7824 15.5271 19.7824C17.8748 19.7824 19.7824 17.8748 19.7824 15.5271C19.7824 13.1793 17.8748 11.2473 15.5271 11.2473C13.1793 11.2473 11.2717 13.1548 11.2717 15.5026Z" fill="white"/>
</svg>
