<svg width="25" height="25" viewBox="0 0 25 25" fill="none" xmlns="http://www.w3.org/2000/svg">
<rect width="25" height="25" rx="12.5" fill="url(#paint0_linear_68_659)"/>
<path d="M11.6005 13.5275L15.038 10.09C15.1689 9.96351 15.3444 9.89351 15.5264 9.89509C15.7085 9.89667 15.8827 9.96971 16.0114 10.0985C16.1402 10.2272 16.2132 10.4014 16.2148 10.5835C16.2164 10.7656 16.1464 10.941 16.0199 11.0719L12.0914 15.0004C11.9612 15.1306 11.7846 15.2037 11.6005 15.2037C11.4163 15.2037 11.2397 15.1306 11.1095 15.0004L7.18102 11.0719C7.05452 10.941 6.98452 10.7656 6.9861 10.5835C6.98769 10.4014 7.06072 10.2272 7.18948 10.0985C7.31823 9.96971 7.49241 9.89667 7.67449 9.89509C7.85657 9.89351 8.03199 9.96351 8.16296 10.09L11.6005 13.5275Z" fill="white"/>
<defs>
<linearGradient id="paint0_linear_68_659" x1="0" y1="12.5" x2="25" y2="12.5" gradientUnits="userSpaceOnUse">
<stop stop-color="#4D6FAC"/>
<stop offset="1" stop-color="#B1C0D0"/>
</linearGradient>
</defs>
</svg>
