<svg width="18" height="18" viewBox="0 0 18 18" fill="none" xmlns="http://www.w3.org/2000/svg">
<path d="M5.48408 9.73981C5.48408 10.5783 5.7033 11.2523 6.14174 11.7619C6.59704 12.2552 7.2041 12.5018 7.96293 12.5018C8.50255 12.5018 9.0253 12.3538 9.53118 12.0579C10.0371 11.7455 10.4502 11.2934 10.7706 10.7016C11.1079 10.1097 11.2765 9.37812 11.2765 8.5068C11.2765 7.98071 11.1669 7.51217 10.9477 7.10116C10.7453 6.67372 10.4586 6.33669 10.0877 6.09009C9.73354 5.84349 9.31196 5.72019 8.82294 5.72019C8.28333 5.72019 7.75215 5.87637 7.2294 6.18873C6.72351 6.5011 6.30194 6.96142 5.96468 7.56971C5.64428 8.16155 5.48408 8.88492 5.48408 9.73981ZM4.21937 9.78913C4.21937 8.63832 4.45545 7.68479 4.92761 6.92854C5.39977 6.15585 5.98997 5.57223 6.69821 5.17766C7.40646 4.7831 8.1147 4.58582 8.82294 4.58582C9.51432 4.58582 10.0877 4.77488 10.543 5.153C10.9983 5.51469 11.3439 5.99967 11.58 6.60796C11.8161 7.1998 11.9341 7.84097 11.9341 8.53146C11.9341 9.56719 11.7318 10.4714 11.3271 11.2441C10.9392 12.0168 10.4249 12.6168 9.78413 13.0443C9.1602 13.4553 8.46039 13.6608 7.68469 13.6608C7.06077 13.6608 6.48743 13.5128 5.96468 13.2169C5.44193 12.9045 5.02035 12.4607 4.69996 11.8852C4.37956 11.2934 4.21937 10.5947 4.21937 9.78913ZM0.146974 9.73981C0.146974 8.39171 0.374623 7.13404 0.829922 5.96679C1.30208 4.79954 1.96817 3.78025 2.82818 2.90892C3.68818 2.03759 4.69996 1.36355 5.8635 0.886782C7.0439 0.393577 8.34235 0.146974 9.75883 0.146974C11.091 0.146974 12.2545 0.368916 13.2495 0.812801C14.2612 1.25669 15.1044 1.85675 15.7789 2.613C16.4703 3.35281 16.9846 4.19125 17.3218 5.12834C17.676 6.06543 17.853 7.02718 17.853 8.01359C17.853 9.06576 17.7097 9.96997 17.423 10.7262C17.1364 11.466 16.7569 12.0743 16.2848 12.5511C15.8295 13.0114 15.3405 13.3566 14.8177 13.5868C14.295 13.8005 13.7975 13.9074 13.3253 13.9074C12.8194 13.9074 12.3894 13.7759 12.0353 13.5128C11.6812 13.2333 11.4283 12.8634 11.2765 12.4031C11.1416 11.9263 11.1163 11.3838 11.2006 10.7755H11.0741L12.0353 4.80776H13.3L12.263 10.5043C12.2461 10.5865 12.2292 10.7098 12.2124 10.8742C12.2124 11.0221 12.2124 11.1454 12.2124 11.2441C12.2124 11.4742 12.2377 11.7126 12.2883 11.9592C12.3557 12.2058 12.4822 12.4113 12.6677 12.5757C12.8532 12.7401 13.123 12.8223 13.4771 12.8223C13.8818 12.8223 14.3287 12.6579 14.8177 12.3291C15.3236 11.9839 15.762 11.4578 16.133 10.7509C16.504 10.0275 16.6895 9.11508 16.6895 8.01359C16.6895 7.14226 16.5377 6.30381 16.2342 5.49825C15.9475 4.69268 15.5091 3.96931 14.9189 3.32815C14.3455 2.67054 13.6204 2.15267 12.7436 1.77455C11.8836 1.39643 10.8886 1.20737 9.75883 1.20737C8.49411 1.20737 7.339 1.42931 6.2935 1.87319C5.26487 2.30064 4.37956 2.9007 3.6376 3.67339C2.89563 4.42964 2.32229 5.32562 1.91758 6.36135C1.51287 7.39708 1.31051 8.52324 1.31051 9.73981C1.31051 11.1701 1.59718 12.4196 2.17052 13.4882C2.74386 14.5403 3.55328 15.3541 4.59878 15.9295C5.66115 16.5049 6.92586 16.7926 8.39294 16.7926C9.48903 16.7926 10.4839 16.6858 11.3777 16.4721C12.2883 16.2419 13.123 15.8966 13.8818 15.4363L14.4889 16.3981C13.73 16.8091 12.8869 17.1543 11.9594 17.4338C11.032 17.7133 9.84315 17.853 8.39294 17.853C6.62233 17.853 5.12153 17.5242 3.89054 16.8666C2.67641 16.1926 1.74895 15.2473 1.10816 14.0307C0.467369 12.7977 0.146974 11.3674 0.146974 9.73981Z" fill="#003C7E"/>
<path d="M17.853 8.01359C17.853 7.02718 17.676 6.06543 17.3218 5.12834C16.9846 4.19125 16.4703 3.35281 15.7789 2.613C15.1887 1.95135 14.4693 1.40957 13.621 0.987032L13.2495 0.812801C12.379 0.424479 11.3793 0.205625 10.2507 0.157061L9.75883 0.146974C8.34235 0.146974 7.0439 0.393577 5.8635 0.886782L5.43372 1.07493C4.44904 1.53522 3.58055 2.14665 2.82818 2.90892L2.51441 3.24207C1.80427 4.03688 1.24308 4.94539 0.829922 5.96679L0.670029 6.40922C0.321585 7.45006 0.147035 8.5606 0.146974 9.73981L0.161383 10.3415C0.231519 11.7221 0.547667 12.952 1.10816 14.0307C1.74895 15.2473 2.67641 16.1926 3.89054 16.8666C4.96777 17.4421 6.25163 17.7653 7.74207 17.8372L8.39294 17.853C9.66173 17.853 10.7308 17.7457 11.5994 17.5317L11.9594 17.4338C12.8869 17.1543 13.73 16.8091 14.4889 16.3981L13.8818 15.4363C13.123 15.8966 12.2883 16.2419 11.3777 16.4721L11.0375 16.5476C10.2335 16.7111 9.3517 16.7926 8.39294 16.7926L8.39337 16.6455C9.47915 16.6455 10.4615 16.5388 11.3415 16.3285L11.6744 16.2392C12.4428 16.016 13.153 15.7056 13.8055 15.3098L13.9294 15.2349L14.0072 15.3573L14.6974 16.4524L14.5591 16.5274C13.9827 16.8396 13.3593 17.115 12.6888 17.3516L12.0014 17.5749C11.0553 17.86 9.85114 18 8.39337 18C6.60506 18 5.07862 17.6687 3.82133 16.9971L3.81844 16.9957C2.73434 16.3937 1.87301 15.5785 1.23631 14.5519L0.976945 14.0994C0.323503 12.8421 0 11.3864 0 9.73919C6.91586e-05 8.37443 0.230726 7.09894 0.693084 5.91354L0.881844 5.47406C1.34438 4.46998 1.95853 3.58036 2.72334 2.80548L3.05764 2.48271C3.85635 1.75147 4.77325 1.17436 5.80692 0.75072L6.26225 0.574928C7.33826 0.191125 8.50463 0 9.75937 0C11.1064 5.93544e-05 12.2901 0.22406 13.3069 0.677233C14.3362 1.12881 15.1992 1.74106 15.889 2.51441C16.593 3.26812 17.1172 4.12237 17.4611 5.07781C17.821 6.03068 17.9999 7.00915 18 8.01297C18 9.07781 17.8551 10.001 17.5605 10.7781C17.2678 11.5334 16.8778 12.1621 16.389 12.6556L16.3876 12.6542C15.9213 13.1255 15.419 13.4835 14.8775 13.7219L14.8732 13.7233C14.3363 13.9428 13.8201 14.0547 13.3256 14.0548C12.7929 14.0548 12.3299 13.9158 11.9467 13.6311L11.9438 13.6282C11.5655 13.3296 11.297 12.9349 11.1369 12.4496L11.134 12.4438C11.0939 12.3021 11.0647 12.1547 11.0432 12.0029C10.7731 12.3872 10.4639 12.719 10.1095 12.9928L9.86599 13.1671C9.21702 13.5947 8.48782 13.8084 7.68444 13.8084C7.03623 13.8083 6.43761 13.6547 5.89193 13.3458L5.88905 13.3429C5.34235 13.0162 4.90251 12.5528 4.57061 11.9568C4.2365 11.3396 4.07211 10.6147 4.07205 9.78963C4.07205 8.61909 4.31211 7.63574 4.80259 6.85014C5.28628 6.05907 5.89429 5.45707 6.6268 5.04899L6.89914 4.90634C7.53648 4.59566 8.17806 4.43807 8.82277 4.43804C9.54148 4.43804 10.1497 4.63489 10.6354 5.03746L10.8084 5.18588C11.1532 5.50226 11.4286 5.89354 11.6354 6.35735L11.889 4.78386L11.9092 4.65994H13.4769L12.4078 10.5303V10.5346C12.3929 10.6071 12.3764 10.7194 12.3602 10.8746V11.2435C12.3602 11.4601 12.3833 11.6862 12.4308 11.9207L12.4856 12.0778C12.5499 12.228 12.6427 12.3569 12.7651 12.4654L12.8934 12.5533C13.0362 12.6306 13.2272 12.6743 13.4769 12.6744L13.4771 12.8223L13.2277 12.8069C13.0715 12.7864 12.9367 12.7447 12.8228 12.683L12.6677 12.5757C12.4822 12.4113 12.3557 12.2058 12.2883 11.9592C12.263 11.8358 12.2446 11.7144 12.232 11.5951L12.2124 11.2441V10.8742L12.263 10.5043L13.3 4.80776H12.0353L11.6931 6.92939C11.6828 6.89723 11.6737 6.86474 11.6628 6.83285L11.58 6.60796C11.3735 6.07569 11.0834 5.6374 10.7089 5.29395L10.543 5.153C10.1445 4.82209 9.65562 4.63642 9.07637 4.5951L8.82294 4.58582C8.1147 4.58582 7.40646 4.7831 6.69821 5.17766L6.43804 5.33429C5.84432 5.72078 5.34068 6.25271 4.92761 6.92854C4.45545 7.68479 4.21937 8.63832 4.21937 9.78913L4.22622 10.0865C4.26128 10.7677 4.41973 11.3675 4.69996 11.8852C5.02035 12.4607 5.44193 12.9045 5.96468 13.2169C6.42191 13.4757 6.91782 13.6217 7.45245 13.6542L7.68469 13.6608C8.36328 13.6608 8.98367 13.5033 9.54611 13.1888L9.78413 13.0443C10.3361 12.6761 10.7928 12.1791 11.1571 11.5548C11.1648 11.8575 11.2021 12.1403 11.2765 12.4031C11.4283 12.8634 11.6812 13.2333 12.0353 13.5128C12.3452 13.7428 12.7137 13.8719 13.1398 13.9006L13.3253 13.9074C13.6794 13.9074 14.0483 13.8479 14.4308 13.7277L14.8177 13.5868C15.3405 13.3566 15.8295 13.0114 16.2848 12.5511C16.6977 12.1339 17.0402 11.6155 17.3112 10.9971L17.423 10.7262C17.6739 10.0644 17.8145 9.28903 17.8458 8.40058L17.853 8.01359ZM16.5418 8.01297C16.5417 7.15951 16.3936 6.33889 16.0965 5.55043L16.0951 5.54755C15.8152 4.76111 15.3868 4.05476 14.8098 3.42795L14.8069 3.42507C14.2496 2.78619 13.5425 2.28066 12.6844 1.91066C11.8467 1.54232 10.8726 1.35453 9.75937 1.35447C8.51241 1.35447 7.37675 1.57348 6.35158 2.00865L6.35014 2.01009C5.3396 2.43004 4.47079 3.01783 3.74352 3.77522C3.10697 4.42401 2.59601 5.17971 2.21182 6.04035L2.05475 6.41499C1.65741 7.43188 1.45828 8.53951 1.45821 9.73919C1.45821 11.1494 1.74128 12.3743 2.30115 13.4179C2.86104 14.4453 3.64941 15.238 4.67003 15.7997C5.70665 16.3612 6.94562 16.6455 8.39337 16.6455L8.39294 16.7926L7.85158 16.7795C6.78957 16.7255 5.8417 16.5086 5.0072 16.1311L4.59878 15.9295C3.68397 15.426 2.94957 14.7403 2.39625 13.8718L2.17052 13.4882C1.6689 12.5532 1.38695 11.4798 1.32421 10.268L1.31051 9.73981C1.31057 8.67541 1.46535 7.67956 1.77522 6.7536L1.91758 6.36135C2.27167 5.45516 2.75517 4.65622 3.36743 3.96398L3.6376 3.67339C4.2869 2.9972 5.04615 2.45358 5.91499 2.04179L6.2935 1.87319C7.339 1.42931 8.49411 1.20737 9.75883 1.20737L10.1758 1.21614C11.135 1.25746 11.991 1.44365 12.7436 1.77455C13.6204 2.15267 14.3455 2.67054 14.9189 3.32815C15.5091 3.96931 15.9475 4.69268 16.2342 5.49825C16.5377 6.30381 16.6895 7.14226 16.6895 8.01359L16.6801 8.41787C16.6395 9.34027 16.4576 10.118 16.133 10.7509L15.9914 11.0072C15.6519 11.5864 15.2605 12.027 14.8177 12.3291L14.6369 12.4452C14.2181 12.6971 13.8313 12.8223 13.4771 12.8223L13.4769 12.6744C13.7504 12.6744 14.0541 12.5914 14.389 12.415L14.7349 12.2061C15.2151 11.8781 15.6387 11.374 16.0014 10.683L16.1268 10.4135C16.4012 9.76217 16.5418 8.96339 16.5418 8.01297ZM11.1282 8.5072C11.1282 8.00217 11.0234 7.55703 10.817 7.17003L10.8141 7.16427C10.6225 6.75955 10.353 6.44407 10.0058 6.21326L10.0029 6.21182C9.67672 5.98468 9.2858 5.86743 8.82277 5.86743C8.31324 5.86747 7.80823 6.01519 7.30548 6.31556C6.82582 6.61215 6.42017 7.05015 6.09366 7.63833L6.0951 7.63977C5.7892 8.20485 5.6312 8.90263 5.63112 9.73919C5.63112 10.5491 5.84279 11.1851 6.25072 11.6614L6.41499 11.8228C6.81693 12.1752 7.32922 12.3544 7.96254 12.3545L7.96293 12.5018L7.68588 12.4899C7.14509 12.4437 6.68988 12.2589 6.31988 11.9352L6.14174 11.7619C5.75808 11.3159 5.54213 10.7439 5.49424 10.0461L5.48408 9.73981C5.48408 8.88492 5.64428 8.16155 5.96468 7.56971C6.30194 6.96142 6.72351 6.5011 7.2294 6.18873C7.75215 5.87637 8.28333 5.72019 8.82294 5.72019L9.00288 5.72622C9.41613 5.75316 9.77774 5.87427 10.0877 6.09009C10.4586 6.33669 10.7453 6.67372 10.9477 7.10116C11.1669 7.51217 11.2765 7.98071 11.2765 8.5068L11.268 8.82709C11.2311 9.55888 11.0657 10.1837 10.7706 10.7016L10.6455 10.9164C10.345 11.4036 9.97366 11.7846 9.53118 12.0579L9.34006 12.1614C8.89381 12.3879 8.43499 12.5018 7.96293 12.5018L7.96254 12.3545C8.47235 12.3545 8.9684 12.2146 9.45245 11.9323C9.93362 11.6352 10.3314 11.2033 10.6412 10.6311L10.6427 10.6282L10.755 10.4107C11.0021 9.88613 11.1282 9.25339 11.1282 8.5072Z" fill="#003C7E"/>
</svg>
