<svg width="139" height="154" viewBox="0 0 139 154" fill="none" xmlns="http://www.w3.org/2000/svg">
<path fill-rule="evenodd" clip-rule="evenodd" d="M78.0601 141.32C81.166 134.482 81.3879 126.846 81.3879 119.324C81.3879 116.247 81.6097 113.511 80.6114 111.574C77.7273 111.232 74.7323 113.511 72.7356 114.651C71.2936 115.449 70.1843 115.677 70.0734 117.386C69.6297 123.655 70.8499 123.199 68.9642 132.316C68.5205 134.596 67.1893 138.698 65.6364 139.496C63.196 139.952 52.769 124.566 69.4079 105.648C76.0634 98.0117 84.161 96.0742 92.9241 92.8831C113.335 85.4752 128.642 71.913 135.742 51.0567C137.184 46.9539 139.846 34.9872 138.737 29.9726C136.407 28.9469 130.195 28.491 127.2 28.491C115.775 28.491 105.792 30.8844 96.141 36.6967C87.156 42.2812 76.1743 51.5126 70.9608 61.086C70.4062 62.1117 70.5171 62.6815 69.7406 62.9095C69.2969 62.4536 67.8549 59.8323 67.1893 58.8066C66.0801 57.211 65.5255 56.4133 64.3053 54.9317C54.3219 41.7113 39.1251 32.9358 23.2627 29.5167C18.6038 28.491 3.51789 27.6932 0.0791874 30.5424C-0.475442 39.6599 1.96493 48.3215 4.849 55.1596C13.2794 74.6482 29.5855 86.5009 48.9975 91.8574C49.9958 92.1993 53.9892 93.1111 55.0984 92.9971C56.0968 91.5155 56.5405 87.4126 56.4295 85.1333C56.3186 83.4238 55.9858 83.0818 54.4329 82.512C53.3236 82.0561 52.2143 81.6003 50.8832 81.3723C50.7723 80.9165 49.774 80.8025 48.221 80.2326C45.4479 79.093 40.4562 76.8136 38.0158 75.332C30.251 70.6593 22.3753 62.9095 18.1601 54.7037C16.6071 51.7406 12.1701 43.1929 13.1684 39.6599C17.9383 38.9761 28.4762 42.5091 32.0258 44.3326C42.5638 49.8031 51.216 55.9574 57.8716 66.4425C63.5288 75.446 62.3086 75.446 64.749 83.7657C66.8566 83.9936 68.4095 83.1958 70.2953 82.7399C76.1743 81.2584 73.8449 82.2841 76.618 75.5599C80.0567 67.3542 84.9375 61.5418 90.5947 55.9574C95.1427 51.3987 100.578 47.9796 106.235 44.9025C111.005 42.3952 122.43 38.7482 127.2 39.6599C127.422 42.5091 124.316 50.259 123.207 52.4244C117.55 63.7072 109.23 71.0012 98.1377 77.4974C91.0384 81.7142 82.1643 83.8796 74.9542 87.5266C67.1893 91.5155 61.643 95.7323 56.6514 102.684C49.6631 112.258 45.5588 131.974 52.6581 142.231C55.653 146.562 60.9775 152.033 66.0801 153.856C69.9625 155.338 76.3962 144.967 78.0601 141.32Z" fill="url(#paint0_linear_67_1257)" fill-opacity="0.2"/>
<path fill-rule="evenodd" clip-rule="evenodd" d="M56.7623 22.7926C55.4312 15.2707 61.4212 8.7745 67.3003 8.20465C74.9542 7.40688 80.8332 12.3075 81.8316 19.1456C82.9408 26.8955 77.5055 33.1637 71.2936 33.7336C63.6397 34.3034 57.9825 29.2888 56.7623 22.7926ZM90.151 23.5904C91.3712 17.2082 88.8199 11.1678 85.714 7.40688C83.6064 4.89957 82.9408 4.32973 80.0567 2.62021C78.5038 1.70846 74.6214 0.22687 72.4029 0.112902C49.4412 -1.82456 41.8982 21.6529 52.6581 33.7336C55.9858 37.4945 59.5355 40.2298 65.9692 41.1415C72.8466 42.1672 78.2819 39.7739 82.3862 36.8107C86.4904 33.9615 89.0417 29.2888 90.151 23.5904Z" fill="url(#paint1_linear_67_1257)" fill-opacity="0.2"/>
<defs>
<linearGradient id="paint0_linear_67_1257" x1="0" y1="77" x2="139" y2="77" gradientUnits="userSpaceOnUse">
<stop stop-color="#4D6FAC"/>
<stop offset="1" stop-color="#B1C0D0"/>
</linearGradient>
<linearGradient id="paint1_linear_67_1257" x1="0" y1="77" x2="139" y2="77" gradientUnits="userSpaceOnUse">
<stop stop-color="#4D6FAC"/>
<stop offset="1" stop-color="#B1C0D0"/>
</linearGradient>
</defs>
</svg>
